<svg width="74" height="67" viewBox="0 0 74 67" fill="none" xmlns="http://www.w3.org/2000/svg">
<g id="icon-Employees">
<path id="Vector" d="M73.9802 65.8254C73.5755 66.1543 73.2286 66.6271 72.6312 66.3393C71.9953 66.0309 71.976 65.4759 71.976 64.8591C71.976 63.0294 71.9567 61.2203 71.9953 59.3906C72.0145 58.2188 71.5328 57.4375 70.627 56.8825C69.4323 56.1424 68.1026 55.9162 66.7729 55.7106C63.9208 55.2584 61.1072 55.4434 58.3322 56.2863C57.7349 56.4713 57.1567 56.7386 56.6557 57.1497C56.0005 57.6637 55.6343 58.3421 55.6343 59.2467C55.6536 61.1175 55.6343 62.9883 55.6343 64.8797C55.6343 65.9076 55.3067 66.4421 54.6515 66.4421C53.9963 66.4627 53.6302 65.9076 53.6302 64.9002C53.6302 63.0705 53.6494 61.2614 53.6302 59.4317C53.5916 57.4375 54.4395 55.9985 56.039 55.0322C57.3302 54.251 58.7755 53.9221 60.2208 53.6548C60.5484 53.5931 60.876 53.552 61.2807 53.4698C59.3921 51.8046 58.6213 49.6665 58.6984 47.1995C58.7562 45.1848 59.3921 43.4373 61.1843 42.4916C63.0343 41.5048 64.9807 41.5048 66.7729 42.6972C68.7578 44.0129 69.1046 46.1716 68.8927 48.4535C68.7 50.4271 67.9291 52.1335 66.3682 53.4698C67.4474 53.6959 68.4687 53.9015 69.4708 54.1482C70.6463 54.4566 71.7255 54.9911 72.6505 55.8751C73.3057 56.5124 73.6333 57.3348 73.9994 58.1571C73.9802 60.6858 73.9802 63.2556 73.9802 65.8254ZM66.9078 48.0013C66.9078 44.8353 65.3661 43.5195 62.8802 44.0541C61.9359 44.2596 61.2229 44.7942 60.9338 45.781C60.3364 47.8162 60.6447 49.687 61.9937 51.2906C63.0536 52.5241 64.4989 52.5035 65.5974 51.27C66.5416 50.2216 66.9078 48.9058 66.9078 48.0013Z" fill="white"/>
<path id="Vector_2" d="M0 57.9723C0.404687 57.3761 0.578125 56.6565 1.07917 56.122C2.04271 55.0736 3.21823 54.5185 4.50938 54.1279C5.51146 53.84 6.53281 53.655 7.65052 53.4906C6.16667 52.2159 5.37656 50.5918 5.12604 48.6799C4.97188 47.6109 5.01042 46.5418 5.31875 45.4728C6.0125 43.0263 7.97813 41.6695 10.5411 41.834C13.1042 42.019 14.8193 43.5814 15.1854 46.1307C15.6094 48.9883 14.8771 51.4553 12.7573 53.47C13.6052 53.6345 14.4531 53.7989 15.2625 53.984C16.4958 54.2718 17.6714 54.7035 18.6734 55.5464C19.7911 56.4715 20.3693 57.6845 20.3693 59.2058C20.3693 61.1588 20.3693 63.1119 20.3693 65.0649C20.3693 65.9489 19.9646 66.4629 19.3479 66.4629C18.7313 66.4629 18.3651 65.9489 18.3651 65.0444C18.3651 63.1735 18.3266 61.3027 18.3844 59.4114C18.4036 58.2807 17.9411 57.4994 17.074 56.9444C15.8214 56.1426 14.4146 55.9164 13.0078 55.7109C10.2328 55.2997 7.49635 55.4642 4.77917 56.2865C4.18177 56.4715 3.60365 56.7388 3.08333 57.1088C2.38958 57.6228 2.00417 58.3012 2.02344 59.2469C2.04271 61.1177 2.02344 62.9885 2.04271 64.8799C2.04271 65.4966 2.02344 66.0723 1.3875 66.3601C0.770833 66.6479 0.423958 66.1751 0.0192708 65.8461C0 63.2147 0 60.5832 0 57.9723ZM13.2969 47.8781C13.2969 44.8355 11.7359 43.5197 9.28854 44.0543C8.34427 44.2598 7.61198 44.7944 7.34219 45.7606C6.76406 47.7753 7.03385 49.6667 8.40208 51.2703C9.46198 52.5038 10.9266 52.4832 12.0057 51.2703C12.9307 50.2218 13.2583 48.906 13.2969 47.8781Z" fill="white"/>
<path id="Vector_3" d="M0 16.6704C0.481771 15.7042 0.944271 14.7379 1.81146 14.0801C2.96771 13.2166 4.25885 12.8055 5.60781 12.5176C6.24375 12.3737 6.87969 12.2709 7.55417 12.1682C7.32292 11.9215 7.09167 11.6748 6.89896 11.4281C5.06823 9.16663 4.56719 6.57628 5.45365 3.75978C6.18594 1.43669 8.44063 0.223743 10.9266 0.552677C14.588 1.06664 15.5708 4.27374 15.2432 7.15191C15.012 9.12552 14.2604 10.8319 12.7188 12.127C13.8172 12.3737 14.8578 12.5588 15.8792 12.826C17.0547 13.1344 18.1531 13.6689 19.0396 14.5735C19.8297 15.3753 20.2536 16.3415 20.3307 17.4928C20.3885 18.2329 20.0031 18.7674 19.425 18.8291C18.8276 18.8907 18.4036 18.459 18.3458 17.6778C18.2688 16.7115 17.7677 16.0742 17.0161 15.6014C15.7635 14.7996 14.3568 14.5735 12.95 14.3679C10.3484 13.9773 7.76615 14.1006 5.2224 14.7996C4.66354 14.9435 4.12396 15.1491 3.60365 15.4164C2.52448 15.992 1.92708 16.8349 1.9849 18.2123C2.04271 19.9598 2.00417 21.7072 2.00417 23.4547C2.00417 24.0509 2.02344 24.6471 1.42604 24.976C0.809375 25.3255 0.423958 24.8527 0 24.5032C0 21.9128 0 19.2813 0 16.6704ZM13.2969 6.59684C13.2969 4.12983 12.5068 2.99912 10.8688 2.67019C9.21146 2.36181 7.7276 3.0608 7.30365 4.49988C6.74479 6.43237 7.03385 8.26206 8.26719 9.8245C9.3849 11.2225 11.0036 11.1814 12.1214 9.78338C12.95 8.75547 13.2776 7.52196 13.2969 6.59684Z" fill="white"/>
<path id="Vector_4" d="M73.9805 24.5237C73.9227 24.5443 73.8648 24.5648 73.8263 24.6059C73.4987 25.0171 73.1325 25.2227 72.6122 24.9966C72.1112 24.7704 71.957 24.3593 71.957 23.8247C71.957 21.8922 71.9378 19.9803 71.9763 18.0478C71.9956 16.9171 71.5331 16.1359 70.6659 15.5808C69.4325 14.7996 68.045 14.5735 66.6768 14.3679C64.0367 13.9567 61.3966 14.1006 58.7951 14.7996C58.0435 15.0052 57.3305 15.2725 56.6945 15.7659C56.0779 16.2387 55.6924 16.8349 55.6346 17.6778C55.5768 18.3973 55.1721 18.829 54.594 18.8085C53.9966 18.7879 53.5919 18.2534 53.6305 17.5339C53.7268 15.8275 54.5747 14.6146 55.9237 13.7717C57.1956 12.9494 58.6409 12.6204 60.0862 12.3532C60.4523 12.2915 60.8185 12.2298 61.2617 12.1476C59.1805 10.2357 58.3904 7.85088 58.7565 5.0755C59.1805 1.8684 61.5315 0.0798191 64.5378 0.532103C67.6789 1.0255 69.394 3.69809 68.8544 7.27525C68.5654 9.18717 67.8331 10.8318 66.3299 12.127C67.1971 12.312 68.0258 12.456 68.8352 12.641C71.1669 13.1549 73.1325 14.224 73.9805 16.8143C73.9805 19.3841 73.9805 21.9539 73.9805 24.5237ZM66.9081 6.63794C66.9273 4.10926 66.1372 2.97855 64.4414 2.67017C62.8227 2.38236 61.4544 3.06078 60.9534 4.39708C60.2789 6.14454 60.7992 8.73489 62.0518 10.0301C63.1117 11.1197 64.4607 11.1402 65.5206 10.0301C66.5227 9.00215 66.8695 7.68641 66.9081 6.63794Z" fill="white"/>
<path id="Vector_5" d="M34.4564 53.4699C32.4522 51.6608 31.7199 49.4199 31.9126 46.809C32.1439 43.4991 34.4757 41.4638 37.5783 41.8339C40.5652 42.2039 42.2418 44.3831 42.1262 47.7136C42.0298 50.0778 41.3553 51.6402 39.6017 53.4288C40.623 53.6549 41.6251 53.8605 42.6079 54.0867C43.5137 54.2922 44.3616 54.6623 45.1132 55.2174C46.4428 56.1631 47.1944 57.4582 47.1751 59.2057C47.1559 61.1587 47.1751 63.1118 47.1751 65.0648C47.1751 65.9283 46.809 66.4011 46.2116 66.4217C45.5757 66.4422 45.1902 65.9283 45.1902 65.0443C45.1902 63.2557 45.1324 61.4466 45.2095 59.658C45.2673 58.1161 44.5736 57.191 43.3402 56.6153C41.8178 55.9164 40.1991 55.6902 38.5611 55.5463C36.2293 55.3407 33.8975 55.5669 31.6428 56.2658C31.084 56.4303 30.5637 56.677 30.0626 57.006C29.234 57.5405 28.8293 58.3217 28.8293 59.3702C28.8486 61.3232 28.8293 63.2763 28.8293 65.2293C28.8293 65.7227 28.6944 66.1339 28.2319 66.36C27.8658 66.545 27.5382 66.4628 27.2105 66.2161C26.9022 65.99 26.8251 65.6405 26.8251 65.2704C26.8251 63.1735 26.8059 61.0559 26.8444 58.959C26.8637 57.191 27.7694 55.978 29.1376 55.1146C30.448 54.2717 31.8934 53.9633 33.3772 53.6961C33.6855 53.5933 34.0132 53.5521 34.4564 53.4699ZM40.122 47.4874C40.122 44.8971 38.5611 43.5402 36.1522 44.0542C35.0923 44.2803 34.3408 44.8765 34.0517 46.0072C33.5892 47.878 33.8783 49.6255 35.0345 51.1263C36.1522 52.5653 37.8095 52.5448 38.9465 51.1057C39.7751 50.0778 40.0642 48.8237 40.122 47.4874Z" fill="#F64701"/>
<path id="Vector_6" d="M34.4563 12.1476C32.4714 10.3385 31.7198 8.1182 31.9125 5.50729C32.1438 2.13572 34.5526 0.0798816 37.7131 0.532166C40.6422 0.963891 42.2802 3.14308 42.1261 6.47353C42.0297 8.7144 41.2589 10.6469 39.5438 12.1476C40.9698 12.4149 42.3381 12.5999 43.6099 13.1139C45.1901 13.7512 46.5006 14.7174 47.0209 16.5677C47.1365 16.9994 47.175 17.4311 47.1558 17.8629C47.1172 18.4385 46.7703 18.7469 46.2693 18.8086C45.749 18.8702 45.2865 18.5824 45.2479 18.0479C45.1131 15.9509 43.687 15.2931 42.1261 14.8613C38.7151 13.9157 35.2657 13.9157 31.8547 14.8613C31.2573 15.0258 30.6792 15.2725 30.1396 15.622C29.3881 16.0948 28.9256 16.7527 28.8292 17.6984C28.7521 18.4796 28.3089 18.8908 27.7308 18.8086C27.1334 18.7263 26.825 18.2535 26.8636 17.4517C26.9407 15.9098 27.6922 14.7997 28.8485 13.9773C30.4479 12.8261 32.3172 12.5177 34.1672 12.2093C34.1865 12.1888 34.2636 12.1888 34.4563 12.1476ZM36.9808 2.64968C35.4198 2.64968 34.3985 3.30754 34.0516 4.70551C33.5891 6.55577 33.8782 8.28267 34.9959 9.76287C36.1328 11.2636 37.8479 11.2431 38.9849 9.7012C39.9099 8.48825 40.2183 7.04917 40.0448 5.52785C39.8521 3.5748 38.85 2.64968 36.9808 2.64968Z" fill="#F64701"/>
<path id="Vector_7" d="M52.9172 32.8705C54.1506 33.0966 55.2683 33.2611 56.3474 33.59C57.3302 33.8984 58.236 34.3301 59.0261 35.0291C60.0089 35.9131 60.587 37.0438 60.5677 38.4418C60.5677 39.038 60.2787 39.408 59.7198 39.4903C59.1224 39.5725 58.6792 39.2641 58.6407 38.6474C58.525 36.941 57.4651 36.2009 56.1355 35.7692C52.3584 34.5563 48.562 34.5357 44.7657 35.7486C44.3802 35.872 43.9948 36.057 43.648 36.2626C42.8193 36.7354 42.299 37.455 42.2219 38.5035C42.1834 39.1819 41.7401 39.5519 41.162 39.4903C40.6032 39.4491 40.2177 38.9969 40.237 38.339C40.2756 37.1672 40.6803 36.1393 41.4704 35.3169C42.3183 34.4329 43.3589 33.9189 44.4766 33.5695C45.5558 33.2405 46.6735 33.0349 47.8683 32.8499C45.7485 30.8558 45.0162 28.4299 45.3823 25.5928C45.6907 23.1669 47.4058 21.4606 49.6605 21.2344C54.3818 20.7616 56.2704 24.606 55.2875 28.9644C54.9214 30.5268 54.1506 31.8014 52.9172 32.8705ZM53.4954 27.3197C53.5532 24.1948 51.7224 22.7352 49.2172 23.537C48.3886 23.8042 47.7719 24.3593 47.5214 25.2433C46.9625 27.1964 47.2516 29.0055 48.5042 30.5679C49.6412 32.007 51.2792 31.9453 52.3969 30.4651C53.1678 29.4578 53.4954 28.286 53.4954 27.3197Z" fill="white"/>
<path id="Vector_8" d="M26.2656 32.9116C27.364 33.0966 28.4818 33.2611 29.5609 33.6105C30.6594 33.96 31.6614 34.474 32.5094 35.3374C33.2802 36.1392 33.7042 37.126 33.7812 38.2773C33.8198 38.9763 33.4536 39.4902 32.8948 39.5314C32.2974 39.593 31.8734 39.223 31.8156 38.4829C31.7 37.0643 30.8135 36.3448 29.7151 35.9336C27.287 35.0085 24.7432 34.7413 22.1802 34.9263C20.889 35.0085 19.5979 35.2552 18.3453 35.6253C17.8635 35.7692 17.3818 35.9542 16.9385 36.2215C16.0906 36.7149 15.4932 37.3727 15.4354 38.4829C15.3969 39.2024 14.9344 39.593 14.337 39.5108C13.701 39.4286 13.4505 38.9763 13.4698 38.3184C13.5083 36.756 14.2213 35.5841 15.3969 34.7207C16.8807 33.6105 18.6151 33.3022 20.3495 32.9938C20.5614 32.9527 20.7927 32.9938 21.0239 32.8088C19.9062 31.822 19.1547 30.5679 18.7693 29.0877C18.4417 27.7925 18.4031 26.4973 18.6729 25.2022C19.1354 22.9408 20.7734 21.4605 22.9318 21.2755C25.8224 21.0494 27.8844 22.324 28.4818 24.8938C29.1755 27.8131 28.5781 30.424 26.4776 32.5621C26.362 32.6443 26.2271 32.706 26.2656 32.9116ZM20.4651 26.8468C20.4458 28.3682 20.9469 29.8072 21.7755 30.7118C22.8547 31.8836 24.2422 31.9042 25.3406 30.7324C26.5739 29.4372 27.075 26.8674 26.439 25.1611C26.1693 24.4621 25.726 23.9481 25.0901 23.6603C22.6427 22.5296 20.4844 24.0303 20.4651 26.8468Z" fill="white"/>
</g>
</svg>
