<svg width="74" height="68" viewBox="0 0 74 68" fill="none" xmlns="http://www.w3.org/2000/svg">
<path d="M33.4822 33.6818C31.4197 34.0118 29.3764 34.4194 27.2946 34.6329C19.7578 35.4288 12.4715 34.4 5.39724 31.76C3.95155 31.2165 2.56369 30.5759 1.13728 30.0129C0.65538 29.8188 0.289138 29.5082 0.0192759 29.0618C0.0192759 28.8094 0.0192759 28.5765 0.0192759 28.3241C1.34931 26.5188 2.66007 24.6941 4.00938 22.8888C4.27924 22.5394 4.3178 22.2482 4.16359 21.8406C3.66242 20.5206 3.21907 19.2006 2.75645 17.8806C1.81193 15.4153 0.905966 12.9306 0 10.4265C0 10.1353 0 9.84411 0 9.55293C0.867414 8.65999 1.09872 8.62117 2.3131 9.1647C9.25242 12.3288 16.5001 14.0176 24.1334 13.7653C28.2006 13.6294 32.1522 12.8141 36.0652 11.8241C37.0868 11.5718 37.8771 12.1929 37.7422 13.1635C37.6651 13.7459 37.2988 14.0565 36.7591 14.1923C25.7526 17.3176 14.9002 16.9294 4.22142 12.6782C4.02866 12.6006 3.81662 12.5229 3.62386 12.4453C3.58531 12.4259 3.54676 12.4647 3.4311 12.4841C4.00938 14.0953 4.56838 15.7065 5.14666 17.3176C5.68638 18.8123 6.18755 20.3265 6.76583 21.8212C7.03569 22.5394 6.93931 23.1023 6.47669 23.7041C5.35869 25.16 4.29852 26.6353 3.18052 28.1494C5.08883 29.0229 6.99714 29.7218 8.944 30.3041C13.8786 31.8182 18.9289 32.5559 24.1141 32.3618C27.5838 32.2453 30.9956 31.6435 34.3689 30.8476C34.7737 30.7506 34.8701 30.4982 35.005 30.1682C38.706 20.5788 42.4069 10.97 46.1079 1.38058C46.5898 0.118811 47.1873 -0.0947181 48.3824 0.487635C52.2183 2.38999 53.9339 6.73822 52.3533 10.8147C48.6716 20.4235 44.9513 30.0129 41.2504 39.6024C38.8602 45.7947 36.4892 52.0065 34.0797 58.1794C32.0365 63.4012 28.2006 66.4488 22.6877 67.0894C16.2496 67.8271 10.1584 63.5177 8.36573 57.2282C6.18755 49.58 11.3342 41.4465 19.1217 40.1847C21.9745 39.7188 24.6538 40.2041 27.2946 41.2912C30.1475 42.4559 33.0196 43.5429 35.8724 44.6882C36.3543 44.8824 36.5856 44.9018 36.8169 44.3194C41.1925 32.9053 45.6067 21.5106 49.9823 10.1159C50.9461 7.63117 50.445 5.26293 48.6908 3.65175C48.0933 3.08881 48.074 3.08881 47.7849 3.84587C43.3707 15.26 38.9565 26.6741 34.5424 38.1076C34.5231 38.1853 34.5038 38.2435 34.4653 38.3212C34.099 39.2141 33.4629 39.5829 32.7497 39.2724C32.0365 38.9812 31.8245 38.3406 32.1522 37.4476C32.5184 36.4576 32.9232 35.4676 33.2894 34.4776C33.3858 34.2253 33.4436 33.9729 33.5207 33.7206C33.54 33.7012 33.5978 33.6429 33.5978 33.6429C33.5786 33.5847 33.5207 33.6041 33.4822 33.6818ZM10.3897 53.5982C10.3897 54.2 10.4282 54.8018 10.5246 55.4035C11.3149 60.3924 15.093 64.0418 20.2589 64.6435C24.5189 65.1288 29.3572 63.0712 31.4389 58.1406C32.8846 54.7241 34.1376 51.2106 35.4869 47.7553C35.6218 47.4059 35.564 47.2506 35.217 47.1147C31.7474 45.7947 28.3355 44.2806 24.808 43.1159C17.7145 40.7282 10.409 46.0665 10.3897 53.5982Z" fill="white"/>
<path d="M73.9993 30.9447C73.3439 31.8376 73.074 31.9153 71.9753 31.6241C65.595 29.9547 59.1183 29.2753 52.526 29.7606C52.3139 29.78 52.0826 29.78 51.8706 29.78C51.0803 29.78 50.5406 29.3141 50.502 28.5959C50.4635 27.8971 50.9839 27.3729 51.7742 27.2953C53.7018 27.1206 55.6294 27.1012 57.557 27.1206C61.7398 27.1788 65.8456 27.6835 69.9321 28.557C70.067 28.5765 70.2019 28.5959 70.4525 28.6153C70.0477 27.7806 69.6815 27.0235 69.3153 26.2859C68.1973 24.0147 67.0793 21.7435 65.9613 19.4529C65.4986 18.5212 65.5565 18.23 66.2311 17.4341C67.619 15.8618 69.0068 14.27 70.4525 12.62C69.2189 12.2512 68.0238 12.057 66.8479 11.8435C63.8024 11.3194 60.7568 11.0088 57.6534 10.9506C56.8052 10.9312 56.2462 10.4265 56.2462 9.70822C56.2462 8.97058 56.8245 8.46587 57.7112 8.48528C62.8578 8.54352 67.9081 9.3394 72.8813 10.64C73.421 10.7759 73.7294 11.1253 73.9607 11.5523C73.9607 11.8047 73.9607 12.0376 73.9607 12.29C73.5945 12.7365 73.2283 13.1829 72.862 13.61C71.4742 15.2018 70.067 16.8129 68.6599 18.3853C68.4093 18.657 68.39 18.8512 68.5635 19.2006C70.3754 22.85 72.1681 26.5188 73.98 30.1876C73.9993 30.4594 73.9993 30.7118 73.9993 30.9447Z" fill="#F64701"/>
<path d="M53.4989 39.9323C60.496 39.9905 66.2595 45.2899 66.9342 52.3364C67.6088 59.3634 62.5007 65.944 55.5421 66.9728C49.2968 67.9046 43.4176 64.5464 41.0081 58.6646C40.4106 57.2087 39.8708 55.7528 39.2926 54.2775C38.9456 53.3458 39.1576 52.6858 39.8901 52.3946C40.6226 52.1034 41.2202 52.4528 41.5864 53.3846C42.184 54.9376 42.7622 56.5099 43.4176 58.0434C45.2874 62.4111 49.8558 65.0899 54.4627 64.5852C59.4937 64.0417 63.3489 60.5864 64.2741 55.7334C65.0644 51.5211 63.7922 47.9493 60.6117 45.154C57.4697 42.417 53.8459 41.7181 49.8943 43.077C48.0438 43.7175 46.2126 44.494 44.3814 45.1928C43.4176 45.5617 42.5887 45.0375 42.5695 44.1058C42.5695 43.6011 42.7815 43.174 43.2441 42.9993C45.9427 42.0093 48.5064 40.6311 51.3785 40.1458C52.0918 40.0293 52.805 40.0099 53.4989 39.9323Z" fill="white"/>
<path d="M53.6449 60.8193C50.0981 60.8387 47.4573 59.0723 46.4743 56.4323C46.2815 55.9276 46.2815 55.4423 46.667 55.0152C47.014 54.627 47.4573 54.5493 47.92 54.6852C48.4211 54.8017 48.6139 55.2287 48.8259 55.6558C49.8861 57.8882 52.2763 58.917 54.5701 58.1017C56.8832 57.2864 58.1362 54.7629 57.423 52.414C56.6712 49.9681 54.2039 48.5899 51.7944 49.2887C50.6379 49.6187 49.9632 49.4052 49.7319 48.6481C49.4813 47.8134 49.9632 47.1729 51.1583 46.8817C54.0111 46.1829 56.4784 46.9205 58.3868 49.1723C60.2951 51.424 60.6613 53.9864 59.4469 56.704C58.194 59.4023 55.9965 60.7223 53.6449 60.8193Z" fill="#F64701"/>
<path d="M26.5621 3.24411C24.596 4.3894 23.6514 7.08764 24.3454 9.41705C24.3839 9.55293 24.4418 9.68882 24.4803 9.8247C24.6731 10.5429 24.3839 11.2029 23.7478 11.4165C23.0732 11.6494 22.3792 11.3388 22.1479 10.5818C21.1456 7.59235 21.6467 4.85528 23.6707 2.42881C24.4418 1.49705 25.4055 0.837049 26.5043 0.351755C27.4102 -0.0364805 28.0656 0.196461 28.4126 1.10881C29.3378 3.47705 30.2438 5.82587 31.1498 8.19411C31.4582 9.0094 31.2076 9.6694 30.5329 9.96058C29.8197 10.2518 29.1836 9.94117 28.8559 9.06764C28.0849 7.16529 27.3331 5.2047 26.5621 3.24411Z" fill="white"/>
<path d="M33.4824 33.6813C33.521 33.6042 33.5788 33.6042 33.6366 33.6621C33.6366 33.6621 33.5788 33.7199 33.5595 33.7392C33.521 33.7199 33.5017 33.7006 33.4824 33.6813Z" fill="#FDFDFD"/>
<path d="M21.8011 60.9359C16.5002 60.9165 13.0113 55.8888 14.7268 51.327C14.9581 50.7059 15.3436 50.3176 15.999 50.3565C16.6159 50.3759 17.0014 50.7641 17.1556 51.3853C17.2327 51.6959 17.117 51.9676 17.0206 52.2394C16.1918 54.9959 17.7146 57.7717 20.3554 58.3347C23.1889 58.9365 25.6755 57.17 26.0803 54.2582C26.3502 52.3365 25.2322 50.3759 23.3624 49.4829C23.0154 49.3082 22.6492 49.1723 22.4757 48.7841C22.2444 48.2794 22.283 47.7747 22.6685 47.367C23.1118 46.9012 23.6323 46.8817 24.1913 47.1535C26.9477 48.4347 28.4705 50.6088 28.5283 53.637C28.5862 56.6265 27.1598 58.8588 24.4997 60.237C23.5552 60.7029 22.495 60.9165 21.8011 60.9359Z" fill="#F64701"/>
</svg>
