<svg width="64" height="75" viewBox="0 0 64 75" fill="none" xmlns="http://www.w3.org/2000/svg">
<path d="M25.722 0.5C32.0319 0.5 38.3217 0.5 44.6316 0.5C48.7109 0.5 51.3635 3.14717 51.3635 7.2182C51.3635 15.4806 51.3635 23.743 51.3434 32.0254C51.3434 32.6872 51.4841 32.9479 52.1673 33.1083C58.3768 34.6325 62.8982 39.6059 63.8427 45.903C64.747 51.9995 61.6925 58.2364 56.2266 61.405C54.9405 62.147 54.9606 62.147 55.2419 63.5709C55.7644 66.0375 56.2668 68.5042 56.7892 70.991C57.0103 72.0739 56.7892 73.0566 55.9051 73.7585C54.9606 74.5205 53.8955 74.6007 52.7903 74.1194C51.5444 73.578 50.3186 73.0365 49.0928 72.4549C48.5904 72.2143 48.1885 72.1942 47.6861 72.4549C46.5005 73.0566 45.2747 73.578 44.089 74.1595C43.0039 74.681 41.979 74.6208 41.0546 73.8587C40.1504 73.1368 39.869 72.1541 40.1303 71.0311C40.2508 70.4896 40.6126 69.7275 40.3915 69.4668C40.07 69.0858 39.3064 69.3465 38.7437 69.3465C28.0329 69.3465 17.302 69.3465 6.59125 69.3465C3.4162 69.3465 0.944478 67.5015 0.200953 64.5736C0.0401905 63.972 0 63.3503 0 62.7085C0 44.2184 0 25.7283 0 7.23825C0 3.16723 2.67267 0.5 6.73192 0.5C13.0619 0.5 19.3919 0.5 25.722 0.5ZM2.83343 35.3143C2.83343 44.4992 2.83343 53.7041 2.83343 62.889C2.83343 65.0348 4.22001 66.4988 6.30992 66.4988C17.7843 66.4988 29.2587 66.4988 40.7331 66.5189C41.135 66.5189 41.3159 66.4186 41.3963 66.0175C41.6374 64.9145 41.8786 63.8115 42.18 62.7286C42.3006 62.2874 42.1599 62.147 41.7982 61.9665C35.649 58.9183 32.5945 53.3632 33.2577 46.4846C34.0012 38.884 39.869 33.2287 47.465 32.7875C48.088 32.7474 48.2287 32.5869 48.2287 31.9652C48.2086 24.7657 48.2086 17.5863 48.2086 10.3868C48.2086 9.10331 48.2287 7.81983 48.1885 6.55641C48.1282 5.1125 47.1033 3.84907 45.6967 3.5282C45.2345 3.42793 44.7522 3.42793 44.2699 3.42793C31.7706 3.42793 19.2714 3.42793 6.77211 3.42793C6.55106 3.42793 6.30992 3.42793 6.08887 3.44799C4.70229 3.54826 3.73772 4.27021 3.23534 5.53364C2.9741 6.19543 2.81334 6.89733 2.81334 7.63934C2.83343 16.8844 2.83343 26.1094 2.83343 35.3143ZM48.5502 60.6028C55.3223 60.5828 60.8686 54.9676 60.8485 48.129C60.8284 41.2905 55.262 35.6953 48.4899 35.7154C41.6776 35.7355 36.071 41.4108 36.0911 48.2092C36.1112 55.0879 41.6776 60.6229 48.5502 60.6028ZM53.7147 71.3921C53.1319 68.6647 52.5692 66.0777 52.0267 63.4906C51.9664 63.2299 51.8659 63.1497 51.5645 63.1898C49.6152 63.4706 47.666 63.5508 45.7368 63.1898C45.2144 63.0896 45.0737 63.27 44.9531 63.7514C44.4507 65.9974 43.9082 68.2235 43.4058 70.4696C43.3656 70.6901 43.0441 70.9308 43.3053 71.1313C43.5465 71.3118 43.8278 71.1113 44.0689 70.991C45.1943 70.4896 46.3196 70.0083 47.4048 69.4668C48.0679 69.1259 48.6909 69.166 49.3339 69.4668C50.7406 70.1086 52.1472 70.7102 53.7147 71.3921Z" fill="white"/>
<path d="M24.3956 20.033C29.2587 20.033 34.1218 20.033 39.0049 20.033C40.1503 20.033 40.7532 20.6346 40.6527 21.6774C40.5924 22.3793 40.2106 22.8406 39.4872 22.9408C39.1858 22.9809 38.8843 23.001 38.5829 23.001C29.0979 23.001 19.613 23.001 10.128 23.001C9.92704 23.001 9.72609 23.001 9.52514 22.9809C8.58066 22.9007 7.9979 22.2991 8.03809 21.4368C8.05818 20.5544 8.62085 20.033 9.62561 20.033C14.549 20.033 19.4723 20.033 24.3956 20.033Z" fill="#F64701"/>
<path d="M24.3756 29.3582C29.2387 29.3582 34.1017 29.3582 38.9849 29.3582C40.07 29.3582 40.6327 29.8395 40.6729 30.7419C40.7131 31.6042 40.2509 32.1658 39.3868 32.2861C39.1054 32.3262 38.8442 32.3061 38.5629 32.3061C29.098 32.3061 19.6532 32.3061 10.1883 32.3061C9.9271 32.3061 9.68596 32.3061 9.44481 32.2861C8.56062 32.1858 8.03814 31.5441 8.07833 30.7018C8.13862 29.8595 8.6611 29.3582 9.56538 29.3582C12.5194 29.3381 15.4935 29.3582 18.4475 29.3582C20.3967 29.3582 22.3862 29.3582 24.3756 29.3582Z" fill="#F64701"/>
<path d="M24.2948 10.868C29.1779 10.868 34.0812 10.868 38.9643 10.868C39.9088 10.868 40.4514 11.229 40.6121 11.971C40.8332 12.9336 40.2504 13.7158 39.2457 13.796C39.0246 13.816 38.8036 13.816 38.5624 13.816C29.0774 13.816 19.5925 13.816 10.1075 13.816C8.66064 13.816 7.97741 13.3147 7.9975 12.2718C8.0176 11.2691 8.62045 10.868 10.1075 10.868C14.8701 10.868 19.5925 10.868 24.2948 10.868Z" fill="#F64701"/>
<path d="M57.4119 48.149C57.4119 53.0423 53.413 57.0331 48.5097 57.0331C43.6667 57.0331 39.6276 53.0223 39.6075 48.1892C39.5874 43.316 43.6065 39.285 48.4896 39.285C53.413 39.285 57.4119 43.2357 57.4119 48.149ZM48.369 54.0651C51.6245 54.0651 54.3172 51.3978 54.3172 48.1691C54.3172 44.9203 51.6446 42.2531 48.3891 42.2531C45.1136 42.2531 42.461 44.9002 42.461 48.149C42.461 51.4179 45.1136 54.0651 48.369 54.0651Z" fill="#F64701"/>
</svg>
