<svg width="74" height="75" viewBox="0 0 74 75" fill="none" xmlns="http://www.w3.org/2000/svg">
<path d="M0.0390625 61.818C0.559104 60.7576 0.905798 59.6007 1.5414 58.5788C3.14005 56.0338 5.04687 54.4142 8.28268 53.0259C6.16399 51.1364 5.20095 48.8034 5.70174 46.0077C6.02917 44.2146 6.93443 42.7492 8.39825 41.6309C11.3644 39.3558 15.544 39.7221 18.0864 42.4407C20.3592 44.8701 21.1682 49.5747 17.3545 53.0259C17.9709 53.3152 18.5679 53.5851 19.1458 53.8936C20.5133 54.6455 21.7075 55.5903 22.709 56.7857C22.9016 57.0171 23.0364 57.1906 23.2868 56.8243C25.4633 53.9129 28.3139 51.9077 31.8579 50.7315C28.9303 48.5142 27.4857 45.6414 27.8131 42.0358C28.0443 39.4908 29.2384 37.4277 31.1838 35.7888C35.0167 32.5882 40.8142 33.1474 44.1078 37.0614C47.3436 40.8983 47.0932 47.126 42.2395 50.693C42.4513 50.905 42.7595 50.9243 43.0099 51.0207C46.0724 52.1969 48.634 54.0478 50.6179 56.6507C50.9261 57.0749 51.0802 57.0942 51.4269 56.6893C52.8329 55.0312 54.6049 53.855 56.7428 53.0452C54.6627 51.1943 53.7189 48.9384 54.1234 46.2198C54.4123 44.3303 55.3561 42.7878 56.8584 41.6309C59.786 39.3558 63.9849 39.7221 66.5273 42.46C68.7808 44.8701 69.6283 49.4975 65.7761 53.0645C67.1051 53.6044 68.3378 54.2599 69.4357 55.1661C71.6122 56.9592 73.153 59.1765 73.8849 61.9144C73.8849 61.953 73.962 61.9723 74.0005 61.9916C74.0005 62.5121 74.0005 63.052 74.0005 63.5726C73.962 63.6111 73.8849 63.669 73.8657 63.7268C73.0375 65.8092 71.8818 66.5997 69.6476 66.5997C66.354 66.5997 63.0604 66.5997 59.786 66.5997C58.0718 66.5997 56.3769 66.619 54.6627 66.5804C54.2197 66.5804 54.0849 66.6961 54.1041 67.1395C54.1426 67.7372 54.1234 68.335 54.0848 68.9327C53.95 71.15 52.8136 72.7117 50.8298 73.6372C50.3868 73.8493 49.9053 73.9457 49.443 74.0999C41.0645 74.0999 32.6861 74.0999 24.3269 74.0999C24.1728 73.8686 23.9032 73.9071 23.6913 73.83C21.7652 73.1359 20.5325 71.7862 20.0703 69.8003C19.8777 68.9905 19.9162 68.1614 19.974 67.3516C20.0125 66.7346 19.8584 66.5611 19.2036 66.5611C14.215 66.5997 9.2072 66.5804 4.21865 66.5804C2.27331 66.5804 0.963581 65.6742 0.250931 63.8425C0.21241 63.7461 0.23167 63.5919 0.0775841 63.5533C0.0390625 62.9749 0.0390625 62.3965 0.0390625 61.818ZM36.962 71.7862C40.8334 71.7862 44.7048 71.7862 48.5763 71.7862C50.1942 71.7862 51.6002 70.6679 51.6965 69.164C51.8121 67.583 51.8891 65.9827 51.6002 64.4209C50.4638 58.2703 45.7642 53.6044 39.5429 52.4668C33.5914 51.3678 27.4279 54.2021 24.2306 59.4658C22.5549 62.2229 22.0541 65.2115 22.189 68.3928C22.2853 70.533 23.4794 71.8055 25.5981 71.8055C29.4118 71.8055 33.1869 71.7862 36.962 71.7862ZM37.039 36.0395C33.2254 36.0202 30.0859 39.0859 30.0666 42.9035C30.0281 46.7597 33.1291 49.9217 36.962 49.941C40.7564 49.9603 43.9151 46.8368 43.9344 43.0577C43.9729 39.1823 40.9105 36.0588 37.039 36.0395ZM62.2322 64.2667C64.8131 64.2667 67.3748 64.286 69.9557 64.2667C71.1884 64.2667 71.9396 63.3219 71.5736 62.2036C70.2061 58.1161 67.4133 55.5325 63.1759 54.7805C58.8615 54.0093 55.279 55.4746 52.544 58.9259C52.3321 59.1958 52.3129 59.4079 52.4669 59.6971C53.1218 60.9697 53.5648 62.3193 53.8152 63.7075C53.9115 64.2281 54.1234 64.286 54.5664 64.286C57.1281 64.2474 59.6705 64.2667 62.2322 64.2667ZM11.7881 64.2667C14.3306 64.2667 16.8923 64.2474 19.4347 64.286C19.8969 64.286 20.0895 64.2088 20.1859 63.7075C20.417 62.3579 20.8407 61.0468 21.4763 59.8321C21.7075 59.3693 21.6111 59.0994 21.3415 58.7524C18.5872 55.4168 15.0625 54.0285 10.8251 54.7805C6.78034 55.4939 4.02605 57.9426 2.56223 61.7987C1.9844 63.3219 2.65853 64.2667 4.27644 64.2667C6.78034 64.2667 9.28424 64.2667 11.7881 64.2667ZM17.6819 47.3574C17.6819 44.6388 15.5247 42.4407 12.809 42.4407C10.1125 42.4407 7.89747 44.6388 7.87821 47.3381C7.87821 50.0181 10.0932 52.2547 12.7897 52.274C15.467 52.274 17.6627 50.0567 17.6819 47.3574ZM56.3384 47.3188C56.3191 50.0374 58.5148 52.2547 61.2113 52.274C63.8886 52.2933 66.1421 50.076 66.1614 47.3766C66.1806 44.6966 63.9656 42.46 61.2691 42.4407C58.5341 42.4407 56.3384 44.6002 56.3384 47.3188Z" fill="white"/>
<path d="M73.962 18.4554C73.6731 18.9374 73.3071 19.323 72.8641 19.6508C71.5544 20.6727 70.2832 21.7331 68.9734 22.755C68.6653 23.0057 68.5882 23.1985 68.7038 23.6034C69.2046 25.3194 69.6476 27.0354 70.0906 28.7514C70.3409 29.6961 70.1676 30.2938 69.5512 30.7566C68.9542 31.2 68.2415 31.1807 67.4711 30.6794C66.0073 29.7154 64.5242 28.7706 63.0796 27.7873C62.7137 27.5367 62.444 27.5174 62.0588 27.7873C60.6142 28.7706 59.1312 29.7154 57.6673 30.6794C56.8777 31.2 56.1843 31.2193 55.5872 30.7951C54.9708 30.3517 54.7782 29.7154 55.0286 28.8092C55.4716 27.1125 55.9339 25.4158 56.4154 23.7383C56.5502 23.2756 56.4539 23.0057 56.0687 22.7164C54.7397 21.6174 53.3914 20.5184 52.0432 19.4387C51.2728 18.8024 51.0416 18.1854 51.3113 17.4335C51.6195 16.6237 52.2551 16.3537 53.064 16.3152C54.8167 16.2381 56.5695 16.1417 58.3222 16.0838C58.7459 16.0645 58.9386 15.9103 59.0926 15.5054C59.709 13.828 60.3446 12.1891 60.9609 10.5116C61.2306 9.75969 61.7314 9.29695 62.5403 9.23911C63.2915 9.20054 63.8501 9.62472 64.1775 10.4924C64.8131 12.1505 65.4487 13.8087 66.065 15.4668C66.2191 15.8717 66.4117 16.026 66.8355 16.0453C68.5112 16.1031 70.2061 16.2188 71.8818 16.2573C72.8641 16.2766 73.5768 16.6237 73.962 17.5492C73.962 17.8769 73.962 18.1662 73.962 18.4554ZM67.317 27.7102C67.3363 27.768 67.3363 27.8451 67.4133 27.7873C67.4326 27.768 67.394 27.6909 67.394 27.6331C67.0473 26.2834 66.7199 24.9337 66.3154 23.6034C66.0265 22.6393 66.2962 21.9452 67.0859 21.3282C68.203 20.4799 69.2816 19.5737 70.5143 18.5711C68.8964 18.4746 67.4711 18.3782 66.0458 18.3397C65.0635 18.3204 64.4857 17.8577 64.1775 16.9515C63.696 15.6018 63.1759 14.2714 62.6174 12.8253C62.4825 13.1531 62.3862 13.3652 62.2899 13.5773C61.8662 14.6956 61.4039 15.8139 61.0187 16.9515C60.7105 17.8577 60.1327 18.3204 59.1504 18.3397C57.8792 18.3782 56.608 18.4554 55.3368 18.5325C55.1634 18.5518 54.9708 18.4746 54.8167 18.6867C55.799 19.4773 56.7043 20.3063 57.7059 21.0004C58.9193 21.8102 59.2082 22.7936 58.7267 24.1625C58.3029 25.3194 58.0718 26.5341 57.7059 27.903C59.0349 27.0354 60.229 26.3027 61.3654 25.5122C62.2129 24.9145 62.9641 24.9145 63.8115 25.4929C64.9672 26.2448 66.0843 27.0739 67.317 27.7102Z" fill="white"/>
<path d="M0.0385216 17.4335C0.539302 16.5466 1.34826 16.2959 2.33056 16.2767C3.94846 16.2574 5.54711 16.1224 7.16501 16.0646C7.58875 16.0453 7.80062 15.9103 7.93545 15.4861C8.53253 13.8087 9.1874 12.1698 9.823 10.5117C10.1504 9.64403 10.709 9.20057 11.4602 9.23913C12.2691 9.2777 12.7699 9.74044 13.0396 10.4924C13.6559 12.1505 14.3108 13.8087 14.9079 15.4861C15.0427 15.8718 15.2353 16.0453 15.659 16.0646C17.431 16.1224 19.2223 16.1995 20.9943 16.3152C22.3233 16.3923 23.0552 17.3564 22.7085 18.4747C22.5736 18.8796 22.2847 19.1688 21.9573 19.4194C20.6283 20.4799 19.3186 21.5789 17.9511 22.6201C17.5273 22.9478 17.4118 23.2178 17.5658 23.7576C18.0666 25.4351 18.5096 27.1318 18.9526 28.8285C19.1837 29.6769 18.9719 30.3324 18.3748 30.7566C17.7777 31.1808 17.0843 31.1615 16.3524 30.6987C14.8886 29.7347 13.4055 28.8092 11.961 27.8066C11.518 27.4981 11.2483 27.5367 10.8246 27.8259C9.41853 28.7899 7.97397 29.7154 6.54867 30.6409C5.70119 31.1808 5.02707 31.2193 4.41072 30.7566C3.77512 30.2938 3.62103 29.6769 3.89068 28.6935C4.35294 26.9968 4.77668 25.3001 5.2582 23.6227C5.37376 23.2178 5.29672 23.025 4.98855 22.7743C3.65955 21.7331 2.36908 20.6534 1.04008 19.6122C0.616345 19.2845 0.269651 18.9181 0 18.4554C0.0385216 18.1083 0.0385216 17.7806 0.0385216 17.4335ZM6.70276 27.7295C7.99323 27.0354 9.16814 26.1485 10.4008 25.3772C11.075 24.9338 11.7491 24.9145 12.4232 25.3579C13.2129 25.8785 13.9833 26.3798 14.773 26.9004C15.2353 27.2089 15.6975 27.4981 16.3139 27.903C15.8902 26.3413 15.5627 24.9916 15.1775 23.6612C14.8886 22.6779 15.1197 21.9452 15.9479 21.3282C17.0651 20.4799 18.1437 19.5737 19.3571 18.5904C17.8548 18.5132 16.5065 18.3783 15.1582 18.3783C13.9256 18.3975 13.2707 17.8384 12.8855 16.7008C12.481 15.4283 11.9417 14.1943 11.4216 12.8061C10.8631 14.31 10.343 15.6404 9.84227 16.9708C9.51483 17.8577 8.95627 18.3204 7.97397 18.3397C6.54867 18.3783 5.12337 18.4747 3.50546 18.5711C4.77668 19.593 5.91306 20.5184 7.04945 21.4246C7.72358 21.9645 7.97397 22.6008 7.72358 23.4491C7.3191 24.8374 6.99167 26.2256 6.62571 27.6331C6.60645 27.6909 6.58719 27.7681 6.60645 27.7873C6.66423 27.8452 6.6835 27.7873 6.70276 27.7295Z" fill="white"/>
<path d="M37.4429 0.0999756C38.0208 0.504874 38.2134 1.04474 38.1749 1.75813C38.1171 2.93426 38.1749 4.1104 38.1556 5.28653C38.1556 6.13489 37.7126 6.63619 36.9999 6.63619C36.2873 6.63619 35.8443 6.13489 35.8443 5.28653C35.8443 4.1104 35.8828 2.93426 35.825 1.75813C35.7865 1.04474 35.9791 0.504874 36.557 0.0999756C36.8651 0.0999756 37.154 0.0999756 37.4429 0.0999756Z" fill="#F64701"/>
<path d="M42.913 31.065C42.5663 31.0843 42.2196 30.8722 41.8729 30.6601C40.4091 29.696 38.9452 28.7513 37.4814 27.768C37.1347 27.5366 36.8843 27.5173 36.5184 27.768C35.0738 28.7513 33.5908 29.696 32.1269 30.6601C31.2987 31.1999 30.6053 31.2385 29.989 30.7565C29.3149 30.2359 29.2185 29.5611 29.4497 28.7513C29.9312 27.0738 30.3549 25.3578 30.8365 23.6804C30.9713 23.2177 30.8557 22.9863 30.509 22.7164C29.1222 21.6366 27.774 20.5183 26.4065 19.4193C25.7901 18.9373 25.4434 18.3589 25.6746 17.5491C25.9057 16.7586 26.445 16.373 27.4273 16.3344C29.18 16.238 30.9328 16.1609 32.6855 16.103C33.1285 16.0837 33.3596 15.9295 33.5137 15.5053C34.1108 13.8279 34.7464 12.189 35.382 10.5309C35.7094 9.70177 36.2295 9.29688 36.9614 9.29688C37.6933 9.29688 38.2519 9.70177 38.56 10.5116C39.1956 12.1504 39.8312 13.77 40.4091 15.4282C40.5824 15.8909 40.7943 16.1223 41.3143 16.1223C42.99 16.1609 44.685 16.2573 46.3607 16.3344C46.8229 16.3537 47.2659 16.3922 47.6704 16.6814C48.5756 17.337 48.5949 18.571 47.6704 19.3422C46.2836 20.4991 44.8776 21.6366 43.4523 22.7356C43.0671 23.0441 42.99 23.2948 43.1248 23.7575C43.6256 25.4928 44.0879 27.2281 44.5309 28.9634C44.8776 30.0817 44.1264 31.0843 42.913 31.065ZM44.9354 18.571C43.3367 18.4939 41.9307 18.3782 40.5246 18.3396C39.4846 18.3203 38.8875 17.8576 38.56 16.8935C38.0978 15.5632 37.5777 14.2713 36.9999 12.806C36.4413 14.2906 35.902 15.6017 35.4398 16.9321C35.1124 17.8769 34.5345 18.3203 33.5137 18.3589C32.0884 18.3974 30.6631 18.4939 29.0837 18.5903C30.2586 19.535 31.2409 20.4027 32.3195 21.1739C33.3404 21.9066 33.5907 22.7549 33.2055 23.9118C32.8011 25.165 32.5121 26.4376 32.1077 27.9029C33.1863 27.1895 34.1878 26.6689 35.016 25.9748C36.3836 24.8373 37.6163 24.818 39.003 25.9748C39.8312 26.6689 40.8135 27.1895 41.9114 27.9029C41.4877 26.3026 41.141 24.9144 40.7365 23.5262C40.4861 22.6585 40.698 21.9837 41.4106 21.4245C42.5278 20.5376 43.6449 19.6121 44.9354 18.571Z" fill="#F64701"/>
<path d="M49.5971 7.3882C49.6164 7.71598 49.4238 8.00519 49.1349 8.25584C47.6133 9.62478 46.1109 10.9937 44.5893 12.3434C44.0115 12.8447 43.2988 12.8254 42.8558 12.3048C42.4321 11.8228 42.4899 11.1287 43.0292 10.6467C44.5508 9.25844 46.0917 7.87022 47.6325 6.50128C48.0177 6.15422 48.4607 6.03854 48.9615 6.26991C49.3852 6.50128 49.5971 6.84834 49.5971 7.3882Z" fill="#F64701"/>
<path d="M25.6941 6.15417C25.9059 6.15417 26.1563 6.30842 26.3875 6.52051C27.9091 7.88945 29.4307 9.23912 30.933 10.6273C31.5108 11.1479 31.5493 11.8613 31.0871 12.3433C30.6441 12.8254 29.97 12.8446 29.4114 12.3626C27.8705 10.9937 26.3489 9.60545 24.8081 8.21723C24.3843 7.83161 24.2688 7.36887 24.4614 6.84829C24.6732 6.40483 25.0585 6.15417 25.6941 6.15417Z" fill="#F64701"/>
<path d="M67.3935 27.6331C67.4127 27.6908 67.432 27.7679 67.4127 27.7871C67.3357 27.8257 67.3164 27.7679 67.3164 27.7101C67.3357 27.6908 67.3742 27.6716 67.3935 27.6331Z" fill="#FBFBFB"/>
<path d="M6.70299 27.7294C6.68373 27.7872 6.66447 27.845 6.58742 27.8064C6.56816 27.7872 6.60668 27.7101 6.60668 27.6523C6.64521 27.6716 6.66447 27.6909 6.70299 27.7294Z" fill="#FBFBFB"/>
</svg>
