<svg width="48" height="48" viewBox="0 0 48 48" fill="none" xmlns="http://www.w3.org/2000/svg">
<path d="M20.797 47.9867C15.301 47.9867 9.79155 47.9867 4.29548 47.9867C1.69418 47.9867 0.01334 46.3062 0 43.7188C0 36.7035 0 29.6882 0 22.673C0 20.0722 1.68084 18.3918 4.28214 18.3918C4.84241 18.3918 5.41603 18.3651 5.97631 18.4051C6.33649 18.4318 6.40319 18.2984 6.40319 17.965C6.40319 12.3768 6.40319 6.80189 6.40319 1.21367C6.40319 0.200056 6.60329 0 7.63047 0C16.4349 0 25.2393 0 34.0303 0C34.9774 0 35.2042 0.213393 35.2042 1.17366C35.2042 1.76049 35.2176 2.33398 35.2042 2.92081C35.2042 3.14754 35.2709 3.20089 35.4844 3.20089C36.1113 3.18755 36.7517 3.18755 37.3786 3.20089C38.1257 3.20089 38.4058 3.46763 38.4058 4.22784C38.4058 7.98889 38.4192 11.7633 38.3925 15.5243C38.3925 15.9111 38.4859 16.0178 38.8727 16.0044C40.2734 15.9778 41.6741 15.9911 43.0748 15.9911C45.6361 16.0044 47.5837 17.6849 47.9706 20.2189C48.0373 20.6191 47.9839 21.0058 47.8772 21.4059C45.8095 28.888 43.7418 36.3701 41.6875 43.8522C41.5807 44.239 41.5541 44.6391 41.4473 45.0258C40.9671 46.813 39.4197 48 37.5387 48C31.9626 48 26.3865 47.9867 20.797 47.9867ZM20.8237 46.3862C26.3198 46.3862 31.8159 46.3862 37.3253 46.3862C39.0595 46.3862 40.0066 45.4259 40.0066 43.7055C40.0066 38.0372 40.0066 32.3823 40.0066 26.7141C40.0066 24.9403 39.0595 23.9933 37.2986 23.9933C30.8554 23.9933 24.3988 23.9933 17.9556 24.0067C17.462 24.0067 17.1152 23.86 16.7684 23.5132C15.7145 22.4329 14.6206 21.3659 13.5668 20.2856C13.3667 20.0856 13.1666 19.9922 12.8731 19.9922C10.005 20.0056 7.13689 19.9922 4.2688 20.0056C2.57462 20.0056 1.6008 20.9658 1.6008 22.6596C1.6008 29.6882 1.6008 36.7169 1.6008 43.7455C1.6008 45.4393 2.57462 46.3996 4.2688 46.3996C9.80489 46.3862 15.3143 46.3862 20.8237 46.3862ZM20.8237 1.60044C16.715 1.60044 12.5929 1.60044 8.48423 1.60044C8.16407 1.60044 8.00399 1.61378 8.00399 2.04057C8.01733 7.34871 8.01733 12.6702 8.00399 17.9783C8.00399 18.3251 8.07069 18.4184 8.43087 18.4184C10.085 18.3918 11.7258 18.4184 13.38 18.4051C13.7802 18.4051 14.0737 18.5251 14.3538 18.8186C15.4344 19.9122 16.5282 20.9792 17.5954 22.0728C17.8356 22.3129 18.0623 22.4196 18.4092 22.4196C23.305 22.4062 28.2007 22.4062 33.1098 22.4196C33.5234 22.4196 33.6301 22.3262 33.6301 21.9128C33.6168 15.3109 33.6168 8.72242 33.6301 2.12059C33.6301 1.65379 33.4834 1.60044 33.0832 1.60044C28.9878 1.60044 24.9058 1.60044 20.8237 1.60044ZM41.6208 37.7171C41.6474 37.7305 41.6741 37.7305 41.6875 37.7438C41.7275 37.6505 41.7675 37.5704 41.7808 37.4771C43.3016 31.9555 44.8223 26.434 46.3431 20.9125C46.3831 20.7524 46.4098 20.5924 46.3831 20.419C46.2097 18.8719 44.889 17.6182 43.3149 17.5916C41.7808 17.5649 40.2467 17.5916 38.7126 17.5782C38.4458 17.5782 38.3791 17.6582 38.3791 17.9116C38.3925 19.3254 38.3925 20.7391 38.3791 22.1528C38.3791 22.3662 38.4325 22.4596 38.6459 22.5263C40.6203 23.2064 41.5807 24.5668 41.5807 26.6607C41.6208 30.3551 41.6208 34.0361 41.6208 37.7171ZM35.2176 13.5904C35.2176 16.1512 35.2176 18.7252 35.2176 21.2859C35.2176 22.3929 35.2176 22.3662 36.3114 22.3929C36.725 22.4062 36.8184 22.2995 36.8184 21.8861C36.805 16.5646 36.805 11.2565 36.805 5.93498C36.805 4.77466 36.805 4.80133 35.6578 4.77466C35.2843 4.76132 35.1909 4.86802 35.2042 5.24146C35.2176 8.0289 35.2176 10.8163 35.2176 13.5904Z" fill="white"/>
<path d="M20.8102 26.394C21.7974 26.394 22.7712 26.394 23.7584 26.394C24.5454 26.394 24.8122 26.6474 24.8122 27.4342C24.8122 28.5145 24.8389 29.5948 24.7989 30.6885C24.7856 31.1553 24.9323 31.222 25.3458 31.2086C26.4264 31.182 27.5069 31.1953 28.6008 31.1953C29.3345 31.1953 29.6146 31.462 29.6146 32.1822C29.6146 34.1961 29.6146 36.21 29.6146 38.2239C29.6146 38.9041 29.3212 39.1975 28.6408 39.1975C27.4936 39.1975 26.3463 39.2108 25.1858 39.1842C24.8789 39.1842 24.7989 39.2642 24.7989 39.5709C24.8256 40.7179 24.8122 41.8649 24.8122 43.0252C24.8122 43.7054 24.5188 43.9988 23.8384 43.9988C21.8241 43.9988 19.8097 43.9988 17.7954 43.9988C17.0884 43.9988 16.8216 43.7188 16.8083 42.9852C16.8083 41.9049 16.7949 40.8246 16.8216 39.731C16.8349 39.3175 16.7682 39.1575 16.3013 39.1842C15.2208 39.2242 14.1403 39.1975 13.0464 39.1975C12.286 39.1975 12.0059 38.9308 12.0059 38.1839C12.0059 36.1833 12.0059 34.1828 12.0059 32.1822C12.0059 31.462 12.286 31.1953 13.0064 31.1953C14.1536 31.1953 15.3008 31.182 16.4614 31.1953C16.7416 31.1953 16.8216 31.1153 16.8216 30.8352C16.8083 29.6882 16.8083 28.5412 16.8216 27.3809C16.8216 26.6607 17.1017 26.3806 17.8088 26.3806C18.8093 26.394 19.8097 26.394 20.8102 26.394ZM20.8503 27.9944C20.1833 27.9944 19.5163 28.0211 18.8493 27.9811C18.4491 27.9544 18.3957 28.1011 18.3957 28.4479C18.4224 29.5682 18.4091 30.6751 18.4091 31.7955C18.4091 32.5023 18.1289 32.7824 17.4086 32.7824C16.2613 32.7824 15.1141 32.7957 13.9668 32.7824C13.6867 32.7824 13.6067 32.8624 13.6067 33.1425C13.62 34.5029 13.62 35.8766 13.6067 37.237C13.6067 37.517 13.6734 37.5971 13.9668 37.5971C15.1141 37.5837 16.2613 37.5837 17.4086 37.5971C18.1289 37.5971 18.4091 37.8771 18.4091 38.584C18.4091 39.7177 18.4224 40.8513 18.4091 41.985C18.4091 42.2917 18.4624 42.4117 18.8093 42.4117C20.1432 42.3851 21.4772 42.3851 22.8112 42.4117C23.1848 42.4251 23.2381 42.2917 23.2381 41.9583C23.2114 40.8246 23.2248 39.691 23.2248 38.5573C23.2248 37.8771 23.5183 37.5971 24.1986 37.5971C25.3458 37.5971 26.4931 37.5837 27.6403 37.6104C27.9471 37.6104 28.0272 37.5304 28.0272 37.2236C28.0138 35.8766 28.0138 34.5295 28.0272 33.1825C28.0272 32.8758 27.9605 32.7957 27.6403 32.7957C26.5064 32.8224 25.3725 32.8091 24.2386 32.8091C23.4782 32.8091 23.2114 32.5423 23.2114 31.7955C23.2114 30.7018 23.1981 29.5948 23.2248 28.5012C23.2381 28.1411 23.1714 27.9811 22.7579 28.0077C22.1176 28.0211 21.4772 27.9944 20.8503 27.9944Z" fill="white"/>
<path d="M9.60514 14.4707C9.64516 14.0573 9.55178 13.5504 9.67184 13.057C9.95198 11.9633 10.8458 11.2298 11.9797 11.2031C12.2331 11.2031 12.4732 11.2031 12.7267 11.2031C13.0735 11.2031 13.3537 11.0831 13.5004 10.763C13.6605 10.4429 13.6472 10.1495 13.407 9.84275C12.9935 9.30927 12.7801 8.66909 12.8067 7.97557C12.8201 7.21536 12.7267 6.44181 12.8868 5.6816C13.2336 4.14784 14.6477 3.09421 16.2351 3.20091C17.7692 3.3076 19.0632 4.54795 19.1832 6.09504C19.2366 6.82858 19.2233 7.56212 19.1832 8.29566C19.1566 8.86915 18.9431 9.40263 18.5829 9.85609C18.3428 10.1495 18.3562 10.4296 18.4896 10.7363C18.6363 11.0564 18.9031 11.1898 19.2499 11.2031C19.7168 11.2165 20.1837 11.1631 20.6373 11.2965C21.6111 11.5766 22.3448 12.4301 22.3848 13.4304C22.4249 14.1906 22.3848 14.9642 22.3982 15.7244C22.3982 15.9378 22.3448 15.9911 22.118 16.0045C20.784 16.0712 20.7974 16.0845 20.7974 14.7775C20.7974 14.4307 20.7974 14.0839 20.7974 13.7238C20.784 13.097 20.4906 12.8169 19.8769 12.8036C19.5968 12.8036 19.3033 12.8169 19.0232 12.7902C18.1027 12.6969 17.4224 12.2434 17.0355 11.4032C16.9154 11.1364 16.8087 11.0431 16.5286 11.1364C16.075 11.2832 15.5281 10.9897 15.1679 11.1498C14.8211 11.3098 14.7277 11.9233 14.3408 12.2167C13.9006 12.5768 13.407 12.7769 12.8334 12.7902C12.5666 12.8036 12.2998 12.7902 12.033 12.7902C11.4994 12.8169 11.2059 13.1103 11.1926 13.6438C11.1793 14.324 11.1793 15.0042 11.1926 15.6977C11.1926 15.9378 11.1259 15.9911 10.8858 16.0045C9.5918 16.0578 9.5918 16.0578 9.5918 14.7508C9.60514 14.6708 9.60514 14.6041 9.60514 14.4707ZM17.6091 7.17535C17.6091 6.89527 17.6225 6.61519 17.6091 6.32177C17.5691 5.45487 16.8754 4.78802 16.0217 4.78802C15.1546 4.78802 14.4476 5.4682 14.4209 6.34845C14.4075 6.9086 14.4075 7.4821 14.4209 8.04225C14.4476 8.89582 15.1546 9.57601 16.0083 9.57601C16.8621 9.57601 17.5691 8.9225 17.6091 8.05559C17.6225 7.77551 17.6091 7.4821 17.6091 7.17535Z" fill="white"/>
<path d="M27.9604 7.9888C26.9599 7.9888 25.9594 7.9888 24.9589 7.9888C24.3053 7.9888 24.0118 7.69539 24.0118 7.05521C24.0118 6.06827 23.9984 5.09467 24.0118 4.10772C24.0118 3.49422 24.3186 3.20081 24.9456 3.20081C26.9866 3.20081 29.041 3.20081 31.082 3.20081C31.709 3.20081 32.0024 3.49422 32.0158 4.10772C32.0291 5.108 32.0291 6.10828 32.0158 7.10856C32.0158 7.69539 31.709 7.9888 31.1087 8.00214C30.0548 8.00214 29.0143 7.9888 27.9604 7.9888ZM28.0405 4.80125C27.6403 4.80125 27.2401 4.80125 26.8399 4.80125C25.5726 4.80125 25.5859 4.80125 25.6126 6.08161C25.6126 6.34835 25.6926 6.41503 25.9461 6.41503C27.0266 6.4017 28.1072 6.41503 29.201 6.41503C30.4683 6.41503 30.455 6.41503 30.4283 5.13468C30.4283 4.86794 30.3483 4.80125 30.0948 4.80125C29.4011 4.80125 28.7208 4.80125 28.0405 4.80125Z" fill="white"/>
<path d="M27.9872 11.1902C26.7866 11.1902 25.586 11.1768 24.3854 11.2035C24.0786 11.2035 23.9985 11.1368 23.9985 10.8167C23.9985 9.58939 23.9852 9.58939 25.2258 9.58939C27.3469 9.58939 29.4546 9.60273 31.5757 9.57605C31.9225 9.57605 32.0159 9.65609 32.0159 10.0029C32.0025 11.1768 32.0159 11.1768 30.8286 11.1768C29.8948 11.1902 28.9343 11.1902 27.9872 11.1902Z" fill="white"/>
<path d="M28.0142 14.391C26.8002 14.391 25.5863 14.3777 24.359 14.4043C24.0789 14.4043 23.9988 14.3243 23.9988 14.0442C23.9855 12.7902 23.9722 12.7902 25.2128 12.7902C27.3472 12.7902 29.4816 12.8035 31.616 12.7769C31.9495 12.7769 32.0295 12.8569 32.0295 13.1904C32.0162 14.391 32.0295 14.391 30.8156 14.391C29.8818 14.391 28.948 14.391 28.0142 14.391Z" fill="white"/>
<path d="M28.0139 15.9911C29.2278 15.9911 30.4417 16.0044 31.669 15.9911C31.9492 15.9911 32.0292 16.0711 32.0292 16.3513C32.0425 17.6052 32.0559 17.6052 30.8153 17.6052C28.6809 17.6052 26.5465 17.5919 24.4121 17.6186C24.0919 17.6186 23.9985 17.5385 23.9985 17.205C24.0119 16.0044 23.9985 16.0044 25.2125 16.0044C26.1463 15.9911 27.0801 15.9911 28.0139 15.9911Z" fill="white"/>
<path d="M27.9604 19.1919C29.1877 19.1919 30.4283 19.2053 31.6556 19.1786C31.9491 19.1786 32.0024 19.2586 32.0158 19.5388C32.0291 20.7794 32.0425 20.7794 30.8018 20.7794C28.6674 20.7794 26.533 20.766 24.3986 20.7927C24.0651 20.7927 23.9851 20.6993 23.9984 20.3792C24.0118 19.1786 23.9984 19.1786 25.2124 19.1786C26.1328 19.1919 27.0533 19.1919 27.9604 19.1919Z" fill="white"/>
<path d="M17.6089 7.17533C17.6089 7.46875 17.6223 7.7755 17.6089 8.06891C17.5556 8.92248 16.8486 9.58934 16.0081 9.58934C15.1677 9.58934 14.4607 8.90915 14.4207 8.05558C14.394 7.49542 14.4073 6.92193 14.4207 6.36177C14.4474 5.46819 15.1544 4.788 16.0215 4.80134C16.8619 4.80134 17.5689 5.48153 17.6089 6.3351C17.6223 6.61518 17.6089 6.89526 17.6089 7.17533Z" fill="white"/>
</svg>
