<svg width="48" height="48" viewBox="0 0 48 48" fill="none" xmlns="http://www.w3.org/2000/svg">
<path d="M47.975 4.13642C47.975 13.6964 47.975 23.2564 47.975 32.804C47.7375 33.2039 47.3875 33.2788 46.95 33.2788C32.5625 33.2663 18.1875 33.2663 3.8 33.2663C3.675 33.2663 3.55 33.2663 3.425 33.2663C1.95 33.2288 0.65 32.2666 0.175 30.867C0.125 30.7295 0.15 30.5545 0 30.4546C0 21.2445 0 12.0219 0 2.81177C0.1625 2.72429 0.125 2.54934 0.175 2.41187C0.5375 1.41213 1.2 0.687321 2.1875 0.274928C2.425 0.174954 2.6625 0.099974 2.9 0C4.1125 0 5.3375 0 6.55 0C6.925 0.224941 7.0375 0.549857 7.025 0.974746C7 1.77454 7.025 2.56183 7.0125 3.36162C7 3.66155 7.075 3.74902 7.3875 3.74902C10.7125 3.73653 14.0375 3.73653 17.3625 3.74902C17.5875 3.74902 17.775 3.69904 17.975 3.57407C19.225 2.78677 20.5 2.02447 21.75 1.23718C22.4 0.824785 23.0875 0.474876 23.7 0C23.8875 0 24.075 0 24.2625 0C24.2625 0.112471 24.3625 0.099974 24.4125 0.137464C26.25 1.27467 28.1 2.39938 29.9375 3.54908C30.175 3.69904 30.4 3.74902 30.675 3.74902C36.05 3.74902 41.4375 3.74902 46.8125 3.73653C47.275 3.74902 47.6625 3.79901 47.975 4.13642ZM15.275 5.24863C15.2625 5.22364 15.2625 5.19865 15.25 5.16116C15.1 5.16116 14.95 5.16116 14.8 5.16116C12.375 5.16116 9.9625 5.17365 7.5375 5.14866C7.1125 5.14866 7.0125 5.24863 7.0125 5.67352C7.025 12.6342 7.025 19.5949 7.025 26.5681C7.025 27.4803 6.85 27.6428 5.925 27.6428C5.15 27.6428 4.3625 27.6428 3.5875 27.6428C3.3 27.6428 3.025 27.6803 2.7625 27.7803C1.825 28.1427 1.25 29.1424 1.4375 30.1047C1.6375 31.1669 2.5 31.8542 3.6625 31.8542C17.825 31.8542 31.9875 31.8542 46.1625 31.8667C46.5 31.8667 46.6 31.8042 46.6 31.4418C46.5875 22.8191 46.5875 14.2088 46.6 5.58605C46.6 5.24863 46.5375 5.14866 46.175 5.14866C41.8 5.16116 37.425 5.16116 33.0625 5.16116C32.9625 5.16116 32.8125 5.08618 32.7375 5.24863C33.95 5.99844 35.15 6.74824 36.3625 7.47305C36.7125 7.6855 36.9 7.94793 36.9 8.37282C36.8875 9.51002 36.9 10.6472 36.8875 11.7969C36.875 12.5717 36.3625 12.8467 35.6875 12.4718C35.475 12.3593 35.3125 12.1593 35.0125 12.1343C35.0125 12.3218 35.0125 12.4967 35.0125 12.6717C35.0125 15.221 35.0125 17.7579 35.0125 20.3072C35.0125 20.6571 34.8625 21.107 35.0875 21.3444C35.3 21.5694 35.7375 21.3944 36.075 21.4194C36.6125 21.4444 36.8625 21.6569 36.875 22.1817C36.8875 23.069 36.8875 23.9563 36.875 24.856C36.8625 25.3559 36.625 25.5933 36.125 25.6308C36 25.6433 35.875 25.6308 35.75 25.6308C27.9125 25.6308 20.075 25.6308 12.225 25.6308C12.1125 25.6308 12 25.6308 11.9 25.6308C11.35 25.5933 11.1125 25.3684 11.1 24.806C11.0875 24.1562 11.1 23.4939 11.1 22.8441C11.1 21.4444 11.1125 21.4194 12.5125 21.4319C12.875 21.4319 12.9875 21.3444 12.9875 20.9695C12.975 18.1578 12.975 15.346 12.975 12.5342C12.975 12.4093 13.0125 12.2593 12.9 12.1093C12.6875 12.2343 12.5 12.3593 12.3 12.4718C11.6375 12.8592 11.125 12.5717 11.1 11.7969C11.0875 11.0471 11.0875 10.2973 11.1 9.54751C11.125 7.44806 10.8375 8.01041 12.5875 6.8982C13.475 6.33585 14.375 5.79849 15.275 5.24863ZM23.9375 21.4194C27.0125 21.4194 30.0875 21.4194 33.1625 21.4194C33.475 21.4194 33.6 21.3694 33.6 21.0195C33.5875 17.8454 33.5875 14.6837 33.6 11.5095C33.6 11.2596 33.5125 11.1221 33.3 10.9846C30.3125 9.14762 27.325 7.32309 24.3375 5.47357C24.075 5.31112 23.9 5.31112 23.625 5.47357C20.6625 7.3106 17.6875 9.13512 14.7125 10.9596C14.45 11.1221 14.375 11.2971 14.375 11.597C14.3875 14.7087 14.3875 17.8079 14.375 20.9196C14.375 21.3569 14.5125 21.4194 14.9 21.4194C17.9125 21.4194 20.925 21.4194 23.9375 21.4194ZM1.4 26.9555C2.2625 26.3056 3.2 26.2057 4.1625 26.2432C4.475 26.2557 4.7875 26.2182 5.1 26.2557C5.525 26.3057 5.625 26.1682 5.625 25.7308C5.6125 18.2203 5.6125 10.7097 5.6125 3.19917C5.6125 2.71179 5.6 2.23692 5.6125 1.74954C5.625 1.49961 5.5625 1.39964 5.2875 1.39964C4.7 1.42463 4.1 1.39964 3.5125 1.41213C2.3125 1.43713 1.4 2.32439 1.4 3.52408C1.4 11.2971 1.4 19.07 1.4 26.9555ZM12.5125 10.6847C12.75 10.5473 12.9 10.4598 13.0375 10.3723C16.4625 8.26035 19.8875 6.1609 23.3 4.03645C23.7875 3.73653 24.175 3.72403 24.6625 4.02395C27.75 5.94845 30.8625 7.84796 33.975 9.75996C34.45 10.0474 34.925 10.3348 35.475 10.6722C35.475 10.0724 35.45 9.56001 35.4875 9.04764C35.5125 8.68524 35.3625 8.49779 35.0625 8.31034C31.675 6.23588 28.275 4.17391 24.925 2.04947C24.2375 1.61208 23.775 1.59958 23.0875 2.03697C19.7 4.17391 16.275 6.24837 12.875 8.36032C12.7125 8.4603 12.5125 8.52278 12.525 8.79771C12.525 9.41005 12.5125 10.0099 12.5125 10.6847ZM24 22.8316C20.4625 22.8316 16.9125 22.8316 13.375 22.8316C12.5 22.8316 12.525 22.8316 12.5 23.7188C12.4875 24.1437 12.6125 24.2562 13.0375 24.2562C20.2 24.2437 27.3625 24.2437 34.5375 24.2437C35.4875 24.2437 35.4625 24.2437 35.4875 23.2939C35.5 22.919 35.3875 22.8316 35.025 22.8316C31.3375 22.8316 27.675 22.8316 24 22.8316Z" fill="white"/>
<path d="M0 39.5522C0.4375 38.7024 0.8875 37.8526 1.3125 36.9904C1.8625 35.8656 2.7375 35.3158 4 35.3408C5.275 35.3658 6.5625 35.3533 7.8375 35.3408C8.975 35.3408 9.8125 35.8282 10.325 36.8529C10.65 37.5027 11 38.1526 11.3 38.8149C11.4 39.0398 11.5375 39.0898 11.7625 39.0898C19.9125 39.0898 28.0625 39.0898 36.2125 39.0898C36.45 39.0898 36.575 39.0273 36.675 38.8149C36.975 38.165 37.3125 37.5402 37.6375 36.8904C38.15 35.8532 38.9875 35.3408 40.15 35.3408C41.4625 35.3408 42.775 35.3533 44.0875 35.3408C45.2625 35.3283 46.1125 35.8531 46.6375 36.9154C47.075 37.8026 47.5375 38.6774 47.9875 39.5647C47.9875 39.7146 47.9875 39.8771 47.9875 40.0271C47.7625 40.3895 47.4375 40.5144 47.0125 40.5019C45.325 40.4769 43.65 40.4894 41.9625 40.5019C41.8125 40.5019 41.6375 40.427 41.55 40.6144C41.2875 41.1768 40.8 41.7266 41.3875 42.3889C41.4125 42.4139 41.425 42.4389 41.4375 42.4639C41.525 42.7638 41.7125 42.8513 42.025 42.8388C43.6875 42.8263 45.3625 42.8388 47.025 42.8263C47.45 42.8263 47.775 42.9388 48 43.3012C48 43.4512 48 43.6136 48 43.7636C47.625 44.4884 47.2125 45.2007 46.8875 45.9505C46.45 46.9503 45.8125 47.7001 44.725 47.9875C42.95 47.9875 41.1625 47.9875 39.3875 47.9875C39.375 47.8875 39.2875 47.875 39.2125 47.8625C38.4625 47.6001 37.9625 47.0877 37.6125 46.3754C37.325 45.7881 37.0125 45.2132 36.75 44.6134C36.6125 44.3009 36.425 44.2385 36.1125 44.2385C28.55 44.251 20.975 44.2385 13.4125 44.251C12.775 44.251 11.9875 44.0385 11.5375 44.3259C11.0625 44.6259 10.8625 45.4007 10.6 46.0005C10.175 46.9878 9.525 47.7251 8.45 48C6.675 48 4.8875 48 3.1125 48C3.0875 47.9625 3.0625 47.9125 3.025 47.9C2.1375 47.6251 1.625 46.9877 1.2375 46.1755C0.85 45.3632 0.425 44.5759 0.0125 43.7761C0.0125 43.6261 0.0125 43.4637 0.0125 43.3137C0.2375 42.9513 0.5625 42.8263 0.9875 42.8388C2.675 42.8638 4.35 42.8513 6.0375 42.8388C6.1875 42.8388 6.3625 42.9013 6.45 42.7264C6.7125 42.1765 7.1875 41.6391 6.6375 41.0018C6.6125 40.9643 6.5875 40.9268 6.575 40.8768C6.4875 40.5769 6.3 40.4894 5.9875 40.5019C4.325 40.5144 2.65 40.5019 0.9875 40.5144C0.5625 40.5144 0.2375 40.402 0.0125 40.0396C0 39.8646 0 39.7021 0 39.5522ZM46.125 39.0773C45.85 38.515 45.5875 38.0026 45.3375 37.4902C45.0875 36.9779 44.6875 36.7279 44.1 36.7404C42.775 36.7529 41.45 36.7529 40.1125 36.7404C39.5375 36.7404 39.1375 36.9779 38.875 37.4902C38.475 38.3025 38.05 39.1023 37.675 39.9146C37.4875 40.3145 37.2125 40.4894 36.7625 40.4894C28.2375 40.4769 19.7125 40.4769 11.1875 40.4894C10.7375 40.4894 10.4625 40.3145 10.275 39.9146C9.875 39.0898 9.4625 38.265 9.05 37.4527C8.8125 36.9779 8.425 36.7404 7.8875 36.7404C6.5125 36.7404 5.1375 36.7404 3.7625 36.7404C3.4 36.7404 3.0625 36.8404 2.85 37.1403C2.425 37.7277 2.1875 38.415 1.825 39.0898C3.475 39.0898 5.0375 39.1023 6.6 39.0898C7.0375 39.0898 7.3375 39.2398 7.525 39.6522C7.7625 40.177 8.025 40.6894 8.3 41.2018C8.475 41.5392 8.475 41.8516 8.2875 42.1765C8.0125 42.6889 7.7625 43.2012 7.5125 43.7261C7.325 44.1135 7.05 44.276 6.625 44.2635C5.175 44.251 3.725 44.2635 2.2625 44.2635C2.1375 44.2635 2 44.2635 1.825 44.2635C2.1125 44.8383 2.3625 45.3257 2.6 45.838C2.85 46.3754 3.275 46.6128 3.8625 46.6128C5.175 46.6004 6.4875 46.6004 7.8 46.6128C8.4 46.6128 8.8 46.3754 9.0625 45.838C9.45 45.0383 9.875 44.2635 10.25 43.4512C10.45 43.0263 10.725 42.8513 11.2 42.8513C19.7125 42.8638 28.225 42.8638 36.7375 42.8513C37.2125 42.8513 37.4875 43.0263 37.6875 43.4512C38.075 44.2635 38.4875 45.0633 38.8875 45.8755C39.1125 46.3254 39.475 46.6003 39.9875 46.6003C41.3875 46.6003 42.8 46.6003 44.2 46.6003C44.625 46.6003 44.975 46.4379 45.1875 46.0755C45.5125 45.5006 45.7875 44.9008 46.1125 44.2635C44.475 44.2635 42.9 44.251 41.325 44.2635C40.9 44.2635 40.6125 44.1135 40.4375 43.7261C40.1875 43.1887 39.9125 42.6639 39.6375 42.139C39.475 41.8141 39.475 41.5267 39.65 41.2018C39.925 40.6894 40.1875 40.177 40.425 39.6522C40.6125 39.2523 40.9 39.0773 41.35 39.0898C42.925 39.0898 44.4875 39.0773 46.125 39.0773Z" fill="white"/>
<path d="M23.9876 19.6074C22.8126 19.6074 21.6501 19.6074 20.4751 19.6074C19.7626 19.6074 19.5376 19.3949 19.5376 18.6951C19.5376 16.3332 19.5376 13.9838 19.5376 11.622C19.5376 10.9346 19.7751 10.6972 20.4751 10.6972C22.8126 10.6972 25.1626 10.6972 27.5001 10.6972C28.2001 10.6972 28.4376 10.9221 28.4376 11.622C28.4376 13.9838 28.4376 16.3332 28.4376 18.6951C28.4376 19.3949 28.2126 19.6074 27.5001 19.6074C26.3251 19.6074 25.1626 19.6074 23.9876 19.6074ZM22.1126 14.4212C22.4876 14.4212 22.9751 14.5587 23.1876 14.3837C23.4501 14.1713 23.2626 13.6589 23.2751 13.2715C23.2876 12.1093 23.2751 12.0968 22.1376 12.1093C21.7501 12.1093 21.2626 11.9344 21.0126 12.1843C20.7876 12.4093 20.9501 12.8966 20.9501 13.2715C20.9626 13.6464 20.7751 14.1588 21.0376 14.3712C21.2501 14.5712 21.7376 14.4212 22.1126 14.4212ZM27.0126 13.284C27.0251 13.284 27.0376 13.284 27.0501 13.284C27.0376 12.9091 27.1501 12.4218 26.9626 12.1968C26.7376 11.9344 26.2251 12.1218 25.8501 12.1218C24.7001 12.1093 24.6876 12.1218 24.7001 13.284C24.7001 13.6714 24.5251 14.1713 24.7751 14.3962C24.9876 14.5837 25.4876 14.4712 25.8501 14.4587C26.2376 14.4462 26.7501 14.6337 26.9626 14.3712C27.1501 14.1463 27.0126 13.6589 27.0126 13.284ZM22.1126 18.2077C22.4751 18.1578 22.9751 18.3702 23.2126 18.1203C23.4501 17.8828 23.2751 17.383 23.2751 16.9956C23.2876 15.8584 23.2751 15.8584 22.1126 15.8584C20.9376 15.8584 20.9376 15.8584 20.9376 17.0456C20.9376 17.4205 20.8251 17.8953 21.0126 18.1203C21.2126 18.3702 21.7126 18.1703 22.1126 18.2077ZM27.0126 17.0331C27.0251 17.0331 27.0376 17.0331 27.0501 17.0331C27.0376 16.6582 27.1501 16.1708 26.9626 15.9458C26.7376 15.6834 26.2251 15.8709 25.8501 15.8584C24.7001 15.8459 24.6876 15.8584 24.7001 17.0081C24.7001 17.3955 24.5251 17.8953 24.7751 18.1203C24.9876 18.3077 25.4876 18.1953 25.8501 18.1828C26.2376 18.1703 26.7501 18.3577 26.9626 18.0953C27.1501 17.8953 27.0126 17.408 27.0126 17.0331Z" fill="white"/>
</svg>
