<svg width="36" height="48" viewBox="0 0 36 48" fill="none" xmlns="http://www.w3.org/2000/svg">
<path d="M4.59013 47.953C4.17925 47.6009 4.10881 47.1313 4.12055 46.6147C4.17925 44.9477 4.03837 43.269 4.19099 41.602C4.39056 39.4419 6.09278 37.5636 8.21762 37.188C8.61676 37.1175 8.74589 37.0588 8.53458 36.6362C7.56021 34.7109 7.27846 32.6448 7.31368 30.5082C7.32542 30.1912 7.26672 29.9095 7.12585 29.616C5.6232 26.7046 4.83666 23.6054 4.76622 20.3184C4.75448 19.8605 4.68404 19.567 4.19099 19.3675C3.40444 19.0388 2.91139 18.3931 2.64138 17.5948C2.5592 17.3483 2.44181 17.2191 2.19528 17.137C0.880459 16.6909 0 15.4582 0 14.0847C0.0117395 12.7347 0.892199 11.4903 2.1718 11.0559C2.41833 10.9738 2.54746 10.8681 2.62964 10.6098C3.22835 8.83717 5.20058 7.93323 6.91454 8.68456C7.30194 8.84891 7.37238 8.74326 7.46629 8.41455C8.04153 6.5245 8.94547 4.82228 10.3307 3.39006C12.1503 1.51175 14.4161 0.584334 16.9635 0.290848C18.5718 0.103017 20.1919 -0.0378567 21.8236 0.00910112C22.8567 0.0443195 23.8781 0.149975 24.8876 0.373024C25.4394 0.490419 25.7446 0.854342 25.6625 1.30044C25.5803 1.77002 25.1459 2.02829 24.5824 1.92263C21.4949 1.32392 18.4192 1.50001 15.3904 2.21612C12.5025 2.90875 10.6359 4.86924 9.462 7.54583C9.37982 7.73366 9.29765 7.93323 9.21547 8.1328C9.40331 8.22672 9.50896 8.07411 9.61461 7.98019C11.9508 5.99622 14.6978 5.02185 17.7148 4.69314C20.1097 4.42314 22.4811 4.50531 24.8289 5.06881C27.2708 5.65578 29.4308 6.75929 31.2035 8.6376C31.1917 8.02715 30.9687 7.51061 30.7691 6.99408C30.1821 5.45621 29.243 4.17661 27.8577 3.26093C27.7521 3.19049 27.6464 3.12006 27.5525 3.03788C27.2238 2.74439 27.1534 2.32177 27.3764 1.99307C27.6112 1.64089 28.069 1.53523 28.4564 1.77002C29.243 2.26308 29.9474 2.85005 30.5461 3.55442C31.9313 5.19794 32.6357 7.13495 32.9761 9.23631C33.0348 9.5885 33.117 9.95242 33.1053 10.3046C33.0466 11.4903 33.7275 12.4412 34.0679 13.4977C34.7605 15.6578 35.0775 17.8766 34.9366 20.1423C34.9014 20.741 34.9366 21.2927 35.0423 21.8797C35.6292 25.1198 34.3966 27.7377 32.1544 29.9682C31.9665 30.156 31.8726 30.3204 31.8844 30.6021C31.9783 32.7622 31.6026 34.8283 30.6517 36.7771C30.6165 36.8593 30.5813 36.9414 30.5343 37.0823C30.9217 37.141 31.2857 37.1175 31.6496 37.188C33.974 37.6223 35.7466 39.6532 35.7936 42.0129C35.8288 43.7034 35.7936 45.3821 35.8053 47.0726C35.8053 47.5187 35.5706 47.777 35.2419 47.9883C35.054 47.9883 34.8662 47.9883 34.6784 47.9883C34.2557 47.6361 34.197 47.1665 34.2088 46.65C34.2323 45.1943 34.2205 43.7503 34.2205 42.2946C34.2205 41.0385 33.704 40.0289 32.6827 39.3011C31.8726 38.7258 30.9452 38.6671 29.9943 38.6789C29.6539 38.6789 29.4191 38.7611 29.2078 39.0428C28.386 40.1228 27.3882 41.015 26.2494 41.7429C23.702 43.3629 20.9197 43.9616 17.9379 43.586C16.177 43.3629 14.5569 42.7525 13.066 41.8016C12.6434 41.5316 12.5377 41.0855 12.7608 40.7098C12.9838 40.3341 13.4182 40.2285 13.8643 40.4515C13.9582 40.4985 14.0521 40.5572 14.146 40.6159C16.2944 41.8837 18.5953 42.3416 21.0723 42.0129C25.3807 41.4376 28.9495 38.2445 29.9826 34.077C30.0061 34.03 30.0295 33.9714 29.9708 33.9361C29.9591 33.9244 29.9121 33.9714 29.8769 33.9948C28.5973 34.9222 27.1886 35.3449 25.6038 35.0749C22.8802 34.6288 20.8845 32.0813 21.131 29.3812C21.3893 26.4816 23.7607 24.3215 26.6133 24.3802C27.4234 24.392 28.1982 24.615 28.973 24.9672C28.9495 24.8615 28.9495 24.8146 28.926 24.7794C27.9986 23.3002 26.766 22.1615 25.2281 21.3632C25.099 21.2927 24.9698 21.2693 24.8289 21.2693C22.575 21.281 20.3327 21.2223 18.0905 21.3162C15.3669 21.4219 12.9956 22.3845 11.176 24.568C14.146 23.9811 16.3883 24.9202 17.6914 27.6555C18.6188 29.5808 18.1727 31.9991 16.6113 33.5018C14.3339 35.6853 11.8451 35.6501 9.25069 33.9479C9.462 34.887 9.80245 35.7088 10.2251 36.5071C10.6007 37.2114 11.082 37.8336 11.5634 38.4793C11.8803 38.9019 11.8334 39.3715 11.4812 39.6415C11.1407 39.9115 10.6712 39.8293 10.3307 39.4419C10.2016 39.3011 10.0725 39.1602 9.97854 39.0076C9.81419 38.7493 9.60288 38.6789 9.30939 38.6906C7.20803 38.7728 5.75233 40.2402 5.74059 42.3533C5.72885 43.8677 5.71712 45.3821 5.75233 46.8965C5.76407 47.3895 5.61146 47.7535 5.1771 48C4.95405 47.953 4.77796 47.953 4.59013 47.953ZM7.80674 27.362C7.86544 27.2916 7.88892 27.2681 7.90065 27.2446C7.99457 27.0099 8.07675 26.7751 8.17066 26.552C9.12156 24.2746 10.5655 22.408 12.7373 21.1636C14.7213 20.0366 16.8813 19.661 19.1236 19.661C21.401 19.661 23.6785 19.661 25.9677 19.661C28.3156 19.661 30.6517 19.661 32.9996 19.661C33.1992 19.661 33.387 19.7197 33.387 19.3792C33.3753 17.4187 33.117 15.4934 32.4479 13.6386C32.3539 13.3803 32.2131 13.3686 31.99 13.3686C30.5343 13.3686 29.0904 13.3686 27.6347 13.3686C26.8364 13.3686 26.4373 13.0986 26.449 12.5586C26.4607 12.042 26.8364 11.7838 27.6112 11.7838C28.9143 11.7838 30.2174 11.7838 31.5791 11.7838C31.5322 11.6781 31.5087 11.6312 31.4735 11.5725C30.1234 9.30675 28.1864 7.73366 25.6859 6.94712C21.6593 5.67926 17.6327 5.76144 13.6765 7.2993C11.8686 8.00367 10.3659 9.15414 9.15678 10.6803C9.00416 10.8798 8.93373 10.962 9.25069 11.0794C10.002 11.3612 10.6007 11.866 10.9529 12.5938C11.0703 12.8403 11.1877 12.9342 11.4812 12.8286C12.3969 12.4647 13.3595 12.2416 14.3221 12.089C17.5387 11.5842 20.7788 11.8542 24.0072 11.8073C24.4533 11.7955 24.7468 12.1242 24.7703 12.5351C24.7937 12.946 24.5355 13.2512 24.0894 13.3451C23.9368 13.3803 23.7841 13.3803 23.6198 13.3803C21.8119 13.3803 19.9923 13.3803 18.1844 13.3803C15.9539 13.3686 13.7704 13.6503 11.669 14.4369C11.4577 14.5191 11.3051 14.6012 11.2464 14.8595C10.9647 16.0335 10.2368 16.7965 9.10982 17.1839C8.94547 17.2426 8.82807 17.3013 8.75764 17.5009C8.40545 18.6044 7.66586 19.3322 6.55062 19.661C6.33931 19.7196 6.29235 19.8253 6.29235 20.0249C6.36279 22.5371 6.8441 24.9789 7.80674 27.362ZM26.4607 33.537C28.5738 33.5487 30.2761 31.8348 30.2878 29.7099C30.2995 27.6673 28.5738 25.9416 26.496 25.9298C24.4181 25.9181 22.6806 27.632 22.6572 29.7099C22.6572 31.7878 24.3711 33.5253 26.4607 33.537ZM16.5174 29.7921C16.5761 27.726 14.8856 25.9416 12.7725 25.9416C10.589 25.9416 9.02764 27.3033 8.93373 29.8156C8.85155 31.7878 10.5186 33.4666 12.6082 33.5253C14.7095 33.5957 16.447 31.9404 16.5174 29.7921ZM1.58483 14.0847C1.58483 14.9417 2.19528 15.6108 3.064 15.7282C3.76837 15.8221 3.9562 15.9982 4.03837 16.6791C4.14403 17.5478 4.81318 18.17 5.67016 18.1818C6.53888 18.1935 7.20803 17.5948 7.32542 16.7143C7.41934 15.9865 7.59543 15.8104 8.32327 15.7165C9.19199 15.5991 9.80245 14.9182 9.79071 14.0612C9.77897 13.2277 9.16852 12.5468 8.33501 12.4412C7.57195 12.3473 7.43108 12.1947 7.32542 11.4199C7.20803 10.5864 6.52714 9.98764 5.69364 9.98764C4.86014 9.98764 4.17925 10.5981 4.05011 11.4316C3.93272 12.2299 3.82706 12.3355 3.04052 12.4412C2.19528 12.5586 1.58483 13.2512 1.58483 14.0847ZM31.7552 28.0547C33.3048 26.0942 34.0327 24.028 33.3753 21.6214C33.2814 21.2927 33.1405 21.2223 32.8353 21.234C31.9313 21.2575 31.0274 21.2458 30.1234 21.2458C29.4308 21.2458 28.7382 21.2458 27.9164 21.2458C30.0765 23.0654 31.3091 25.3076 31.7552 28.0547Z" fill="white"/>
<path d="M29.8535 33.9597C29.8887 33.9362 29.924 33.8893 29.9474 33.901C30.0061 33.9362 29.9826 33.9949 29.9592 34.0419C29.9122 34.0184 29.877 33.9832 29.8535 33.9597Z" fill="#FDFDFD"/>
<path d="M11.4344 45.3938C11.4344 45.8164 11.4462 46.239 11.4344 46.6499C11.4227 47.1312 11.094 47.4717 10.6714 47.4834C10.2722 47.4952 9.89657 47.1899 9.87309 46.7321C9.83788 45.8516 9.83788 44.9594 9.87309 44.079C9.88483 43.5977 10.2722 43.269 10.6831 43.2924C11.1175 43.3159 11.4227 43.6446 11.4344 44.1377C11.4344 44.5486 11.4344 44.9712 11.4344 45.3938Z" fill="white"/>
<path d="M28.4798 45.3352C28.4798 44.9243 28.4681 44.5252 28.4798 44.1143C28.5033 43.6213 28.832 43.2808 29.2546 43.2691C29.689 43.2573 30.0412 43.6213 30.0529 44.1261C30.0647 44.9478 30.0647 45.7813 30.0529 46.6031C30.0412 47.1196 29.7007 47.4718 29.2546 47.4601C28.8085 47.4483 28.4916 47.1079 28.4798 46.5796C28.4681 46.1805 28.4798 45.7578 28.4798 45.3352Z" fill="white"/>
<path d="M19.593 40.7567C19.2291 40.7567 18.8769 40.7684 18.513 40.7567C18.0669 40.7332 17.7734 40.428 17.7499 40.0288C17.7264 39.5945 18.0082 39.2423 18.4777 39.2188C19.2291 39.1836 19.9687 39.1836 20.72 39.2188C21.1543 39.2423 21.4478 39.5827 21.4478 39.9819C21.4478 40.4045 21.1309 40.7214 20.673 40.7449C20.3091 40.7801 19.9569 40.7684 19.593 40.7567Z" fill="white"/>
</svg>
