<svg width="48" height="48" viewBox="0 0 48 48" fill="none" xmlns="http://www.w3.org/2000/svg">
<path d="M47.9874 15.5504C47.8374 15.6003 47.8749 15.7627 47.8374 15.8626C47.2501 18.0234 45.8754 19.3973 43.6885 19.822C41.4641 20.2592 39.6521 19.4598 38.3024 17.6237C38.2649 17.5738 38.2274 17.5363 38.1899 17.4863C36.0655 21.2584 30.8918 21.2334 28.7174 17.6612C27.6052 19.3599 26.0556 20.3216 24.0186 20.3216C21.9692 20.3341 20.4196 19.3724 19.3074 17.6737C17.008 21.3458 11.8093 21.1585 9.82235 17.4863C8.93508 18.7853 7.74789 19.6097 6.1733 19.872C3.51149 20.3091 0.912171 18.6354 0.212353 16.0375C0.162366 15.8626 0.18736 15.6628 0.0249023 15.5379C0.0249023 14.9508 0.0249023 14.3513 0.0249023 13.7642C0.0998828 13.7518 0.0998828 13.6893 0.124876 13.6269C0.72472 11.3786 1.27458 9.11788 1.9494 6.88212C2.53675 4.95863 2.88666 3.02264 2.7242 1.01171C2.68671 0.562061 2.83667 0.224824 3.21157 0C17.083 0 30.9418 0 44.8132 0C45.1881 0.237315 45.3131 0.574551 45.3006 1.01171C45.2756 1.7986 45.3006 2.59797 45.2881 3.39735C45.2881 3.77205 45.3381 4.13427 45.4381 4.49649C45.9254 6.28259 46.4003 8.0687 46.8877 9.84231C47.2501 11.1788 47.625 12.5152 47.9999 13.8517C47.9874 14.4262 47.9874 14.9883 47.9874 15.5504ZM27.6927 10.2795C27.5927 8.5808 27.5052 6.88212 27.4178 5.18345C27.4053 4.93365 27.3553 4.83372 27.0803 4.83372C25.0309 4.84621 22.9939 4.84621 20.9444 4.83372C20.682 4.83372 20.5945 4.90867 20.582 5.17096C20.5695 5.73302 20.5321 6.29508 20.4946 6.85714C20.3571 9.50508 20.1946 12.153 20.0822 14.8009C20.0197 16.1749 20.582 17.299 21.6942 18.0984C22.9814 19.0226 24.3935 19.1351 25.7932 18.4231C27.2053 17.6987 27.9426 16.4871 27.9176 14.9009C27.8926 13.3521 27.7677 11.8158 27.6927 10.2795ZM18.8325 10.1171H18.82C18.9075 8.46838 18.995 6.81967 19.0949 5.17096C19.1199 4.8587 18.9825 4.84621 18.7575 4.84621C16.733 4.84621 14.6961 4.8587 12.6716 4.84621C12.4092 4.84621 12.3092 4.90867 12.2592 5.18345C11.7718 8.28103 11.247 11.3536 10.7721 14.4512C10.4597 16.5621 11.9718 18.5355 14.0712 18.8103C16.2207 19.0976 18.2327 17.6612 18.4701 15.5129C18.6825 13.7393 18.72 11.9157 18.8325 10.1171ZM32.3165 4.84621C31.3042 4.84621 30.292 4.84621 29.2798 4.84621C29.0173 4.84621 28.9049 4.87119 28.9174 5.19594C29.0548 7.33177 29.1423 9.4676 29.2673 11.5909C29.3423 12.9399 29.3672 14.3013 29.5422 15.6503C29.8171 17.6987 31.8666 19.1226 33.966 18.8228C36.028 18.523 37.5526 16.5621 37.2402 14.5262C36.7653 11.4161 36.2405 8.3185 35.7531 5.20843C35.7031 4.89618 35.5906 4.84621 35.3032 4.84621C34.316 4.8587 33.3162 4.84621 32.3165 4.84621ZM40.6268 4.84621C39.6021 4.84621 38.5648 4.8587 37.5401 4.84621C37.2652 4.84621 37.2027 4.90867 37.2527 5.18345C37.8025 8.50586 38.3399 11.8158 38.8898 15.1382C39.2522 17.4114 41.2641 18.8103 43.4886 18.3607C45.613 17.9235 46.9127 15.7752 46.3378 13.6019C45.588 10.7916 44.8132 7.99376 44.0634 5.18345C43.9884 4.92116 43.901 4.83372 43.626 4.83372C42.6263 4.8587 41.6265 4.84621 40.6268 4.84621ZM7.44797 4.84621C6.46072 4.84621 5.48598 4.87119 4.49874 4.83372C4.12383 4.82123 3.99887 4.95863 3.91139 5.29586C3.28655 7.6815 2.62422 10.0671 1.98689 12.4528C1.81194 13.1148 1.562 13.7642 1.53701 14.4512C1.44953 16.4871 2.93664 18.1983 4.97361 18.4231C6.9481 18.6479 8.78512 17.224 9.12253 15.1881C9.67239 11.8532 10.1972 8.51835 10.7596 5.18345C10.8096 4.87119 10.7346 4.82123 10.4472 4.82123C9.44744 4.8587 8.44771 4.84621 7.44797 4.84621ZM24.0061 1.51132C17.8577 1.51132 11.6969 1.51132 5.54846 1.51132C5.11108 1.51132 4.54872 1.32397 4.29879 1.59875C4.08634 1.82358 4.27379 2.39813 4.22381 2.8103C4.17382 3.27244 4.33628 3.35988 4.78616 3.35988C17.6078 3.34738 30.4295 3.34738 43.2386 3.34738C43.3136 3.34738 43.4011 3.33489 43.4761 3.34738C43.7135 3.38486 43.8135 3.28493 43.801 3.03513C43.776 2.72287 43.7635 2.41062 43.801 2.09836C43.8635 1.63622 43.726 1.48634 43.2136 1.48634C36.8028 1.51132 30.4045 1.51132 24.0061 1.51132Z" fill="white"/>
<path d="M0.0249935 43.5535C0.287425 43.1788 0.649831 43.0414 1.09971 43.0789C1.48711 43.1164 1.88701 43.0664 2.27441 43.0914C2.62432 43.1164 2.74928 43.0289 2.73679 42.6417C2.71179 40.9431 2.72429 39.2444 2.72429 37.5457C2.72429 32.3623 2.72429 27.1913 2.72429 22.0079C2.72429 21.833 2.71179 21.6581 2.73679 21.4958C2.78677 21.146 2.99922 20.9337 3.34913 20.8837C3.71153 20.8338 3.98646 20.9712 4.14892 21.3084C4.24889 21.5207 4.2239 21.7331 4.2239 21.9579C4.2239 28.84 4.2239 35.7222 4.2114 42.6043C4.2114 43.004 4.29888 43.1164 4.71127 43.1164C12.9966 43.1039 21.2944 43.1039 29.5798 43.1164C30.0047 43.1164 30.0797 42.9915 30.0797 42.6043C30.0672 36.8213 30.0672 31.0258 30.0672 25.2428C30.0672 24.3186 30.2546 24.1312 31.1919 24.1312C34.1911 24.1312 37.1903 24.1312 40.177 24.1312C41.0393 24.1312 41.2517 24.3435 41.2517 25.2054C41.2517 31.0133 41.2517 36.8088 41.2392 42.6168C41.2392 43.0165 41.3142 43.1663 41.7391 43.1289C42.314 43.0914 42.8888 43.1039 43.4762 43.1289C43.7011 43.1289 43.8011 43.0789 43.7636 42.8416C43.7511 42.7542 43.7636 42.6542 43.7636 42.5668C43.7636 35.7221 43.7636 28.865 43.7636 22.0204C43.7636 21.833 43.7511 21.6456 43.8011 21.4583C43.901 21.0586 44.1885 20.8588 44.6009 20.8962C44.9883 20.9337 45.2132 21.171 45.2507 21.5707C45.2632 21.7206 45.2632 21.883 45.2632 22.0328C45.2632 28.9025 45.2632 35.7596 45.2507 42.6293C45.2507 43.0539 45.3632 43.1663 45.7631 43.1289C46.138 43.0914 46.5129 43.1414 46.8878 43.1164C47.3501 43.0789 47.7001 43.2163 47.9625 43.591C47.9625 44.9275 47.95 46.2764 47.975 47.6129C47.975 47.9376 47.9125 48.0001 47.5876 48.0001C32.604 47.9876 17.6079 47.9876 2.62432 47.9876C1.82452 47.9876 1.03723 47.9751 0.237438 47.9876C0.0374902 47.9876 0 47.9501 0 47.7503C0.0249935 46.3264 0.0249935 44.94 0.0249935 43.5535ZM39.7771 34.3357C39.7771 31.5754 39.7646 28.815 39.7896 26.0547C39.7896 25.6925 39.7021 25.5801 39.3272 25.5926C36.8904 25.6051 34.4535 25.6175 32.0291 25.5926C31.6417 25.5926 31.5793 25.7175 31.5793 26.0672C31.5918 31.6004 31.5918 37.146 31.5793 42.6792C31.5793 43.0414 31.6792 43.1039 32.0166 43.1039C34.466 43.0914 36.9154 43.0914 39.3647 43.1039C39.7146 43.1039 39.8021 43.0165 39.8021 42.6667C39.7646 39.8939 39.7771 37.1086 39.7771 34.3357ZM24.0062 46.4513C31.0419 46.4513 38.0901 46.4513 45.1257 46.4513C45.5756 46.4513 46.163 46.6511 46.4254 46.3638C46.6503 46.114 46.4504 45.527 46.5004 45.1023C46.5504 44.6652 46.3879 44.5777 45.9755 44.5777C31.6292 44.5902 17.283 44.5902 2.93673 44.5902C2.47435 44.5902 1.86201 44.3904 1.59958 44.6777C1.37464 44.9275 1.56209 45.5395 1.5246 45.9891C1.48711 46.3888 1.62458 46.4638 2.01198 46.4638C9.33506 46.4513 16.6707 46.4513 24.0062 46.4513Z" fill="white"/>
<path d="M17.2831 36.3341C14.4713 36.3341 11.6595 36.3341 8.86027 36.3341C8.03549 36.3341 7.81055 36.1093 7.81055 35.285C7.81055 31.9001 7.81055 28.5153 7.81055 25.1304C7.81055 24.3435 8.04798 24.1062 8.84778 24.1062C14.4838 24.1062 20.1198 24.1062 25.7559 24.1062C26.5557 24.1062 26.7931 24.3435 26.7931 25.1429C26.7931 28.5277 26.7931 31.9126 26.7931 35.2975C26.7931 36.1218 26.5557 36.3466 25.7309 36.3466C22.8941 36.3341 20.0823 36.3341 17.2831 36.3341ZM17.3081 34.8353C19.8199 34.8353 22.3318 34.8228 24.8436 34.8478C25.206 34.8478 25.281 34.7479 25.281 34.3982C25.2685 31.6128 25.2685 28.815 25.281 26.0297C25.281 25.6675 25.1685 25.5925 24.8311 25.5925C19.7949 25.605 14.7462 25.605 9.71005 25.5925C9.33515 25.5925 9.28516 25.7174 9.28516 26.0422C9.29766 28.8275 9.29766 31.6253 9.28516 34.4107C9.28516 34.7729 9.38514 34.8353 9.72255 34.8353C12.2594 34.8228 14.7837 34.8353 17.3081 34.8353Z" fill="white"/>
</svg>
