<svg width="48" height="46" viewBox="0 0 48 46" fill="none" xmlns="http://www.w3.org/2000/svg">
<path d="M24.0156 0C26.1296 0 28.2435 0 30.3575 0C32.4305 0 33.808 1.39648 33.8216 3.47752C33.8216 5.38057 33.8216 7.26993 33.8216 9.17298C33.8216 12.0207 35.3082 13.9785 38.0359 14.7863C40.5453 15.5256 43.0548 16.2786 45.5506 17.0453C47.1054 17.5245 48.101 18.921 47.9918 20.427C47.91 21.4264 47.7873 22.4396 47.5827 23.4253C46.1916 30.0518 43.0684 35.6788 38.0631 40.2242C34.7081 43.2773 30.8212 45.2899 26.2796 45.8512C21.738 46.4125 17.5102 45.372 13.6369 42.9624C7.8133 39.3617 4.0082 34.118 1.62149 27.7654C0.748638 25.4242 0.216743 22.9872 0.0121676 20.4954C-0.124216 18.9757 0.89866 17.5245 2.43979 17.059C4.94925 16.306 7.4587 15.553 9.95452 14.8C12.7777 13.9374 14.1824 12.0344 14.1824 9.09083C14.1824 7.25624 14.1824 5.43533 14.1824 3.60074C14.1824 1.3691 15.519 0.0136911 17.7284 0.0136911C19.8287 5.20231e-08 21.929 0 24.0156 0ZM23.8111 43.7975C27.4116 43.7702 30.5211 42.7981 33.3988 41.032C37.5585 38.458 40.5862 34.8436 42.8093 30.531C44.4186 27.4094 45.4551 24.1099 45.7688 20.5913C45.8506 19.6877 45.6051 19.3454 44.7596 19.0853C43.2457 18.6335 41.7318 18.1954 40.218 17.7162C39.8361 17.5929 39.6452 17.6888 39.4133 17.9763C37.5722 20.1532 35.3627 21.8645 32.8124 23.1241C30.4939 24.2605 28.039 24.9176 25.4749 25.1093C25.1613 25.1367 25.0794 25.2325 25.0931 25.5337C25.1204 25.9718 25.1204 26.4237 25.0931 26.8618C25.0658 27.2588 25.1749 27.4094 25.5977 27.3683C26.6615 27.2862 27.4252 27.7654 27.9298 28.6964C28.2435 29.2714 28.6118 29.8053 28.9118 30.3667C29.3892 31.2292 29.321 32.0917 28.6936 32.8584C27.6844 34.0769 26.6478 35.2954 25.5977 36.4729C24.7521 37.4038 23.3065 37.4312 22.4609 36.5002C21.3698 35.2954 20.3197 34.0632 19.2968 32.8037C18.6831 32.0644 18.6421 31.2155 19.1195 30.3667C19.3786 29.8875 19.7059 29.4357 19.9514 28.9565C20.5106 27.8612 21.3153 27.2314 22.5973 27.3683C22.8837 27.3957 22.9382 27.2725 22.9382 27.0124C22.9246 26.5195 22.9109 26.0129 22.9382 25.52C22.9519 25.2188 22.87 25.123 22.5563 25.0956C20.8379 24.9724 19.1604 24.6301 17.5238 24.0688C13.9506 22.8229 10.9365 20.7693 8.50885 17.8531C8.37247 17.6751 8.24972 17.5656 8.00423 17.6477C6.354 18.1543 4.69012 18.6472 3.02624 19.1674C2.45343 19.3454 2.22158 19.7287 2.23522 20.3312C2.23522 20.5365 2.24886 20.7419 2.27613 20.9472C3.20354 28.1213 6.32672 34.1454 11.7548 38.8962C15.2326 41.9903 19.2968 43.7428 23.8111 43.7975ZM10.5001 16.9084C14.7416 21.4401 19.8696 23.4664 25.9523 22.864C30.5348 22.4122 34.3399 20.3722 37.4767 16.9084C33.658 15.8268 31.5167 12.6368 31.6395 9.00869C31.7077 7.20147 31.6531 5.38057 31.6531 3.57335C31.6531 2.57391 31.244 2.17687 30.2484 2.17687C26.0887 2.17687 21.929 2.17687 17.7693 2.17687C16.7464 2.17687 16.3645 2.57391 16.3509 3.61443C16.3509 5.66808 16.3645 7.72173 16.3236 9.77538C16.2827 11.6784 15.5599 13.3214 14.2642 14.7178C13.2686 15.7994 12.0139 16.484 10.5001 16.9084ZM24.002 29.5589C24.002 29.5726 24.002 29.5863 24.002 29.5863C23.3746 29.5863 22.6382 29.3809 22.1472 29.641C21.6835 29.8875 21.4789 30.6268 21.1652 31.1471C21.1516 31.1744 21.138 31.2155 21.1243 31.2429C20.9743 31.4072 21.0425 31.5304 21.1652 31.681C22.0517 32.6941 22.9246 33.721 23.7974 34.7478C23.9611 34.9395 24.0566 34.9395 24.2202 34.7478C25.0931 33.721 25.9659 32.6941 26.8524 31.681C26.9888 31.5304 27.0161 31.4209 26.8933 31.2429C26.5387 30.6952 26.3342 29.9696 25.8568 29.641C25.4613 29.3672 24.7385 29.5726 24.1657 29.5589C24.0975 29.5589 24.0566 29.5589 24.002 29.5589Z" fill="white"/>
</svg>
