<svg width="25" height="24" viewBox="0 0 25 24" fill="none" xmlns="http://www.w3.org/2000/svg">
<path d="M12.9055 23.9982C9.94435 23.9982 6.97596 23.9982 4.01483 23.9982C2.53791 23.9982 1.34473 23.0671 0.995509 21.6486C0.93003 21.394 0.908203 21.1321 0.908203 20.8629C0.908203 14.9489 0.908203 9.02751 0.908203 3.11344C0.908203 1.33121 2.23962 0 4.02939 0C9.94435 0 15.8666 0 21.7816 0C23.5713 0 24.9027 1.33121 24.9027 3.11344C24.91 9.02751 24.91 14.9489 24.9027 20.8629C24.9027 22.667 23.5713 23.9909 21.767 23.9909C18.8132 24.0055 15.8593 23.9982 12.9055 23.9982ZM11.7123 14.7961C12.1415 15.4071 12.7018 15.7636 13.3711 15.9309C14.9426 16.331 16.3977 15.9818 17.62 14.978C19.8827 13.1303 20.5084 10.606 20.1082 7.84906C19.8172 5.86315 18.5367 4.50284 16.7688 3.60809C15.35 2.8952 13.8222 2.72789 12.258 2.8952C10.4755 3.08434 8.86031 3.68811 7.57255 4.9684C5.79005 6.73608 5.12798 8.83837 5.87736 11.2826C6.16838 12.2428 6.77224 12.9775 7.71806 13.3921C8.0891 13.5522 8.27099 13.4576 8.38012 13.0648C8.43833 12.8466 8.48198 12.6211 8.55474 12.4101C8.64932 12.1409 8.59111 11.9227 8.40195 11.7118C8.08183 11.3553 7.85629 10.9334 7.78353 10.4606C7.49252 8.53285 8.08911 6.91794 9.63151 5.74676C11.3558 4.44465 13.2911 4.30643 15.2846 5.07024C16.4632 5.52853 17.1762 6.43783 17.4672 7.6672C17.6491 8.43101 17.5909 9.20209 17.4818 9.97318C17.3217 11.1007 17.0016 12.17 16.2886 13.0866C15.7575 13.7704 15.0954 14.2214 14.2005 14.2578C12.9419 14.3014 12.0542 13.2539 12.4544 12.0755C12.5781 11.7118 12.6727 11.348 12.7745 10.9843C13.0073 10.206 13.3202 9.44215 13.3566 8.61287C13.3857 8.02364 13.2474 7.47806 12.709 7.14344C12.1634 6.80882 11.5959 6.85247 11.0502 7.14344C10.621 7.37622 10.3154 7.73994 10.119 8.1764C9.67516 9.1439 9.71881 10.1332 10.068 11.1153C10.119 11.2535 10.1335 11.3699 10.1044 11.5081C9.73336 13.0139 9.39869 14.5269 8.98399 16.0182C8.54018 17.6331 8.43105 19.248 8.69297 20.8993C8.70752 21.0011 8.70025 21.1103 8.82393 21.1466C8.91851 21.1757 8.96944 21.0957 9.02037 21.0302C9.88615 19.9245 10.6501 18.7679 11.0066 17.3785C11.2394 16.5419 11.4722 15.6908 11.7123 14.7961Z" fill="white"/>
</svg>
