<svg width="42" height="42" viewBox="0 0 42 42" fill="none" xmlns="http://www.w3.org/2000/svg">
<path d="M42 7.21157C42 16.4257 42 25.6399 42 34.865C41.8468 34.9745 41.8906 35.1605 41.8577 35.3028C41.1355 38.5529 39.1985 40.6868 36.0141 41.6826C35.5873 41.814 35.1386 41.9015 34.7009 42C25.5086 42 16.3273 42 7.13497 42C7.04742 41.8468 6.87233 41.8906 6.74101 41.8687C3.28296 41.1027 1.11621 39.0016 0.196978 35.5873C0.131318 35.3465 0.175091 35.073 0 34.865C0 25.618 0 16.382 0 7.13497C0.153205 7.02553 0.109432 6.8395 0.142262 6.69724C0.809797 3.58937 2.6592 1.49922 5.63575 0.426785C6.15008 0.24075 6.69724 0.142262 7.22251 0C16.382 0 25.5414 0 34.7118 0C34.7228 0.0656592 34.7775 0.0766024 34.8322 0.0766024C38.0495 0.459614 40.7962 2.79052 41.6826 5.89838C41.7921 6.33611 41.8906 6.77384 42 7.21157ZM21 27.9161C21.5253 27.927 21.9083 27.6644 22.2585 27.3142C25.7384 23.8343 29.2183 20.3544 32.6983 16.8744C32.8187 16.754 32.939 16.6446 33.0266 16.5133C33.3768 16.0099 33.4205 15.4627 33.136 14.9265C32.8515 14.3903 32.3919 14.1058 31.7791 14.0948C31.2647 14.0839 30.8817 14.3356 30.5315 14.6967C27.4565 17.7718 24.3814 20.8468 21.3174 23.9328C21.0547 24.1954 20.9343 24.1626 20.6936 23.9218C18.7676 21.9739 16.8306 20.0479 14.8937 18.111C13.7228 16.9401 12.5519 15.7801 11.3809 14.5982C11.0198 14.2371 10.604 14.0292 10.1006 14.073C9.45492 14.1277 8.99531 14.4669 8.77645 15.0797C8.54664 15.7035 8.69984 16.2616 9.1704 16.7322C10.1225 17.6952 11.0855 18.6472 12.0375 19.5993C14.6092 22.1709 17.1808 24.7426 19.7525 27.3142C20.1027 27.6644 20.4857 27.927 21 27.9161Z" fill="#D5D5D5"/>
</svg>
