<svg width="24" height="24" viewBox="0 0 24 24" fill="none" xmlns="http://www.w3.org/2000/svg">
<path d="M0 22.1803C0 15.383 0 8.58572 0 1.78218C0.0812712 1.75091 0.0687679 1.66962 0.0875228 1.60709C0.30633 0.912976 0.762699 0.431475 1.43162 0.150078C1.56291 0.0937989 1.7192 0.100052 1.83173 0C8.58349 0 15.329 0 22.0808 0C22.0933 0.0125065 22.112 0.0375195 22.1245 0.0375195C23.0122 0.181344 23.5749 0.706618 23.8875 1.53205C23.9312 1.64461 23.925 1.76967 24 1.86972C24 8.63575 24 15.4018 24 22.1741C23.9187 22.2116 23.9375 22.2929 23.9187 22.3554C23.6999 23.1183 23.206 23.6248 22.4621 23.8937C22.3371 23.9375 22.1933 23.9187 22.0745 24C15.3227 24 8.57723 24 1.82548 24C1.78171 23.9187 1.69419 23.9375 1.62542 23.9125C0.875228 23.6873 0.375098 23.1933 0.106278 22.4617C0.0750195 22.3742 0.0875228 22.2616 0 22.1803ZM19.4426 11.8437C19.4363 11.4747 19.3988 10.9807 19.2988 10.4992C18.4923 6.47837 14.6601 3.89578 10.6153 4.63366C5.87653 5.50912 3.20083 10.7306 5.26387 15.0891C5.34514 15.2579 5.35765 15.4018 5.32014 15.5831C5.07632 16.7337 4.83876 17.8906 4.6012 19.0412C4.52618 19.4101 4.67622 19.5539 5.05132 19.4664C6.20162 19.1975 7.35817 18.9286 8.50847 18.6472C8.63975 18.6159 8.74603 18.6285 8.86481 18.6847C10.2027 19.3038 11.6093 19.5102 13.0659 19.3038C16.7106 18.791 19.4363 15.6456 19.4426 11.8437Z" fill="white"/>
<path d="M6.58922 17.4403C6.70175 16.8838 6.77676 16.3585 6.92055 15.8458C7.05809 15.3455 6.99557 14.9265 6.76426 14.4513C5.04506 10.9307 7.27689 6.74726 11.1529 6.17822C14.385 5.70297 17.3795 7.97916 17.7796 11.2058C18.1735 14.395 15.9792 17.2778 12.8221 17.7155C11.5343 17.8968 10.3214 17.6592 9.18364 17.0401C8.98359 16.9338 8.80854 16.9088 8.58974 16.9651C7.93332 17.1339 7.28315 17.2778 6.58922 17.4403ZM13.9411 15.5706C14.1537 15.5769 14.36 15.5456 14.5663 15.5018C15.1539 15.3705 15.5103 14.9515 15.8291 14.4888C16.1417 14.0448 15.9917 13.6634 15.4665 13.5133C15.1915 13.4383 14.9164 13.3507 14.6351 13.2819C13.9349 13.1006 13.9286 12.9505 13.3097 13.6071C13.0972 13.8322 12.8846 13.8572 12.6095 13.7196C12.3595 13.5946 12.1282 13.4383 11.9031 13.2632C11.3217 12.8067 10.7716 12.3314 10.3277 11.7374C10.0901 11.4184 10.0964 11.2309 10.3339 10.9119C10.4215 10.7994 10.5027 10.6868 10.584 10.5743C10.6903 10.4242 10.7215 10.2553 10.6465 10.0865C10.4402 9.605 10.2339 9.12976 10.0151 8.65451C9.87757 8.36686 9.52748 8.2543 9.28367 8.43564C8.80229 8.78583 8.39594 9.21105 8.27715 9.82387C8.15212 10.493 8.32092 11.1308 8.6335 11.7186C9.33993 13.0505 10.4152 14.0323 11.6655 14.8327C12.372 15.2705 13.1159 15.5456 13.9411 15.5706Z" fill="white"/>
</svg>
