<svg width="72" height="46" viewBox="0 0 72 46" fill="none" xmlns="http://www.w3.org/2000/svg">
<path d="M0 13.8C0.601673 13 1.4039 12.8 2.20613 12.8C6.41784 12.8 10.429 12.8 14.6407 12.8C15.6435 12.8 16.2452 13.2 16.4457 14C16.6463 15 16.0446 15.8 14.8413 15.8C14.039 15.8 13.0362 15.8 12.234 15.8C8.82454 15.8 5.61561 15.8 2.20613 15.8C1.20335 15.8 0.601673 15.6 0 14.8C0 14.4 0 14.2 0 13.8Z" fill="#F64701"/>
<path d="M0 19.8C0.401115 19 1.20335 18.8 2.20613 18.8C6.41784 18.8 10.6296 18.8 14.8413 18.8C15.8441 18.8 16.4457 19.2 16.4457 20C16.6463 21 16.0446 21.8 14.8413 21.8C12.8357 21.8 10.6296 21.8 8.62398 21.8C6.41785 21.8 4.21171 21.8 2.00558 21.8C1.00279 21.8 0.401115 21.6 0 20.8C0 20.4 0 20 0 19.8Z" fill="#F64701"/>
<path d="M0 7.80005C0.401115 7.00005 1.20335 6.80005 2.00558 6.80005C6.21729 6.80005 10.429 6.80005 14.6407 6.80005C15.6435 6.80005 16.2452 7.20005 16.4457 8.00005C16.6463 9.00005 15.8441 9.80005 14.8413 9.80005C11.4318 9.80005 8.02231 9.80005 4.61283 9.80005C3.8106 9.80005 2.80781 9.80005 2.00558 9.80005C1.00279 9.80005 0.401115 9.60005 0 8.60005C0 8.40005 0 8.20005 0 7.80005Z" fill="#F64701"/>
<path d="M58.5627 0.800049C65.9834 0.800049 72.0001 6.80005 72.0001 14.2C72.0001 21.6 65.9834 27.6 58.3622 27.6C50.9415 27.6 44.9248 21.6 44.9248 14C45.1254 6.80005 51.1421 0.800049 58.5627 0.800049ZM58.5627 3.80005C52.7466 3.80005 48.1337 8.60005 48.1337 14.2C48.1337 20 52.9471 24.6 58.5627 24.6C64.3789 24.6 68.9917 19.8 68.9917 14.2C68.9917 8.60005 64.3789 3.80005 58.5627 3.80005Z" fill="white"/>
<path d="M27.0752 14.5999C27.0752 4.9999 36.5014 -1.60009 45.3259 1.79991C46.3287 2.19991 46.7298 2.99991 46.5293 3.79991C46.3287 4.59991 45.3259 4.9999 44.3232 4.5999C38.1059 2.3999 31.4875 5.99991 30.2841 12.5999C29.0808 18.3999 33.493 24.1999 39.5098 24.7999C41.3148 24.9999 42.9193 24.7999 44.5237 24.1999C45.5265 23.7999 46.3287 24.1999 46.7298 24.9999C47.131 25.7999 46.7298 26.5999 45.7271 26.9999C37.7047 30.1999 28.4791 24.5999 27.4763 16.1999C27.0752 15.3999 27.0752 14.7999 27.0752 14.5999Z" fill="white"/>
<path d="M9.0249 33.8C10.4288 33.8 11.8327 33.8 13.2366 33.8C14.44 33.8 14.8411 34.4001 15.0416 35.4001C15.0416 38.2001 15.0416 41.2 15.0416 44C15.0416 45.2 14.44 45.8 13.2366 45.8C10.4288 45.8 7.42044 45.8 4.61264 45.8C3.60985 45.8 3.00817 45.2001 2.80762 44.2001C2.80762 41.4001 2.80762 38.4001 2.80762 35.6001C2.80762 34.6001 3.40929 34 4.41208 34C6.01654 33.8 7.621 33.8 9.0249 33.8ZM6.01654 39.6001C6.01654 40.4001 6.01654 41.2001 6.01654 42.2001C6.01654 42.6 6.01654 42.8 6.41766 42.8C8.02212 42.8 9.82713 42.8 11.4316 42.8C11.8327 42.8 12.0333 42.8001 11.8327 42.4001C11.8327 40.6001 11.8327 39.0001 11.8327 37.2001C11.8327 36.8001 11.8327 36.8 11.4316 36.8C9.62658 36.8 8.02212 36.8 6.2171 36.8C6.01654 36.8 6.01654 36.8001 6.01654 37.2001C6.01654 38.0001 6.01654 38.8001 6.01654 39.6001Z" fill="white"/>
<path d="M62.9747 33.8C64.3786 33.8 65.7825 33.8 67.1864 33.8C68.3898 33.8 68.9915 34.4001 68.9915 35.6001C68.9915 38.4001 68.9915 41.2 68.9915 44C68.9915 45.2 68.3898 45.8 67.1864 45.8C64.3786 45.8 61.5708 45.8 58.763 45.8C57.5597 45.8 56.958 45.2 56.958 44C56.958 41.2 56.958 38.4001 56.958 35.6001C56.958 34.4001 57.5597 33.8 58.763 33.8C60.1669 33.8 61.5708 33.8 62.9747 33.8ZM65.9831 39.8C65.9831 39 65.9831 38.0001 65.9831 37.2001C65.9831 37.0001 65.9831 36.8 65.582 36.8C63.777 36.8 62.1725 36.8 60.3675 36.8C60.1669 36.8 59.9664 36.8001 59.9664 37.2001C59.9664 39.0001 59.9664 40.6001 59.9664 42.4001C59.9664 42.8001 60.1669 42.8 60.3675 42.8C61.972 42.8 63.777 42.8 65.3814 42.8C65.7825 42.8 65.7825 42.6001 65.7825 42.4001C65.9831 41.4001 65.9831 40.6 65.9831 39.8Z" fill="white"/>
<path d="M22.4626 0.800049C24.0671 0.800049 25.6715 1.20005 27.276 1.60005C28.2788 2.00005 28.6799 2.80005 28.2788 3.60005C27.8776 4.40005 27.0754 4.80005 26.2732 4.40005C23.2648 3.20005 20.2565 3.40005 17.2481 5.00005C16.4459 5.60005 15.6436 5.40005 15.2425 4.60005C14.8414 3.80005 15.042 3.00005 16.0447 2.60005C18.0503 1.40005 20.2565 0.800049 22.4626 0.800049Z" fill="white"/>
<path d="M22.4624 27.7999C20.2563 27.7999 18.0501 27.1999 16.0446 25.9999C15.2423 25.5999 14.8412 24.6 15.2423 24C15.6434 23.2 16.4457 23 17.4485 23.4C20.2563 25 23.2646 25.2 26.273 24C27.2758 23.6 28.078 23.9999 28.4791 24.7999C28.8802 25.5999 28.2786 26.3999 27.2758 26.7999C25.6713 27.3999 24.2674 27.7999 22.4624 27.7999Z" fill="white"/>
<path d="M24.067 41.1999C23.4653 41.1999 23.0642 41.1999 22.4625 41.1999C21.6603 41.1999 21.0586 40.3999 21.0586 39.7999C21.0586 38.9999 21.6603 38.3999 22.4625 38.3999C23.4653 38.3999 24.4681 38.3999 25.4709 38.3999C26.2731 38.3999 26.8748 38.9999 26.8748 39.7999C26.8748 40.5999 26.2731 41.1999 25.4709 41.1999C25.0697 41.1999 24.4681 41.1999 24.067 41.1999Z" fill="#F64701"/>
<path d="M47.9332 41.2C47.5321 41.2 46.9304 41.2 46.5293 41.2C45.7271 41.2 44.9249 40.6 45.1254 39.6C45.1254 38.8 45.7271 38.2 46.5293 38.2C47.5321 38.2 48.5349 38.2 49.5377 38.2C50.3399 38.2 50.9416 38.8 50.9416 39.6C50.9416 40.4 50.3399 41 49.5377 41.2C48.936 41.2 48.5349 41.2 47.9332 41.2Z" fill="#F64701"/>
<path d="M36.1002 41.2C35.4985 41.2 35.0974 41.2 34.4957 41.2C33.6935 41.2 33.0918 40.6 33.0918 39.6C33.0918 38.8 33.6935 38.2 34.4957 38.2C35.4985 38.2 36.7018 38.2 37.7046 38.2C38.5069 38.2 39.1085 38.8 39.1085 39.6C39.1085 40.4 38.5069 41 37.7046 41C37.1029 41.2 36.5013 41.2 36.1002 41.2Z" fill="#F64701"/>
</svg>
