<svg width="99" height="165" viewBox="0 0 99 165" fill="none" xmlns="http://www.w3.org/2000/svg">
<path d="M13.3656 164.9C13.2452 164.418 12.7636 164.499 12.4425 164.418C4.49535 162.01 0 155.989 0 147.681C0 127.011 0 106.38 0 85.7095C0 63.2327 0 40.756 0 18.2792C0 12.5396 2.00685 7.76334 6.62261 4.23128C9.43221 2.06388 12.6833 0.899902 16.2555 0.899902C28.1762 0.899902 40.0568 0.899902 51.9775 0.899902C61.7308 0.899902 71.5242 0.899902 81.2775 0.899902C91.2717 0.899902 98.4562 7.96402 98.4562 17.9581C98.4963 61.266 98.4161 104.534 98.4963 147.842C98.4963 156.07 92.7166 163.455 84.6089 164.659C84.5286 164.659 84.4885 164.82 84.4484 164.9C60.7675 164.9 37.0866 164.9 13.3656 164.9ZM8.2281 82.8999C8.2281 104.413 8.2281 125.927 8.2281 147.44C8.2281 153.381 11.4792 156.672 17.3793 156.672C38.6118 156.672 59.8845 156.672 81.117 156.672C82.1204 156.672 83.1238 156.672 84.1273 156.391C88.1008 155.227 90.188 152.176 90.188 147.521C90.188 104.413 90.188 61.3463 90.188 18.2391C90.188 12.3791 86.9369 9.08786 81.117 9.08786C59.8042 9.08786 38.5316 9.08786 17.2188 9.08786C16.2555 9.08786 15.2922 9.128 14.3691 9.36882C10.4356 10.4124 8.2281 13.5431 8.2281 17.9983C8.2281 39.6322 8.2281 61.266 8.2281 82.8999Z" fill="#014F88"/>
<path d="M49.2883 151.213C44.7528 151.253 41.0201 147.561 41.0201 143.025C41.0201 138.57 44.7127 134.877 49.1679 134.837C53.6231 134.797 57.4361 138.57 57.4361 143.065C57.4361 147.521 53.7837 151.173 49.2883 151.213Z" fill="#014F88"/>
<path d="M55.951 22.7345C53.3823 22.7345 50.8135 22.7746 48.2849 22.7345C45.676 22.6943 43.8698 21.0487 43.8297 18.7208C43.7895 16.3527 45.6358 14.5866 48.325 14.5866C53.5027 14.5465 58.6804 14.5465 63.8581 14.5866C66.5472 14.5866 68.4337 16.3125 68.4337 18.6806C68.4337 21.0487 66.5472 22.7345 63.8179 22.7345C61.1689 22.7345 58.56 22.7345 55.951 22.7345Z" fill="#014F88"/>
<path d="M34.2369 22.6943C32.0695 22.6943 30.1429 20.848 30.1028 18.6806C30.0626 16.5534 31.9892 14.5866 34.1165 14.5465C36.3642 14.5064 38.3309 16.4329 38.3309 18.6405C38.2907 20.8079 36.4043 22.6943 34.2369 22.6943Z" fill="#014F88"/>
</svg>
