<svg width="164" height="165" viewBox="0 0 164 165" fill="none" xmlns="http://www.w3.org/2000/svg">
<path d="M147.079 163.929C147.036 163.673 146.865 163.588 146.651 163.545C142.934 162.734 140.242 160.386 137.635 157.783C127.423 147.538 117.167 137.379 106.997 127.091C105.886 125.939 105.117 125.725 103.707 126.622C97.1694 130.762 90.0334 133.494 82.47 135.116C74.9922 136.696 67.4716 136.994 59.8656 136.055C48.2001 134.604 37.5602 130.506 28.1167 123.548C14.3147 113.346 5.38405 99.8575 1.58103 83.0392C0.982804 80.3926 0.683689 77.7034 0.341845 74.9715C0.299114 74.63 0.512767 74.2032 0 74.0324C0 73.6056 0 73.1787 0 72.7518C0.598228 70.3187 0.384575 67.8429 0 65.4098C0 64.6842 0 63.9158 0 63.1901C0.555498 62.9767 0.299114 62.4645 0.341845 62.0803C0.555498 59.0496 1.06826 56.0616 1.79468 53.1162C4.6149 41.2495 9.99896 30.6633 18.5023 21.7846C29.9114 9.83253 43.7561 2.66126 60.2929 0.740389C61.1475 0.655017 62.0875 0.825761 62.814 0.18547C63.2413 0.18547 63.6686 0.18547 64.0959 0.18547C66.5315 0.783075 69.0099 0.655017 71.4455 0.18547C71.8728 0.18547 72.3002 0.18547 72.7275 0.18547C74.8213 0.911134 77.086 0.740389 79.2225 1.12456C95.0756 3.85647 108.45 11.0277 119.218 22.9798C120.329 24.2177 121.269 26.5655 122.551 26.4801C123.833 26.3947 124.987 24.3031 126.226 23.1506C126.995 22.4676 127.166 21.9127 126.696 20.8882C124.218 15.3817 126.867 8.85075 132.465 6.5457C138.063 4.24065 144.6 6.92987 146.694 12.5644C147.121 13.7596 147.72 13.8877 148.788 13.8877C153.873 13.8877 158.915 13.8877 164 13.9304C164 15.7232 164 17.5587 164 19.3515C158.872 19.3515 153.745 19.3515 148.617 19.3088C147.549 19.3088 147.079 19.6076 146.694 20.6321C144.814 25.6691 139.131 28.8278 134.174 27.035C131.268 25.9679 129.816 26.9497 128.277 28.8705C128.064 29.1693 127.764 29.3828 127.508 29.6816C125.713 31.4744 125.756 31.4744 127.038 33.6514C135.157 47.3536 138.105 62.123 136.011 77.8315C134.772 87.0944 131.696 95.8023 126.696 103.742C125.799 105.193 126.013 105.876 127.124 107.029C136.695 116.462 146.139 126.024 155.71 135.5C159.214 139.001 162.804 142.373 164 147.453C164 149.16 164 150.867 164 152.575C163.487 152.746 163.53 153.215 163.402 153.599C162.547 156.673 160.795 159.106 158.317 161.112C156.309 162.734 153.873 163.332 151.48 164.1C151.181 164.1 150.839 164.1 150.54 164.1C149.899 163.673 149.258 163.631 148.617 164.1C148.147 163.929 147.591 163.929 147.079 163.929ZM131.268 68.3125C131.097 33.3526 102.938 4.83825 66.9588 5.47855C33.1162 6.07615 4.82856 33.7367 5.42678 69.5504C5.98228 103.23 33.5008 131.744 69.6509 131.061C103.622 130.463 130.969 103.144 131.268 68.3125ZM158.616 150.697C158.701 147.111 157.505 144.849 155.582 142.928C148.66 136.013 141.737 129.14 134.858 122.225C134.174 121.542 133.832 121.499 133.149 122.225C129.645 125.811 126.098 129.354 122.509 132.854C121.526 133.793 121.782 134.263 122.594 135.074C129.345 141.775 136.054 148.477 142.763 155.179C143.276 155.691 143.831 156.203 144.429 156.673C147.207 158.807 150.326 159.191 153.446 157.74C156.736 156.203 158.402 153.471 158.616 150.697ZM122.551 109.974C118.834 114.627 114.689 118.767 110.031 122.481C112.424 124.872 114.732 127.134 116.996 129.439C117.424 129.866 117.723 129.909 118.15 129.439C121.953 125.597 125.756 121.798 129.559 117.999C130.029 117.53 129.901 117.273 129.516 116.847C127.209 114.627 124.944 112.322 122.551 109.974ZM136.781 21.9127C139.772 21.87 142.165 19.4796 142.207 16.5342C142.207 13.5889 139.644 10.9851 136.695 11.0277C133.747 11.0704 131.354 13.5035 131.311 16.4916C131.311 19.565 133.704 21.9554 136.781 21.9127Z" fill="#014F88"/>
<path d="M71.4883 0.100098C69.0526 0.569645 66.5743 0.697703 64.1386 0.100098C66.5743 0.100098 69.0099 0.100098 71.4883 0.100098Z" fill="#014F88"/>
<path d="M0.0427306 65.3671C0.427306 67.8002 0.640959 70.276 0.0427306 72.7091C0.0427306 70.276 0.0427306 67.8429 0.0427306 65.3671Z" fill="#014F88"/>
<path d="M148.66 163.929C149.301 163.46 149.942 163.502 150.583 163.929C149.942 163.929 149.301 163.929 148.66 163.929Z" fill="#014F88"/>
<path d="M11.0245 68.3979C11.3236 36.4687 36.4919 11.0704 68.4117 11.1131C100.673 11.1558 125.713 36.8528 125.756 68.4405C125.756 100.199 100.203 125.64 68.4544 125.64C36.9192 125.683 11.3663 100.583 11.0245 68.3979ZM120.287 69.5931C120.244 59.7326 118.193 51.7076 114.262 44.1948C113.834 43.3838 113.578 43.5119 113.022 44.0668C111.612 45.5181 110.202 46.9694 108.707 48.3781C108.023 49.0184 107.937 49.5306 108.365 50.427C110.245 54.4822 109.348 59.3484 106.186 62.5072C103.023 65.6659 98.1522 66.605 94.05 64.7269C93.1954 64.3427 92.7254 64.3427 92.0417 65.0257C86.7004 70.4041 81.359 75.7826 75.9323 81.0756C75.1631 81.8013 75.2058 82.3562 75.5904 83.2526C77.2142 86.9236 76.7869 90.4666 74.5649 93.7107C71.3174 98.4489 65.1641 99.7721 60.1219 96.9122C55.3361 94.1803 53.4132 88.2469 55.7207 83.0392C56.0198 82.3135 56.148 81.8867 55.507 81.2464C51.8322 77.6181 48.1574 73.9471 44.5253 70.276C44.0552 69.8065 43.7134 69.5931 43.0297 69.9346C37.0902 73.0506 29.826 69.5504 28.074 63.7451C27.9031 63.1902 27.6894 62.8487 26.963 62.8913C23.8864 62.934 20.7671 62.934 17.6905 62.8913C16.9213 62.8913 16.7077 63.1902 16.6649 63.9158C16.2804 69.5931 16.5795 75.185 17.9896 80.7341C20.8953 92.3021 27.0057 101.821 36.3637 109.163C45.4653 116.292 55.8489 120.005 67.4289 120.176C82.7264 120.432 95.7165 114.926 106.186 103.913C115.629 93.9668 120.201 81.9294 120.287 69.5931ZM70.6337 16.5342C58.3273 16.5769 48.6701 19.3088 39.9531 25.1142C28.5868 32.6269 21.2798 43.085 17.9468 56.3177C17.7332 57.1287 17.7759 57.4275 18.7587 57.4275C21.4935 57.3848 24.1855 57.3848 26.9203 57.4275C27.6467 57.4275 27.9031 57.1287 28.1595 56.5311C30.5951 50.4697 36.9192 47.6524 42.6451 50.1282C48.371 52.604 50.9349 59.3484 48.1574 64.8122C47.8583 65.4098 47.8155 65.794 48.371 66.3062C52.0886 69.9772 55.8061 73.6909 59.481 77.4046C59.951 77.8742 60.3356 78.0022 60.9766 77.7034C64.0959 76.1667 67.2579 76.1667 70.3346 77.6607C70.9755 77.9595 71.3601 77.9169 71.8301 77.4046C77.3424 71.8981 82.8546 66.3916 88.3669 60.8851C88.9224 60.3302 88.8796 59.9033 88.5805 59.263C86.6149 54.9944 87.4695 50.299 90.6743 47.0121C93.8364 43.8107 98.7077 42.8716 102.895 44.8351C103.75 45.2193 104.177 45.1339 104.775 44.4936C106.399 42.7862 108.023 41.1214 109.775 39.5421C110.672 38.731 110.587 38.2188 109.86 37.3224C99.5195 23.8763 85.7176 17.0892 70.6337 16.5342ZM103.878 54.8237C103.921 51.793 101.613 49.4025 98.6222 49.3172C95.5456 49.2318 93.0245 51.6222 92.9818 54.6529C92.939 57.5983 95.5029 60.2021 98.4513 60.2021C101.4 60.2021 103.878 57.769 103.878 54.8237ZM32.9453 60.1594C32.9453 63.1902 35.4237 65.7086 38.4148 65.6659C41.3205 65.6233 43.7989 63.1475 43.8416 60.2448C43.8843 57.2995 41.4487 54.8237 38.5003 54.781C35.3809 54.7383 32.9453 57.086 32.9453 60.1594ZM65.7197 92.8997C68.7108 92.857 71.1892 90.3812 71.1037 87.3505C71.061 84.4051 68.5826 82.0147 65.6769 82.0147C62.6858 82.0147 60.2074 84.4905 60.2074 87.4785C60.2501 90.5519 62.6858 92.9424 65.7197 92.8997Z" fill="#014F88"/>
</svg>
