<svg width="48" height="48" viewBox="0 0 48 48" fill="none" xmlns="http://www.w3.org/2000/svg">
<path d="M24.0259 47.9943C17.3694 47.9943 10.713 47.9943 4.05654 47.9943C2.00542 47.9943 0.431609 46.7534 0.0704058 44.8601C-0.0585951 44.1949 0.0317055 43.5169 0.0188054 42.8517C0.00590535 42.2248 0.0188054 41.6108 0.0188054 40.9839C0.0188054 40.3443 0.238107 40.1268 0.896012 40.114C1.55392 40.1012 2.22472 40.0884 2.88263 40.114C3.24383 40.1268 3.33413 40.0245 3.33413 39.6663C3.32123 36.4169 3.32123 33.1804 3.32123 29.9311C3.32123 24.3662 3.35993 18.8014 3.29543 13.2494C3.28253 11.5608 4.26294 10.2175 6.33985 10.2431C9.57778 10.2943 12.8157 10.2559 16.0536 10.2559C16.2213 10.2559 16.4406 10.3583 16.5438 10.1792C16.6341 10.0001 16.4922 9.80818 16.4019 9.64187C16.1826 9.27088 15.8343 9.04062 15.4602 8.84873C14.8926 8.55449 14.7894 8.29864 14.9313 7.68459C15.1893 6.61001 15.5892 5.58659 16.26 4.67831C16.6083 4.21778 16.8405 4.14102 17.3694 4.3585C17.6403 4.46084 17.9112 4.56318 18.2079 4.56318C18.9819 4.57597 19.5496 4.01309 19.5109 3.24553C19.498 2.97689 19.4077 2.72103 19.3174 2.45239C19.1367 1.94068 19.227 1.67203 19.6915 1.41618C20.6719 0.866095 21.691 0.392767 22.7875 0.111328C23.368 -0.0293918 23.6389 0.0857422 23.9356 0.610242C24.0001 0.725376 24.0646 0.827718 24.142 0.942852C24.8644 1.96627 25.9867 1.99185 26.5801 0.891681C27.1864 -0.246867 27.5347 -0.0805625 28.5667 0.226462C29.4439 0.482315 30.2308 0.891681 30.9919 1.3906C31.4176 1.67203 31.5466 2.01744 31.4047 2.50356C31.3402 2.73383 31.2757 2.96409 31.2628 3.20716C31.2112 4.26895 31.8562 4.81903 32.9012 4.62714C34.1654 4.39687 34.1654 4.38408 34.7588 5.50984C35.1716 6.30298 35.5199 7.12171 35.7521 7.99162C35.894 8.51612 35.765 8.81035 35.2619 9.04062C34.862 9.23251 34.5137 9.47557 34.2686 9.84655C34.2041 9.9489 34.088 10.064 34.1525 10.192C34.2299 10.3327 34.3847 10.2559 34.5008 10.2559C36.8873 10.2559 39.2738 10.2559 41.6603 10.2559C42.0215 10.2559 42.3698 10.2559 42.7181 10.3455C43.8146 10.6269 44.5757 11.5352 44.6144 12.6737C44.6531 13.6588 44.6273 14.6566 44.6273 15.6416C44.6273 23.6115 44.6273 31.5813 44.6144 39.5511C44.6144 39.9989 44.7434 40.1268 45.1691 40.1012C45.8271 40.0629 46.485 40.0756 47.1558 40.1012C47.775 40.114 47.9943 40.3443 47.9943 40.9583C47.9943 42.0073 48.0072 43.0691 47.9943 44.1181C47.9685 46.3441 46.3302 47.9687 44.0726 47.9943C42.0086 48.0071 39.9446 47.9943 37.8806 47.9943C33.2753 47.9943 28.657 47.9943 24.0259 47.9943ZM24.013 17.9955C17.7564 17.9955 11.4999 17.9955 5.25625 17.9827C4.90794 17.9827 4.79184 18.0595 4.79184 18.4304C4.80474 25.5176 4.80474 32.5919 4.79184 39.6791C4.79184 39.9989 4.86924 40.114 5.21755 40.114C9.92608 40.0884 14.6346 40.0884 19.3303 40.0756C19.9882 40.0756 20.3236 40.4083 20.2333 41.0735C20.1817 41.4061 20.1688 41.7387 20.1946 42.0713C20.2333 42.5446 20.53 42.8389 21.0073 42.8389C22.9939 42.8517 24.9676 42.8517 26.9542 42.8389C27.4057 42.8389 27.7024 42.5446 27.754 42.0969C27.7798 41.905 27.7669 41.7131 27.7669 41.5212C27.7669 40.1012 27.7669 40.1012 29.173 40.1012C33.6494 40.1012 38.1386 40.1012 42.6149 40.114C43.0148 40.114 43.1567 40.0501 43.1567 39.6023C43.1438 32.5663 43.1438 25.5304 43.1567 18.5072C43.1567 18.0722 43.0406 17.9955 42.6278 17.9955C36.4229 18.0083 30.2179 17.9955 24.013 17.9955ZM23.9872 46.4976C30.6694 46.4976 37.3646 46.4976 44.0468 46.4976C45.5562 46.4976 46.5237 45.5381 46.5366 44.0414C46.5366 43.3378 46.5237 42.6342 46.5495 41.9306C46.5624 41.6619 46.4721 41.5852 46.2012 41.5724C45.2078 41.534 44.2145 41.598 43.2212 41.598C38.7062 41.5596 34.2041 41.5852 29.689 41.5724C29.3536 41.5724 29.2633 41.6619 29.2633 41.9945C29.2375 43.3378 28.2958 44.3228 26.9671 44.3356C24.9805 44.3612 23.0068 44.3612 21.0202 44.3356C19.6915 44.3228 18.711 43.325 18.711 42.0073C18.711 41.6364 18.6078 41.5724 18.2595 41.5724C15.744 41.5852 13.2285 41.5852 10.713 41.5852C7.79756 41.5852 4.88214 41.598 1.96672 41.5724C1.56682 41.5724 1.47652 41.6875 1.50232 42.0585C1.52812 42.647 1.54102 43.2482 1.50232 43.8367C1.39912 45.423 2.56012 46.5359 4.17264 46.5232C10.7775 46.472 17.3823 46.4976 23.9872 46.4976ZM23.9485 16.5243C30.1792 16.5243 36.4229 16.5243 42.6536 16.5371C43.0406 16.5371 43.1696 16.4476 43.1567 16.051C43.1309 15.0916 43.1438 14.1321 43.1438 13.1727C43.1438 12.1876 42.7181 11.7655 41.7506 11.7655C29.8954 11.7655 18.0273 11.7655 6.17215 11.7655C5.24334 11.7655 4.80474 12.2004 4.80474 13.1087C4.80474 14.0809 4.83054 15.0532 4.79184 16.0382C4.77894 16.486 4.92084 16.5499 5.33365 16.5499C11.5386 16.5243 17.7435 16.5243 23.9485 16.5243ZM18.7368 10.2687C18.9045 10.2687 18.9819 10.2559 19.0593 10.2687C19.4722 10.3455 19.627 10.1792 19.627 9.7698C19.627 9.48836 19.7044 9.19413 19.7689 8.92548C20.4397 6.25181 22.8907 4.46084 25.7029 4.56318C28.2829 4.66552 30.6178 6.75073 31.0564 9.34764C31.2112 10.2815 31.2112 10.2687 32.1142 10.2687C32.4239 10.2687 32.5271 10.1664 32.5787 9.88493C32.6948 9.33485 33.0173 8.8999 33.3785 8.49053C33.5849 8.26026 34.0235 8.1963 33.9977 7.8509C33.9848 7.53108 33.7913 7.22406 33.6623 6.91703C33.5978 6.75073 33.4946 6.61001 33.4301 6.4437C33.3269 6.20064 33.1979 6.12389 32.8883 6.17506C31.0564 6.46929 29.6503 5.26678 29.6245 3.42463C29.6245 3.10481 29.8825 2.73383 29.5858 2.47797C29.3278 2.2605 28.9666 2.14536 28.6441 2.00464C28.528 1.95347 28.399 1.92789 28.2829 1.86392C27.9733 1.69762 27.7927 1.78717 27.5605 2.04302C26.3221 3.4758 24.5548 3.56535 23.2906 2.32446C23.0713 2.10699 22.981 1.68483 22.6327 1.69762C22.3102 1.71041 22.0006 1.9151 21.691 2.03023C21.6136 2.05581 21.5491 2.10699 21.4717 2.13257C20.9944 2.27329 20.8783 2.54194 20.9557 3.05364C21.2266 4.74228 19.8334 6.23902 18.1305 6.14947C17.1501 6.0983 17.1501 6.0983 16.8018 7.00658C16.7373 7.17289 16.6986 7.33919 16.6341 7.5055C16.518 7.76135 16.5825 7.92765 16.8276 8.10675C17.3823 8.49053 17.8338 9.00224 17.9628 9.66746C18.0531 10.2303 18.324 10.3583 18.7368 10.2687ZM25.3288 10.2687C26.4124 10.2687 27.4831 10.2687 28.5667 10.2687C29.8309 10.2687 29.8309 10.2687 29.431 9.04062C28.8376 7.17289 26.98 5.89362 25.0966 6.03434C22.9939 6.20064 21.4201 7.65901 21.1234 9.70584C21.0589 10.1024 21.0976 10.2943 21.6007 10.2815C22.852 10.2303 24.0904 10.2687 25.3288 10.2687Z" fill="white"/>
<path d="M32.0497 37.7346C31.5337 37.7346 31.0177 37.7474 30.5017 37.7346C29.9857 37.7218 29.7148 37.4532 29.7277 36.9542C29.7793 35.5854 29.1601 34.562 28.2184 33.6281C25.2901 30.6986 26.5414 25.863 30.5146 24.6733C32.8754 23.9697 35.5457 24.9931 36.7841 27.0911C38.0483 29.2403 37.6742 32.0291 35.8682 33.7305C34.9265 34.6132 34.3331 35.6366 34.3589 36.967C34.3718 37.4787 34.1009 37.7346 33.5849 37.7474C33.0818 37.7474 32.5658 37.7346 32.0497 37.7346ZM32.0239 36.2251C32.2174 36.2251 32.411 36.2123 32.6045 36.2251C32.798 36.2378 32.8883 36.1867 32.9141 35.9692C33.1076 34.6132 33.7913 33.5258 34.7975 32.6175C35.9972 31.5173 36.3455 29.8671 35.7263 28.3703C35.1071 26.8864 33.5978 25.9397 31.9336 25.9781C30.3082 26.0165 28.8763 27.0143 28.3732 28.5239C27.8443 30.0846 28.1668 31.4918 29.3407 32.6559C30.1663 33.4746 30.8113 34.3829 31.0822 35.5215C31.2499 36.2251 31.2499 36.2251 32.0239 36.2251Z" fill="white"/>
<path d="M14.4927 26.3363C16.4277 26.3363 18.3627 26.3363 20.2978 26.3363C20.8912 26.3363 21.1879 26.6178 21.1621 27.1167C21.1363 27.5004 20.9557 27.7435 20.5558 27.8075C20.4268 27.8203 20.2978 27.8331 20.1688 27.8331C16.389 27.8331 12.5964 27.8331 8.81667 27.8331C8.13297 27.8331 7.81046 27.5772 7.82336 27.0655C7.83626 26.5922 8.13297 26.3363 8.70057 26.3363C10.6227 26.3363 12.5577 26.3363 14.4927 26.3363Z" fill="white"/>
<path d="M14.4927 30.5707C16.389 30.5707 18.2982 30.5707 20.1946 30.5707C20.53 30.5707 20.8396 30.5963 21.046 30.9033C21.3427 31.351 21.0847 31.9523 20.5558 32.0546C20.4268 32.0802 20.2978 32.0802 20.1688 32.0802C16.389 32.0802 12.5964 32.0802 8.81667 32.0802C8.42967 32.0802 8.05557 32.0418 7.88787 31.6453C7.64276 31.0824 8.01686 30.5835 8.70057 30.5835C10.5324 30.5707 12.3771 30.5835 14.2089 30.5835C14.2992 30.5707 14.3895 30.5707 14.4927 30.5707Z" fill="white"/>
<path d="M14.4927 22.1787C16.4277 22.1787 18.3627 22.1787 20.2849 22.1787C20.8654 22.1787 21.1492 22.4345 21.1492 22.9079C21.1492 23.3812 20.8783 23.6499 20.3365 23.6499C19.3561 23.6626 18.3756 23.6499 17.3952 23.6499C14.4927 23.6499 11.6031 23.6499 8.70057 23.6499C8.31357 23.6499 7.99107 23.5859 7.84916 23.1765C7.65566 22.6009 8.00397 22.1787 8.68767 22.1787C10.5195 22.1659 12.3642 22.1787 14.196 22.1787C14.2992 22.1787 14.4024 22.1787 14.4927 22.1787Z" fill="white"/>
<path d="M14.4669 36.2251C12.5319 36.2251 10.5969 36.2251 8.67477 36.2251C8.10717 36.2251 7.81046 35.9564 7.82336 35.4831C7.82336 35.0737 8.08137 34.7923 8.50707 34.7667C8.91987 34.7411 9.34558 34.7539 9.75838 34.7539C13.2672 34.7539 16.776 34.7539 20.2849 34.7539C20.9041 34.7539 21.2008 35.0481 21.1492 35.5726C21.1105 36.0076 20.8525 36.2251 20.3107 36.2251C18.3627 36.2251 16.4148 36.2251 14.4669 36.2251Z" fill="white"/>
<path d="M40.6025 26.6178C40.9508 26.6561 41.2733 26.7713 41.3378 27.1934C41.4023 27.6028 41.2346 27.9354 40.8089 28.0505C40.2026 28.2168 39.5963 28.3703 38.9771 28.4727C38.6159 28.5367 38.3321 28.3192 38.216 27.961C38.0999 27.59 38.2805 27.155 38.6288 27.0399C39.2609 26.848 39.9059 26.7073 40.6025 26.6178Z" fill="white"/>
<path d="M26.0641 27.7307C26.0512 28.2168 25.6384 28.5622 25.1611 28.4855C24.5935 28.3959 24.0259 28.268 23.4583 28.1401C23.0068 28.0249 22.7875 27.6668 22.8649 27.2958C22.9552 26.8608 23.3293 26.6305 23.8195 26.7329C24.3871 26.848 24.9547 26.9759 25.5094 27.1039C25.8706 27.1806 26.0512 27.4237 26.0641 27.7307Z" fill="white"/>
<path d="M27.7024 25.2106C27.1864 25.2234 25.7803 23.7394 25.8319 23.2277C25.8835 22.6776 26.5285 22.345 26.98 22.7032C27.496 23.1126 27.9604 23.5859 28.3345 24.1232C28.6441 24.5837 28.27 25.1978 27.7024 25.2106Z" fill="white"/>
<path d="M38.4095 23.1509C38.4224 23.4324 38.3708 23.5987 38.2676 23.7138C37.8677 24.136 37.5452 24.6221 37.0937 24.9803C36.7067 25.2873 36.3197 25.2873 36.023 24.9931C35.7134 24.6861 35.7134 24.2895 36.0617 23.9313C36.4487 23.5219 36.7583 23.0486 37.2227 22.716C37.4678 22.5369 37.7258 22.4985 37.9967 22.6264C38.2418 22.7544 38.3966 22.9718 38.4095 23.1509Z" fill="white"/>
<path d="M32.7206 22.4601C32.7206 22.716 32.7335 22.9718 32.7206 23.2277C32.6948 23.6882 32.4239 23.9441 31.9852 23.9441C31.5337 23.9569 31.2499 23.7266 31.2241 23.2533C31.1983 22.7288 31.1983 22.2043 31.2241 21.6798C31.2499 21.232 31.5466 20.9634 31.9723 20.9762C32.411 20.9762 32.6948 21.2704 32.7206 21.7437C32.7335 21.9868 32.7206 22.2299 32.7206 22.4601Z" fill="white"/>
<path d="M14.5959 13.3901C16.5954 13.3901 18.5949 13.3901 20.5816 13.3901C21.0073 13.3901 21.3427 13.5053 21.4459 13.9786C21.5362 14.4135 21.304 14.7845 20.8654 14.8613C20.7235 14.8869 20.5816 14.8869 20.4268 14.8869C16.518 14.8869 12.5964 14.8869 8.68767 14.8869C8.01687 14.8869 7.72016 14.695 7.66856 14.2472C7.60406 13.7227 7.91366 13.3901 8.49417 13.3901C10.0551 13.3773 11.616 13.3901 13.1769 13.3901C13.6542 13.3901 14.1186 13.3901 14.5959 13.3901Z" fill="white"/>
<path d="M31.3015 13.3901C31.9594 13.3901 32.2561 13.6076 32.269 14.1193C32.2819 14.6438 31.9723 14.8997 31.3015 14.8997C30.6565 14.8997 30.334 14.6566 30.3211 14.1705C30.3082 13.646 30.6307 13.3901 31.3015 13.3901Z" fill="white"/>
<path d="M35.2619 13.3901C35.9327 13.3901 36.2423 13.6332 36.2423 14.1577C36.2294 14.6566 35.9327 14.8997 35.2877 14.8997C34.6298 14.8997 34.2944 14.631 34.2944 14.1321C34.3073 13.6332 34.6169 13.3901 35.2619 13.3901Z" fill="white"/>
<path d="M39.4028 13.3901C40.0478 13.3901 40.3574 13.6204 40.3574 14.1321C40.3574 14.6566 40.0478 14.8997 39.377 14.8997C38.732 14.8997 38.4224 14.6566 38.4224 14.1577C38.4224 13.6332 38.732 13.3901 39.4028 13.3901Z" fill="white"/>
</svg>
