<svg width="24" height="32" viewBox="0 0 24 32" fill="none" xmlns="http://www.w3.org/2000/svg">
<path d="M11.7393 32C11.4309 31.8668 11.1875 31.6631 10.9684 31.4125C7.78709 27.8089 4.86552 24.0253 2.59318 19.8185C1.57063 17.9228 0.68604 15.9722 0.255919 13.8649C-0.433898 10.5199 0.27215 7.4569 2.35783 4.70726C4.19193 2.28663 6.66716 0.743388 9.71858 0.218527C14.3201 -0.57268 18.2155 0.79039 21.2426 4.21373C23.3039 6.54035 24.1804 9.32133 23.9694 12.3765C23.8477 14.1234 23.2877 15.7763 22.5898 17.3822C21.1939 20.5706 19.3111 23.4847 17.2254 26.2814C15.9026 28.0596 14.4986 29.7674 13.0135 31.4281C12.7862 31.6866 12.5428 31.8982 12.1938 32C12.0396 32 11.8935 32 11.7393 32ZM11.9503 17.4214C15.2047 17.4919 17.9558 14.8911 18.0288 11.6793C18.1019 8.47529 15.4481 5.83532 12.0721 5.75698C8.79342 5.67864 6.03415 8.27161 5.96111 11.4991C5.89618 14.7031 8.56618 17.3509 11.9503 17.4214Z" fill="#F64701"/>
</svg>
