<svg width="14" height="24" viewBox="0 0 14 24" fill="none" xmlns="http://www.w3.org/2000/svg">
<path d="M2.30175 0C5.41324 0 8.51923 0 11.6307 0C11.7021 0.0923384 11.8118 0.0461692 11.9051 0.0666888C13.1782 0.369354 13.9959 1.3543 13.9959 2.62651C14.0014 8.87475 14.0014 15.123 13.9959 21.3763C13.9959 22.905 12.816 23.9977 11.1807 23.9977C8.3985 24.0028 5.61628 23.9977 2.83405 23.9977C2.5926 23.9977 2.35114 23.9823 2.11518 23.9259C0.831071 23.6335 0.00243894 22.628 0.00243894 21.3558C0.00243894 16.4208 0.00243894 11.4807 0.00243894 6.54577C0.00243894 5.21199 -0.00304868 3.87308 0.00243894 2.53931C0.0134142 1.41586 0.759732 0.477082 1.89567 0.117988C2.02737 0.0820786 2.18103 0.0872085 2.30175 0ZM7.01562 2.18534C6.43942 2.18534 5.86322 2.18021 5.28702 2.18534C4.91386 2.19047 4.66692 2.41106 4.66143 2.71885C4.65595 3.03178 4.91935 3.27288 5.298 3.27288C6.43394 3.27801 7.56439 3.27288 8.70033 3.27288C8.87593 3.27288 9.02958 3.22671 9.1558 3.10873C9.32591 2.94457 9.3753 2.7445 9.2875 2.52905C9.19421 2.30333 9.00214 2.18534 8.74423 2.18534C8.16803 2.18021 7.59182 2.18534 7.01562 2.18534ZM6.98819 21.8124C7.63024 21.8175 8.15705 21.3353 8.16803 20.7402C8.179 20.14 7.65768 19.6476 7.02111 19.6373C6.36808 19.6322 5.8303 20.1144 5.8303 20.7197C5.82481 21.3199 6.34613 21.8124 6.98819 21.8124Z" fill="#707070"/>
</svg>
