<svg width="24" height="21" viewBox="0 0 24 21" fill="none" xmlns="http://www.w3.org/2000/svg">
<path d="M0 2.26115C0.106278 2.09875 0.106278 1.89887 0.187549 1.72397C0.643918 0.680844 1.43162 0.0999404 2.57567 0.0062463C2.66319 2.37346e-08 2.74446 0 2.83199 0C7.37692 0 11.9219 0 16.473 0C16.9232 0 17.1795 0.174896 17.2732 0.530933C17.292 0.612135 17.2983 0.699583 17.2983 0.787031C17.2983 3.71029 17.3045 6.63979 17.2983 9.56305C17.2983 11.1246 16.1042 12.3177 14.5413 12.3239C11.7593 12.3301 8.97734 12.3301 6.19536 12.3239C5.70774 12.3239 5.28263 12.4551 4.88877 12.7424C3.71347 13.5919 2.52566 14.4289 1.3441 15.2659C0.718937 15.7094 0.481375 15.6782 0 15.091C0 10.8123 0 6.5336 0 2.26115ZM9.12113 5.22189C10.0026 5.22189 10.8841 5.22189 11.7656 5.22189C12.2407 5.22189 12.7158 5.22813 13.1972 5.21564C13.5723 5.20939 13.8536 4.93456 13.8786 4.57852C13.9036 4.21624 13.6723 3.91017 13.3097 3.83521C13.2097 3.81647 13.1097 3.81647 13.0096 3.81647C10.709 3.81647 8.40219 3.81647 6.10159 3.81647C5.7765 3.81647 5.44517 3.81647 5.12008 3.81647C4.84501 3.81647 4.6137 3.91641 4.46991 4.16002C4.33238 4.38489 4.32613 4.616 4.45116 4.84711C4.58869 5.10321 4.81375 5.22189 5.10133 5.22189C6.43293 5.22189 7.77702 5.22189 9.12113 5.22189ZM9.11487 8.50118C9.68377 8.50118 10.2527 8.50118 10.8216 8.50118C11.5968 8.50118 12.3657 8.50743 13.1409 8.50118C13.5973 8.49493 13.9036 8.17013 13.8724 7.74538C13.8411 7.35187 13.5285 7.10201 13.0722 7.10201C11.0716 7.10201 9.07736 7.10201 7.07684 7.10201C6.42667 7.10201 5.78276 7.10201 5.13259 7.10201C4.82626 7.10201 4.58244 7.2082 4.4324 7.48304C4.17609 7.964 4.51368 8.50118 5.08257 8.50118C6.43293 8.50118 7.77703 8.50118 9.11487 8.50118Z" fill="#707070"/>
<path d="M24 20.519C23.8687 20.7126 23.7437 20.9125 23.4999 20.975C23.2498 21.0375 23.031 20.9812 22.8184 20.8251C21.5869 19.9444 20.3553 19.0699 19.1237 18.1892C18.7174 17.8956 18.2735 17.7582 17.7671 17.7644C15.0289 17.7707 12.2844 17.7644 9.54624 17.7644C7.8708 17.7644 6.708 16.6088 6.70175 14.9348C6.70175 14.61 6.71425 14.279 6.69549 13.9542C6.68299 13.7668 6.74551 13.7293 6.9268 13.7293C9.45871 13.7356 11.9844 13.7418 14.5163 13.7293C16.1104 13.7231 17.3295 13.0172 18.1547 11.6493C18.5236 11.0372 18.6986 10.3626 18.6986 9.64425C18.7049 8.32004 18.7049 6.98958 18.6924 5.66537C18.6924 5.47798 18.7424 5.43426 18.9237 5.44051C19.6551 5.453 20.3928 5.44675 21.1243 5.44675C22.6059 5.44675 23.6124 6.25252 23.95 7.69541C23.9562 7.71415 23.9812 7.72664 23.9937 7.73913C24 11.9991 24 16.2591 24 20.519Z" fill="#707070"/>
</svg>
