<svg width="164" height="149" viewBox="0 0 164 149" fill="none" xmlns="http://www.w3.org/2000/svg">
<path d="M164 132.661C163.659 132.831 163.659 133.172 163.488 133.342C162.123 136.749 159.563 138.281 155.809 138.281C140.962 138.281 126.114 138.281 111.267 138.281C105.294 138.281 99.4922 138.281 93.5192 138.281C92.3247 138.281 92.154 138.622 92.154 139.644C92.154 143.391 92.154 143.391 95.9084 143.391C98.2976 143.391 100.857 143.391 103.247 143.391C104.953 143.391 106.148 144.413 106.148 145.945C106.148 147.478 104.953 148.5 103.247 148.5C89.0822 148.5 74.7471 148.5 60.5827 148.5C58.7055 148.5 57.5109 147.478 57.6816 145.945C57.6816 144.413 58.8762 143.561 60.5827 143.391C63.9958 143.391 67.2383 143.391 70.6514 143.391C71.5047 143.391 71.6753 143.22 71.6753 142.369C71.846 138.281 71.846 138.281 67.7503 138.281C48.1249 138.281 28.6701 138.281 9.04474 138.281C4.77836 138.281 1.70656 136.749 0.170656 132.661L0 132.491C0.170656 103.538 0.170656 74.4148 0.170656 45.2917C1.19459 45.2917 2.04787 46.1433 3.24246 46.1433C2.04787 48.6979 1.36524 51.2526 2.04787 53.9776C2.38918 55.851 3.24246 57.5541 4.6077 59.0869C5.29032 59.5978 5.29032 60.4494 5.29032 61.3009C5.29032 83.9522 5.29032 106.774 5.29032 129.425C5.29032 132.661 5.97295 133.342 9.2154 133.342C57.8522 133.342 106.489 133.342 154.955 133.342C158.027 133.342 158.71 132.661 158.71 129.596C158.71 106.944 158.71 84.1226 158.71 61.4712C158.71 60.4494 158.88 59.7681 159.563 58.9166C162.293 55.5104 162.976 51.7635 161.27 47.6761C160.758 46.4839 160.928 45.8026 162.123 45.6323C162.635 45.6323 162.976 44.7808 163.659 45.2917C164 74.4148 164 103.538 164 132.661ZM82.256 138.452C81.9147 138.452 81.4027 138.452 81.0614 138.452C76.9657 138.452 76.9657 138.452 77.1363 142.539C77.1363 143.561 77.4776 143.731 78.3309 143.561C80.0375 143.561 81.744 143.561 83.4506 143.561C87.5463 143.561 87.5463 143.561 87.3756 139.474C87.3756 138.452 87.0343 138.281 86.1811 138.452C84.8158 138.452 83.4506 138.452 82.256 138.452Z" fill="#014F88"/>
<path d="M0.170656 30.1341C1.02393 28.9419 1.5359 27.5794 2.90114 26.7278C4.09573 26.0466 5.29032 25.8763 6.65557 25.8763C7.6795 26.0466 8.19147 25.706 8.53278 24.6841C9.55671 22.4701 10.0687 20.767 7.85016 18.7232C5.97294 16.8498 6.48491 13.6139 8.36212 11.5702C9.2154 10.5483 10.2393 9.69678 11.2633 8.84522C13.8231 6.63118 17.2362 6.63119 19.6254 9.18585C20.6493 10.2077 21.3319 10.378 22.5265 9.86709C24.5744 9.01554 25.9396 8.33429 25.9396 5.60932C25.769 2.88435 28.4995 0.840621 31.23 0.67031C32.4246 0.67031 33.7898 0.67031 34.9844 0.67031C38.5682 0.5 41.128 3.05466 41.128 6.46087C41.128 8.16398 41.4693 8.84523 43.1759 9.18585H43.3465C45.2237 10.5483 46.589 10.2077 48.1249 8.5046C50.0021 6.46087 53.2445 6.8015 55.4631 8.67491C56.487 9.52647 57.3403 10.5483 58.3642 11.3999C60.924 13.9545 60.924 17.3608 58.3642 19.9154C57.3403 20.9373 56.999 21.7888 57.8522 22.981C58.0229 23.1513 58.0229 23.3216 58.0229 23.4919C58.3642 25.5357 59.3881 26.3872 61.6067 26.2169C64.5078 26.0466 66.7263 28.7716 66.897 31.6669C66.897 33.0293 66.897 34.3918 66.897 35.584C66.897 38.9902 64.3372 41.5449 61.0947 41.3746C59.5588 41.3746 58.8762 41.8855 58.1935 43.248C57.1696 45.2917 57.1696 46.6542 58.8762 48.3573C60.7534 50.2307 60.5827 53.4666 58.7055 55.5104C57.6816 56.7025 56.6576 57.7244 55.4631 58.7463C53.0739 60.79 49.8314 60.79 47.4422 58.2353C46.4183 57.2135 45.565 56.7025 44.3704 57.7244C44.3704 57.7244 44.1998 57.8947 44.0291 57.8947C41.9813 58.2353 40.9573 59.2572 41.128 61.8119C41.2986 64.5368 38.5682 66.7509 35.8377 66.9212C34.4724 66.9212 33.1072 66.9212 31.7419 66.9212C28.4995 66.9212 25.9396 64.3665 26.1103 61.1306C26.1103 59.5978 25.769 58.9166 24.2331 58.2353C22.1852 57.3838 20.82 57.0432 19.1134 58.9166C17.2362 60.9603 13.9938 60.6197 11.7752 58.7463C10.7513 57.8947 9.89802 57.0431 9.04474 56.0213C6.48491 53.2963 6.48491 50.0604 9.04474 47.5057C10.0687 46.4839 10.0687 45.8026 9.55671 44.6105C8.70343 42.3964 8.02081 41.2043 5.29032 41.3746C2.90114 41.5449 1.5359 39.3308 0.341311 37.4574C0.170656 34.9028 0.170656 32.5184 0.170656 30.1341ZM36.0083 58.2353C36.0083 57.7244 36.0083 57.2135 36.0083 56.7025C35.8377 55.34 36.3496 54.6588 37.7149 54.4885C39.9334 54.1479 42.1519 53.2963 44.0291 52.1041C46.7596 50.5713 46.7596 50.5713 48.9781 52.7854C51.7086 55.5104 51.7086 55.5104 54.2685 52.6151C54.7804 51.9338 54.9511 51.5932 54.2685 50.912C53.0739 49.8901 52.0499 48.6979 51.026 47.6761C50.514 47.1651 50.3434 46.8245 50.8554 46.1433C52.7326 43.4183 53.9272 40.523 54.6098 37.2871C54.7804 36.6059 54.9511 36.2652 55.8044 36.2652C57.3403 36.2652 58.8762 36.2652 60.4121 36.2652C61.0947 36.2652 61.7773 36.2652 61.7773 35.4137C61.6067 34.0512 62.6306 32.5184 61.0947 31.3262C60.924 31.1559 60.4121 31.3262 60.0708 31.3262C58.7055 31.3262 57.3403 31.3262 56.1457 31.3262C55.2924 31.3262 54.7804 31.1559 54.6098 30.1341C54.0978 27.0685 52.9032 24.1732 51.026 21.6185C50.514 20.9373 50.6847 20.5967 51.1967 20.0857C52.3913 19.0639 53.4152 17.8717 54.6098 16.6795C55.2924 15.9983 54.9511 15.4873 54.4391 15.1467C53.2445 14.4655 53.0739 12.5921 51.1967 12.9327C50.8554 12.9327 50.6847 13.2733 50.514 13.6139C49.4901 14.6358 48.4662 15.4873 47.6129 16.5092C47.1009 17.0201 46.7596 17.1904 46.077 16.6795C43.3465 14.8061 40.4454 13.6139 37.2029 12.9327C36.0083 12.5921 36.0083 12.0811 36.0083 11.3999C36.0083 9.86709 36.0083 8.5046 36.0083 6.97181C36.0083 6.29056 36.0083 5.60932 35.155 5.60932C33.7898 5.77963 32.2539 4.92808 31.0593 6.29056C30.8887 6.46087 31.0593 6.97181 31.0593 7.31243C31.0593 8.67491 31.0593 10.0374 31.0593 11.3999C31.0593 12.2514 30.8887 12.5921 30.0354 12.7624C26.7929 13.4436 23.8918 14.4655 21.3319 16.3389C20.6493 16.8498 20.308 16.6795 19.796 16.1686C18.7721 14.9764 17.7482 13.7842 16.3829 12.7624C14.5057 11.3999 14.3351 13.7842 13.3111 14.4655C12.6285 14.8061 11.7752 15.4873 12.7992 16.5092C13.8231 17.5311 14.847 18.5529 15.871 19.5748C16.7242 20.256 16.8949 20.767 16.2123 21.7888C14.847 23.8326 13.8231 26.0466 13.1405 28.431C12.1165 31.1559 12.1165 31.1559 8.87409 31.1559C4.94901 31.1559 4.94901 31.1559 5.29032 35.0731V35.2434C5.29032 36.0949 5.63163 36.4356 6.48491 36.2652C8.02081 36.2652 9.72737 36.2652 11.2633 36.2652C11.9459 36.2652 12.2872 36.4356 12.4579 37.1168C13.1405 40.3527 14.3351 43.248 16.2123 45.973C16.7242 46.6542 16.5536 46.9948 15.871 47.5057C14.6764 48.5276 13.6524 49.7198 12.4579 50.912C11.6046 51.7635 12.2872 52.2744 12.7992 52.6151C13.8231 53.2963 13.9938 55.34 15.871 54.4885C16.2123 54.3182 16.3829 53.9776 16.5536 53.8072C17.5775 52.7854 18.4308 51.9338 19.2841 50.912C19.796 50.2307 20.308 50.2307 20.82 50.7417C22.3559 51.7635 24.0624 52.6151 25.9396 53.4666C27.4755 54.1479 29.8647 53.8072 30.5473 55.1697C31.23 56.5322 30.718 58.4056 30.718 60.1087C30.718 61.3009 31.0593 61.6415 32.2539 61.6415C36.0083 61.8119 36.0083 61.9822 36.0083 58.2353Z" fill="#014F88"/>
<path d="M164 37.2871C163.147 38.4793 162.635 39.8418 161.27 40.6933C160.075 41.3746 159.051 41.7152 157.686 41.5449C156.491 41.3746 155.979 41.8855 155.467 42.9074C154.443 45.1214 154.102 46.8245 156.15 48.6979C158.027 50.5713 157.515 53.6369 155.809 55.6807C154.955 56.7025 154.102 57.5541 153.078 58.4056C150.348 60.9603 147.105 60.9603 144.375 58.2353C143.351 57.2135 142.668 57.2135 141.473 57.7244C139.255 58.5759 138.06 59.4275 138.231 61.9822C138.231 64.7071 135.671 66.7509 132.77 66.9212C131.405 66.9212 130.04 66.9212 128.845 66.9212C125.603 66.9212 123.043 64.3665 123.043 61.1306C123.043 59.4275 122.531 58.9166 120.995 58.2353C118.947 57.3838 117.752 57.2135 116.046 58.9166C114.169 60.9603 110.755 60.6197 108.708 58.7463C107.684 57.8947 106.83 56.8728 105.806 56.0213C103.417 53.4666 103.417 50.2307 105.977 47.8464C107.172 46.6542 107.513 45.8026 106.489 44.6105C106.489 44.6105 106.318 44.4402 106.318 44.2699C105.977 42.2261 104.953 41.3746 102.735 41.5449C99.8335 41.7152 97.615 38.9902 97.4443 36.0949C97.4443 34.9028 97.4443 33.5403 97.4443 32.3481C97.4443 28.7716 99.8335 26.3872 103.417 26.3872C104.783 26.3872 105.806 26.0466 105.977 24.6841C105.977 24.5138 105.977 24.3435 106.148 24.1732C107.342 22.4701 107.172 21.2779 105.465 19.5748C103.417 17.5311 103.588 14.2952 105.636 12.0811C106.489 11.0593 107.513 10.0374 108.537 9.18585C111.097 6.63119 114.51 6.63119 116.899 9.01554C117.923 10.2077 118.776 10.0374 120.142 9.52647C122.189 8.84522 123.384 7.99367 123.213 5.43901C123.213 2.71404 125.773 0.5 128.674 0.5C130.04 0.5 131.405 0.5 132.599 0.5C135.842 0.5 138.402 3.05466 138.231 6.29056C138.231 7.99367 138.743 8.5046 140.279 9.18585C142.327 10.0374 143.521 10.2077 145.228 8.5046C147.105 6.46087 150.348 6.8015 152.566 8.67491C153.59 9.52647 154.443 10.378 155.297 11.3999C157.856 14.1249 157.856 17.3608 155.297 19.9154C154.273 20.9373 154.273 21.6185 154.785 22.8107C155.638 25.0247 156.32 26.2169 159.051 26.2169C161.611 26.0466 162.976 28.2606 164 30.4747C164 32.6887 164 35.0731 164 37.2871ZM128.162 9.18585C128.162 9.86709 128.162 10.5483 128.162 11.0593C128.333 12.2514 127.821 12.7624 126.626 12.9327C124.408 13.2733 122.189 14.1249 120.142 15.317C117.411 16.8498 117.411 16.8498 115.022 14.6358C112.291 11.9108 112.291 11.9108 109.732 14.8061C109.22 15.4873 109.049 15.828 109.732 16.5092C110.755 17.5311 111.779 18.5529 112.803 19.5748C113.657 20.256 113.657 20.767 113.145 21.6185C111.779 23.6623 110.755 25.8763 110.073 28.2606C109.22 31.1559 109.22 31.1559 106.148 31.1559C102.223 31.1559 102.223 31.1559 102.564 35.0731C102.564 35.9246 102.905 36.2652 103.759 36.2652C105.124 36.2652 106.489 36.2652 107.854 36.2652C109.049 36.0949 109.561 36.6059 109.732 37.798C110.073 40.1824 110.926 42.2261 112.121 44.2699C113.657 46.9948 113.657 46.9948 111.438 49.2089C108.708 51.9338 108.708 51.9338 111.609 54.4885C111.609 54.4885 111.609 54.4885 111.779 54.6588C112.291 55.1697 112.803 55.1697 113.315 54.6588C114.339 53.6369 115.534 52.6151 116.387 51.4229C117.07 50.5714 117.582 50.7417 118.435 51.2526C120.483 52.6151 122.531 53.6369 124.92 54.3182C127.992 55.1697 127.992 55.1697 127.992 58.2353C127.992 62.1525 127.992 62.1525 131.917 61.8119C132.77 61.8119 133.111 61.4712 133.111 60.6197C133.111 59.0869 133.111 57.5541 133.111 56.0213C133.111 55.1697 133.282 54.9994 134.135 54.8291C136.524 54.3182 138.914 53.6369 141.132 52.2745C143.863 50.7417 143.863 50.7417 146.081 52.9557C148.812 55.6807 148.812 55.6807 151.371 52.7854C151.371 52.7854 151.371 52.7854 151.542 52.6151C152.054 52.1041 152.054 51.5932 151.542 51.0823C150.518 50.0604 149.494 49.0386 148.47 48.0167C147.617 47.3354 147.617 46.6542 148.3 45.8026C149.665 43.7589 150.689 41.7152 151.371 39.3308C152.225 36.4356 152.225 36.4356 155.297 36.4356C159.222 36.4356 159.222 36.4356 158.88 32.5184C158.88 31.6669 158.539 31.3262 157.686 31.3262C156.15 31.3262 154.614 31.3262 153.078 31.3262C152.225 31.3262 152.054 31.1559 151.883 30.3044C151.371 27.92 150.689 25.5357 149.324 23.3216C147.788 20.5967 147.788 20.5967 150.006 18.3826C152.737 15.6577 152.737 15.6577 149.836 13.103C149.153 12.4217 148.641 12.5921 147.958 13.2733C146.934 14.2952 145.911 15.317 144.887 16.5092C144.375 17.0201 144.033 17.1904 143.351 16.6795C140.62 14.8061 137.719 13.6139 134.477 12.9327C133.282 12.5921 133.282 12.2514 133.282 11.5702C133.282 10.2077 133.282 8.67491 133.282 7.31243C133.282 6.12025 132.77 5.77963 131.746 5.77963C128.162 5.60932 128.162 5.60932 128.162 9.18585Z" fill="#014F88"/>
<path d="M122.872 85.6553C124.579 86.6772 126.114 87.5288 127.65 88.5506C129.869 89.9131 129.869 92.1272 127.65 93.4896C126.114 94.3412 124.579 95.1927 122.872 96.0443C124.408 97.0662 125.944 97.9177 127.48 98.7693C129.869 100.302 129.869 102.516 127.48 103.708C112.803 111.372 98.127 119.036 83.6212 126.7C82.5973 127.211 81.5734 127.211 80.3788 126.7C65.7024 119.036 51.026 111.372 36.5203 103.879C35.4964 103.368 34.6431 102.686 34.6431 101.324C34.6431 100.132 35.3257 99.4505 36.3496 98.9396C37.8855 98.088 39.4214 97.2365 41.2986 96.2146C39.5921 95.3631 38.0562 94.5115 36.5203 93.66C35.4964 93.149 34.6431 92.4678 34.6431 91.1053C34.6431 89.7428 35.4964 89.0616 36.5203 88.5506C38.0562 87.6991 39.5921 86.8475 41.4693 85.996C39.7627 85.1444 38.2268 84.2929 36.6909 83.4413C35.4964 82.9304 34.6431 82.0788 34.8137 80.7163C34.8137 79.5242 35.667 78.8429 36.6909 78.1617C51.1967 70.8383 65.873 63.515 80.3788 56.1916C81.5734 55.5104 82.5973 55.5104 83.7919 56.1916C98.2976 63.515 112.803 70.8383 127.48 78.1617C128.674 78.6726 129.528 79.5242 129.357 80.7163C129.357 82.0788 128.504 82.7601 127.48 83.271C125.944 83.9522 124.579 84.6335 122.872 85.6553ZM120.995 80.546C120.483 80.2054 119.971 80.0351 119.288 79.6945C107.342 73.5633 95.2258 67.6024 83.2799 61.4712C82.4266 60.9603 81.744 60.9603 80.8907 61.4712C68.6035 67.6024 56.487 73.9039 44.1998 80.0351C43.8585 80.2054 43.3465 80.2054 43.1759 80.7163C43.3465 80.8867 43.5172 80.8867 43.6878 81.057C56.1457 87.5288 68.6035 94.0006 81.0614 100.643C81.9147 101.154 82.5973 100.813 83.2799 100.472C95.3965 94.1709 107.513 87.8694 119.63 81.3976C120.142 81.2273 120.653 81.057 120.995 80.546ZM121.507 90.7647C120.824 90.424 120.312 90.0834 119.8 89.7428C118.264 88.5506 116.899 88.7209 115.193 89.5725C104.953 95.0224 94.5432 100.472 84.1332 105.922C82.5973 106.774 81.4027 106.604 80.0375 105.922C70.1394 100.813 60.4121 95.7037 50.514 90.5944C46.7596 88.5506 46.7596 88.5506 43.0052 90.935C43.0052 90.935 43.0052 90.935 42.8345 91.1053C43.0052 91.2756 43.1759 91.4459 43.3465 91.4459C55.975 98.088 68.6035 104.56 81.232 111.202C82.0853 111.543 82.4266 111.372 83.1093 111.032C89.5942 107.625 96.0791 104.219 102.564 100.813C108.878 97.2365 115.193 94.0006 121.507 90.7647ZM43.0052 100.983C43.1759 100.983 43.3465 101.154 43.5172 101.324C56.1457 107.966 68.6035 114.438 81.232 121.08C81.9147 121.421 82.4266 121.421 82.9386 121.08C86.5224 119.207 90.1061 117.333 93.6899 115.46C102.905 110.691 112.121 105.752 121.507 100.983C120.653 100.472 119.971 100.132 119.288 99.6208C118.094 98.599 117.07 98.7693 115.534 99.4505C104.953 105.071 94.5432 110.521 83.9625 115.971C82.5973 116.652 81.4027 116.652 80.0375 115.971C70.1394 110.861 60.2414 105.752 50.3434 100.472C47.6129 98.9396 45.3944 98.599 43.0052 100.983Z" fill="#014F88"/>
<path d="M146.081 114.268C146.081 118.355 142.668 121.932 138.402 121.932C134.135 121.932 130.722 118.525 130.722 114.268C130.722 110.18 134.135 106.604 138.402 106.604C142.497 106.433 146.081 110.01 146.081 114.268ZM140.962 114.268C140.962 112.905 139.938 111.713 138.402 111.713C137.036 111.713 135.842 112.735 135.842 114.097C135.842 115.46 137.036 116.822 138.402 116.822C139.767 116.652 140.962 115.63 140.962 114.268Z" fill="#014F88"/>
<path d="M33.4485 114.268C33.4485 118.525 29.8647 121.932 25.5983 121.932C21.5026 121.932 18.0895 118.355 18.0895 114.268C18.0895 110.01 21.6733 106.604 25.9396 106.604C30.0354 106.604 33.4485 110.01 33.4485 114.268ZM28.3288 114.268C28.3288 112.905 27.3049 111.713 25.9396 111.713C24.5744 111.713 23.3798 112.735 23.2092 114.097C23.2092 115.46 24.2331 116.822 25.769 116.822C27.1342 116.652 28.3288 115.63 28.3288 114.268Z" fill="#014F88"/>
<path d="M94.0312 41.3746C86.0104 41.3746 78.1602 41.3746 70.3101 41.3746C70.9927 39.8418 71.6753 38.4793 71.846 36.9465C71.846 36.2652 72.358 36.4356 72.6993 36.4356C79.0135 36.4356 85.3278 36.4356 91.4714 36.4356C91.9834 36.4356 92.3247 36.6059 92.3247 37.1168C92.666 38.4793 93.0073 39.8418 94.0312 41.3746Z" fill="#014F88"/>
<path d="M15.5297 124.486C15.5297 125.849 14.3351 127.041 12.9698 127.041C11.4339 126.871 10.41 125.678 10.41 124.316C10.41 122.953 11.6046 121.932 13.1405 121.932C14.5057 121.932 15.5297 123.124 15.5297 124.486Z" fill="#014F88"/>
<path d="M153.761 124.486C153.761 125.849 152.566 127.041 151.201 127.041C149.836 127.041 148.641 125.849 148.641 124.316C148.641 122.953 149.836 121.761 151.201 121.932C152.566 121.932 153.761 122.953 153.761 124.486Z" fill="#014F88"/>
<path d="M33.4485 47.1651C25.769 47.1651 19.9667 41.0339 19.9667 33.5403C19.9667 26.0466 26.1103 20.0857 33.6191 20.0857C41.128 20.0857 47.2716 26.2169 47.1009 33.7106C46.9303 41.3746 40.7867 47.3354 33.4485 47.1651ZM33.4485 42.0558C38.2268 42.0558 41.8106 38.4793 41.9813 33.7106C41.9813 28.9419 38.2268 25.1951 33.4485 25.1951C28.8408 25.1951 25.257 28.9419 25.257 33.5403C24.9157 38.309 28.6701 42.0558 33.4485 42.0558Z" fill="#014F88"/>
<path d="M144.204 33.7106C144.204 41.2043 138.231 47.1651 130.722 47.1651C123.213 47.1651 117.07 41.0339 117.07 33.5403C117.07 26.0466 123.213 20.0857 130.552 20.0857C138.231 20.256 144.204 26.2169 144.204 33.7106ZM139.084 33.7106C139.084 29.1122 135.33 25.3654 130.722 25.3654C126.114 25.3654 122.36 29.1122 122.36 33.7106C122.36 38.4793 126.114 42.2261 130.893 42.2261C135.33 42.0558 139.084 38.309 139.084 33.7106Z" fill="#014F88"/>
</svg>
