<svg width="48" height="48" viewBox="0 0 48 48" fill="none" xmlns="http://www.w3.org/2000/svg">
<path d="M33.4587 0C34.9841 0 36.522 0 38.0474 0C38.6476 0.250195 38.7601 0.738077 38.7476 1.32604C38.7226 2.32682 38.7851 2.25176 39.6228 2.71462C40.448 3.17748 40.9482 3.01486 41.5108 2.32682C42.061 1.6638 42.5486 1.70133 43.1737 2.32682C43.9865 3.13995 44.8117 3.95309 45.6244 4.77873C46.2996 5.45426 46.2996 5.86708 45.6119 6.55512C45.3743 6.79281 45.0242 7.00547 44.9242 7.2932C44.7992 7.61845 45.1493 7.9312 45.2743 8.25645C45.3993 8.5817 45.3993 9.04457 45.6994 9.19468C45.987 9.33229 46.3996 9.25723 46.7622 9.23221C47.3373 9.19468 47.7624 9.38233 48 9.93276C48 11.459 48 12.9977 48 14.5238C47.6874 15.0117 47.2248 15.1994 46.6622 15.1243C46.5371 15.1118 46.4121 15.1368 46.2871 15.1243C45.7869 15.0367 45.5369 15.2244 45.3993 15.7248C45.2743 16.1751 44.8367 16.6255 44.9242 17.0008C45.0117 17.4011 45.5369 17.7013 45.8619 18.0641C46.237 18.4769 46.2245 18.9523 45.8619 19.3651C45.7494 19.4902 45.6369 19.6278 45.4993 19.7279C45.2368 19.9281 45.1743 20.1783 45.1743 20.5035C45.1868 25.4324 45.1868 30.3487 45.1743 35.2776C45.1743 37.5794 43.5488 39.1931 41.2482 39.1931C39.1602 39.1931 37.0597 39.1931 34.9716 39.1931C32.2834 39.1931 29.5952 39.1931 26.907 39.1806C26.6069 39.1806 26.5194 39.2557 26.5194 39.5559C26.5444 40.3941 26.5319 41.2447 26.5194 42.0829C26.5194 42.308 26.5819 42.3706 26.807 42.3706C27.4822 42.3581 28.1448 42.3581 28.82 42.3706C30.4329 42.3956 31.7708 43.534 32.0834 45.1353C32.1834 45.6607 32.1084 46.1986 32.1584 46.724C32.2084 47.2994 31.9958 47.7123 31.4957 48C25.5316 48 19.5551 48 13.591 48C13.1034 47.6372 12.9534 47.1618 13.0159 46.5739C13.0409 46.2987 13.0159 46.0109 13.0284 45.7357C13.0534 44.1095 14.1662 42.7584 15.7541 42.4582C16.6043 42.2955 17.467 42.4081 18.3173 42.3956C18.5798 42.3956 18.6549 42.3206 18.6549 42.0579C18.6424 41.2572 18.6299 40.4691 18.6549 39.6685C18.6674 39.2682 18.5548 39.1931 18.1672 39.1931C13.4035 39.2056 8.65225 39.2056 3.88851 39.2056C2.05053 39.2056 0.700182 38.2174 0.137536 36.4785C0.112529 36.3909 0.137536 36.2533 0 36.2158C0 27.0837 0 17.964 0 8.8319C0.0750195 8.81939 0.0875228 8.75684 0.100026 8.69429C0.775202 6.70524 2.00052 5.82955 4.08856 5.82955C11.0404 5.82955 17.9922 5.82955 24.944 5.82955C25.2691 5.82955 25.5567 5.87959 25.5442 5.40422C25.5442 5.24159 25.6817 5.09148 25.8067 4.96638C26.732 4.04066 27.6572 3.11493 28.5949 2.18921C28.8575 1.9265 29.1701 1.82643 29.5327 1.9265C29.8453 2.01407 30.0453 2.26427 30.2704 2.48944C30.9456 3.16497 30.9456 3.16497 31.7958 2.80219C31.9208 2.75215 32.0458 2.66458 32.1834 2.65207C32.7835 2.5645 32.9461 2.21423 32.8836 1.65129C32.796 1.00078 32.821 0.375293 33.4587 0ZM26.5944 7.69351C26.4194 7.69351 26.2568 7.69351 26.1068 7.69351C18.7549 7.69351 11.3905 7.69351 4.03855 7.69351C2.60068 7.69351 1.87549 8.41908 1.87549 9.8577C1.87549 15.3745 1.87549 20.8913 1.86299 26.4081C1.86299 26.846 1.97551 26.9335 2.40063 26.9335C4.57619 26.9085 6.73926 26.921 8.91482 26.921C9.6025 26.921 10.0151 27.3339 9.95259 27.9593C9.90258 28.4722 9.51498 28.7975 8.90232 28.7975C6.70174 28.7975 4.50117 28.81 2.3006 28.785C1.938 28.785 1.86299 28.8851 1.87549 29.2228C1.90049 29.7858 1.913 30.3487 1.87549 30.9116C1.83798 31.337 1.98802 31.4371 2.40063 31.4371C13.7286 31.4245 25.0565 31.4245 36.372 31.4245C37.2097 31.4245 37.6723 31.7623 37.6598 32.3753C37.6598 32.9758 37.1972 33.301 36.3595 33.301C25.4816 33.301 14.6163 33.301 3.73847 33.301C3.27585 33.301 2.80073 33.326 2.33811 33.2885C1.98802 33.2635 1.83798 33.3385 1.86299 33.7389C1.90049 34.2142 1.87549 34.7021 1.87549 35.19C1.87549 36.5786 2.61318 37.3292 4.01355 37.3292C16.3918 37.3292 28.7575 37.3292 41.1357 37.3292C42.5486 37.3292 43.2988 36.5911 43.2988 35.165C43.2988 30.9242 43.2988 26.6959 43.2988 22.455C43.2988 22.3299 43.3613 22.1798 43.2488 22.0672C42.3735 22.7177 42.136 22.6927 41.3483 21.9046C41.2858 21.8421 41.2107 21.7795 41.1482 21.7045C40.8606 21.2916 40.5356 21.1916 40.0729 21.4918C39.7729 21.6794 39.4228 21.7795 39.0852 21.8921C38.8351 21.9672 38.7476 22.1048 38.7601 22.355C38.7851 22.7177 38.7726 23.068 38.7601 23.4308C38.7226 24.0438 38.385 24.3815 37.7723 24.3941C36.472 24.4066 35.1842 24.4066 33.8838 24.3941C33.2587 24.3941 32.9086 24.0438 32.8711 23.4058C32.8586 23.043 32.8586 22.6802 32.8711 22.3299C32.8836 22.0923 32.821 21.9547 32.571 21.8921C32.1084 21.767 31.6582 21.5668 31.2331 21.3417C31.0331 21.2291 30.908 21.2541 30.758 21.4167C30.4954 21.7045 30.2204 21.9797 29.9328 22.2424C29.5327 22.6052 29.0451 22.6302 28.67 22.2674C27.6822 21.3041 26.707 20.3409 25.7567 19.3526C25.3941 18.9773 25.4191 18.4894 25.7692 18.0891C25.9568 17.8765 26.1443 17.6638 26.3694 17.4887C26.732 17.2009 26.832 16.9257 26.5569 16.4879C26.3194 16.1001 26.3069 15.4871 25.9943 15.2369C25.6567 14.9617 25.069 15.1869 24.5814 15.1493C23.9812 15.0993 23.6312 14.7615 23.6312 14.1486C23.6187 12.8475 23.6187 11.559 23.6312 10.258C23.6312 9.63252 23.9937 9.28225 24.6189 9.25723C24.994 9.24472 25.3691 9.25723 25.7442 9.25723C25.8817 9.25723 26.0068 9.26974 26.0693 9.08209C26.2193 8.61923 26.4069 8.16888 26.5944 7.69351ZM29.3326 4.12822C29.2326 4.21579 29.1701 4.25332 29.1201 4.30336C28.92 4.50352 28.72 4.69116 28.5199 4.90383C28.2824 5.15403 27.8698 5.39171 27.8573 5.65442C27.8322 5.95465 28.2824 6.16732 28.5199 6.43002C28.97 6.90539 29.0326 7.26818 28.695 7.81861C28.2449 8.56919 27.9073 9.36982 27.6947 10.2205C27.5197 10.921 27.2571 11.1087 26.5444 11.1337C26.2068 11.1462 25.7442 10.9836 25.5692 11.2088C25.3941 11.4214 25.5066 11.8593 25.5066 12.2095C25.5066 12.5473 25.3941 12.9851 25.5692 13.2103C25.7442 13.4355 26.2068 13.2729 26.5444 13.2854C27.2571 13.3104 27.5322 13.498 27.7072 14.1861C27.9198 15.0117 28.2324 15.7873 28.67 16.5129C29.0576 17.1634 29.0201 17.5012 28.4824 18.0391C27.7822 18.7521 27.7822 18.7521 28.4949 19.4527C28.745 19.7029 28.9825 20.1157 29.2701 20.1532C29.6077 20.2033 29.8078 19.7154 30.0703 19.4777C30.5455 19.0399 30.8955 18.9898 31.4582 19.3276C32.1959 19.7654 32.9836 20.1032 33.8213 20.3159C34.559 20.5035 34.7465 20.7662 34.7591 21.5418C34.7716 22.5176 34.7716 22.5301 35.7468 22.5176C36.1219 22.5176 36.6095 22.6802 36.8221 22.455C37.0096 22.2674 36.8846 21.7795 36.8971 21.4292C36.9221 20.7787 37.1222 20.516 37.7723 20.3409C38.6351 20.1157 39.4603 19.7905 40.223 19.3151C40.7606 18.9898 41.1357 19.0399 41.5983 19.5027C41.8484 19.7404 42.086 20.1658 42.336 20.1783C42.6361 20.1908 42.8612 19.7404 43.1112 19.4902C43.3613 19.2525 43.7614 19.0149 43.7739 18.7521C43.7989 18.4519 43.3488 18.2392 43.1112 17.9765C42.6486 17.4887 42.5986 17.1384 42.9612 16.5504C43.4113 15.8124 43.7239 15.0242 43.9489 14.1861C44.1365 13.4605 44.3866 13.2729 45.1368 13.2729C46.1245 13.2604 46.137 13.2604 46.1245 12.2471C46.1245 11.8843 46.237 11.4214 46.062 11.2088C45.8744 10.9711 45.3993 11.1462 45.0367 11.1337C44.3866 11.1087 44.1115 10.896 43.9489 10.258C43.7239 9.39484 43.3988 8.56919 42.9237 7.8061C42.5861 7.25567 42.6486 6.89288 43.0987 6.43002C43.3363 6.17983 43.7614 5.94214 43.7739 5.69195C43.7864 5.39171 43.3488 5.16654 43.0862 4.91634C42.8362 4.66614 42.6111 4.21579 42.311 4.24081C42.0485 4.25332 41.8109 4.67865 41.5733 4.91634C41.1107 5.36669 40.7481 5.41673 40.198 5.09148C39.4478 4.62862 38.6476 4.30336 37.7973 4.07819C37.0972 3.89054 36.8971 3.64034 36.8846 2.92729C36.8846 2.60203 36.9971 2.16419 36.8346 1.97654C36.6345 1.75137 36.1844 1.914 35.8468 1.90149C35.4967 1.88898 35.0216 1.7889 34.8091 1.96403C34.584 2.15168 34.7465 2.63956 34.734 2.98984C34.709 3.64034 34.4965 3.90305 33.8588 4.07819C33.1961 4.25332 32.5335 4.45348 31.9458 4.81626C30.4454 5.74199 30.3704 5.24159 29.5702 4.45348C29.4827 4.34089 29.4077 4.2283 29.3326 4.12822ZM22.5559 46.1485C24.994 46.1485 27.4321 46.136 29.8578 46.1611C30.2329 46.1611 30.2954 46.0485 30.2704 45.7232C30.2079 44.9351 29.6077 44.2846 28.8075 44.2846C24.6564 44.2721 20.5053 44.2721 16.3543 44.2846C15.5415 44.2846 14.9289 44.9476 14.8914 45.7482C14.8664 46.0735 14.9664 46.1611 15.2915 46.1611C17.7171 46.136 20.1427 46.1485 22.5559 46.1485ZM22.6309 42.3956C23.206 42.3956 23.7812 42.3831 24.3688 42.3956C24.5814 42.3956 24.6689 42.3581 24.6689 42.1204C24.6564 41.2447 24.6564 40.369 24.6689 39.4934C24.6689 39.2807 24.6189 39.1931 24.3939 39.1931C23.206 39.2056 22.0182 39.2056 20.8304 39.1931C20.6179 39.1931 20.5303 39.2432 20.5303 39.4683C20.5428 40.344 20.5428 41.2197 20.5303 42.0954C20.5178 42.3706 20.6429 42.3956 20.8554 42.3831C21.4431 42.3831 22.0307 42.3956 22.6309 42.3956Z" fill="white"/>
<path d="M22.6934 16.5379C22.6934 16.9257 22.5684 17.1884 22.3058 17.3761C22.1808 17.4636 22.0432 17.5387 21.9057 17.6263C21.3931 17.9265 21.1805 18.4019 21.3306 18.9523C21.3806 19.1274 21.5431 19.165 21.6681 19.24C22.881 19.9531 22.9435 20.1783 22.2308 21.4042C21.8307 22.0923 21.4431 22.7803 21.043 23.4683C20.6804 24.0813 20.2053 24.1939 19.5801 23.8561C19.5301 23.8311 19.4676 23.7936 19.4176 23.7561C18.7924 23.3933 18.5423 23.4308 17.9797 23.8686C17.8171 23.9937 17.8672 24.1439 17.8547 24.294C17.8296 25.7826 17.6921 25.9202 16.2042 25.9202C15.4665 25.9202 14.7413 25.9202 14.0036 25.9202C13.1159 25.9202 12.8158 25.6075 12.8158 24.7443C12.8158 24.6943 12.8158 24.6568 12.8158 24.6067C12.8158 24.0188 12.5033 23.6059 11.9531 23.4558C11.8281 23.4183 11.7406 23.4934 11.653 23.5434C11.453 23.656 11.2529 23.7811 11.0404 23.8937C10.4777 24.1939 9.9776 24.0688 9.64001 23.5059C9.12738 22.6427 8.62725 21.7795 8.13962 20.9163C7.81453 20.3409 7.95207 19.8655 8.51472 19.5152C8.56473 19.4777 8.62725 19.4527 8.67726 19.4152C9.38995 19.0023 9.43996 18.8898 9.35244 18.1016C9.32743 17.889 9.17739 17.864 9.05236 17.7889C7.73952 17.0008 7.6895 16.8507 8.4522 15.5246C8.8273 14.8616 9.2149 14.1986 9.6025 13.5481C9.9776 12.8976 10.4402 12.785 11.0904 13.1478C11.1279 13.1728 11.1654 13.1978 11.2154 13.2228C11.8656 13.5981 12.1157 13.5731 12.6908 13.1228C12.8408 12.9977 12.8158 12.8475 12.8033 12.6974C12.7158 11.2463 13.1409 11.0211 14.4413 11.0711C15.2165 11.1087 16.0042 11.0711 16.7794 11.0837C17.4545 11.0837 17.8046 11.4339 17.8421 12.122C17.8421 12.1845 17.8421 12.2471 17.8421 12.3096C17.8421 13.0727 17.9797 13.2604 18.6674 13.5356C18.8549 13.6106 18.9549 13.4855 19.08 13.423C20.3803 12.6974 20.5679 12.7475 21.3055 14.036C21.6931 14.699 22.0682 15.362 22.4558 16.025C22.5809 16.1876 22.6934 16.3753 22.6934 16.5379ZM20.4303 16.2127C20.3303 16.0375 20.2053 15.8624 20.1302 15.6747C19.9552 15.2369 19.7426 15.1368 19.33 15.4371C18.9299 15.7373 18.4798 15.7498 18.0797 15.3995C17.6421 15.0367 17.167 14.749 16.6293 14.5614C16.1917 14.4113 16.0042 14.086 15.9792 13.6357C15.9542 12.9351 15.9417 12.9351 15.254 12.9351C15.204 12.9351 15.1539 12.9476 15.1164 12.9351C14.7663 12.8726 14.6663 12.9977 14.6788 13.3604C14.7038 14.1611 14.5538 14.3487 13.8161 14.6489C13.3785 14.8241 12.9784 15.0743 12.6283 15.3745C12.2532 15.6998 11.8531 15.7248 11.4155 15.4871C10.8403 15.1618 10.8653 15.1994 10.4902 15.7498C10.2277 16.1376 10.2277 16.3378 10.6903 16.5629C11.2654 16.8382 11.353 17.1384 11.2654 17.7889C11.2029 18.2893 11.1904 18.7897 11.2904 19.2776C11.378 19.7529 11.2029 20.0907 10.8153 20.3534C10.2277 20.7287 10.2277 20.7287 10.5903 21.3542C10.6028 21.3667 10.6028 21.3792 10.6153 21.3917C10.7528 21.792 10.9654 21.792 11.3029 21.5668C11.8781 21.1916 12.2032 21.2291 12.7408 21.6669C13.1159 21.9797 13.541 22.2048 14.0036 22.3675C14.4913 22.5426 14.7038 22.8929 14.7163 23.4058C14.7288 24.0188 14.7288 24.0188 15.3665 24.0188C15.379 24.0188 15.404 24.0188 15.4165 24.0188C15.8666 24.0938 16.0667 23.9562 16.0042 23.4558C15.9417 22.9054 16.2042 22.5301 16.7419 22.355C17.2295 22.1923 17.6671 21.9171 18.0672 21.5794C18.4298 21.2666 18.8174 21.2416 19.2425 21.4543C19.8552 21.7795 19.8552 21.767 20.2053 21.179C20.2178 21.154 20.2303 21.129 20.2553 21.104C20.5554 20.7787 20.4178 20.5786 20.0552 20.4285C19.5051 20.1908 19.305 19.7654 19.4176 19.1775C19.4801 18.8147 19.5426 18.4269 19.4551 18.0641C19.2675 17.2885 19.4676 16.7131 20.2428 16.4003C20.3053 16.3753 20.4428 16.3503 20.4303 16.2127Z" fill="white"/>
<path d="M39.5478 32.3503C39.5478 31.8374 39.9604 31.4245 40.4605 31.4245C40.9732 31.4245 41.4233 31.8749 41.4108 32.3753C41.3983 32.8757 40.9732 33.2885 40.473 33.2885C39.9479 33.301 39.5353 32.8882 39.5478 32.3503Z" fill="white"/>
<path d="M22.5809 34.2392C23.081 34.2392 23.5061 34.6521 23.5186 35.1525C23.5311 35.6654 23.0935 36.1157 22.5809 36.1157C22.0557 36.1157 21.6431 35.6779 21.6556 35.1525C21.6681 34.6396 22.0808 34.2267 22.5809 34.2392Z" fill="white"/>
<path d="M13.6786 27.8593C13.6786 28.3722 13.2284 28.81 12.7158 28.785C12.2157 28.7725 11.8031 28.3471 11.8156 27.8468C11.8156 27.3213 12.2532 26.896 12.7783 26.921C13.266 26.9335 13.6786 27.3589 13.6786 27.8593Z" fill="white"/>
<path d="M35.8093 18.0016C32.621 18.0016 29.9953 15.387 29.9953 12.2095C29.9953 8.99453 32.6085 6.36747 35.8218 6.37998C39.0102 6.37998 41.6233 9.00704 41.6233 12.197C41.6233 15.387 39.0102 18.0016 35.8093 18.0016ZM35.8343 8.25645C33.6713 8.24394 31.8958 10.0078 31.8833 12.1595C31.8708 14.3237 33.6213 16.1126 35.7718 16.1251C37.9599 16.1501 39.7478 14.3737 39.7478 12.197C39.7478 10.0328 37.9849 8.26896 35.8343 8.25645Z" fill="white"/>
<path d="M15.3415 19.4277C14.8289 19.4277 14.4288 19.0274 14.4163 18.5145C14.4038 17.9891 14.8289 17.5512 15.3415 17.5512C15.8291 17.5512 16.2667 17.9765 16.2792 18.4769C16.2917 18.9898 15.8666 19.4277 15.3415 19.4277Z" fill="white"/>
</svg>
