<svg width="25" height="20" viewBox="0 0 25 20" fill="none" xmlns="http://www.w3.org/2000/svg">
<path d="M0.183105 17.7396C2.83591 17.9867 5.23466 17.3239 7.40299 15.6608C5.14013 15.456 3.63353 14.287 2.78865 12.1359C3.55081 12.2443 4.24798 12.2443 4.99833 12.0455C3.81668 11.7563 2.88318 11.1718 2.16237 10.2499C1.43566 9.32795 1.07525 8.26745 1.07525 7.03221C1.42975 7.22502 1.77243 7.37566 2.13283 7.47207C2.48732 7.56848 2.84773 7.65284 3.27312 7.63476C2.20964 6.85144 1.51837 5.84517 1.24068 4.56775C0.957087 3.29033 1.15797 2.07919 1.78424 0.922277C2.05011 1.21753 2.29235 1.50676 2.55231 1.78393C4.53749 3.88686 6.93624 5.25466 9.73084 5.88735C10.4221 6.04401 11.1252 6.12234 11.8283 6.1826C11.9878 6.19465 11.9819 6.14645 11.9642 6.01388C11.716 4.50147 11.9996 3.10353 12.9567 1.90444C14.1561 0.404077 15.7277 -0.216556 17.6184 0.0666454C18.6582 0.22331 19.5504 0.69933 20.2948 1.45855C20.3952 1.56099 20.4839 1.57906 20.6257 1.54894C21.5828 1.33202 22.4868 0.988558 23.3435 0.500487C23.3966 0.470359 23.4557 0.446256 23.5148 0.416129C23.3848 1.25971 22.4513 2.53713 21.4292 3.12161C21.7187 3.12764 21.9373 3.06738 22.1618 3.0252C22.3863 2.98302 22.6049 2.92879 22.8235 2.86854C23.048 2.80828 23.2726 2.72995 23.4971 2.65162C23.7098 2.57931 23.9166 2.49495 24.1293 2.41662C24.1411 2.4347 24.1588 2.45277 24.1706 2.47085C23.9993 2.69982 23.8398 2.94084 23.6625 3.16379C23.1485 3.8025 22.5695 4.38095 21.9137 4.86903C21.8191 4.94133 21.7719 5.01364 21.7778 5.1462C21.8664 7.76733 21.2638 10.2258 20.0526 12.5275C18.7527 15.0101 16.9094 16.9684 14.4752 18.3181C12.9981 19.1376 11.4206 19.6317 9.75448 19.8606C8.39558 20.0474 7.04259 20.0474 5.6896 19.8546C3.72215 19.5654 1.8965 18.8845 0.218555 17.7999C0.20083 17.7818 0.20083 17.7638 0.183105 17.7396Z" fill="#282624"/>
</svg>
