<svg width="96" height="89" viewBox="0 0 96 89" fill="none" xmlns="http://www.w3.org/2000/svg">
<path d="M70.7467 9.21074C71.1074 2.55029 73.3964 1.01516 77.3026 0C70.3486 0 61.3296 3.23119 59.8865 9.48311C46.5134 11.761 36.4867 21.0708 36.4867 32.2128C36.4867 34.0822 36.7728 35.9021 37.3078 37.6477H53.8779C58.8913 37.6477 62.9592 41.7083 62.9592 46.6851V55.3387C64.0415 55.4377 65.1362 55.4873 66.2434 55.4873C82.6767 55.4873 96 45.0633 96 32.2128C96 20.5632 85.0403 10.9068 70.7467 9.21074ZM52.6712 35.4688C50.8674 35.4688 49.3995 34.0079 49.3995 32.2128C49.3995 30.4177 50.8674 28.9569 52.6712 28.9569C54.475 28.9569 55.943 30.4177 55.943 32.2128C55.943 34.0203 54.475 35.4688 52.6712 35.4688ZM66.2434 35.4688C64.4396 35.4688 62.9716 34.0079 62.9716 32.2128C62.9716 30.4177 64.4396 28.9569 66.2434 28.9569C68.0472 28.9569 69.5151 30.4177 69.5151 32.2128C69.5151 34.0203 68.0472 35.4688 66.2434 35.4688ZM79.803 35.4688C77.9992 35.4688 76.5313 34.0079 76.5313 32.2128C76.5313 30.4177 77.9992 28.9569 79.803 28.9569C81.6068 28.9569 83.0748 30.4177 83.0748 32.2128C83.0748 34.0203 81.6193 35.4688 79.803 35.4688Z" fill="white"/>
<path d="M53.8655 40.9408H5.77221C2.59999 40.9408 0 43.5282 0 46.6851V75.4068C0 78.5637 2.59999 81.1511 5.77221 81.1511H8.07359C8.07359 87.0192 6.44392 88.2201 3.4583 89C8.74533 89 15.774 86.3135 15.774 81.1511H53.8655C57.0377 81.1511 59.6377 78.5637 59.6377 75.4068V46.6851C59.6377 43.5282 57.0377 40.9408 53.8655 40.9408ZM47.8943 68.8206H11.7559V67.174H47.8943V68.8206ZM47.8943 62.6924H11.7559V61.0459H47.8943V62.6924ZM47.8943 56.5643H11.7559V54.9178H47.8943V56.5643Z" fill="white"/>
</svg>
