<svg width="48" height="48" viewBox="0 0 48 48" fill="none" xmlns="http://www.w3.org/2000/svg">
<path d="M0 41.5287C0 29.8429 0 18.1477 0 6.4619C0.14068 6.40563 0.084408 6.27433 0.103165 6.18054C0.675264 3.40445 2.26964 1.48183 4.9238 0.440797C5.43025 0.243845 5.97421 0.225088 6.4619 0C18.0914 0 29.7116 0 41.3411 0C41.3693 0.028136 41.4068 0.0750293 41.4349 0.0750293C44.4924 0.497069 46.5088 2.20399 47.5967 5.0551C47.7843 5.53341 47.8687 6.05862 48 6.56506C48 18.2227 48 29.8804 48 41.5381C47.8593 41.5944 47.9156 41.7257 47.8968 41.8195C47.3247 44.6049 45.7304 46.5182 43.0762 47.5592C42.5135 47.7843 41.9132 47.8218 41.3411 48C29.7116 48 18.0914 48 6.4619 48C6.40563 47.8593 6.27433 47.9156 6.18054 47.8968C3.39508 47.3247 1.48183 45.7304 0.440797 43.0762C0.243845 42.5697 0.225088 42.0258 0 41.5287ZM24.0188 14.8652C17.1161 14.8652 10.204 14.8652 3.30129 14.8558C2.88863 14.8558 2.79484 14.959 2.79484 15.3622C2.80422 23.6717 2.80422 31.9906 2.80422 40.3001C2.80422 43.1981 4.7925 45.1864 7.68113 45.1864C18.5604 45.1864 29.4302 45.1864 40.3095 45.1864C43.1981 45.1864 45.1864 43.1887 45.1864 40.3001C45.1864 31.9906 45.1864 23.6717 45.1958 15.3622C45.1958 14.959 45.1114 14.8558 44.6893 14.8558C37.8054 14.8652 30.9121 14.8652 24.0188 14.8652ZM24 12.0516C30.9027 12.0516 37.8054 12.0516 44.7175 12.061C45.1114 12.061 45.2052 11.9672 45.2052 11.5733C45.177 10.2321 45.1958 8.89097 45.1958 7.54044C45.1864 4.83939 43.1512 2.80422 40.4502 2.80422C29.4771 2.80422 18.5135 2.80422 7.54982 2.8136C4.84877 2.8136 2.82298 4.84877 2.8136 7.54982C2.80422 8.88159 2.83236 10.204 2.80422 11.5358C2.79484 11.9766 2.92614 12.061 3.3388 12.061C10.2227 12.0516 17.1161 12.0516 24 12.0516Z" fill="white"/>
<path d="M13.4302 34.4291C13.0457 34.4384 12.7175 34.2884 12.4361 34.007C10.4478 32.0188 8.45018 30.0399 6.48066 28.0422C5.84291 27.3951 5.85229 26.6073 6.49004 25.9601C8.45955 23.9719 10.4385 22.0023 12.4173 20.0328C13.0363 19.4138 13.8992 19.4232 14.4619 20.0047C15.0152 20.5768 14.9871 21.4302 14.3681 22.0492C12.83 23.5967 11.2825 25.1536 9.72567 26.6823C9.46307 26.9449 9.48183 27.0762 9.73505 27.3294C11.2825 28.8488 12.8113 30.3869 14.34 31.925C14.9777 32.5627 15.034 33.388 14.49 33.9695C14.2087 34.279 13.8617 34.4384 13.4302 34.4291Z" fill="white"/>
<path d="M31.5404 34.4291C30.959 34.4197 30.5276 34.1571 30.2743 33.6319C30.0211 33.0973 30.0961 32.5909 30.4619 32.1501C30.7339 31.8312 31.0434 31.5404 31.3435 31.2403C32.6471 29.9367 33.9414 28.6237 35.2544 27.3388C35.5076 27.095 35.5358 26.9637 35.2638 26.6917C33.7257 25.1817 32.2157 23.653 30.687 22.1336C30.3306 21.7773 30.0774 21.374 30.143 20.8488C30.2087 20.2954 30.5088 19.8921 31.0246 19.6858C31.5686 19.4701 32.075 19.5733 32.4971 19.9766C33.0317 20.483 33.5381 21.0082 34.0633 21.524C35.4982 22.959 36.9332 24.3939 38.3681 25.8288C39.1747 26.6354 39.1747 27.3763 38.3775 28.1735C36.483 30.0774 34.5791 31.9719 32.6846 33.8757C32.3564 34.1946 32.0188 34.4478 31.5404 34.4291Z" fill="white"/>
<path d="M18.0821 33.0035C18.0633 32.7503 18.1665 32.5064 18.2884 32.272C20.2485 28.3423 22.2181 24.4127 24.1876 20.4924C24.5252 19.8265 25.041 19.517 25.6882 19.6108C26.2884 19.6952 26.6729 20.0422 26.8605 20.6143C26.973 20.9801 26.9168 21.3271 26.7479 21.6553C24.7597 25.6413 22.7714 29.6272 20.7737 33.6037C20.4267 34.2978 19.7608 34.5791 19.095 34.3916C18.4947 34.2134 18.0821 33.66 18.0821 33.0035Z" fill="white"/>
<path d="M8.82532 7.4279C8.82532 8.20633 8.22509 8.82532 7.44666 8.82532C6.65885 8.8347 6.00235 8.18757 6.0211 7.40914C6.03048 6.65885 6.68699 6.01172 7.43728 6.01172C8.19695 6.0211 8.82532 6.64947 8.82532 7.4279Z" fill="white"/>
<path d="M19.4607 8.82532C18.6917 8.81594 18.0821 8.19695 18.0821 7.41852C18.0821 6.64947 18.7198 6.0211 19.4795 6.0211C20.2485 6.0211 20.9144 6.70574 20.8957 7.46542C20.8675 8.23447 20.2392 8.8347 19.4607 8.82532Z" fill="white"/>
<path d="M13.4584 8.82532C12.68 8.82532 12.061 8.21571 12.061 7.43728C12.061 6.66823 12.6893 6.0211 13.449 6.0211C14.2087 6.0211 14.8464 6.65885 14.8558 7.4279C14.8558 8.19695 14.2368 8.82532 13.4584 8.82532Z" fill="white"/>
</svg>
