<svg width="48" height="41" viewBox="0 0 48 41" fill="none" xmlns="http://www.w3.org/2000/svg">
<path d="M48 32.1416C47.975 32.1666 47.925 32.1916 47.9125 32.2291C47.3127 33.8287 46.4004 34.466 44.7009 34.466C40.2395 34.466 35.7782 34.466 31.3168 34.4535C30.9294 34.4535 30.817 34.5285 30.867 34.9284C31.0419 36.1656 31.1919 37.4028 31.3293 38.6399C31.3668 38.9649 31.4668 39.0898 31.8167 39.0648C32.4291 39.0273 33.0289 39.0523 33.6412 39.0523C34.1536 39.0523 34.466 39.3148 34.4785 39.7271C34.491 40.152 34.1536 40.452 33.6287 40.452C30.4546 40.452 27.2929 40.452 24.1187 40.452C20.9071 40.452 17.6829 40.452 14.4712 40.452C14.1963 40.452 13.9339 40.4395 13.7339 40.227C13.5465 40.0146 13.4715 39.7771 13.584 39.4897C13.6964 39.2023 13.9214 39.0398 14.2338 39.0398C14.9211 39.0398 15.6084 39.0273 16.2958 39.0398C16.5582 39.0523 16.6457 38.9524 16.6707 38.7024C16.8206 37.4028 16.9831 36.1031 17.158 34.8034C17.208 34.416 17.0331 34.4285 16.7456 34.4285C12.3093 34.441 7.88545 34.4285 3.4491 34.4285C1.58709 34.4285 0.774798 33.8787 0.0749805 32.1416C0.0624837 32.1166 0.0249935 32.1041 0 32.0916C0 22.1317 0 12.1718 0 2.19943C0.0374902 2.17443 0.0874772 2.14944 0.099974 2.12445C0.687321 0.57485 1.86202 0 3.49909 0C17.183 0.0124967 30.8795 0.0124968 44.5634 0.0124968C44.7633 0.0124968 44.9758 9.49702e-08 45.1757 0.0249936C46.3629 0.124968 47.2252 0.687321 47.7376 1.77454C47.8375 1.98698 47.9125 2.22442 48 2.44936C48 12.3468 48 22.2442 48 32.1416ZM24.0062 1.41213C17.0955 1.41213 10.1724 1.41213 3.26165 1.41213C2.01198 1.41213 1.43713 1.99948 1.43713 3.24915C1.43713 12.5717 1.43713 21.8943 1.43713 31.2044C1.43713 32.479 2.02447 33.0539 3.29914 33.0539C17.1205 33.0539 30.9294 33.0539 44.7508 33.0539C46.0255 33.0539 46.6004 32.4665 46.6004 31.1919C46.6004 21.8818 46.6004 12.5842 46.6004 3.27415C46.6004 1.96199 46.038 1.39964 44.7134 1.39964C37.8152 1.41213 30.9169 1.41213 24.0062 1.41213ZM18.0703 39.0398C18.1328 39.0523 18.1828 39.0773 18.2203 39.0773C22.0443 39.0773 25.8683 39.0773 29.6798 39.0898C29.9672 39.0898 29.9547 38.9773 29.9297 38.7524C29.7922 37.6652 29.6548 36.5905 29.5298 35.5033C29.4173 34.4785 29.4173 34.4785 28.3676 34.4785C28.2426 34.4785 28.1177 34.4785 27.9927 34.4785C27.6053 34.491 27.1179 34.366 26.8555 34.541C26.6181 34.7035 26.6306 35.2158 26.5181 35.5782C26.1807 36.7154 25.1435 37.4902 23.9688 37.4777C22.8191 37.4652 21.8068 36.6904 21.4694 35.5657C21.3944 35.2908 21.3194 35.0284 21.2695 34.7534C21.232 34.5535 21.1445 34.466 20.932 34.466C20.2447 34.4785 19.5574 34.4785 18.8701 34.466C18.6826 34.466 18.5952 34.5035 18.5702 34.716C18.4202 36.1656 18.2452 37.6027 18.0703 39.0398ZM24.0187 34.4785C23.6563 34.4785 23.3064 34.4785 22.944 34.4785C22.8316 34.4785 22.6691 34.441 22.7066 34.6535C22.8191 35.1533 22.919 35.6657 23.4564 35.9281C23.9063 36.1531 24.3312 36.1156 24.7311 35.8282C25.1559 35.5282 25.2309 35.0659 25.3184 34.6035C25.3559 34.4285 25.1809 34.4785 25.081 34.4785C24.7311 34.466 24.3812 34.4785 24.0187 34.4785Z" fill="white"/>
<path d="M25.106 22.5441C27.1179 22.5441 29.1299 22.5441 31.1544 22.5441C31.3293 22.5441 31.5043 22.5441 31.6668 22.5691C32.0292 22.6316 32.3541 23.0065 32.2041 23.3064C31.9917 23.7563 32.1791 24.1312 32.2166 24.5561C32.2791 25.4184 31.9542 26.1182 31.2169 26.5931C30.4546 27.0804 29.6548 27.0929 28.88 26.6306C28.1052 26.1557 27.7678 25.4309 27.8427 24.5311C27.8927 23.9563 27.8927 23.9563 27.2929 23.9563C25.5309 23.9563 23.7688 23.9688 21.9943 23.9438C21.6819 23.9438 21.5819 23.9688 21.6569 24.3437C21.8443 25.3309 21.4069 26.2182 20.5696 26.6805C19.7698 27.1179 18.7701 27.018 18.0828 26.4306C17.358 25.8183 17.1205 24.8685 17.4829 23.9313C17.5704 23.7063 17.5204 23.6064 17.383 23.4439C16.9706 22.9565 16.9081 22.4067 17.183 21.8318C17.4455 21.2945 17.7204 20.7696 17.9703 20.2447C18.0203 20.1323 18.1328 20.0323 18.0453 19.8698C17.383 18.5327 17.1455 17.0581 16.7206 15.6459C16.2083 13.9839 15.7584 12.2968 15.2835 10.6097C15.196 10.2848 15.0336 10.0724 14.7462 9.89742C14.2338 9.585 13.7339 9.23509 13.2216 8.88519C12.7842 8.58526 12.6717 8.21036 12.8966 7.86045C13.1216 7.48555 13.5465 7.43556 13.9964 7.72299C14.6087 8.12288 15.221 8.53528 15.8209 8.94767C15.9708 9.04764 16.1708 9.17261 16.2208 9.32257C16.3957 9.82244 16.7956 9.79745 17.1955 9.82244C21.6694 10.0224 26.1432 10.2223 30.6295 10.4223C31.3793 10.4598 32.1291 10.4848 32.8789 10.5223C33.5413 10.5597 33.7912 10.8722 33.6662 11.547C33.2913 13.4715 32.9164 15.396 32.5165 17.3205C32.2666 18.5327 31.3293 19.4449 30.0922 19.6074C27.8053 19.9073 25.5059 20.1697 23.219 20.4447C22.1942 20.5696 21.1695 20.8071 20.1573 20.7696C19.345 20.7446 19.07 21.107 18.7951 21.7193C18.4202 22.5691 18.3952 22.5566 19.295 22.5566C21.2445 22.5441 23.1815 22.5441 25.106 22.5441ZM18.3202 11.2596C18.3202 11.2471 18.3202 11.2346 18.3202 11.2221C17.9828 11.2221 17.6329 11.2471 17.2955 11.2096C16.9956 11.1846 16.9081 11.2471 16.9956 11.5595C17.2455 12.3593 17.4704 13.1591 17.6954 13.9714C17.7579 14.1838 17.8329 14.2713 18.0703 14.2713C18.6826 14.2588 19.2825 14.2588 19.8948 14.2713C20.1697 14.2838 20.2072 14.1713 20.1573 13.9464C20.0573 13.3965 19.9698 12.8467 19.8823 12.2968C19.7324 11.3345 19.7324 11.3345 18.7451 11.2721C18.6077 11.2721 18.4702 11.2721 18.3202 11.2596ZM22.5691 11.447C22.5691 11.4345 22.5691 11.4345 22.5691 11.422C22.2317 11.422 21.8818 11.447 21.5444 11.4095C21.257 11.3845 21.157 11.447 21.207 11.7594C21.3444 12.5092 21.4694 13.259 21.5819 14.0213C21.6194 14.2588 21.7443 14.2838 21.9318 14.2838C22.5441 14.2838 23.144 14.2713 23.7563 14.2838C23.9937 14.2838 24.0812 14.2213 24.0812 13.9714C24.0687 13.4215 24.0812 12.8841 24.0812 12.3343C24.0812 11.5595 24.0812 11.5595 23.3314 11.5095C23.069 11.4845 22.8191 11.472 22.5691 11.447ZM19.3575 15.6834C19.0825 15.6834 18.7951 15.6959 18.5202 15.6834C18.2702 15.6709 18.1953 15.7084 18.2827 15.9958C18.5077 16.6957 18.6826 17.3955 18.8826 18.0953C19.27 19.4449 19.2825 19.4574 20.6821 19.32C20.7071 19.32 20.7446 19.3075 20.7696 19.32C21.0195 19.3325 21.032 19.2075 20.9945 18.9951C20.8571 18.2452 20.7446 17.4954 20.6196 16.7456C20.4322 15.6834 20.4197 15.6834 19.3575 15.6834ZM25.4684 17.2205C25.4684 17.6454 25.4809 18.0578 25.4684 18.4827C25.4684 18.6826 25.5184 18.7576 25.7308 18.7326C26.2682 18.6576 26.8055 18.5952 27.3554 18.5327C27.5303 18.5077 27.6428 18.4702 27.6553 18.2577C27.7178 17.4954 27.7803 16.7456 27.8552 15.9833C27.8802 15.7709 27.8303 15.6709 27.5928 15.6834C26.993 15.6959 26.3806 15.6959 25.7683 15.6834C25.5059 15.6709 25.4559 15.7959 25.4684 16.0208C25.4809 16.4207 25.4684 16.8206 25.4684 17.2205ZM26.8805 11.647C26.8805 11.6345 26.8805 11.622 26.8805 11.6095C26.5056 11.6095 26.1307 11.622 25.7558 11.6095C25.5184 11.597 25.4684 11.6845 25.4684 11.8969C25.4809 12.5967 25.4809 13.2965 25.4684 13.9964C25.4684 14.2338 25.5558 14.2838 25.7683 14.2838C26.4181 14.2713 27.0804 14.2713 27.7303 14.2838C27.9552 14.2838 28.0302 14.2088 28.0427 13.9964C28.0927 13.3465 28.1552 12.6967 28.2177 12.0469C28.2426 11.8219 28.2176 11.7094 27.9427 11.7094C27.5928 11.7094 27.2304 11.672 26.8805 11.647ZM24.0687 17.3455C24.0687 16.8956 24.0562 16.4457 24.0687 15.9833C24.0687 15.7709 24.0062 15.6709 23.7813 15.6834C23.2315 15.6959 22.6941 15.6959 22.1442 15.6834C21.9068 15.6834 21.8568 15.7459 21.8943 15.9833C22.0568 16.8706 22.2067 17.7579 22.3317 18.6576C22.3817 19.0325 22.5066 19.1575 22.894 19.0575C23.1815 18.9826 23.4814 18.9576 23.7688 18.9576C24.0187 18.9576 24.0812 18.8326 24.0687 18.6077C24.0562 18.1828 24.0687 17.7579 24.0687 17.3455ZM30.5545 14.2838C30.8045 14.2838 31.0544 14.2588 31.3043 14.2838C31.6168 14.3213 31.7417 14.2088 31.7917 13.8964C31.8792 13.334 31.9917 12.7592 32.1166 12.2093C32.1666 12.0094 32.1916 11.8969 31.9167 11.8969C31.2669 11.8844 30.6045 11.8469 29.9547 11.8094C29.7298 11.7969 29.6298 11.8219 29.6173 12.0968C29.5923 12.5967 29.5298 13.0841 29.4798 13.584C29.4048 14.2963 29.4048 14.2963 30.1422 14.2963C30.2796 14.2838 30.4171 14.2838 30.5545 14.2838ZM30.4171 15.6834C30.0797 15.6834 29.8172 15.6834 29.5548 15.6834C29.4048 15.6834 29.2924 15.6959 29.2674 15.8959C29.2174 16.6207 29.1424 17.358 29.0799 18.0828C29.0674 18.2327 29.0924 18.2952 29.2674 18.2952C30.3296 18.3327 31.0044 17.8079 31.2169 16.7456C31.2794 16.4082 31.4918 15.9583 31.3543 15.7709C31.1669 15.521 30.692 15.7334 30.4171 15.6834ZM30.8295 24.7685C30.842 24.3312 30.4796 23.9688 30.0422 23.9563C29.6048 23.9563 29.2674 24.2687 29.2424 24.6936C29.2174 25.1435 29.5548 25.5184 29.9922 25.5308C30.4296 25.5683 30.817 25.2059 30.8295 24.7685ZM20.2947 24.7561C20.2947 24.3062 19.9573 23.9563 19.5074 23.9563C19.0825 23.9563 18.7326 24.2937 18.7076 24.7061C18.6951 25.131 19.0575 25.5184 19.4824 25.5308C19.9323 25.5683 20.2947 25.2059 20.2947 24.7561Z" fill="white"/>
<path d="M26.2682 31.4668C20.4197 31.4668 14.5587 31.4668 8.71023 31.4668C8.57277 31.4668 8.42281 31.4793 8.28534 31.4668C7.83546 31.4293 7.52304 31.1169 7.53554 30.7295C7.54803 30.3421 7.84796 30.0797 8.29784 30.0672C8.4478 30.0672 8.61026 30.0672 8.76022 30.0672C20.1822 30.0672 31.6168 30.0672 43.0388 30.0797C43.4887 30.0797 43.5886 29.9672 43.5886 29.5173C43.5761 21.3194 43.5761 13.1216 43.5886 4.92372C43.5886 4.47383 43.4512 4.34887 43.0513 4.41135C42.9638 4.42385 42.8638 4.41135 42.7764 4.41135C42.364 4.38636 42.089 4.11143 42.089 3.73653C42.089 3.33663 42.314 3.0617 42.7014 3.03671C43.2637 2.99922 43.8261 2.99922 44.3884 3.03671C44.7383 3.0617 44.9383 3.31164 44.9883 3.66155C45.0133 3.79901 45.0008 3.93648 45.0008 4.08644C45.0008 12.8592 45.0008 21.6319 45.0008 30.4046C45.0008 31.2794 44.8008 31.4793 43.9261 31.4793C38.0401 31.4668 32.1541 31.4668 26.2682 31.4668Z" fill="white"/>
<path d="M21.7568 3.01172C27.6428 3.01172 33.5288 3.01172 39.4147 3.01172C40.152 3.01172 40.5145 3.24915 40.502 3.73653C40.4895 4.2114 40.152 4.41135 39.4272 4.41135C27.9552 4.41135 16.4832 4.41135 4.9987 4.39885C4.56131 4.39885 4.43634 4.47383 4.43634 4.93621C4.44884 13.1341 4.44884 21.3319 4.43634 29.5298C4.43634 29.9422 4.52382 30.1421 4.96121 30.0547C5.04869 30.0422 5.14866 30.0547 5.23614 30.0547C5.63603 30.0672 5.87347 30.2796 5.93595 30.6795C5.98594 31.0544 5.73601 31.4043 5.33611 31.4418C4.77376 31.4793 4.2114 31.4793 3.64905 31.4418C3.28664 31.4168 3.0742 31.1544 3.03671 30.7795C3.02421 30.6545 3.03671 30.5295 3.03671 30.4046C3.03671 21.6319 3.03671 12.8591 3.03671 4.08644C3.03671 3.19917 3.22416 3.01172 4.09893 3.01172C9.9849 3.01172 15.8709 3.01172 21.7568 3.01172Z" fill="white"/>
</svg>
