<svg width="60" height="38" viewBox="0 0 60 38" fill="none" xmlns="http://www.w3.org/2000/svg">
<path d="M59.9781 19.3527C59.7152 19.7313 59.4085 20.0876 59.08 20.4216C53.6911 26.0112 48.3023 31.6231 42.9135 37.2126C42.6506 37.5021 42.3658 37.7916 41.9934 37.9253C41.0077 38.237 40.1971 37.5467 40.1971 36.3664C40.1971 33.8945 40.1971 31.4449 40.1971 28.973C40.1971 28.5276 40.1752 28.1045 40.1971 27.6591C40.1971 27.3919 40.1314 27.3028 39.8686 27.3251C39.759 27.3474 39.6276 27.3251 39.5181 27.3251C32.552 27.3251 25.586 27.3251 18.6199 27.3251C18.2913 27.3251 17.9627 27.3474 17.6342 27.3028C16.7141 27.1915 16.4512 26.902 16.4512 25.9444C16.4512 21.691 16.4512 17.4598 16.4512 13.2064C16.4512 12.761 16.4512 12.2933 16.4512 11.8479C16.4731 10.5786 17.3713 9.7101 18.6199 9.7101C25.6079 9.7101 32.5958 9.7101 39.5838 9.73237C40.0876 9.73237 40.2191 9.62102 40.2191 9.08656C40.1971 6.5924 40.1971 4.07597 40.2191 1.58181C40.2191 0.44608 41.0296 -0.221998 41.9934 0.0675024C42.3001 0.156579 42.5411 0.379273 42.7601 0.601965C48.3242 6.41425 53.9321 12.2265 59.54 18.0388C59.7152 18.217 59.8467 18.4396 60 18.6401C59.9781 18.885 59.9781 19.1077 59.9781 19.3527Z" fill="white"/>
<path d="M10.9748 18.9741C10.9748 16.6136 10.9748 14.253 10.9748 11.8925C10.9748 11.3135 11.0624 10.779 11.5881 10.445C12.3768 9.91052 13.3844 10.2891 13.6254 11.2244C13.6911 11.4471 13.713 11.6921 13.713 11.937C13.713 16.6581 13.713 21.3792 13.713 26.1003C13.713 26.4343 13.6911 26.7684 13.5378 27.0801C13.2968 27.5923 12.6615 27.9041 12.1139 27.7927C11.5224 27.6814 11.0843 27.2583 11.0186 26.657C10.9748 26.412 10.9748 26.1894 10.9748 25.9444C10.9748 23.6061 10.9748 21.2901 10.9748 18.9741Z" fill="white"/>
<path d="M5.49835 18.9964C5.49835 16.569 5.49836 14.1639 5.49836 11.7366C5.49836 11.113 5.71741 10.6008 6.28697 10.3336C6.7908 10.0886 7.27273 10.1555 7.71084 10.5118C8.12705 10.8458 8.21468 11.3135 8.21468 11.8479C8.21468 14.587 8.21468 17.3262 8.21468 20.0653C8.21468 22.1586 8.23658 24.2296 8.21468 26.3229C8.21468 27.4364 7.31654 28.1045 6.37459 27.7482C5.78313 27.5255 5.49835 27.0356 5.49835 26.2339C5.49835 23.7842 5.49835 21.3792 5.49835 18.9964Z" fill="white"/>
<path d="M2.73823 19.0186C2.73823 21.4014 2.73823 23.7842 2.73823 26.167C2.73823 27.3696 1.8839 28.0822 0.89814 27.7036C0.306683 27.4809 -3.44712e-08 26.991 0 26.1893C6.89424e-08 24.5859 1.37885e-07 22.9825 2.06827e-07 21.3792C3.42797e-07 18.2169 4.79724e-07 15.0324 6.15694e-07 11.8702C6.39632e-07 11.3134 0.109526 10.8012 0.591454 10.4672C1.42387 9.86594 2.54107 10.3559 2.69441 11.358C2.73822 11.5807 2.73823 11.8256 2.73823 12.0706C2.73823 14.3866 2.73823 16.7026 2.73823 19.0186Z" fill="white"/>
</svg>
