<svg width="48" height="45" viewBox="0 0 48 45" fill="none" xmlns="http://www.w3.org/2000/svg">
<path d="M47.9875 39.6333C47.825 39.6961 47.8625 39.8718 47.825 39.9974C47.1123 42.9856 44.6366 44.9819 41.5608 44.9944C38.0974 45.007 34.6215 44.9944 31.1581 44.9944C26.6819 44.9944 22.1933 44.9944 17.7171 44.9944C14.4788 44.9944 11.9031 42.86 11.2904 39.671C11.2029 39.1939 11.1904 38.7042 11.1904 38.2146C11.1904 30.7441 11.1904 23.2863 11.2029 15.8159C11.2029 15.3764 11.1154 15.2383 10.6528 15.2509C7.82704 15.276 5.0013 15.2258 2.17557 15.276C1.18781 15.2886 0.450117 15.0375 0 14.1209C0 12.5515 0 10.9821 0 9.41267C0.175046 9.32479 0.125033 9.13646 0.162542 8.99835C0.850221 6.09807 3.32587 4.05156 6.30164 4.05156C14.3662 4.02645 22.4183 4.039 30.4829 4.039C31.5207 4.039 32.4835 4.29011 33.3962 4.77977C33.8963 5.04343 34.0589 5.47031 33.8588 5.89719C33.6338 6.34918 33.1836 6.47473 32.6585 6.19852C31.9208 5.82186 31.1456 5.63353 30.3204 5.63353C23.9062 5.63353 17.4796 5.63353 11.0654 5.63353C10.9529 5.63353 10.8528 5.63353 10.7653 5.63353C10.7153 5.70886 10.7403 5.73397 10.7778 5.77164C12.1907 7.12761 12.8033 8.79747 12.8033 10.7435C12.7908 19.9215 12.8033 29.0994 12.7908 38.2648C12.7908 40.2862 13.5785 41.8556 15.379 42.8223C18.2423 44.3541 21.7682 42.5838 22.3058 39.3696C22.4934 38.2145 23.056 37.7374 24.2063 37.7374C27.7072 37.7374 31.2081 37.7249 34.6965 37.75C35.0841 37.75 35.1842 37.6621 35.1842 37.2729C35.1717 33.0167 35.1717 28.773 35.1717 24.5167C35.1717 24.3786 35.1592 24.2279 35.1842 24.0898C35.2342 23.6002 35.5468 23.2863 35.9969 23.2988C36.4345 23.3114 36.7346 23.6002 36.7846 24.0773C36.7971 24.2279 36.7971 24.3912 36.7971 24.5418C36.7971 28.7981 36.7971 33.0418 36.7846 37.298C36.7846 37.6747 36.8846 37.75 37.2472 37.75C40.0604 37.7374 42.8737 37.7374 45.6869 37.7374C47.1998 37.7374 47.4624 37.9132 48 39.2315C47.9875 39.3822 47.9875 39.5077 47.9875 39.6333ZM21.8307 43.3999C22.1058 43.3999 22.2558 43.3999 22.4058 43.3999C26.7445 43.3999 31.0831 43.3999 35.4342 43.3999C37.4973 43.3999 39.5603 43.4124 41.6233 43.3999C43.8364 43.3748 45.6744 41.9184 46.2495 39.8342C46.3621 39.4073 46.2495 39.3571 45.8619 39.3571C39.7979 39.3696 33.7463 39.3696 27.6822 39.3696C26.5569 39.3696 25.4316 39.3696 24.3063 39.3696C24.1313 39.3696 23.9437 39.3194 23.9062 39.6082C23.6687 41.0772 22.9935 42.295 21.8307 43.3999ZM6.40167 13.6689C7.88955 13.6689 9.36494 13.6689 10.8528 13.6689C11.1029 13.6689 11.2029 13.6313 11.2029 13.3425C11.1779 12.2627 11.2154 11.183 11.1654 10.1032C11.0404 7.75537 9.03985 5.75908 6.73925 5.65864C4.20109 5.54564 2.03803 7.24061 1.67544 9.65123C1.48789 10.8691 1.63793 12.0995 1.58791 13.3174C1.57541 13.6061 1.66293 13.6815 1.95051 13.6815C3.42589 13.6564 4.91378 13.6689 6.40167 13.6689Z" fill="white"/>
<path d="M47.9875 5.94741C47.1873 7.88093 45.6369 9.26201 44.349 10.844C39.3602 16.971 34.3214 23.0603 29.2951 29.1622C28.97 29.5514 28.6074 29.8653 28.1573 30.1164C26.1568 31.2338 24.1688 32.3638 22.1683 33.4938C22.0807 33.544 21.9932 33.5942 21.7807 33.7197C22.0807 33.7323 22.2308 33.7449 22.3933 33.7449C25.4441 33.7449 28.4824 33.7449 31.5332 33.7449C31.6582 33.7449 31.7833 33.7449 31.9083 33.7449C32.4334 33.77 32.771 34.0839 32.7835 34.5358C32.796 35.0004 32.4459 35.3519 31.8958 35.3519C30.6955 35.3645 29.4952 35.3519 28.2824 35.3519C24.3438 35.3519 20.4053 35.3519 16.4793 35.3519C16.3418 35.3519 16.1917 35.3519 16.0542 35.3519C15.529 35.3268 15.1915 35.0129 15.179 34.561C15.1664 34.0964 15.5165 33.7574 16.0667 33.7449C16.8044 33.7323 17.5296 33.7323 18.2673 33.7449C18.5548 33.7449 18.6173 33.6821 18.4923 33.4059C18.3298 33.0292 18.3673 32.64 18.5048 32.2633C19.4301 29.4761 20.3553 26.6888 21.293 23.9015C21.3681 23.6755 21.4806 23.4746 21.6431 23.2988C27.6697 15.9791 33.6963 8.65936 39.7228 1.32706C41.0107 -0.242356 42.9112 -0.443241 44.4741 0.849956C45.0117 1.28939 45.5119 1.75394 46.062 2.16826C46.9497 2.83369 47.6874 3.59957 47.975 4.71699C47.9875 5.13132 47.9875 5.53309 47.9875 5.94741ZM28.1823 27.9569C28.2824 27.8439 28.3824 27.7434 28.4699 27.643C29.6202 26.2493 30.758 24.8557 31.8958 23.4746C34.3089 20.5367 36.7346 17.5987 39.1477 14.6608C39.2852 14.4976 39.4228 14.372 39.1602 14.146C37.6598 12.9282 36.1719 11.6726 34.684 10.4297C34.509 10.279 34.434 10.2915 34.2839 10.4673C30.683 14.8617 27.0695 19.2435 23.4561 23.6253C23.2811 23.8387 23.3186 23.9266 23.5186 24.0898C25.0065 25.3077 26.4819 26.5381 27.9698 27.7685C28.0323 27.8313 28.0948 27.8815 28.1823 27.9569ZM46.3996 5.23176C46.3746 4.77977 46.1995 4.36544 45.8369 4.05156C45.0117 3.36102 44.1865 2.65792 43.3488 1.99249C42.6236 1.40239 41.6984 1.50283 41.0982 2.21848C40.1354 3.37357 39.1977 4.54122 38.235 5.6963C38.0724 5.89719 38.1099 5.98508 38.285 6.12319C39.7854 7.35361 41.2732 8.59658 42.7611 9.83956C42.9112 9.96511 42.9987 10.0153 43.1612 9.827C44.1115 8.6468 45.0867 7.47916 46.037 6.31151C46.2745 5.98508 46.3871 5.64608 46.3996 5.23176ZM40.4605 13.129C40.498 13.0663 40.5231 13.0035 40.5606 12.9658C40.9732 12.4511 41.3858 11.9488 41.8109 11.4466C41.9734 11.2583 41.8484 11.183 41.7234 11.0825C40.223 9.83956 38.7101 8.58403 37.2222 7.32849C37.0596 7.19039 36.9846 7.20294 36.8596 7.36616C36.4845 7.84326 36.0969 8.32036 35.6968 8.77235C35.5092 8.98579 35.5593 9.08624 35.7593 9.2369C37.2472 10.4548 38.7226 11.6852 40.198 12.9156C40.2605 12.9658 40.3355 13.0286 40.4605 13.129ZM22.5309 25.3579C22.1683 26.4251 21.8307 27.4421 21.4931 28.4465C21.4431 28.5972 21.5181 28.6725 21.6181 28.7604C22.3308 29.3505 23.031 29.9406 23.7437 30.5307C23.8562 30.6186 23.9437 30.6563 24.0813 30.5809C25.0065 30.0536 25.9443 29.5263 26.907 28.9738C25.4191 27.756 23.9937 26.5758 22.5309 25.3579ZM20.0177 32.866C20.8679 32.3763 21.6306 31.9495 22.4183 31.51C21.9557 31.1208 21.5306 30.7693 21.093 30.4051C20.943 30.2796 20.8679 30.267 20.8054 30.4805C20.5554 31.2464 20.3053 31.9997 20.0177 32.866Z" fill="white"/>
<path d="M23.1935 9.65123C20.9179 9.65123 18.6299 9.65123 16.3543 9.65123C16.1792 9.65123 16.0042 9.65123 15.8416 9.62612C15.429 9.55078 15.204 9.27457 15.1915 8.8728C15.179 8.47103 15.379 8.18225 15.7916 8.08181C15.9542 8.04415 16.1292 8.03159 16.3042 8.03159C20.8929 8.03159 25.4816 8.03159 30.0703 8.03159C30.2204 8.03159 30.3829 8.03159 30.533 8.06926C30.9331 8.14459 31.1956 8.48358 31.1956 8.8728C31.1831 9.26201 30.908 9.57589 30.4954 9.63867C30.3204 9.66378 30.1579 9.66378 29.9828 9.66378C27.7197 9.65123 25.4566 9.65123 23.1935 9.65123Z" fill="white"/>
<path d="M21.5306 13.6689C19.7676 13.6689 18.0047 13.6689 16.2417 13.6689C15.5666 13.6689 15.1915 13.3802 15.1915 12.8779C15.179 12.3757 15.5791 12.0618 16.2292 12.0618C19.8052 12.0618 23.3686 12.0618 26.9445 12.0618C27.5572 12.0618 27.9323 12.3757 27.9323 12.8779C27.9198 13.355 27.5697 13.6564 27.0195 13.6564C25.1816 13.6689 23.3561 13.6689 21.5306 13.6689Z" fill="white"/>
<path d="M19.9052 16.0921C21.1555 16.0921 22.4058 16.0921 23.6437 16.0921C24.2438 16.0921 24.6064 16.3809 24.6189 16.858C24.6314 17.3476 24.2563 17.6866 23.6437 17.6866C21.143 17.6866 18.6549 17.6866 16.1542 17.6866C15.5415 17.6866 15.1664 17.3476 15.179 16.858C15.1915 16.3809 15.554 16.0921 16.1542 16.0795C17.417 16.0921 18.6549 16.0921 19.9052 16.0921Z" fill="white"/>
<path d="M18.2673 21.7043C17.5546 21.7043 16.8294 21.7169 16.1167 21.7043C15.529 21.6918 15.179 21.3653 15.1915 20.8882C15.204 20.4237 15.554 20.1098 16.1167 20.0972C17.5546 20.0847 18.9799 20.0847 20.4178 20.0972C20.9805 20.0972 21.3181 20.4237 21.3181 20.9008C21.3181 21.3779 20.9805 21.6918 20.4303 21.7043C19.7051 21.7169 18.9924 21.7043 18.2673 21.7043Z" fill="white"/>
</svg>
