<svg width="164" height="147" viewBox="0 0 164 147" fill="none" xmlns="http://www.w3.org/2000/svg">
<path d="M0 68.9072C0.76875 67.8821 0.597917 66.6007 0.854167 65.4474C5.38125 43.8771 24.4292 29.3118 46.2958 30.7214C66.0271 32.0028 82.5552 46.7389 86.1 66.1308C86.826 70.1032 86.6125 74.1182 87.0396 78.0906C88.6625 92.5704 100.151 104.786 114.416 107.264C132.524 110.382 149.351 99.2764 153.536 81.4222C157.893 62.6283 144.568 43.2791 125.477 40.6736C122.701 40.2892 119.797 40.4173 117.064 39.8621C109.59 38.3671 104.635 32.0882 104.507 24.2717C104.465 21.7943 104.507 19.3169 104.507 16.5405C102.756 17.8647 101.261 18.9752 99.7667 20.1712C99.1687 20.641 98.7844 20.7265 98.2719 20.0003C96.7771 17.9074 95.1969 15.8998 93.6167 13.8923C93.2323 13.3797 93.1896 13.0808 93.7448 12.6109C98.7417 8.85212 103.696 5.09334 108.65 1.29185C109.162 0.907428 109.504 0.864714 110.017 1.29185C114.971 5.05063 119.968 8.80941 124.965 12.5682C125.605 13.038 125.605 13.3797 125.135 13.935C123.555 15.9425 122.018 17.9928 120.523 20.043C120.053 20.6837 119.754 20.6837 119.156 20.2139C117.576 18.9752 115.953 17.8219 114.159 16.4551C114.159 19.5732 113.989 22.3496 114.202 25.1686C114.458 28.5003 116.935 30.5505 120.566 30.636C124.537 30.7214 128.424 31.234 132.225 32.3018C148.924 36.9576 161.438 51.3947 163.658 68.5655C163.701 68.9072 163.488 69.3343 164 69.5052C164 72.7087 164 75.9122 164 79.1157C163.231 80.1835 163.359 81.5076 163.146 82.7036C158.832 103.889 139.485 118.711 117.875 117.301C97.2042 115.935 80.4625 100.387 77.601 79.7991C77.1312 76.5529 77.3875 73.3067 77.0031 70.0604C75.0812 53.9148 62.1406 41.4852 45.9542 40.2892C29.2979 39.0505 14.4354 49.9851 10.5917 66.2162C6.27812 84.5403 18.1938 103.121 36.6865 106.965C39.1208 107.477 41.5552 107.606 43.9896 107.734C51.8052 108.161 57.4854 112.774 59.151 120.035C59.8771 123.196 59.4927 126.399 59.5781 129.603C59.5781 130.116 59.5781 130.628 59.5781 131.482C61.2865 130.158 62.824 129.048 64.3187 127.894C64.9594 127.382 65.3438 127.254 65.9417 128.065C67.351 130.073 68.8885 131.995 70.3833 133.917C70.8958 134.6 70.9812 134.942 70.2125 135.54C65.3438 139.171 60.5177 142.887 55.6917 146.603C55.0083 147.115 54.5813 147.115 53.8979 146.603C49.0719 142.93 44.2458 139.256 39.3344 135.626C38.5229 135.028 38.4802 134.686 39.0781 133.917C40.6156 131.995 42.0677 130.03 43.5198 128.065C44.0323 127.382 44.374 127.339 45.0146 127.852C46.5521 129.09 48.1323 130.201 49.9688 131.61C49.8833 128.322 50.225 125.374 49.7979 122.427C49.3281 119.352 46.9792 117.472 43.5625 117.387C40.0177 117.301 36.5583 116.917 33.1417 116.063C15.5031 111.535 2.86146 97.2689 0.427083 79.2011C0.384375 78.9448 0.427083 78.6458 0.128125 78.5604C0 75.2715 0 72.068 0 68.9072Z" fill="#014F88"/>
<path d="M43.3063 98.3794C42.0677 98.3794 40.8292 98.3367 39.6333 98.3794C38.7792 98.4221 38.4802 98.1232 38.5656 97.2689C38.6083 96.8418 38.5229 96.4146 38.5656 95.9875C39.1208 93.0403 38.224 91.0754 35.0635 90.3493C34.2521 90.1785 33.8677 90.1785 33.3125 90.7337C32.3302 91.8016 31.2625 92.7413 30.2802 93.8091C29.7677 94.3644 29.426 94.5779 28.7854 93.8945C27.0344 92.0579 25.1979 90.2212 23.3615 88.4699C22.7635 87.8719 22.8917 87.5729 23.4042 87.1031C24.4719 86.078 25.4969 84.9674 26.6073 83.9423C27.2479 83.387 27.376 82.8745 26.8635 82.1911C26.6927 81.9775 26.5646 81.7212 26.5219 81.4649C26.1802 78.8594 24.4719 78.6031 22.251 78.6886C18.9625 78.8594 18.9625 78.7313 18.9625 75.3996C18.9625 73.6484 19.0052 71.8971 18.9625 70.1032C18.9625 69.377 19.1333 68.9926 19.9448 69.078C20.4573 69.1207 21.0125 69.078 21.525 69.078C25.5396 69.078 25.5396 69.078 27.0771 65.3193C27.3333 64.6358 27.0771 64.3368 26.6927 63.9524C25.5823 62.8846 24.5146 61.7313 23.4042 60.7062C22.849 60.1936 22.8917 59.8519 23.4042 59.3394C25.2406 57.5454 27.0344 55.7514 28.8281 53.9148C29.3406 53.3595 29.725 53.2741 30.2375 53.9148C30.5365 54.2992 30.9635 54.5555 31.2198 54.9399C32.9281 57.46 34.8927 58.1434 37.626 56.3922C38.224 56.0077 38.6083 55.7515 38.5656 55.0253C38.5229 53.5731 38.6083 52.1635 38.5229 50.7113C38.4802 49.857 38.6938 49.4726 39.676 49.5153C42.1104 49.6007 44.5875 49.558 47.0219 49.5153C47.9615 49.4726 48.2177 49.8143 48.175 50.7113C48.1323 52.1635 48.175 53.5731 48.1323 55.0253C48.1323 55.7515 48.474 56.0077 49.0719 56.3922C51.7625 58.1434 53.6417 57.3746 55.5208 54.9826C57.0156 53.1032 57.1865 53.2314 58.8948 54.9399C60.3469 56.3922 61.799 57.8871 63.3365 59.3394C63.849 59.8519 63.9771 60.1936 63.3792 60.7062C62.9094 61.0906 62.6104 61.6032 62.1406 61.9449C59.9198 63.5253 59.1083 65.2765 60.774 67.8393C61.3292 68.6936 61.6281 69.2062 62.6958 69.1208C64.0625 69.0353 65.4719 69.1207 66.8385 69.078C67.6073 69.0353 67.8208 69.3343 67.8208 70.1032C67.7781 72.6233 67.7781 75.1006 67.8208 77.6207C67.8635 78.6031 67.4365 78.774 66.5823 78.7313C65.0875 78.6886 63.5927 78.7313 62.0979 78.7313C61.6281 78.7313 61.201 78.7313 60.9875 79.3293C60.6031 80.4398 60.1333 81.5076 59.6208 82.5328C59.3219 83.1307 59.6635 83.4297 60.0052 83.7715C61.0729 84.8393 62.0979 85.9071 63.1656 86.9322C63.8062 87.5302 63.9344 87.9146 63.2083 88.5554C61.4146 90.2212 59.7062 91.9724 57.9979 93.7664C57.4 94.4071 56.9729 94.5779 56.375 93.8091C56.076 93.4247 55.6917 93.1257 55.35 92.784C52.4885 89.9222 52.4885 89.9649 48.7729 91.5453C48.0896 91.8443 48.0896 92.2287 48.0896 92.784C48.0896 94.2789 48.0469 95.7739 48.0896 97.2689C48.1323 98.0804 47.876 98.4221 47.0219 98.3794C45.8688 98.294 44.5875 98.3794 43.3063 98.3794ZM52.1896 73.9901C52.1896 69.1207 48.2604 65.1484 43.3917 65.1057C38.5229 65.063 34.5083 69.078 34.551 74.0328C34.551 78.9021 38.5656 82.8745 43.3917 82.8318C48.2604 82.8318 52.1896 78.8594 52.1896 73.9901Z" fill="#014F88"/>
<path d="M96.1365 74.0328C96.1365 72.9222 96.2219 71.769 96.0938 70.6584C95.9229 69.3343 96.5208 68.9926 97.7167 69.1208C98.101 69.1635 98.4854 69.078 98.8271 69.1208C101.518 69.6333 103.311 68.9072 103.995 65.9173C104.208 64.8921 104.336 64.3796 103.568 63.6107C102.329 62.4575 100.279 61.3042 100.279 59.9374C100.322 58.7414 102.329 57.5454 103.525 56.3922C104.593 55.367 105.532 53.4876 106.771 53.5304C107.839 53.5731 108.949 55.2389 109.846 56.3494C110.828 57.5881 111.682 57.5027 113.177 57.0329C115.441 56.264 115.953 55.068 115.825 52.8897C115.611 49.4726 115.782 49.4726 119.284 49.4726C120.993 49.4726 122.701 49.5153 124.409 49.4726C125.178 49.4726 125.434 49.6861 125.434 50.455C125.392 51.95 125.434 53.4449 125.392 54.9399C125.392 55.666 125.52 56.2213 126.331 56.3067C126.417 56.3067 126.545 56.3494 126.63 56.4349C129.15 58.3143 130.901 57.2037 132.652 55.1108C134.318 53.1459 134.446 53.2314 136.24 55.0253C137.564 56.3494 138.845 57.7163 140.211 58.955C141.023 59.7238 141.236 60.1937 140.254 61.0052C139.186 61.9022 138.29 62.97 137.265 63.9097C136.709 64.4223 136.837 64.8494 136.966 65.5328C137.606 68.6936 139.571 69.6333 142.518 69.0353C142.988 68.9499 143.5 69.078 143.97 69.0353C144.739 68.9499 144.995 69.2489 144.952 70.0177C144.909 72.5805 144.909 75.1433 144.952 77.7062C144.952 78.5177 144.61 78.6886 143.884 78.6459C142.347 78.6031 140.809 78.6459 139.229 78.6459C138.759 78.6459 138.332 78.6031 138.119 79.2438C137.734 80.3544 137.265 81.4222 136.752 82.4901C136.453 83.088 136.795 83.387 137.136 83.7287C138.204 84.7966 139.229 85.8644 140.297 86.8895C140.895 87.4448 141.066 87.8292 140.382 88.5126C138.546 90.2212 136.795 92.0151 135.044 93.8091C134.446 94.4498 134.104 94.3217 133.549 93.7664C132.524 92.6558 131.414 91.6734 130.389 90.5629C129.876 89.9649 129.449 90.1358 128.766 90.2639C125.605 90.9473 124.836 92.8694 125.221 95.8594C125.52 98.2086 125.264 98.2086 122.957 98.2086C120.865 98.2086 118.815 98.1659 116.722 98.2086C115.868 98.2513 115.526 97.995 115.654 97.1408C115.697 96.7136 115.569 96.2865 115.654 95.8594C116.295 92.784 115.142 90.9046 112.024 90.1785C111.341 90.0076 110.999 90.0076 110.529 90.4775C109.461 91.588 108.308 92.6558 107.283 93.7664C106.728 94.3644 106.429 94.279 105.917 93.7664C104.123 91.9297 102.329 90.093 100.493 88.3418C99.8948 87.7865 99.9802 87.4448 100.493 86.975C101.603 85.9071 102.671 84.7966 103.781 83.7287C104.294 83.2589 104.208 82.8745 104.038 82.2338C103.354 79.0303 101.39 78.0479 98.3573 78.6459C98.0583 78.6886 97.7167 78.6031 97.4177 78.6459C96.3073 78.8167 95.8802 78.3896 96.0083 77.2363C96.2219 76.2966 96.1365 75.1861 96.1365 74.0328ZM111.725 73.9047C111.682 78.8167 115.569 82.7891 120.48 82.8318C125.349 82.8745 129.364 78.9021 129.406 74.0328C129.449 69.1208 125.52 65.1484 120.651 65.1057C115.782 65.063 111.725 69.0353 111.725 73.9047Z" fill="#014F88"/>
</svg>
