<svg width="25" height="24" viewBox="0 0 25 24" fill="none" xmlns="http://www.w3.org/2000/svg">
<path d="M0.884766 22.6448C0.884766 15.5498 0.884766 8.45487 0.884766 1.35991C0.945739 1.35053 0.941049 1.28957 0.950429 1.25205C1.14273 0.651817 1.53671 0.257913 2.13237 0.0656506C2.17458 0.0515826 2.23087 0.0609613 2.24025 0C9.30376 0 16.3673 0 23.4355 0C23.4496 0.014068 23.4636 0.042204 23.4777 0.042204C24.1718 0.168816 24.594 0.595545 24.8191 1.24736C24.8379 1.29894 24.805 1.37866 24.8848 1.40211C24.8848 8.483 24.8848 15.5592 24.8848 22.6401C24.8003 22.6776 24.8144 22.7714 24.791 22.837C24.5846 23.3763 24.2094 23.7421 23.6559 23.925C23.5809 23.9484 23.4824 23.9015 23.4308 24C16.3673 24 9.30376 24 2.23556 24C2.22618 23.939 2.1652 23.9437 2.12768 23.9343C1.53671 23.7421 1.14273 23.3482 0.950429 22.7526C0.936358 22.7104 0.945739 22.6542 0.884766 22.6448ZM12.8543 6.75264C12.6761 6.75264 12.4931 6.74795 12.3149 6.75264C10.6733 6.78077 9.03642 6.78546 7.40421 6.9871C6.48023 7.09965 5.86112 7.65299 5.65944 8.56272C5.47652 9.38335 5.439 10.2181 5.40617 11.0528C5.34988 12.4689 5.39209 13.8804 5.62192 15.2778C5.76731 16.1829 6.30669 16.7784 7.12749 16.9566C7.37138 17.0082 7.61996 17.041 7.86855 17.0645C9.49606 17.2145 11.1283 17.2521 12.7605 17.2521C14.6272 17.2474 16.4939 17.238 18.3513 17.0223C19.3174 16.9097 19.9131 16.3751 20.1195 15.4279C20.2977 14.6166 20.3305 13.7866 20.3634 12.9613C20.4197 11.5451 20.3868 10.1336 20.1523 8.73623C19.9975 7.81712 19.4581 7.22157 18.628 7.04807C18.3935 6.99648 18.1496 6.96835 17.9104 6.9449C16.2266 6.78077 14.5428 6.76202 12.8543 6.75264Z" fill="white"/>
<path d="M11.405 9.7585C12.7089 10.5088 13.9846 11.245 15.2979 12C13.9893 12.755 12.7089 13.4912 11.405 14.2415C11.405 12.7409 11.405 11.2732 11.405 9.7585Z" fill="white"/>
</svg>
