<svg width="17" height="24" viewBox="0 0 17 24" fill="none" xmlns="http://www.w3.org/2000/svg">
<path d="M8.31536 24C8.09692 23.9001 7.92447 23.7474 7.76926 23.5594C5.51586 20.8567 3.44641 18.0189 1.83684 14.8639C1.11253 13.4421 0.485945 11.9791 0.181276 10.3987C-0.307344 7.88992 0.192773 5.59268 1.67013 3.53044C2.96929 1.71498 4.72257 0.557541 6.88399 0.163896C10.1434 -0.42951 12.9026 0.592793 15.0468 3.1603C16.5069 4.90527 17.1278 6.991 16.9783 9.28237C16.8921 10.5926 16.4954 11.8322 16.0011 13.0367C15.0123 15.4279 13.6787 17.6135 12.2013 19.711C11.2643 21.0447 10.2698 22.3255 9.21787 23.5711C9.05692 23.765 8.88446 23.9236 8.63728 24C8.52806 24 8.42459 24 8.31536 24ZM8.46482 13.0661C10.77 13.1189 12.7187 11.1683 12.7704 8.75946C12.8222 6.35647 10.9424 4.37649 8.55105 4.31774C6.22867 4.25898 4.27419 6.20371 4.22245 8.62433C4.17646 11.0273 6.06771 13.0132 8.46482 13.0661Z" fill="#707070"/>
</svg>
