<svg width="73" height="73" viewBox="0 0 73 73" fill="none" xmlns="http://www.w3.org/2000/svg">
<path d="M66.4352 72.0999C46.4803 72.0999 26.5077 72.0999 6.55274 72.0999C6.53512 71.9942 6.44706 71.9766 6.34139 71.9414C2.87172 71.1664 0.582098 67.9609 0.59971 64.3152C0.705385 53.2545 0.67016 42.1939 0.634935 31.1332C0.634935 30.1469 0.969573 29.5129 1.7093 28.9316C4.47446 26.7477 7.22201 24.5109 9.98717 22.3093C10.3394 22.0275 10.4979 21.7281 10.4979 21.2526C10.4803 14.8064 10.4803 8.37785 10.4803 1.93168C10.4803 0.593126 10.9735 0.0999756 12.2944 0.0999756C17.7367 0.0999756 23.1613 0.0999756 28.6036 0.0999756C28.8149 0.0999756 29.0263 0.0999756 29.2376 0.135201C29.9421 0.258488 30.4353 0.839701 30.4353 1.49136C30.4353 2.16064 29.9597 2.74185 29.2552 2.86514C29.0087 2.91798 28.7445 2.90036 28.4803 2.90036C23.6545 2.90036 18.8286 2.91798 14.0028 2.88275C13.4392 2.88275 13.2631 2.97081 13.2631 3.58725C13.2807 15.4229 13.2807 27.2408 13.2631 39.0764C13.2631 39.5344 13.404 39.8514 13.721 40.1684C17.2611 43.6909 20.8013 47.2134 24.2885 50.7535C24.7993 51.2643 25.0459 51.2467 25.539 50.7711C27.7053 48.64 30.2415 47.1782 33.2181 46.4913C34.4157 46.2095 35.6486 46.1743 37.0047 46.0686C35.5253 44.5892 34.1163 43.2154 32.7601 41.8064C32.3727 41.4013 32.1613 41.3661 31.7386 41.7888C29.766 43.7261 27.3707 44.4835 24.6584 43.8494C21.8404 43.1978 19.9206 41.4189 19.0928 38.6537C18.2298 35.8005 18.9343 33.2291 21.0126 31.098C22.5097 29.5481 24.0419 28.0334 25.5742 26.5187C25.9089 26.1841 26.1731 25.8142 26.3492 25.3739C29.3433 18.3113 32.355 11.2311 35.3668 4.16846C36.0008 2.6714 37.0047 2.47766 38.1672 3.64009C40.1574 5.6303 42.1476 7.6029 44.1202 9.61073C44.4196 9.92775 44.631 9.98059 45.0713 9.78685C47.3961 8.7301 49.5977 8.97668 51.5527 10.6323C53.4372 12.235 54.2122 14.4189 53.3668 16.691C52.8032 18.2056 53.3139 18.8573 54.2474 19.7379C56.1848 21.5872 58.0517 23.507 59.9538 25.4267C59.9538 25.2682 59.9538 25.0921 59.9538 24.916C59.9538 23.5422 59.9362 22.1508 59.9538 20.7771C59.9715 19.8612 60.535 19.2272 61.3276 19.2095C62.1378 19.1919 62.7366 19.8436 62.7542 20.7771C62.7542 21.0412 62.7718 21.2878 62.7542 21.552C62.719 21.9395 62.8599 22.1861 63.1769 22.4326C65.9421 24.5637 68.672 26.7125 71.4372 28.8612C71.8775 29.2134 72.2826 29.5833 72.5996 30.0412C72.5996 42.0882 72.5996 54.1351 72.5996 66.1645C72.3883 66.2173 72.4411 66.4286 72.4059 66.5695C71.7894 68.8063 70.4333 70.4091 68.355 71.4482C67.7562 71.7652 67.0693 71.8357 66.4352 72.0999ZM63.6877 69.2643C63.7405 69.2114 63.7757 69.1586 63.8286 69.1058C63.7405 69.0705 63.6525 69.0529 63.582 69.0001C57.4 63.3993 51.2709 57.7457 45.0537 52.1978C40.175 47.8651 33.4294 47.777 28.4627 52.0216C24.676 55.2623 21.0654 58.7144 17.3668 62.0607C17.314 62.1136 17.2964 62.1664 17.3492 62.2545C19.586 62.2545 21.8404 62.2545 24.0772 62.2545C24.9754 62.2545 25.5214 62.6244 25.6975 63.2936C25.9441 64.2975 25.2748 65.0549 24.1124 65.0549C20.9422 65.0549 17.7895 65.0725 14.6193 65.0549C14.2142 65.0549 13.9148 65.1606 13.633 65.4424C12.7347 66.2878 11.8013 67.1155 10.8854 67.9609C10.4275 68.366 9.98717 68.7887 9.44119 69.2819C27.6173 69.2643 45.6525 69.2643 63.6877 69.2643ZM3.64667 33.9336C3.59384 33.9688 3.52339 34.0216 3.47055 34.0569C3.47055 37.9492 3.47055 41.824 3.47055 45.7164C3.47055 52.0392 3.47055 58.3621 3.47055 64.685C3.47055 66.2173 4.03415 67.4502 5.21419 68.4189C5.60166 68.7359 5.86585 68.7359 6.27094 68.366C11.6075 63.4874 16.9617 58.6087 22.3335 53.7653C22.7738 53.3778 22.7915 53.1841 22.3688 52.7614C16.2396 46.6674 10.1281 40.5383 4.01654 34.4267C3.87564 34.2858 3.76996 34.0921 3.64667 33.9336ZM69.8168 33.916C69.6583 34.0569 69.5879 34.1097 69.535 34.1626C63.3002 40.415 57.0478 46.6498 50.7953 52.8846C50.4607 53.2193 50.5311 53.3602 50.8482 53.642C56.2728 58.5559 61.6975 63.4874 67.1221 68.4365C67.4744 68.7535 67.6857 68.7007 68.0027 68.4541C69.2709 67.4854 69.8344 66.2173 69.8344 64.6322C69.8168 54.6107 69.8344 44.5892 69.8344 34.5676C69.8168 34.3915 69.8168 34.2154 69.8168 33.916ZM59.9715 26.5011C59.6368 27.0823 59.1084 27.2937 58.5977 27.505C52.1163 30.2702 45.6349 33.0354 39.1359 35.7829C38.537 36.0295 38.6075 36.188 38.995 36.5755C40.3335 37.8788 41.6544 39.2173 42.9754 40.5383C43.856 41.4189 43.856 42.141 42.9754 43.0216C42.0419 43.9727 41.0908 44.9062 40.1574 45.8573C39.9989 46.0334 39.7171 46.139 39.7347 46.4561C42.9226 47.0901 45.5644 48.6753 47.854 50.912C48.1887 51.2467 48.3824 51.3347 48.7875 50.9297C52.3805 47.3015 55.991 43.6909 59.6192 40.0804C59.901 39.8162 59.9891 39.5344 59.9891 39.1645C59.9714 35.2017 59.9891 31.2389 59.9891 27.2937C59.9714 27.0471 59.9715 26.7653 59.9715 26.5011ZM34.8913 12.6049C32.9539 17.1665 31.0517 21.6577 29.1143 26.1312C28.9558 26.5187 29.132 26.6772 29.3433 26.9062C31.5449 29.1078 33.764 31.3093 35.948 33.5285C36.265 33.8455 36.5116 33.8631 36.9167 33.7046C41.1261 31.8905 45.3355 30.1117 49.5272 28.2976C50.2846 27.9806 50.2846 27.9806 49.721 27.417C44.9656 22.6616 40.2102 17.9062 35.4548 13.1508C35.2963 12.9923 35.1378 12.8514 34.8913 12.6049ZM26.3668 41.2956C27.494 41.2428 28.5331 40.9786 29.3609 40.2212C30.8756 38.7946 32.3374 37.3152 33.8169 35.8534C34.0106 35.6596 34.0106 35.5363 33.8169 35.3426C31.721 33.2643 29.6427 31.186 27.5644 29.0901C27.3707 28.8964 27.2474 28.8788 27.0537 29.0901C25.6095 30.5872 24.0772 31.9962 22.7034 33.5637C21.4353 35.0079 21.2592 36.7516 22.0517 38.4776C22.8795 40.2917 24.3942 41.1899 26.3668 41.2956ZM55.8853 25.6029C49.6681 19.3857 43.4861 13.1861 37.2865 6.98646C36.9871 7.67335 36.7053 8.43069 36.3355 9.1528C36.0889 9.62834 36.177 9.91014 36.5468 10.28C40.8619 14.5775 45.1593 18.8749 49.4744 23.19C50.5488 24.2643 51.6407 25.3387 52.6975 26.4307C52.9617 26.6949 53.173 26.7829 53.5429 26.6068C54.3531 26.2193 55.1632 25.9023 55.8853 25.6029ZM10.4803 25.5324C8.45489 27.1528 6.53512 28.7203 4.58014 30.2526C4.17505 30.5696 4.26311 30.7281 4.56252 31.0275C6.42945 32.8768 8.27876 34.7262 10.1281 36.5755C10.2161 36.6635 10.269 36.8396 10.4627 36.7516C10.4803 33.053 10.4803 29.3543 10.4803 25.5324ZM62.8071 36.9453C64.8853 34.8494 66.8579 32.8592 68.8305 30.8866C69.1476 30.5696 68.901 30.4639 68.7072 30.3054C67.6329 29.4776 66.5761 28.6322 65.5018 27.8044C64.6211 27.1175 63.7581 26.4483 62.8071 25.7085C62.8071 29.46 62.8071 33.1058 62.8071 36.9453ZM36.0361 37.597C35.9128 37.7027 35.8071 37.7907 35.719 37.8964C35.3668 38.2486 35.0498 38.6185 34.6799 38.9355C34.3453 39.235 34.31 39.4287 34.6623 39.7457C35.4901 40.5207 36.2826 41.3661 37.0928 42.1586C37.5331 42.5989 37.9911 43.3739 38.449 43.3739C39.0302 43.3739 39.4 42.5285 39.9284 42.1058C40.2102 41.8768 40.2102 41.7007 39.946 41.4541C38.7484 40.2741 37.5683 39.0764 36.3707 37.8964C36.265 37.8083 36.1594 37.7203 36.0361 37.597ZM46.6916 12.1822C48.0126 13.4855 49.2454 14.7184 50.4783 15.9512C50.7601 16.2154 50.7953 15.9336 50.813 15.7927C50.9891 14.6655 50.7073 13.644 49.8619 12.869C48.9812 12.0589 47.9597 11.8651 46.6916 12.1822Z" fill="white"/>
<path d="M62.8072 1.49132C62.8424 2.01969 62.5958 2.38956 62.2788 2.70658C60.5 4.50306 58.7035 6.29953 56.907 8.07839C56.2025 8.78289 55.3923 8.81812 54.7935 8.25452C54.1595 7.65569 54.1947 6.82791 54.9344 6.08818C56.7133 4.29171 58.5098 2.51284 60.2886 0.716368C60.7818 0.223218 61.363 0.0294807 62.0146 0.311281C62.5078 0.540243 62.8072 0.962943 62.8072 1.49132Z" fill="#F64701"/>
<path d="M20.9951 18.6812C19.956 18.6812 18.9345 18.6812 17.8953 18.6812C16.8738 18.6636 16.2397 18.1 16.2397 17.2546C16.2574 16.4268 16.8738 15.8808 17.8601 15.8632C19.9736 15.8456 22.0695 15.8456 24.183 15.8632C25.1517 15.8632 25.7857 16.4268 25.8033 17.2546C25.8209 18.1 25.1693 18.6636 24.1478 18.6812C23.1086 18.6812 22.0519 18.6812 20.9951 18.6812Z" fill="#F64701"/>
<path d="M20.4137 10.8083C19.5507 10.8083 18.6877 10.826 17.8071 10.8083C16.8912 10.7907 16.2748 10.2271 16.2572 9.43457C16.2396 8.60679 16.8736 8.00796 17.8247 8.00796C19.586 7.99035 21.3296 7.99035 23.0908 8.00796C24.0595 8.00796 24.6936 8.60679 24.676 9.41696C24.676 10.2271 24.0419 10.7907 23.0732 10.8083C22.1926 10.8083 21.2944 10.8083 20.4137 10.8083Z" fill="#F64701"/>
<path d="M60.0593 11.055C60.5877 11.055 61.1337 11.0197 61.6621 11.0726C62.3666 11.143 62.8597 11.7242 62.8773 12.3935C62.895 13.0452 62.4194 13.6792 61.7325 13.7673C60.5877 13.9082 59.4429 13.9082 58.3157 13.7673C57.6288 13.6792 57.1533 13.0628 57.1709 12.3935C57.1885 11.7066 57.664 11.1783 58.3862 11.0726C58.4742 11.055 58.5623 11.0374 58.6679 11.0374C59.1435 11.0374 59.6014 11.0374 60.0769 11.0374C60.0593 11.0374 60.0593 11.055 60.0593 11.055Z" fill="#F64701"/>
<path d="M51.8346 2.97084C51.8346 3.4816 51.8699 4.00997 51.817 4.52074C51.7466 5.22524 51.2006 5.71839 50.5137 5.75361C49.8444 5.78884 49.228 5.33091 49.1223 4.62641C48.9638 3.51682 48.9638 2.38962 49.1223 1.28004C49.2104 0.593148 49.8444 0.11761 50.5137 0.152835C51.183 0.18806 51.7466 0.68121 51.817 1.38571C51.8699 1.89647 51.8346 2.42485 51.8346 2.97084Z" fill="#F64701"/>
<path d="M28.4803 7.99036C29.2024 7.99036 29.8716 8.62441 29.8893 9.36413C29.9069 10.1215 29.22 10.8084 28.4626 10.7907C27.7405 10.7731 27.0889 10.1039 27.0889 9.38174C27.0889 8.65963 27.7405 8.00797 28.4803 7.99036Z" fill="#F64701"/>
<path d="M31.5273 63.6988C31.5097 64.4209 30.8405 65.0725 30.1183 65.0725C29.3434 65.0549 28.727 64.3857 28.7622 63.6107C28.7974 62.871 29.4667 62.2545 30.1888 62.2898C30.9109 62.2898 31.545 62.959 31.5273 63.6988Z" fill="#F64701"/>
</svg>
