<svg width="25" height="24" viewBox="0 0 25 24" fill="none" xmlns="http://www.w3.org/2000/svg">
<path d="M24.1936 12.9897C24.1936 16.1324 24.1936 19.2752 24.1936 22.4107C24.1202 22.4327 24.1202 22.5061 24.1055 22.5575C23.8048 23.4607 23.0933 23.9967 22.1471 23.9967C15.5235 23.9967 8.89261 24.0041 2.26904 23.9967C1.08076 23.9967 0.222559 23.1229 0.215224 21.9334C0.207888 19.0182 0.215224 16.1031 0.207888 13.1953C0.207888 13.0264 0.259234 12.9897 0.41327 12.9897C2.31305 12.997 4.2055 12.997 6.10528 12.9897C6.27399 12.9897 6.318 13.0558 6.34001 13.1953C6.47937 13.9589 6.78745 14.6492 7.19821 15.3027C8.5772 17.4689 11.4379 18.5336 13.8805 17.7552C16.125 17.0356 17.526 15.5083 18.0541 13.2026C18.0908 13.0484 18.1421 12.997 18.3108 12.997C20.1813 13.0044 22.0591 13.0044 23.9295 13.0044C24.0249 12.997 24.1055 12.9897 24.1936 12.9897Z" fill="#282624"/>
<path d="M24.1936 1.63748C24.1936 4.76557 24.1936 7.88632 24.1936 11.0144C24.1055 11.0071 24.0249 10.9997 23.9368 10.9997C22.1764 10.9997 20.4087 10.9997 18.6482 10.9997C18.1275 10.9997 18.1275 10.9997 18.0028 10.5004C17.9954 10.4637 17.9808 10.427 17.9661 10.3903C17.1959 7.96709 15.5749 6.48382 13.0663 6.07261C11.2325 5.77155 9.58944 6.30759 8.20311 7.5412C7.22021 8.41501 6.59673 9.51645 6.34001 10.8162C6.318 10.9263 6.296 11.0071 6.13462 11.0071C4.21284 10.9997 2.29838 10.9997 0.376595 11.0071C0.244564 11.0071 0.207888 10.9704 0.207888 10.8382C0.207888 7.89366 0.200553 4.94914 0.215224 2.00462C0.222559 1.18221 0.633322 0.572749 1.36683 0.190917C1.5062 0.117487 1.68957 0.132173 1.7996 0C8.7019 0 15.6042 0 22.5065 0C22.5138 0.0514006 22.5578 0.0440577 22.5945 0.0514006C23.2033 0.190917 23.6508 0.536035 23.9588 1.07941C24.0615 1.25564 24.0689 1.46859 24.1936 1.63748ZM19.6825 5.99918C19.8659 5.99918 20.0566 6.00653 20.24 5.99918C20.7607 5.96981 21.1642 5.56595 21.1862 5.05194C21.2009 4.6848 21.2009 4.31765 21.1862 3.9505C21.1642 3.4365 20.7534 3.03264 20.2326 3.01061C19.8732 2.99592 19.5138 2.99592 19.1544 3.01061C18.6262 3.03264 18.2155 3.44384 18.1935 3.97253C18.1788 4.33234 18.1788 4.69214 18.1935 5.05194C18.2155 5.58064 18.6262 5.9845 19.1617 6.00653C19.3377 6.00653 19.5138 5.99918 19.6825 5.99918Z" fill="#282624"/>
<path d="M12.2081 16.0003C10.0002 16.0076 8.20311 14.2159 8.21045 11.9984C8.21045 9.78814 9.98553 8.01849 12.1934 8.00381C14.4012 7.99646 16.1983 9.78814 16.191 12.0057C16.191 14.2159 14.4159 15.9929 12.2081 16.0003Z" fill="#282624"/>
</svg>
