<svg width="48" height="43" viewBox="0 0 48 43" fill="none" xmlns="http://www.w3.org/2000/svg">
<path d="M48 38.3982C47.9001 38.4476 47.9001 38.5466 47.8502 38.5961C47.4506 39.5857 46.7014 40.0311 45.6025 40.0311C41.257 40.0311 36.9115 40.0311 32.5661 40.0311C30.8179 40.0311 29.1197 40.0311 27.3715 40.0311C27.0219 40.0311 26.9719 40.13 26.9719 40.4269C26.9719 41.5155 26.9719 41.5155 28.0708 41.5155C28.77 41.5155 29.5193 41.5155 30.2185 41.5155C30.718 41.5155 31.0676 41.8124 31.0676 42.2578C31.0676 42.7031 30.718 43 30.2185 43C26.0728 43 21.8772 43 17.7315 43C17.1821 43 16.8325 42.7031 16.8824 42.2578C16.8824 41.8124 17.232 41.565 17.7315 41.5155C18.7305 41.5155 19.6795 41.5155 20.6785 41.5155C20.9282 41.5155 20.9781 41.4661 20.9781 41.2186C21.0281 40.0311 21.0281 40.0311 19.8293 40.0311C14.0853 40.0311 8.39126 40.0311 2.64724 40.0311C1.39854 40.0311 0.49948 39.5857 0.049948 38.3982L0 38.3487C0.049948 29.9367 0.049948 21.4753 0.049948 13.0138C0.349636 13.0138 0.599376 13.2612 0.949011 13.2612C0.599376 14.0035 0.399584 14.7457 0.599376 15.5374C0.699272 16.0817 0.949011 16.5765 1.3486 17.0219C1.54839 17.1703 1.54839 17.4177 1.54839 17.6651C1.54839 24.2463 1.54839 30.8769 1.54839 37.458C1.54839 38.3982 1.74818 38.5961 2.69719 38.5961C16.9324 38.5961 31.1675 38.5961 45.3528 38.5961C46.2518 38.5961 46.4516 38.3982 46.4516 37.5075C46.4516 30.9264 46.4516 24.2957 46.4516 17.7146C46.4516 17.4177 46.5016 17.2198 46.7014 16.9724C47.5005 15.9827 47.7003 14.8941 47.2008 13.7066C47.051 13.3602 47.1009 13.1623 47.4506 13.1128C47.6004 13.1128 47.7003 12.8654 47.9001 13.0138C48 21.4753 48 29.9367 48 38.3982ZM24.0749 40.0806C23.975 40.0806 23.8252 40.0806 23.7253 40.0806C22.5265 40.0806 22.5265 40.0806 22.5765 41.2681C22.5765 41.565 22.6764 41.6145 22.9261 41.565C23.4256 41.565 23.9251 41.565 24.4246 41.565C25.6233 41.565 25.6233 41.565 25.5734 40.3774C25.5734 40.0806 25.4735 40.0311 25.2237 40.0806C24.8241 40.0806 24.4246 40.0806 24.0749 40.0806Z" fill="white"/>
<path d="M0.049948 8.6099C0.299688 8.26352 0.449532 7.86766 0.849116 7.62025C1.19875 7.42232 1.54839 7.37284 1.94797 7.37284C2.24766 7.42232 2.3975 7.32336 2.4974 7.02647C2.79709 6.3832 2.94693 5.88838 2.29761 5.29459C1.74818 4.75029 1.89802 3.81013 2.44745 3.21634C2.69719 2.91945 2.99688 2.67204 3.29657 2.42463C4.04579 1.78136 5.04474 1.78136 5.74402 2.52359C6.0437 2.82048 6.2435 2.86997 6.59313 2.72152C7.19251 2.47411 7.59209 2.27618 7.59209 1.48446C7.54214 0.69275 8.34131 0.0989643 9.14048 0.0494821C9.49012 0.0494821 9.8897 0.0494821 10.2393 0.0494821C11.2882 -5.89873e-08 12.0375 0.742232 12.0375 1.73188C12.0375 2.2267 12.1374 2.42463 12.6368 2.52359H12.6868C13.2362 2.91945 13.6358 2.82048 14.0853 2.32566C14.6348 1.73188 15.5838 1.83084 16.2331 2.37514C16.5328 2.62255 16.7825 2.91945 17.0822 3.16686C17.8314 3.90909 17.8314 4.89873 17.0822 5.64097C16.7825 5.93786 16.6826 6.18527 16.9324 6.53165C16.9823 6.58113 16.9823 6.63061 16.9823 6.68009C17.0822 7.27388 17.3819 7.52129 18.0312 7.47181C18.8803 7.42232 19.5297 8.21404 19.5796 9.05524C19.5796 9.45109 19.5796 9.84695 19.5796 10.1933C19.5796 11.183 18.8304 11.9252 17.8814 11.8757C17.4318 11.8757 17.232 12.0242 17.0323 12.42C16.7326 13.0138 16.7326 13.4097 17.232 13.9045C17.7815 14.4488 17.7315 15.389 17.1821 15.9827C16.8824 16.3291 16.5827 16.626 16.2331 16.9229C15.5338 17.5167 14.5848 17.5167 13.8855 16.7745C13.5858 16.4776 13.3361 16.3291 12.9865 16.626C12.9865 16.626 12.9365 16.6755 12.8866 16.6755C12.2872 16.7745 11.9875 17.0713 12.0375 17.8136C12.0874 18.6053 11.2882 19.2486 10.4891 19.298C10.0895 19.298 9.68991 19.298 9.29032 19.298C8.34131 19.298 7.59209 18.5558 7.64204 17.6157C7.64204 17.1703 7.54214 16.9724 7.09261 16.7745C6.49324 16.527 6.09365 16.4281 5.59417 16.9724C5.04475 17.5662 4.09573 17.4672 3.44641 16.9229C3.14672 16.6755 2.89698 16.4281 2.64724 16.1312C1.89802 15.3395 1.89802 14.3993 2.64724 13.6571C2.94693 13.3602 2.94693 13.1623 2.79709 12.8159C2.54735 12.1726 2.34755 11.8262 1.54839 11.8757C0.849115 11.9252 0.449532 11.2819 0.0998959 10.7376C0.049948 9.9954 0.049948 9.30265 0.049948 8.6099ZM10.539 16.7745C10.539 16.626 10.539 16.4776 10.539 16.3291C10.4891 15.9333 10.6389 15.7353 11.0385 15.6858C11.6878 15.5869 12.3371 15.3395 12.8866 14.9931C13.6857 14.5478 13.6857 14.5478 14.3351 15.191C15.1342 15.9827 15.1342 15.9827 15.8835 15.1415C16.0333 14.9436 16.0832 14.8446 15.8835 14.6467C15.5338 14.3498 15.2341 14.0035 14.9344 13.7066C14.7846 13.5581 14.7347 13.4591 14.8845 13.2612C15.4339 12.4695 15.7836 11.6283 15.9834 10.6881C16.0333 10.4902 16.0832 10.3913 16.333 10.3913C16.7825 10.3913 17.232 10.3913 17.6816 10.3913C17.8814 10.3913 18.0812 10.3913 18.0812 10.1438C18.0312 9.74799 18.3309 9.30265 17.8814 8.95627C17.8314 8.90679 17.6816 8.95627 17.5817 8.95627C17.1821 8.95627 16.7825 8.95627 16.4329 8.95627C16.1831 8.95627 16.0333 8.90679 15.9834 8.6099C15.8335 7.71922 15.4839 6.87802 14.9344 6.13579C14.7846 5.93786 14.8345 5.8389 14.9844 5.69045C15.334 5.39356 15.6337 5.04718 15.9834 4.70081C16.1831 4.50288 16.0832 4.35443 15.9334 4.25547C15.5838 4.05754 15.5338 3.51323 14.9844 3.6122C14.8845 3.6122 14.8345 3.71116 14.7846 3.81013C14.4849 4.10702 14.1852 4.35443 13.9355 4.65132C13.7856 4.79977 13.6857 4.84925 13.486 4.70081C12.6868 4.1565 11.8377 3.81013 10.8887 3.6122C10.539 3.51323 10.539 3.36479 10.539 3.16686C10.539 2.72152 10.539 2.32566 10.539 1.88032C10.539 1.68239 10.539 1.48446 10.2893 1.48446C9.8897 1.53395 9.44017 1.28654 9.09053 1.68239C9.04058 1.73188 9.09053 1.88032 9.09053 1.97929C9.09053 2.37514 9.09053 2.771 9.09053 3.16686C9.09053 3.41427 9.04058 3.51323 8.79084 3.56272C7.84183 3.76064 6.99272 4.05754 6.2435 4.60184C6.0437 4.75029 5.94381 4.70081 5.79396 4.55236C5.49428 4.20598 5.19459 3.85961 4.79501 3.56272C4.24558 3.16686 4.19563 3.85961 3.89594 4.05754C3.69615 4.1565 3.44641 4.35443 3.7461 4.65132C4.04579 4.94822 4.34547 5.24511 4.64516 5.542C4.8949 5.73993 4.94485 5.88838 4.74506 6.18527C4.34547 6.77906 4.04579 7.42232 3.84599 8.11508C3.54631 8.90679 3.54631 8.90679 2.59729 8.90679C1.44849 8.90679 1.44849 8.90679 1.54839 10.0449V10.0944C1.54839 10.3418 1.64828 10.4407 1.89802 10.3913C2.34755 10.3913 2.84703 10.3913 3.29657 10.3913C3.49636 10.3913 3.59625 10.4407 3.6462 10.6387C3.84599 11.5788 4.19563 12.42 4.74506 13.2117C4.8949 13.4097 4.84495 13.5086 4.64516 13.6571C4.29553 13.954 3.99584 14.3003 3.6462 14.6467C3.39646 14.8941 3.59625 15.0426 3.7461 15.1415C4.04579 15.3395 4.09573 15.9333 4.64516 15.6858C4.74506 15.6364 4.79501 15.5374 4.84495 15.4879C5.14464 15.191 5.39438 14.9436 5.64412 14.6467C5.79396 14.4488 5.94381 14.4488 6.09365 14.5972C6.54318 14.8941 7.04266 15.1415 7.59209 15.389C8.04162 15.5869 8.74089 15.4879 8.94069 15.8838C9.14048 16.2796 8.99063 16.8239 8.99063 17.3188C8.99063 17.6651 9.09053 17.7641 9.44017 17.7641C10.539 17.8136 10.539 17.8631 10.539 16.7745Z" fill="white"/>
<path d="M48 10.6881C47.7503 11.0345 47.6004 11.4304 47.2008 11.6778C46.8512 11.8757 46.5515 11.9747 46.1519 11.9252C45.8023 11.8757 45.6524 12.0242 45.5026 12.3211C45.2029 12.9643 45.103 13.4591 45.7024 14.0035C46.2518 14.5478 46.102 15.4384 45.6025 16.0322C45.3528 16.3291 45.103 16.5765 44.8033 16.8239C44.0042 17.5662 43.0551 17.5662 42.256 16.7745C41.9563 16.4776 41.7565 16.4776 41.4069 16.626C40.7575 16.8734 40.4079 17.1208 40.4579 17.8631C40.4579 18.6548 39.7086 19.2486 38.8595 19.298C38.4599 19.298 38.0604 19.298 37.7107 19.298C36.7617 19.298 36.0125 18.5558 36.0125 17.6157C36.0125 17.1208 35.8626 16.9724 35.4131 16.7745C34.8137 16.527 34.4641 16.4776 33.9646 16.9724C33.4152 17.5662 32.4162 17.4672 31.8169 16.9229C31.5172 16.6755 31.2674 16.3786 30.9677 16.1312C30.2685 15.389 30.2685 14.4488 31.0177 13.756C31.3673 13.4097 31.4672 13.1623 31.1675 12.8159C31.1675 12.8159 31.1176 12.7664 31.1176 12.7169C31.0177 12.1231 30.718 11.8757 30.0687 11.9252C29.2196 11.9747 28.5702 11.183 28.5203 10.3418C28.5203 9.9954 28.5203 9.59954 28.5203 9.25317C28.5203 8.21404 29.2196 7.52129 30.2685 7.52129C30.6681 7.52129 30.9677 7.42233 31.0177 7.02647C31.0177 6.97699 31.0177 6.9275 31.0676 6.87802C31.4173 6.3832 31.3673 6.03682 30.8678 5.542C30.2685 4.94822 30.3184 4.00806 30.9178 3.36479C31.1675 3.06789 31.4672 2.771 31.7669 2.52359C32.5161 1.78136 33.5151 1.78136 34.2144 2.47411C34.514 2.82048 34.7638 2.771 35.1634 2.62255C35.7627 2.42463 36.1124 2.17722 36.0624 1.43498C36.0624 0.643268 36.8117 0 37.6608 0C38.0604 0 38.4599 0 38.8096 0C39.7586 0 40.5078 0.742233 40.4579 1.68239C40.4579 2.17722 40.6077 2.32566 41.0572 2.52359C41.6566 2.771 42.0062 2.82048 42.5057 2.32566C43.0551 1.73188 44.0042 1.83084 44.6535 2.37514C44.9532 2.62255 45.2029 2.86997 45.4527 3.16686C46.2019 3.95857 46.2019 4.89873 45.4527 5.64097C45.153 5.93786 45.153 6.13579 45.3028 6.48216C45.5525 7.12543 45.7523 7.47181 46.5515 7.47181C47.3007 7.42232 47.7003 8.06559 48 8.70886C48 9.35213 48 10.0449 48 10.6881ZM37.5109 2.52359C37.5109 2.72152 37.5109 2.91945 37.5109 3.06789C37.5609 3.41427 37.411 3.56272 37.0614 3.6122C36.4121 3.71116 35.7627 3.95857 35.1634 4.30495C34.3642 4.75029 34.3642 4.75029 33.6649 4.10702C32.8658 3.3153 32.8658 3.3153 32.1165 4.1565C31.9667 4.35443 31.9168 4.45339 32.1165 4.65132C32.4162 4.94822 32.7159 5.24511 33.0156 5.542C33.2653 5.73993 33.2653 5.88838 33.1155 6.13579C32.7159 6.72957 32.4162 7.37284 32.2164 8.06559C31.9667 8.90679 31.9667 8.90679 31.0676 8.90679C29.9188 8.90679 29.9188 8.90679 30.0187 10.0449C30.0187 10.2923 30.1186 10.3913 30.3684 10.3913C30.768 10.3913 31.1675 10.3913 31.5671 10.3913C31.9168 10.3418 32.0666 10.4902 32.1165 10.8366C32.2164 11.5293 32.4662 12.1231 32.8158 12.7169C33.2653 13.5086 33.2653 13.5086 32.616 14.1519C31.8169 14.9436 31.8169 14.9436 32.666 15.6858C32.666 15.6858 32.666 15.6858 32.7159 15.7353C32.8658 15.8838 33.0156 15.8838 33.1655 15.7353C33.4651 15.4384 33.8148 15.1415 34.0645 14.7952C34.2643 14.5478 34.4142 14.5972 34.6639 14.7457C35.2633 15.1415 35.8626 15.4384 36.5619 15.6364C37.461 15.8838 37.461 15.8838 37.461 16.7745C37.461 17.9125 37.461 17.9125 38.6098 17.8136C38.8595 17.8136 38.9594 17.7146 38.9594 17.4672C38.9594 17.0219 38.9594 16.5765 38.9594 16.1312C38.9594 15.8838 39.0094 15.8343 39.2591 15.7848C39.9584 15.6364 40.6576 15.4384 41.307 15.0426C42.1061 14.5972 42.1061 14.5972 42.7555 15.2405C43.5546 16.0322 43.5546 16.0322 44.3038 15.191C44.3038 15.191 44.3038 15.191 44.3538 15.1415C44.5036 14.9931 44.5036 14.8446 44.3538 14.6962C44.0541 14.3993 43.7544 14.1024 43.4547 13.8055C43.205 13.6076 43.205 13.4097 43.4048 13.1623C43.8044 12.5685 44.1041 11.9747 44.3038 11.2819C44.5536 10.4407 44.5536 10.4407 45.4527 10.4407C46.6015 10.4407 46.6015 10.4407 46.5016 9.30265C46.5016 9.05524 46.4017 8.95627 46.1519 8.95627C45.7024 8.95627 45.2529 8.95627 44.8033 8.95627C44.5536 8.95627 44.5036 8.90679 44.4537 8.65938C44.3039 7.96663 44.1041 7.27388 43.7045 6.63061C43.2549 5.8389 43.2549 5.8389 43.9043 5.19563C44.7034 4.40391 44.7034 4.40391 43.8543 3.66168C43.6545 3.46375 43.5047 3.51323 43.3049 3.71116C43.0052 4.00806 42.7055 4.30495 42.4058 4.65132C42.256 4.79977 42.1561 4.84925 41.9563 4.70081C41.1571 4.1565 40.308 3.81013 39.359 3.6122C39.0094 3.51323 39.0094 3.41427 39.0094 3.21634C39.0094 2.82048 39.0094 2.37514 39.0094 1.97929C39.0094 1.63291 38.8595 1.53395 38.5598 1.53395C37.5109 1.48446 37.5109 1.48447 37.5109 2.52359Z" fill="white"/>
<path d="M35.9625 24.7411C36.462 25.038 36.9115 25.2854 37.3611 25.5823C38.0104 25.9781 38.0104 26.6214 37.3611 27.0173C36.9115 27.2647 36.462 27.5121 35.9625 27.7595C36.4121 28.0564 36.8616 28.3038 37.3111 28.5512C38.0104 28.9965 38.0104 29.6398 37.3111 29.9862C33.0156 32.2129 28.7201 34.4396 24.4745 36.6663C24.1748 36.8147 23.8751 36.8147 23.5255 36.6663C19.23 34.4396 14.9344 32.2129 10.6889 30.0357C10.3892 29.8872 10.1394 29.6893 10.1394 29.2934C10.1394 28.9471 10.3392 28.7491 10.6389 28.6007C11.0885 28.3533 11.538 28.1059 12.0874 27.809C11.5879 27.5616 11.1384 27.3142 10.6889 27.0667C10.3892 26.9183 10.1394 26.7204 10.1394 26.3245C10.1394 25.9287 10.3892 25.7307 10.6889 25.5823C11.1384 25.3349 11.5879 25.0875 12.1374 24.84C11.6379 24.5926 11.1883 24.3452 10.7388 24.0978C10.3892 23.9494 10.1394 23.702 10.1894 23.3061C10.1894 22.9597 10.4391 22.7618 10.7388 22.5639C14.9844 20.4361 19.2799 18.3084 23.5255 16.1807C23.8751 15.9827 24.1748 15.9827 24.5245 16.1807C28.77 18.3084 33.0156 20.4361 37.3111 22.5639C37.6608 22.7123 37.9105 22.9597 37.8606 23.3061C37.8606 23.702 37.6108 23.8999 37.3111 24.0483C36.8616 24.2463 36.462 24.4442 35.9625 24.7411ZM35.4131 23.2566C35.2633 23.1577 35.1134 23.1082 34.9136 23.0092C31.4173 21.2278 27.871 19.496 24.3746 17.7146C24.1249 17.5662 23.9251 17.5662 23.6753 17.7146C20.0791 19.496 16.5328 21.3268 12.9365 23.1082C12.8366 23.1577 12.6868 23.1577 12.6368 23.3061C12.6868 23.3556 12.7367 23.3556 12.7867 23.4051C16.4329 25.2854 20.0791 27.1657 23.7253 29.0955C23.975 29.244 24.1748 29.145 24.3746 29.046C27.9209 27.2152 31.4672 25.3843 35.0135 23.504C35.1634 23.4545 35.3132 23.4051 35.4131 23.2566ZM35.563 26.2255C35.3632 26.1266 35.2133 26.0276 35.0635 25.9287C34.6139 25.5823 34.2144 25.6318 33.7149 25.8792C30.718 27.4626 27.6712 29.046 24.6243 30.6295C24.1748 30.8769 23.8252 30.8274 23.4256 30.6295C20.5286 29.145 17.6816 27.6605 14.7846 26.1761C13.6857 25.5823 13.6857 25.5823 12.5869 26.275C12.5869 26.275 12.5869 26.275 12.5369 26.3245C12.5869 26.374 12.6368 26.4235 12.6868 26.4235C16.3829 28.3533 20.0791 30.2336 23.7752 32.1634C24.025 32.2624 24.1249 32.2129 24.3247 32.1139C26.2227 31.1243 28.1207 30.1346 30.0187 29.145C31.8668 28.1059 33.7149 27.1657 35.563 26.2255ZM12.5869 29.1945C12.6368 29.1945 12.6868 29.244 12.7367 29.2934C16.4329 31.2232 20.0791 33.1036 23.7752 35.0334C23.975 35.1323 24.1249 35.1323 24.2747 35.0334C25.3236 34.4891 26.3725 33.9448 27.4214 33.4005C30.1186 32.015 32.8158 30.58 35.563 29.1945C35.3132 29.046 35.1134 28.9471 34.9136 28.7986C34.564 28.5017 34.2643 28.5512 33.8148 28.7491C30.718 30.382 27.6712 31.9655 24.5744 33.5489C24.1748 33.7468 23.8252 33.7468 23.4256 33.5489C20.5286 32.0644 17.6316 30.58 14.7347 29.046C13.9355 28.6007 13.2862 28.5017 12.5869 29.1945Z" fill="white"/>
<path d="M42.7555 33.0541C42.7555 34.2417 41.7565 35.2808 40.5078 35.2808C39.2591 35.2808 38.2601 34.2911 38.2601 33.0541C38.2601 31.8665 39.2591 30.8274 40.5078 30.8274C41.7066 30.7779 42.7555 31.817 42.7555 33.0541ZM41.257 33.0541C41.257 32.6582 40.9573 32.3119 40.5078 32.3119C40.1082 32.3119 39.7586 32.6087 39.7586 33.0046C39.7586 33.4005 40.1082 33.7963 40.5078 33.7963C40.9074 33.7468 41.257 33.4499 41.257 33.0541Z" fill="white"/>
<path d="M9.7898 33.0541C9.7898 34.2911 8.7409 35.2808 7.4922 35.2808C6.29344 35.2808 5.29449 34.2417 5.29449 33.0541C5.29449 31.817 6.34339 30.8274 7.59209 30.8274C8.79084 30.8274 9.7898 31.817 9.7898 33.0541ZM8.29136 33.0541C8.29136 32.6582 7.99168 32.3119 7.59209 32.3119C7.19251 32.3119 6.84287 32.6087 6.79292 33.0046C6.79292 33.4005 7.09261 33.7963 7.54214 33.7963C7.94173 33.7468 8.29136 33.4499 8.29136 33.0541Z" fill="white"/>
<path d="M27.5213 11.8757C25.1738 11.8757 22.8762 11.8757 20.5786 11.8757C20.7784 11.4304 20.9781 11.0345 21.0281 10.5892C21.0281 10.3913 21.1779 10.4407 21.2778 10.4407C23.1259 10.4407 24.974 10.4407 26.7721 10.4407C26.922 10.4407 27.0219 10.4902 27.0219 10.6387C27.1217 11.0345 27.2216 11.4304 27.5213 11.8757Z" fill="white"/>
<path d="M4.54527 36.023C4.54527 36.4189 4.19563 36.7652 3.79605 36.7652C3.34651 36.7158 3.04683 36.3694 3.04683 35.9735C3.04683 35.5777 3.39646 35.2808 3.84599 35.2808C4.24558 35.2808 4.54527 35.6272 4.54527 36.023Z" fill="white"/>
<path d="M45.0031 36.023C45.0031 36.4189 44.6535 36.7652 44.2539 36.7652C43.8543 36.7652 43.5047 36.4189 43.5047 35.9735C43.5047 35.5777 43.8543 35.2313 44.2539 35.2808C44.6535 35.2808 45.0031 35.5777 45.0031 36.023Z" fill="white"/>
<path d="M9.7898 13.5581C7.54214 13.5581 5.84391 11.7768 5.84391 9.59954C5.84391 7.42232 7.64204 5.69045 9.83975 5.69045C12.0375 5.69045 13.8356 7.47181 13.7856 9.64902C13.7357 11.8757 11.9376 13.6076 9.7898 13.5581ZM9.7898 12.0736C11.1883 12.0736 12.2373 11.0345 12.2872 9.64902C12.2872 8.26352 11.1883 7.17491 9.7898 7.17491C8.44121 7.17491 7.3923 8.26352 7.3923 9.59954C7.2924 10.985 8.39126 12.0736 9.7898 12.0736Z" fill="white"/>
<path d="M42.206 9.64902C42.206 11.8262 40.4579 13.5581 38.2601 13.5581C36.0624 13.5581 34.2643 11.7768 34.2643 9.59954C34.2643 7.42232 36.0624 5.69045 38.2102 5.69045C40.4579 5.73993 42.206 7.47181 42.206 9.64902ZM40.7076 9.64902C40.7076 8.313 39.6087 7.2244 38.2601 7.2244C36.9115 7.2244 35.8127 8.313 35.8127 9.64902C35.8127 11.0345 36.9115 12.1231 38.3101 12.1231C39.6087 12.0736 40.7076 10.985 40.7076 9.64902Z" fill="white"/>
</svg>
