<svg width="164" height="163" viewBox="0 0 164 163" fill="none" xmlns="http://www.w3.org/2000/svg">
<path d="M114.317 0C119.529 0 124.784 0 129.995 0C132.046 0.849622 132.43 2.50639 132.388 4.503C132.302 7.90149 132.516 7.6466 135.378 9.2184C138.197 10.7902 139.906 10.2379 141.829 7.90149C143.708 5.64999 145.374 5.77743 147.51 7.90149C150.287 10.6628 153.107 13.424 155.883 16.2278C158.19 18.5218 158.19 19.9236 155.841 22.2601C155.029 23.0672 153.833 23.7894 153.491 24.7665C153.064 25.871 154.26 26.933 154.687 28.0375C155.114 29.142 155.114 30.7138 156.14 31.2236C157.122 31.6909 158.532 31.436 159.771 31.3511C161.736 31.2236 163.188 31.8608 164 33.73C164 38.9127 164 44.1379 164 49.3206C162.932 50.9773 161.351 51.6145 159.429 51.3597C159.002 51.3172 158.575 51.4021 158.147 51.3597C156.439 51.0623 155.584 51.6995 155.114 53.3987C154.687 54.9281 153.192 56.4574 153.491 57.7318C153.79 59.0912 155.584 60.1108 156.695 61.3427C157.977 62.7446 157.934 64.3589 156.695 65.7607C156.311 66.1856 155.926 66.6528 155.456 66.9927C154.559 67.6724 154.345 68.522 154.345 69.6265C154.388 86.3641 154.388 103.059 154.345 119.797C154.345 127.613 148.792 133.093 140.931 133.093C133.797 133.093 126.62 133.093 119.486 133.093C110.302 133.093 101.117 133.093 91.9323 133.051C90.907 133.051 90.608 133.306 90.608 134.325C90.6934 137.171 90.6507 140.06 90.608 142.906C90.608 143.671 90.8216 143.883 91.5905 143.883C93.8974 143.841 96.1615 143.841 98.4684 143.883C103.979 143.968 108.55 147.834 109.618 153.272C109.96 155.056 109.704 156.883 109.874 158.667C110.045 160.621 109.319 162.023 107.61 163C87.2331 163 66.8132 163 46.4361 163C44.77 161.768 44.2574 160.154 44.471 158.157C44.5564 157.223 44.471 156.245 44.5137 155.311C44.5991 149.788 48.4011 145.2 53.8265 144.181C56.7314 143.629 59.6791 144.011 62.584 143.968C63.4811 143.968 63.7374 143.714 63.7374 142.821C63.6947 140.103 63.652 137.426 63.7374 134.708C63.7802 133.348 63.3957 133.093 62.0714 133.093C45.7953 133.136 29.5619 133.136 13.2858 133.136C7.00599 133.136 2.39229 129.78 0.469914 123.875C0.384475 123.578 0.469914 123.11 0 122.983C0 91.9716 0 61.0029 0 29.9917C0.256317 29.9492 0.299036 29.7368 0.341756 29.5244C2.64861 22.7699 6.83511 19.7962 13.9693 19.7962C37.7213 19.7962 61.4733 19.7962 85.2253 19.7962C86.336 19.7962 87.3186 19.9661 87.2759 18.3518C87.2759 17.7996 87.7458 17.2898 88.173 16.865C91.3342 13.7214 94.4954 10.5778 97.6994 7.43419C98.5965 6.54209 99.6645 6.20224 100.903 6.54209C101.971 6.83946 102.655 7.68908 103.424 8.45374C105.731 10.7477 105.731 10.7477 108.636 9.51577C109.063 9.34584 109.49 9.04848 109.96 9.00599C112.01 8.70863 112.566 7.51916 112.352 5.60751C112.053 3.39849 112.139 1.27443 114.317 0ZM90.8643 26.1259C90.2662 26.1259 89.7109 26.1259 89.1982 26.1259C64.0792 26.1259 38.9174 26.1259 13.7984 26.1259C8.88565 26.1259 6.40792 28.5898 6.40792 33.4751C6.40792 52.2093 6.40792 70.9434 6.3652 89.6776C6.3652 91.1645 6.74967 91.4618 8.20214 91.4618C15.6353 91.3769 23.0258 91.4193 30.459 91.4193C32.8085 91.4193 34.2183 92.8212 34.0047 94.9453C33.8338 96.687 32.5095 97.7915 30.4163 97.7915C22.8976 97.7915 15.379 97.834 7.86038 97.749C6.62152 97.749 6.3652 98.0889 6.40792 99.2359C6.49336 101.148 6.53608 103.059 6.40792 104.971C6.27976 106.415 6.79239 106.755 8.20214 106.755C46.906 106.713 85.6098 106.713 124.271 106.713C127.133 106.713 128.714 107.86 128.671 109.941C128.671 111.98 127.09 113.085 124.228 113.085C87.0623 113.085 49.939 113.085 12.7731 113.085C11.1925 113.085 9.56916 113.17 7.98854 113.042C6.79239 112.957 6.27976 113.212 6.3652 114.572C6.49336 116.186 6.40792 117.843 6.40792 119.499C6.40792 124.215 8.92837 126.764 13.7129 126.764C56.0052 126.764 98.2548 126.764 140.547 126.764C145.374 126.764 147.937 124.257 147.937 119.414C147.937 105.013 147.937 90.6547 147.937 76.2536C147.937 75.8288 148.151 75.319 147.767 74.9367C144.776 77.1457 143.965 77.0607 141.273 74.3844C141.06 74.172 140.803 73.9596 140.59 73.7047C139.607 72.3028 138.496 71.963 136.916 72.9825C135.891 73.6198 134.694 73.9596 133.541 74.3419C132.687 74.5968 132.388 75.0641 132.43 75.9137C132.516 77.1457 132.473 78.3352 132.43 79.5671C132.302 81.6487 131.149 82.7957 129.055 82.8382C124.613 82.8806 120.213 82.8806 115.77 82.8382C113.634 82.8382 112.438 81.6487 112.309 79.4821C112.267 78.2502 112.267 77.0182 112.309 75.8288C112.352 75.0216 112.139 74.5543 111.284 74.3419C109.704 73.9171 108.166 73.2374 106.713 72.4728C106.03 72.0904 105.603 72.1754 105.09 72.7276C104.193 73.7047 103.253 74.6393 102.27 75.5314C100.903 76.7634 99.2373 76.8483 97.9557 75.6164C94.5809 72.3453 91.2488 69.0743 88.0021 65.7183C86.7632 64.4438 86.8487 62.7871 88.0448 61.4277C88.6856 60.7055 89.3264 59.9833 90.0953 59.3886C91.3342 58.4115 91.676 57.4769 90.7361 55.9901C89.9245 54.6732 89.8817 52.5916 88.8138 51.742C87.6603 50.8074 85.6525 51.5721 83.9865 51.4446C81.9359 51.2747 80.7398 50.1277 80.7398 48.0461C80.6971 43.6281 80.6971 39.2525 80.7398 34.8345C80.7398 32.7104 81.9786 31.521 84.1146 31.436C85.3962 31.3935 86.6778 31.436 87.9594 31.436C88.4293 31.436 88.8565 31.4785 89.0701 30.8413C89.5827 29.2695 90.2235 27.7402 90.8643 26.1259ZM100.22 14.0188C99.8781 14.3161 99.6645 14.4436 99.4936 14.6135C98.8101 15.2932 98.1266 15.9304 97.4431 16.6526C96.6314 17.5022 95.2217 18.3094 95.179 19.2015C95.0935 20.221 96.6314 20.9432 97.4431 21.8353C98.981 23.4496 99.1946 24.6815 98.0412 26.5507C96.5033 29.0996 95.3498 31.8183 94.6236 34.7071C94.0255 37.086 93.1284 37.7232 90.6934 37.8082C89.54 37.8507 87.9594 37.2984 87.3613 38.0631C86.7632 38.7852 87.1477 40.2721 87.1477 41.4616C87.1477 42.6085 86.7632 44.0954 87.3613 44.86C87.9594 45.6247 89.54 45.0724 90.6934 45.1149C93.1284 45.1999 94.0683 45.8371 94.6663 48.1736C95.3926 50.9773 96.4605 53.6112 97.9557 56.0751C99.28 58.2841 99.1519 59.4311 97.3149 61.2578C94.9226 63.6792 94.9226 63.6792 97.3576 66.0581C98.212 66.9077 99.0237 68.3096 100.006 68.4371C101.16 68.607 101.843 66.9502 102.74 66.1431C104.364 64.6562 105.56 64.4863 107.482 65.6333C110.003 67.1201 112.694 68.2671 115.556 68.9893C118.077 69.6265 118.717 70.5186 118.76 73.1525C118.803 76.466 118.803 76.5085 122.135 76.466C123.417 76.466 125.083 77.0182 125.809 76.2536C126.45 75.6164 126.022 73.9596 126.065 72.7701C126.151 70.5611 126.834 69.669 129.055 69.0743C132.003 68.3096 134.823 67.2051 137.429 65.5908C139.265 64.4863 140.547 64.6562 142.128 66.228C142.982 67.0352 143.794 68.4795 144.648 68.522C145.673 68.5645 146.442 67.0352 147.297 66.1856C148.151 65.3784 149.518 64.5713 149.561 63.6792C149.646 62.6596 148.108 61.9374 147.297 61.0453C145.716 59.3886 145.545 58.1991 146.784 56.2025C148.322 53.6961 149.39 51.0198 150.159 48.1736C150.8 45.7097 151.654 45.0724 154.217 45.0724C157.592 45.03 157.635 45.03 157.592 41.589C157.592 40.357 157.977 38.7852 157.378 38.0631C156.738 37.2559 155.114 37.8507 153.876 37.8082C151.654 37.7232 150.714 37.001 150.159 34.8345C149.39 31.9033 148.279 29.0996 146.656 26.5082C145.502 24.639 145.716 23.4071 147.254 21.8353C148.066 20.9857 149.518 20.1785 149.561 19.3289C149.604 18.3094 148.108 17.5447 147.211 16.6951C146.357 15.8455 145.588 14.3161 144.563 14.4011C143.666 14.4436 142.854 15.8879 142.042 16.6951C140.462 18.2244 139.223 18.3943 137.343 17.2898C134.78 15.718 132.046 14.6135 129.141 13.8488C126.749 13.2116 126.065 12.362 126.022 9.94058C126.022 8.83607 126.407 7.34923 125.852 6.71201C125.168 5.94735 123.63 6.49961 122.477 6.45713C121.281 6.41465 119.657 6.0748 118.931 6.66953C118.162 7.30675 118.717 8.96351 118.675 10.153C118.589 12.362 117.863 13.2541 115.684 13.8488C113.42 14.4436 111.156 15.1233 109.148 16.3552C104.022 19.4988 103.766 17.7996 101.032 15.1233C100.732 14.7409 100.476 14.3586 100.22 14.0188ZM77.0659 156.713C85.3962 156.713 93.7265 156.67 102.014 156.755C103.296 156.755 103.509 156.373 103.424 155.268C103.21 152.592 101.16 150.383 98.4256 150.383C84.2428 150.341 70.0599 150.341 55.8771 150.383C53.1003 150.383 51.007 152.635 50.8789 155.353C50.7934 156.458 51.1352 156.755 52.2459 156.755C60.5335 156.67 68.821 156.713 77.0659 156.713ZM77.3222 143.968C79.2873 143.968 81.2524 143.926 83.2602 143.968C83.9865 143.968 84.2855 143.841 84.2855 143.034C84.2428 140.06 84.2428 137.087 84.2855 134.113C84.2855 133.391 84.1146 133.093 83.3457 133.093C79.2873 133.136 75.229 133.136 71.1706 133.093C70.4444 133.093 70.1453 133.263 70.1453 134.028C70.1881 137.002 70.1881 139.975 70.1453 142.949C70.1026 143.883 70.5298 143.968 71.2561 143.926C73.2639 143.926 75.2717 143.968 77.3222 143.968Z" fill="#014F88"/>
<path d="M77.5358 56.16C77.5358 57.4769 77.1086 58.369 76.2115 59.0062C75.7843 59.3036 75.3144 59.5585 74.8445 59.8559C73.093 60.8754 72.3668 62.4897 72.8794 64.3589C73.0503 64.9536 73.6056 65.0811 74.0328 65.3359C78.1766 67.7574 78.3902 68.522 75.9552 72.6852C74.5882 75.0216 73.2639 77.3581 71.8969 79.6945C70.658 81.7761 69.0347 82.1585 66.8987 81.0115C66.7278 80.9265 66.5142 80.7991 66.3433 80.6716C64.2074 79.4397 63.353 79.5671 61.4306 81.0539C60.8752 81.4788 61.0461 81.9885 61.0034 82.4983C60.9179 87.5536 60.448 88.0208 55.3644 88.0208C52.844 88.0208 50.3662 88.0208 47.8458 88.0208C44.8127 88.0208 43.7874 86.9588 43.7874 84.0276C43.7874 83.8577 43.7874 83.7303 43.7874 83.5603C43.7874 81.5637 42.7195 80.1618 40.8398 79.6521C40.4126 79.5246 40.1136 79.7795 39.8145 79.9494C39.131 80.3318 38.4475 80.7566 37.7213 81.1389C35.7989 82.1585 34.0901 81.7336 32.9367 79.822C31.1852 76.8908 29.4764 73.9596 27.8104 71.0284C26.6997 69.0743 27.1696 67.46 29.092 66.2705C29.2628 66.1431 29.4764 66.0581 29.6473 65.9307C32.0823 64.5288 32.2532 64.1465 31.9542 61.4702C31.8687 60.748 31.3561 60.663 30.9289 60.4081C26.4433 57.7318 26.2725 57.222 28.8784 52.7191C30.1599 50.4676 31.4842 48.2161 32.8085 46.007C34.0901 43.798 35.6707 43.4157 37.8922 44.6476C38.0203 44.7326 38.1485 44.8176 38.3194 44.9025C40.5408 46.177 41.3952 46.092 43.3603 44.5627C43.8729 44.1379 43.7874 43.6281 43.7447 43.1183C43.4457 38.1905 44.8982 37.4259 49.341 37.5958C51.9896 37.7232 54.6809 37.5958 57.3295 37.6383C59.6364 37.6383 60.8325 38.8277 60.9607 41.1642C60.9607 41.3766 60.9607 41.589 60.9607 41.8014C60.9607 44.3928 61.4306 45.03 63.7802 45.9646C64.4209 46.2194 64.7627 45.7946 65.1899 45.5822C69.6327 43.1183 70.2735 43.2882 72.794 47.6638C74.1183 49.9153 75.3998 52.1668 76.7242 54.4183C77.1513 54.9706 77.5358 55.6078 77.5358 56.16ZM69.8036 55.0555C69.4618 54.4608 69.0346 53.866 68.7783 53.2288C68.1803 51.742 67.454 51.4021 66.0443 52.4217C64.6773 53.4412 63.1394 53.4837 61.7723 52.2942C60.2772 51.0623 58.6538 50.0852 56.8169 49.448C55.3217 48.9382 54.6809 47.8337 54.5955 46.3044C54.51 43.9255 54.4673 43.9255 52.1177 43.9255C51.9469 43.9255 51.776 43.9679 51.6478 43.9255C50.4517 43.7131 50.1099 44.1379 50.1526 45.3698C50.2381 48.0886 49.7255 48.7258 47.205 49.7454C45.7098 50.3401 44.3428 51.1897 43.1467 52.2093C41.8651 53.3138 40.4981 53.3988 39.0029 52.5916C37.0378 51.4871 37.1232 51.6145 35.8416 53.4837C34.9445 54.8006 34.9445 55.4803 36.5251 56.245C38.4902 57.1796 38.7893 58.1991 38.4902 60.4081C38.2766 62.1074 38.2339 63.8066 38.5757 65.4634C38.8747 67.0777 38.2766 68.2246 36.9523 69.1168C34.9445 70.3912 34.9445 70.3912 36.1834 72.5152C36.2261 72.5577 36.2261 72.6002 36.2688 72.6427C36.7387 74.0021 37.465 74.0021 38.6184 73.2374C40.5835 71.963 41.6942 72.0904 43.5311 73.5773C44.8127 74.6393 46.2652 75.404 47.8458 75.9562C49.5119 76.5509 50.2381 77.7404 50.2808 79.4821C50.3235 81.5637 50.3235 81.5637 52.5022 81.5637C52.5449 81.5637 52.6304 81.5637 52.6731 81.5637C54.211 81.8186 54.8945 81.3513 54.6809 79.6521C54.4673 77.7829 55.3644 76.5085 57.2014 75.9137C58.8674 75.3615 60.3626 74.4269 61.7296 73.2799C62.9685 72.2179 64.2928 72.1329 65.7452 72.8551C67.8385 73.9596 67.8385 73.9171 69.0347 71.9205C69.0774 71.8355 69.1201 71.7506 69.2055 71.6656C70.2308 70.5611 69.7609 69.8814 68.522 69.3716C66.6424 68.5645 65.9588 67.1201 66.3433 65.1235C66.5569 63.8916 66.7705 62.5747 66.4715 61.3427C65.8307 58.7089 66.5142 56.7548 69.1628 55.6927C69.3764 55.6078 69.8463 55.5228 69.8036 55.0555Z" fill="#014F88"/>
<path d="M135.122 109.856C135.122 108.114 136.531 106.713 138.24 106.713C139.992 106.713 141.53 108.242 141.487 109.941C141.444 111.64 139.992 113.042 138.283 113.042C136.489 113.085 135.079 111.683 135.122 109.856Z" fill="#014F88"/>
<path d="M77.1513 116.271C78.8601 116.271 80.3126 117.673 80.3553 119.372C80.398 121.114 78.9028 122.643 77.1513 122.643C75.3571 122.643 73.9474 121.156 73.9901 119.372C74.0328 117.63 75.4426 116.228 77.1513 116.271Z" fill="#014F88"/>
<path d="M46.7351 94.6054C46.7351 96.3471 45.1972 97.834 43.4457 97.749C41.7369 97.7065 40.3272 96.2622 40.3699 94.5629C40.3699 92.7787 41.8651 91.3344 43.6593 91.4193C45.3253 91.4618 46.7351 92.9062 46.7351 94.6054Z" fill="#014F88"/>
<path d="M122.349 61.1303C111.455 61.1303 102.484 52.2518 102.484 41.4616C102.484 30.5439 111.412 21.6229 122.391 21.6654C133.285 21.6654 142.213 30.5864 142.213 41.4191C142.213 52.2518 133.285 61.1303 122.349 61.1303ZM122.434 28.0375C115.044 27.995 108.977 33.9849 108.935 41.2916C108.892 48.6409 114.873 54.7157 122.22 54.7581C129.696 54.8431 135.805 48.8108 135.805 41.4191C135.805 34.0698 129.782 28.08 122.434 28.0375Z" fill="#014F88"/>
<path d="M52.4168 65.9732C50.6653 65.9732 49.2983 64.6138 49.2555 62.872C49.2128 61.0878 50.6653 59.601 52.4168 59.601C54.0828 59.601 55.578 61.0453 55.6207 62.7446C55.6635 64.4863 54.211 65.9732 52.4168 65.9732Z" fill="#014F88"/>
</svg>
