<svg width="164" height="130" viewBox="0 0 164 130" fill="none" xmlns="http://www.w3.org/2000/svg">
<path d="M0 121.319C0 95.0002 0 68.6385 0 42.3194C0.256384 42.2767 0.256384 42.0635 0.341845 41.8502C2.22199 36.4328 5.76863 33.9161 11.4945 33.8734C14.2293 33.8734 16.964 33.7881 19.6561 33.9161C20.9807 33.9587 21.2371 33.5322 21.1944 32.2951C21.1516 25.8113 21.1089 19.2849 21.1944 12.8011C21.2371 7.89558 23.4591 4.26977 27.8603 2.00897C29.8687 0.985215 32.0479 0.899902 34.2699 0.899902C73.1975 0.899902 112.125 0.899902 151.01 0.899902C151.736 0.899902 152.505 0.899901 153.232 0.985214C157.975 1.28381 161.906 4.39774 163.445 8.96199C163.615 9.43121 163.402 10.0711 164 10.3697C164 40.6558 164 70.8993 164 101.185C163.915 101.313 163.744 101.399 163.701 101.527C161.564 107.84 157.89 110.485 151.181 110.485C137.336 110.485 123.534 110.485 109.689 110.485C109.134 110.485 108.578 110.485 107.852 110.485C109.519 115.091 111.1 119.442 112.638 123.879C112.937 124.732 113.45 124.689 114.133 124.689C116.868 124.689 119.56 124.689 122.295 124.689C123.705 124.689 124.816 125.201 125.201 126.694C125.628 128.486 124.346 129.808 122.167 129.808C102.468 129.808 82.7691 129.808 63.0703 129.808C61.062 129.808 59.8656 128.827 59.8656 127.249C59.8656 125.67 61.062 124.689 63.0703 124.689C65.7196 124.689 68.4117 124.689 71.061 124.689C71.5737 124.689 72.1292 124.86 72.3856 124.135C73.9667 119.656 75.5904 115.177 77.2569 110.527C70.7191 110.527 64.395 110.527 58.0281 110.527C57.2163 110.527 57.2163 110.911 57.2163 111.508C57.2163 113.854 57.2163 116.201 57.2163 118.547C57.1735 125.244 52.7723 129.808 46.0208 129.851C34.3981 129.936 22.7327 129.893 11.11 129.851C5.76863 129.765 2.13653 127.035 0.384575 121.959C0.299114 121.703 0.341845 121.405 0 121.319ZM92.7254 6.06134C90.2897 6.06134 87.8114 6.06134 85.3757 6.06134C68.1553 6.06134 50.8921 6.06134 33.6717 6.06134C28.9286 6.06134 26.3648 8.62074 26.3648 13.3556C26.3648 19.7114 26.4075 26.0246 26.322 32.3804C26.322 33.7028 26.7493 33.9587 27.9458 33.9587C33.7999 33.9161 39.6967 34.1293 45.5508 33.8734C52.4732 33.6175 57.4726 38.8216 57.3872 45.604C57.2163 57.3772 57.3444 69.1504 57.3017 80.9236C57.3017 82.2033 57.5154 82.6298 58.9255 82.6298C91.7426 82.5872 124.56 82.5872 157.419 82.6298C158.659 82.6298 159.001 82.3312 159.001 81.0515C158.958 58.4009 158.958 35.7503 158.958 13.0997C158.958 12.4172 158.915 11.692 158.787 11.0522C157.89 7.7676 155.454 6.06134 151.523 6.06134C131.909 6.06134 112.339 6.06134 92.7254 6.06134ZM5.12767 81.6914C5.12767 93.8485 5.12767 106.006 5.12767 118.163C5.12767 122.599 7.22147 124.689 11.7082 124.689C23.0318 124.689 34.3554 124.689 45.679 124.689C50.0375 124.689 52.174 122.514 52.174 118.205C52.174 93.9765 52.174 69.7049 52.174 45.476C52.174 41.253 50.0375 39.0349 45.8072 39.0349C34.3981 39.0349 22.9463 39.0349 11.5373 39.0349C7.2642 39.0349 5.12767 41.2103 5.12767 45.4333C5.12767 57.5051 5.12767 69.5769 5.12767 81.6914ZM107.937 87.706C91.5289 87.706 75.1631 87.706 58.7546 87.6633C57.6436 87.6633 57.2163 87.8339 57.2163 89.1136C57.3017 94.0618 57.3017 99.01 57.2163 104.001C57.2163 105.11 57.5154 105.408 58.6264 105.408C89.7342 105.366 120.885 105.366 151.993 105.366C156.18 105.366 158.83 102.678 158.83 98.4554C158.83 95.4268 158.744 92.3982 158.872 89.3269C158.915 87.9619 158.53 87.706 157.206 87.706C140.84 87.706 124.389 87.706 107.937 87.706ZM92.5117 124.647C97.0412 124.647 101.571 124.647 106.143 124.647C107.211 124.647 107.596 124.561 107.126 123.324C105.63 119.4 104.22 115.433 102.895 111.466C102.596 110.57 102.169 110.399 101.314 110.399C95.5456 110.442 89.777 110.442 84.0083 110.399C83.1537 110.399 82.6837 110.57 82.3846 111.466C81.0172 115.433 79.6071 119.4 78.1543 123.324C77.7269 124.433 77.9833 124.647 79.0943 124.647C83.5383 124.647 88.025 124.647 92.5117 124.647Z" fill="#014F88"/>
<path d="M92.6399 75.2503C86.6149 75.2503 80.5899 75.1223 74.5221 75.2929C67.1725 75.5062 62.173 69.1504 63.925 62.112C66.5315 51.6612 68.7108 41.0824 71.1464 30.5462C72.2574 25.7687 75.4195 22.996 80.419 22.4841C81.4018 22.3988 81.4445 21.759 81.6582 21.1191C84.2647 13.9101 92.8536 11.1375 99.135 15.4458C101.271 16.8961 102.767 18.901 103.536 21.375C103.793 22.1429 104.134 22.3988 104.989 22.4841C109.305 22.8254 112.723 25.4701 113.749 29.6931C116.398 40.8691 119.005 52.0451 121.398 63.3064C122.765 69.7476 118.065 75.1223 111.399 75.2076C105.16 75.2929 98.9213 75.2503 92.6399 75.2503ZM92.5545 70.1315C98.7504 70.1315 104.946 70.1315 111.142 70.1315C114.945 70.1315 117.125 67.4868 116.313 63.8183C113.92 53.1115 111.484 42.4474 109.048 31.7832C108.365 28.7973 106.784 27.5602 103.707 27.5602C96.3575 27.5602 88.9651 27.5602 81.6154 27.5602C78.4534 27.5602 76.9151 28.7973 76.1886 31.8686C73.753 42.4474 71.3174 53.0262 68.9244 63.605C68.0698 67.4441 70.2064 70.1315 74.1376 70.1741C80.2908 70.1315 86.444 70.1315 92.5545 70.1315ZM86.7004 22.4415C90.4607 22.4415 93.9218 22.4415 97.383 22.4415C97.9385 22.4415 98.7504 22.5694 98.0667 21.5883C96.6566 19.4555 94.691 18.4317 92.1272 18.6024C89.6488 18.773 87.9396 20.01 86.7004 22.4415Z" fill="#014F88"/>
<path d="M28.5868 47.2249C24.8692 47.2249 21.1089 47.2249 17.3913 47.2249C15.383 47.2249 14.2293 46.2438 14.272 44.6655C14.3147 43.1299 15.383 42.1488 17.3486 42.1488C24.8692 42.1488 32.3898 42.1488 39.8676 42.1488C41.9187 42.1488 42.987 43.1299 42.987 44.7508C42.9442 46.3718 41.876 47.2249 39.7822 47.2249C36.0219 47.2676 32.3043 47.2249 28.5868 47.2249Z" fill="#014F88"/>
<path d="M28.6295 116.456C29.3559 116.456 30.1251 116.414 30.8515 116.456C32.3043 116.584 33.1162 117.48 33.2017 118.803C33.2871 120.168 32.5607 121.191 31.1506 121.405C29.4841 121.661 27.7749 121.661 26.0657 121.405C24.6556 121.191 23.9719 120.168 24.0573 118.803C24.1428 117.523 24.9119 116.627 26.2793 116.499C27.0485 116.371 27.8603 116.456 28.6295 116.456Z" fill="#014F88"/>
<path d="M92.5545 44.0257C86.6576 43.983 81.7009 39.5467 81.1027 33.6601C81.0599 33.4042 81.0599 33.1483 81.0599 32.8497C81.0599 31.1434 82.0855 29.949 83.581 29.9064C84.9911 29.8637 86.0594 30.9728 86.1876 32.5937C86.5722 36.4755 89.1787 38.9922 92.8536 38.9069C96.1011 38.8216 98.7077 36.3475 99.0495 33.1483C99.0922 32.8923 99.0495 32.5937 99.0922 32.3378C99.3486 30.8448 100.502 29.8637 101.827 29.949C103.194 30.0343 104.134 31.1434 104.177 32.679C104.263 38.8216 98.9213 44.0257 92.5545 44.0257Z" fill="#014F88"/>
</svg>
