<svg width="48" height="38" viewBox="0 0 48 38" fill="none" xmlns="http://www.w3.org/2000/svg">
<path d="M0 35.4724C0 27.7195 0 19.954 0 12.2011C0.0750391 12.1885 0.0750391 12.1257 0.100052 12.0629C0.650339 10.4671 1.68838 9.72569 3.36425 9.71313C4.16467 9.71313 4.96509 9.688 5.753 9.72569C6.1407 9.73826 6.21574 9.6126 6.20323 9.2482C6.19073 7.33825 6.17822 5.41573 6.20323 3.50577C6.21574 2.06074 6.86608 0.992674 8.15425 0.326703C8.74205 0.0251308 9.37989 0 10.0302 0C21.4237 0 32.8171 0 44.198 0C44.4106 0 44.6358 -3.83843e-07 44.8484 0.0251306C46.2366 0.113089 47.3872 1.03037 47.8374 2.37488C47.8874 2.5131 47.8249 2.70158 48 2.78954C48 11.711 48 20.62 48 29.5415C47.975 29.5792 47.925 29.6043 47.9125 29.642C47.2871 31.5017 46.2116 32.2808 44.248 32.2808C40.1959 32.2808 36.1563 32.2808 32.1042 32.2808C31.9416 32.2808 31.7791 32.2808 31.5664 32.2808C32.0542 33.6378 32.5169 34.9195 32.9672 36.2263C33.0547 36.4776 33.2048 36.4651 33.4049 36.4651C34.2053 36.4651 34.9932 36.4651 35.7936 36.4651C36.2064 36.4651 36.5315 36.6158 36.6441 37.0556C36.7692 37.5834 36.394 37.9729 35.7561 37.9729C29.9906 37.9729 24.2251 37.9729 18.4596 37.9729C17.8718 37.9729 17.5216 37.6839 17.5216 37.219C17.5216 36.7541 17.8718 36.4651 18.4596 36.4651C19.235 36.4651 20.0229 36.4651 20.7983 36.4651C20.9484 36.4651 21.111 36.5153 21.186 36.3017C21.6488 34.9823 22.124 33.663 22.6118 32.2933C20.6983 32.2933 18.8473 32.2933 16.9838 32.2933C16.7462 32.2933 16.7462 32.4064 16.7462 32.5823C16.7462 33.2734 16.7462 33.9645 16.7462 34.6556C16.7337 36.6284 15.4455 37.9729 13.4695 37.9855C10.0677 38.0106 6.65347 37.9981 3.25169 37.9855C1.68838 37.9604 0.625326 37.1562 0.112559 35.6609C0.0875456 35.5855 0.100052 35.4975 0 35.4724ZM27.1391 1.52042C26.4263 1.52042 25.7009 1.52042 24.988 1.52042C19.9479 1.52042 14.8953 1.52042 9.85513 1.52042C8.46691 1.52042 7.71652 2.27435 7.71652 3.66912C7.71652 5.54138 7.72903 7.40108 7.70401 9.27333C7.70401 9.66286 7.82908 9.73826 8.17926 9.73826C9.89265 9.72569 11.6186 9.78852 13.3319 9.71313C15.358 9.63773 16.8213 11.1707 16.7962 13.1686C16.7462 16.6367 16.7837 20.1048 16.7712 23.5729C16.7712 23.9498 16.8338 24.0755 17.2465 24.0755C26.8515 24.0629 36.4565 24.0629 46.074 24.0755C46.4367 24.0755 46.5367 23.9875 46.5367 23.6106C46.5242 16.9383 46.5242 10.266 46.5242 3.59373C46.5242 3.39268 46.5117 3.17907 46.4742 2.99059C46.2116 2.02304 45.4987 1.52042 44.3481 1.52042C38.6076 1.52042 32.8796 1.52042 27.1391 1.52042ZM1.50078 23.799C1.50078 27.3802 1.50078 30.9614 1.50078 34.5425C1.50078 35.8494 2.1136 36.4651 3.42678 36.4651C6.74101 36.4651 10.0552 36.4651 13.3695 36.4651C14.6451 36.4651 15.2705 35.8242 15.2705 34.5551C15.2705 27.4179 15.2705 20.2681 15.2705 13.1309C15.2705 11.887 14.6451 11.2336 13.407 11.2336C10.0677 11.2336 6.716 11.2336 3.37676 11.2336C2.12611 11.2336 1.50078 11.8744 1.50078 13.1184C1.50078 16.6744 1.50078 20.2304 1.50078 23.799ZM31.5915 25.5708C26.789 25.5708 21.999 25.5708 17.1965 25.5582C16.8713 25.5582 16.7462 25.6085 16.7462 25.9854C16.7712 27.443 16.7712 28.9006 16.7462 30.3708C16.7462 30.6975 16.8338 30.7855 17.1589 30.7855C26.2637 30.7729 35.3809 30.7729 44.4857 30.7729C45.7113 30.7729 46.4867 29.9813 46.4867 28.7373C46.4867 27.8451 46.4617 26.953 46.4992 26.0483C46.5117 25.6462 46.3992 25.5708 46.0115 25.5708C41.2215 25.5708 36.4065 25.5708 31.5915 25.5708ZM27.0766 36.4525C28.4023 36.4525 29.728 36.4525 31.0662 36.4525C31.3788 36.4525 31.4914 36.4274 31.3538 36.063C30.9161 34.9069 30.5034 33.7384 30.1157 32.5698C30.0281 32.3059 29.9031 32.2556 29.6529 32.2556C27.9646 32.2682 26.2762 32.2682 24.5878 32.2556C24.3377 32.2556 24.2001 32.3059 24.1126 32.5698C23.7124 33.7384 23.2996 34.9069 22.8744 36.063C22.7493 36.3897 22.8244 36.4525 23.1496 36.4525C24.4502 36.4525 25.7634 36.4525 27.0766 36.4525Z" fill="white"/>
<path d="M27.1141 21.9017C25.3507 21.9017 23.5873 21.864 21.8114 21.9142C19.6602 21.977 18.197 20.1048 18.7097 18.0315C19.4726 14.9529 20.1105 11.8367 20.8233 8.73302C21.1485 7.32568 22.074 6.50893 23.5373 6.35814C23.8249 6.33301 23.8374 6.14453 23.8999 5.95604C24.6628 3.83248 27.1767 3.01572 29.0151 4.28483C29.6404 4.71206 30.0782 5.30264 30.3033 6.03144C30.3783 6.25762 30.4784 6.33301 30.7285 6.35814C31.9917 6.45866 32.9922 7.23772 33.2923 8.48171C34.0677 11.7739 34.8306 15.066 35.531 18.3833C35.9312 20.2807 34.5555 21.864 32.6045 21.8891C30.7785 21.9142 28.9526 21.9017 27.1141 21.9017ZM27.0891 20.3938C28.9026 20.3938 30.716 20.3938 32.5294 20.3938C33.6425 20.3938 34.2804 19.6147 34.0427 18.5341C33.3424 15.3802 32.6295 12.2388 31.9166 9.09742C31.7165 8.21783 31.2538 7.85343 30.3533 7.85343C28.2022 7.85343 26.0386 7.85343 23.8874 7.85343C22.962 7.85343 22.5117 8.21783 22.2991 9.12255C21.5862 12.2388 20.8734 15.355 20.173 18.4713C19.9229 19.6022 20.5482 20.3938 21.6988 20.4064C23.4997 20.3938 25.3007 20.3938 27.0891 20.3938ZM25.3757 6.34557C26.4763 6.34557 27.4893 6.34557 28.5023 6.34557C28.6649 6.34557 28.9026 6.38327 28.7025 6.09426C28.2897 5.46599 27.7144 5.16442 26.964 5.21468C26.2387 5.26494 25.7384 5.62934 25.3757 6.34557Z" fill="white"/>
<path d="M8.36686 13.6461C7.27879 13.6461 6.17822 13.6461 5.09015 13.6461C4.50235 13.6461 4.16467 13.3571 4.17718 12.8922C4.18968 12.4398 4.50235 12.1508 5.07765 12.1508C7.27879 12.1508 9.47994 12.1508 11.6686 12.1508C12.2689 12.1508 12.5816 12.4398 12.5816 12.9173C12.569 13.3948 12.2564 13.6461 11.6436 13.6461C10.543 13.6587 9.45493 13.6461 8.36686 13.6461Z" fill="white"/>
<path d="M8.37936 34.0399C8.59198 34.0399 8.81709 34.0274 9.0297 34.0399C9.45493 34.0776 9.69255 34.3415 9.71756 34.731C9.74258 35.1331 9.52996 35.4347 9.11725 35.4975C8.6295 35.5729 8.12923 35.5729 7.62897 35.4975C7.21626 35.4347 7.01615 35.1331 7.04117 34.731C7.06618 34.3541 7.2913 34.0902 7.69151 34.0525C7.91662 34.0148 8.15425 34.0399 8.37936 34.0399Z" fill="white"/>
<path d="M27.0891 12.7037C25.3632 12.6911 23.9125 11.3843 23.7374 9.6503C23.7249 9.57491 23.7249 9.49951 23.7249 9.41156C23.7249 8.90894 24.025 8.5571 24.4627 8.54454C24.8755 8.53197 25.1881 8.85867 25.2256 9.33616C25.3382 10.4796 26.1011 11.221 27.1767 11.1959C28.1271 11.1707 28.89 10.4419 28.9901 9.49951C29.0026 9.42412 28.9901 9.33616 29.0026 9.26077C29.0776 8.82098 29.4153 8.53197 29.803 8.5571C30.2032 8.58223 30.4784 8.90893 30.4909 9.36129C30.5159 11.1707 28.9526 12.7037 27.0891 12.7037Z" fill="white"/>
</svg>
