<svg width="48" height="34" viewBox="0 0 48 34" fill="none" xmlns="http://www.w3.org/2000/svg">
<path d="M0 7.39135C0.150078 7.3038 0.137572 7.12871 0.200104 6.99114C0.587806 6.21574 1.18812 5.71548 2.06358 5.59041C2.51381 5.52788 2.96404 5.52788 3.41428 5.5654C4.75248 5.67796 5.66545 6.65347 5.70297 8.01668C5.70297 8.15425 5.70297 8.29182 5.70297 8.47942C5.86556 8.37936 5.86556 8.22929 5.90308 8.11673C6.49088 6.46587 7.07869 4.82751 7.679 3.18916C8.41688 1.18812 10.1178 0 12.2314 0C20.1855 0 28.1397 0 36.0938 0C38.1949 0 39.8833 1.18812 40.6087 3.16415C41.1589 4.66493 41.6967 6.17822 42.2345 7.69151C42.3971 7.61647 42.3471 7.4789 42.3846 7.36634C42.6472 6.45336 43.2225 5.84054 44.148 5.61543C44.7733 5.46535 45.4237 5.47785 46.049 5.59041C47.112 5.79052 47.6748 6.5284 48 7.4914C48 7.82908 48 8.17926 48 8.51694C47.9 8.54195 47.9125 8.62949 47.8874 8.69203C47.4372 9.80511 46.6493 10.3429 45.4362 10.3554C44.8108 10.3554 44.1855 10.3554 43.5602 10.3554C43.5102 10.5305 43.6602 10.5805 43.7228 10.6556C44.5857 11.606 45.4362 12.5565 46.3116 13.4945C47.2996 14.5451 47.7749 15.7832 47.7749 17.234C47.7624 19.9479 47.7749 22.6743 47.7749 25.3882C47.7749 26.5388 47.2996 27.4018 46.2366 27.902C46.0115 28.0021 45.9865 28.1397 45.999 28.3398C45.999 29.0151 46.0115 29.678 45.999 30.3533C45.9865 32.0667 44.8859 33.1548 43.1725 33.1673C41.5967 33.1673 40.0208 33.1673 38.445 33.1673C36.7692 33.1673 35.6561 32.0417 35.6436 30.3783C35.6436 29.753 35.6311 29.1277 35.6561 28.5023C35.6686 28.2147 35.581 28.1397 35.2934 28.1397C33.4174 28.1522 31.5414 28.1522 29.6655 28.1522C24.1501 28.1522 18.6347 28.1522 13.1193 28.1397C12.7066 28.1397 12.5816 28.2397 12.6066 28.6524C12.6441 29.2277 12.6191 29.803 12.6191 30.3908C12.5941 32.0792 11.4935 33.1673 9.81761 33.1673C8.22929 33.1673 6.62845 33.1673 5.04013 33.1673C3.40177 33.1673 2.27619 32.0417 2.26368 30.4033C2.26368 29.703 2.25117 29.0026 2.26368 28.2897C2.26368 28.0521 2.21365 27.9145 1.98854 27.777C1.13809 27.2767 0.712871 26.5013 0.712871 25.5258C0.700365 22.5367 0.700365 19.5602 0.712871 16.5711C0.712871 15.1079 1.27566 13.8697 2.31371 12.8567C3.11412 12.0688 3.91454 11.2684 4.72746 10.4554C4.50235 10.3179 4.28973 10.3929 4.08963 10.3929C3.52684 10.3804 2.96404 10.4054 2.40125 10.3804C1.37572 10.3429 0.637832 9.84263 0.200104 8.90464C0.150078 8.80459 0.162585 8.65451 0.0125065 8.60448C0 8.20427 0 7.80407 0 7.39135ZM24.2251 26.7014C31.1287 26.7014 38.0323 26.7014 44.9359 26.7014C45.8989 26.7014 46.3116 26.2887 46.3116 25.3382C46.3116 22.6243 46.3116 19.8979 46.3116 17.184C46.3116 16.1834 45.9865 15.3205 45.3111 14.5826C44.3106 13.507 43.3226 12.419 42.3346 11.3309C42.1344 11.1183 41.9468 11.0307 41.6592 11.0307C29.9781 11.0433 18.2845 11.0433 6.60344 11.0307C6.30328 11.0307 6.07817 11.1183 5.86556 11.3309C5.04013 12.1813 4.20219 13.0193 3.35175 13.8447C2.52632 14.6576 2.12611 15.6206 2.13861 16.7712C2.16363 19.5477 2.13861 22.3366 2.13861 25.1131C2.13861 26.3387 2.47629 26.6764 3.68942 26.6764C10.543 26.7014 17.3841 26.7014 24.2251 26.7014ZM6.95362 9.52996C18.4346 9.52996 29.8656 9.52996 41.334 9.52996C40.6087 7.4914 39.9333 5.46535 39.1579 3.47681C38.6576 2.18864 37.6196 1.47577 36.2189 1.46326C28.1772 1.45076 20.123 1.45076 12.0813 1.46326C10.6931 1.46326 9.56748 2.27619 9.07973 3.58937C8.86712 4.13966 8.66702 4.70245 8.47942 5.25274C7.96665 6.67848 7.46639 8.10422 6.95362 9.52996ZM37.3945 31.3163C37.6196 31.5664 37.8697 31.704 38.1574 31.704C39.9333 31.704 41.7217 31.7165 43.4977 31.6915C44.0229 31.6915 44.4356 31.2663 44.5357 30.766C44.6483 30.1157 44.6107 30.0532 43.9479 30.0532C43.8353 30.0532 43.7228 30.0532 43.6227 30.0406C43.2475 29.9781 42.9974 29.6404 43.0349 29.2527C43.0849 28.865 43.2976 28.6274 43.6978 28.5899C43.8979 28.5774 44.098 28.5899 44.3106 28.5899C44.4482 28.5899 44.5482 28.5899 44.5482 28.4023C44.5482 28.2147 44.4857 28.1397 44.2981 28.1647C44.2105 28.1772 44.1105 28.1647 44.0229 28.1647C42.1219 28.1647 40.2084 28.1647 38.3075 28.1647C37.9198 28.1647 37.407 28.0396 37.1819 28.2397C36.9067 28.4648 37.1318 29.0026 37.0818 29.4028C37.0318 29.7655 37.1819 29.8531 37.5195 29.828C37.8572 29.803 38.0698 30.0031 38.1824 30.3158C38.345 30.7785 38.0698 31.1537 37.3945 31.3163ZM4.0271 31.3163C4.2272 31.5789 4.48984 31.6915 4.8025 31.6915C6.55341 31.6915 8.30433 31.704 10.0427 31.6915C10.5805 31.6915 10.9807 31.3163 11.1183 30.8035C11.2058 30.4784 11.1558 30.2908 10.7556 30.3533C10.543 30.3783 10.3179 30.3658 10.1053 30.3658C9.66754 30.3533 9.35487 30.0657 9.35487 29.6404C9.34237 29.2027 9.66754 28.8775 10.1303 28.8775C10.3429 28.8775 10.568 28.865 10.7806 28.9026C11.1558 28.9651 11.1558 28.7525 11.1808 28.4648C11.2058 28.1146 11.0182 28.1397 10.7806 28.1397C8.8296 28.1397 6.87858 28.1397 4.92757 28.1397C3.6519 28.1397 3.6519 28.1397 3.67692 29.4403C3.67692 29.6905 3.72694 29.7905 4.00208 29.7905C4.76498 29.7905 5.07765 30.0031 5.09015 30.4909C5.09015 31.0162 4.8025 31.2413 4.0271 31.3163ZM3.18916 8.89213C3.43929 8.89213 3.68942 8.87963 3.93955 8.90464C4.15216 8.91715 4.2272 8.86712 4.23971 8.62949C4.27723 7.42887 4.13966 6.9036 2.66389 6.99114C2.55133 7.00365 2.45128 6.99114 2.33872 7.00365C1.82595 7.05367 1.47577 7.44138 1.47577 7.92913C1.46326 8.4419 1.83846 8.85461 2.36373 8.89213C2.62637 8.91714 2.90151 8.89213 3.18916 8.89213ZM44.8233 8.89213C45.086 8.89213 45.3486 8.90464 45.6238 8.89213C46.1615 8.86712 46.5242 8.47942 46.5367 7.96665C46.5492 7.45388 46.1866 7.05367 45.6613 7.00365C45.3861 6.97864 45.0985 6.99114 44.8233 6.99114C43.9979 7.01615 43.7478 7.37884 43.7853 8.54195C43.8103 9.30485 44.4106 8.70453 44.6983 8.89213C44.7233 8.91714 44.7733 8.89213 44.8233 8.89213Z" fill="white"/>
<path d="M24.0877 15.4205C26.8391 15.4205 29.5905 15.4205 32.3294 15.4205C33.355 15.4205 34.0553 15.8958 34.318 16.7337C34.5056 17.359 34.3805 17.9218 33.9553 18.3846C33.1299 19.2975 32.2794 20.198 31.4415 21.111C31.2414 21.3236 31.0038 21.3986 30.7286 21.3986C26.3889 21.3986 22.0491 21.3986 17.6968 21.3986C17.4217 21.3986 17.1966 21.2986 16.984 21.0985C16.1085 20.248 15.233 19.4101 14.3451 18.5722C13.7698 18.0219 13.5697 17.359 13.8573 16.6212C14.1575 15.8457 14.7578 15.433 15.5957 15.4205C17.0465 15.408 18.4972 15.408 19.948 15.408C21.3487 15.4205 22.7244 15.4205 24.0877 15.4205ZM24.0877 16.8713C21.3237 16.8713 18.5598 16.8713 15.7958 16.8713C15.5707 16.8713 15.3581 16.8963 15.2455 17.1339C15.1205 17.384 15.3331 17.5091 15.4707 17.6342C16.196 18.3345 16.9339 19.0349 17.6718 19.7478C17.8219 19.8979 17.972 19.9729 18.1971 19.9729C22.2117 19.9604 26.2263 19.9729 30.2409 19.9604C30.3784 19.9604 30.516 19.9854 30.6286 19.8603C31.3539 19.0724 32.0918 18.2845 32.8172 17.4841C33.0298 17.2465 32.9298 16.9588 32.6046 16.8838C32.467 16.8463 32.3294 16.8713 32.1794 16.8713C29.4905 16.8713 26.7891 16.8713 24.0877 16.8713Z" fill="white"/>
<path d="M39.5957 21.3861C38.6452 21.3861 37.6947 21.3861 36.7442 21.3861C35.9938 21.3861 35.5561 21.1235 35.331 20.5482C35.1058 19.9479 35.2559 19.4226 35.7062 18.9724C36.7692 17.9093 37.8198 16.8463 38.8578 15.7707C39.0954 15.5331 39.3456 15.408 39.6832 15.408C40.6337 15.4205 41.5842 15.408 42.5347 15.4205C43.6228 15.433 44.3106 16.1209 44.3231 17.209C44.3357 17.9844 44.3231 18.7723 44.3231 19.5477C44.3106 20.7108 43.6478 21.3736 42.4972 21.3861C41.5342 21.3986 40.5712 21.3861 39.5957 21.3861ZM36.7692 19.7853C36.8067 19.8478 36.8568 19.8979 36.8943 19.9604C38.7578 19.9604 40.6337 19.9604 42.4972 19.9604C42.7598 19.9604 42.8599 19.8603 42.8599 19.5977C42.8474 18.8223 42.8474 18.0344 42.8599 17.259C42.8724 16.9463 42.7348 16.8588 42.4347 16.8588C41.6593 16.8713 40.8714 16.8713 40.0959 16.8588C39.9083 16.8588 39.7833 16.9088 39.6457 17.0464C38.6952 17.9719 37.7322 18.8723 36.7692 19.7853Z" fill="white"/>
<path d="M8.50429 21.4111C7.5663 21.4111 6.62831 21.4237 5.69032 21.4111C4.48969 21.3986 3.83936 20.7483 3.83936 19.5477C3.83936 18.7473 3.83936 17.9593 3.83936 17.1589C3.85186 16.1459 4.51471 15.4455 5.52773 15.4205C6.52826 15.3955 7.52878 15.4205 8.5293 15.408C8.81695 15.408 9.02956 15.5081 9.22966 15.7082C10.2927 16.7962 11.3808 17.8843 12.4563 18.9724C12.9066 19.4226 13.0817 19.9479 12.8315 20.5482C12.5814 21.1485 12.0937 21.3986 11.4558 21.3986C10.4678 21.3986 9.47979 21.4111 8.50429 21.4111ZM11.2682 19.9604C11.3057 19.9104 11.3433 19.8478 11.3808 19.7978C10.3928 18.8598 9.40475 17.9093 8.41674 16.9713C8.31669 16.8713 8.20413 16.8713 8.07906 16.8713C7.27865 16.8713 6.49074 16.8838 5.69032 16.8713C5.37766 16.8588 5.2776 16.9963 5.2776 17.284C5.29011 18.0219 5.29011 18.7473 5.2776 19.4851C5.2651 19.8478 5.37766 19.9854 5.76536 19.9729C6.64082 19.9479 7.51627 19.9604 8.39173 19.9604C9.35473 19.9604 10.3052 19.9604 11.2682 19.9604Z" fill="white"/>
</svg>
