<svg width="48" height="48" viewBox="0 0 48 48" fill="none" xmlns="http://www.w3.org/2000/svg">
<path d="M24.3815 0C24.6568 0 24.9445 0 25.2197 0C25.3823 0.162627 25.6075 0.125098 25.8077 0.212666C26.6708 0.637998 27.1837 1.51368 27.0962 2.51446C27.0211 3.44019 26.3581 4.2283 25.3698 4.50352C23.656 4.96638 21.9296 5.40422 20.2158 5.84206C19.903 5.91712 19.803 6.04222 19.803 6.37998C19.828 7.53088 19.828 8.69429 19.803 9.84519C19.803 10.1704 19.878 10.2705 20.2158 10.258C22.1673 10.2455 24.1188 10.2455 26.0704 10.2455C28.0344 10.2455 30.0109 10.2455 31.975 10.2455C33.2385 10.2455 34.0016 11.0086 34.0141 12.2471C34.0141 12.6974 34.0141 13.1478 34.0141 13.6106C34.0016 14.6239 33.4887 15.2869 32.5004 15.5371C32.3002 15.5872 32.2127 15.6497 32.1876 15.8499C32.0876 16.6255 31.9875 17.4011 31.8749 18.1642C31.8374 18.4019 31.8999 18.4894 32.1501 18.4769C32.8507 18.4519 33.5512 18.502 34.2518 18.5645C37.129 18.8272 39.8686 19.5528 42.3581 21.0539C45.1353 22.7303 47.0743 25.0446 47.7748 28.2971C47.8499 28.6224 47.8124 28.9726 48 29.2604C48 30.1611 48 31.0743 48 31.975C47.7123 32.6005 47.337 33.226 46.5989 33.2635C45.9234 33.301 45.6732 33.5762 45.6482 34.1767C45.6482 34.1892 45.6482 34.2142 45.6356 34.2267C45.473 34.527 45.5481 34.6771 45.8858 34.8272C46.8616 35.2776 47.4371 36.0782 47.5121 37.154C47.5997 38.2799 47.1994 39.2557 46.1861 39.7435C45.448 40.0938 45.398 40.5567 45.448 41.1947C45.448 41.2072 45.448 41.2197 45.448 41.2447C45.448 42.0453 45.448 42.0704 46.2486 42.0328C47.0242 41.9953 47.6497 42.1704 47.9875 42.946C47.9875 43.8467 47.9875 44.76 47.9875 45.6607C47.8249 45.7482 47.8499 45.9234 47.7998 46.061C47.5121 46.7865 47.0367 47.337 46.3362 47.6747C46.061 47.8124 45.7482 47.8999 45.4605 48C32.8632 48 20.2658 48 7.66849 48C7.65598 47.9249 7.59343 47.9124 7.53088 47.8999C6.55512 47.5371 6.02971 46.8116 5.87959 45.8108C5.71697 44.7099 5.56685 43.6216 5.41673 42.5207C4.96638 39.1931 4.51603 35.878 4.06568 32.5504C3.61532 29.1978 3.15246 25.8452 2.6896 22.4926C2.38937 20.2783 2.08913 18.0766 1.77639 15.8624C1.76388 15.7498 1.82643 15.5747 1.65129 15.5496C0.838155 15.4746 0.375293 14.9242 0 14.2486C0 13.3729 0 12.4973 0 11.6216C0.475371 10.4957 1.36357 10.208 2.52697 10.2205C6.61767 10.258 10.7209 10.233 14.8116 10.2455C15.2119 10.2455 15.2995 10.1329 15.2869 9.75762C15.2619 7.9312 15.2744 6.10477 15.2744 4.27834C15.2744 3.06489 15.8999 2.26427 17.0508 1.96403C18.2392 1.65129 19.4402 1.35106 20.6286 1.0258C21.8796 0.675528 23.1556 0.425332 24.3815 0ZM30.8241 15.5747C30.6239 15.5747 30.4613 15.5747 30.2862 15.5747C26.6708 15.5747 23.068 15.5747 19.4527 15.5747C18.9148 15.5747 18.577 15.2995 18.5895 14.8741C18.5895 14.4488 18.9273 14.1736 19.4652 14.1736C20.6036 14.1736 21.742 14.1736 22.8929 14.1736C25.9077 14.1736 28.9226 14.1736 31.9374 14.1736C32.5004 14.1736 32.6255 14.0485 32.6255 13.4855C32.6255 13.1728 32.6255 12.86 32.6255 12.5473C32.6255 11.7467 32.5504 11.6591 31.7498 11.6591C21.9296 11.6591 12.122 11.6591 2.3018 11.6591C2.1767 11.6591 2.0516 11.6591 1.9265 11.6591C1.60125 11.6841 1.4136 11.8468 1.4136 12.197C1.4136 12.5973 1.4136 13.0102 1.4136 13.4105C1.4136 14.0735 1.50117 14.1611 2.16419 14.1611C6.63018 14.1611 11.1087 14.1611 15.5747 14.1611C15.7248 14.1611 15.8874 14.1486 16.0375 14.1736C16.4253 14.2486 16.663 14.4988 16.6505 14.8866C16.638 15.2744 16.4128 15.5246 16.0125 15.5622C15.8749 15.5747 15.7373 15.5747 15.5872 15.5747C11.6341 15.5747 7.681 15.5747 3.72791 15.5747C3.55278 15.5747 3.39015 15.5747 3.2025 15.5747C3.49023 17.6763 3.76544 19.7279 4.04066 21.7795C4.37842 24.2064 4.71618 26.6333 5.04144 29.0602C5.07897 29.3229 5.12901 29.3855 5.40422 29.2979C9.48241 27.9218 13.5606 26.5582 17.6263 25.1947C17.8014 25.1321 17.9515 25.0571 18.0641 24.8819C19.215 23.0555 20.8288 21.717 22.7052 20.7037C24.9945 19.4652 27.4464 18.8397 30.0235 18.577C30.2236 18.552 30.4363 18.6145 30.4613 18.3018C30.5739 17.4011 30.699 16.5004 30.8241 15.5747ZM32.2377 31.9374C36.7537 31.9374 41.2697 31.9374 45.7858 31.9374C45.9234 31.9374 46.0735 31.9374 46.2111 31.9249C46.4613 31.8999 46.5989 31.7623 46.6114 31.4996C46.6489 30.1986 46.5739 28.9101 46.1611 27.6591C45.2854 25.0195 43.4965 23.1431 41.0571 21.9421C35.5653 19.2275 29.9234 19.1149 24.319 21.5043C20.1532 23.2807 17.7389 26.4081 17.8514 31.1368C17.864 31.8874 17.9015 31.9374 18.6521 31.9374C23.1806 31.9374 27.7091 31.9374 32.2377 31.9374ZM32.2502 46.6114C34.7021 46.6114 37.154 46.6114 39.6059 46.6114C41.3823 46.6114 43.1712 46.6239 44.9476 46.6114C45.9359 46.6114 46.5864 45.9359 46.5989 44.9601C46.5989 44.6224 46.5739 44.2721 46.6114 43.9343C46.6489 43.534 46.5113 43.4464 46.1235 43.4464C42.5082 43.4589 38.9054 43.4589 35.2901 43.4589C35.1399 43.4589 34.9773 43.4589 34.8272 43.4464C34.4519 43.3964 34.2392 43.1712 34.2267 42.7959C34.2142 42.4206 34.4019 42.1704 34.7772 42.0954C34.9398 42.0579 35.1149 42.0578 35.2901 42.0578C37.792 42.0578 40.294 42.0578 42.7959 42.0578C43.2088 42.0578 43.7592 42.233 44.0094 41.9828C44.2596 41.7326 44.0344 41.1822 44.0844 40.7693C44.1345 40.344 43.9844 40.2439 43.559 40.2439C36.2783 40.2564 28.9977 40.2564 21.7045 40.2564C21.2791 40.2564 20.6787 40.0563 20.4535 40.344C20.2408 40.6067 20.4034 41.1822 20.3659 41.6075C20.3284 41.9828 20.466 42.0704 20.8288 42.0704C24.2815 42.0579 27.7342 42.0578 31.1869 42.0578C31.337 42.0578 31.4996 42.0453 31.6497 42.0704C32.0375 42.1329 32.2627 42.3706 32.2752 42.7709C32.2877 43.1587 32.025 43.4214 31.5997 43.4589C31.4496 43.4715 31.2869 43.4715 31.1368 43.4715C27.1212 43.4715 23.1055 43.4715 19.0899 43.4715C18.6896 43.4715 18.1642 43.2963 17.914 43.5465C17.6638 43.7967 17.8389 44.3221 17.8389 44.7224C17.8264 46.0235 18.4269 46.6239 19.7154 46.6239C23.9062 46.6114 28.0844 46.6114 32.2502 46.6114ZM17.0508 26.9335C16.9883 26.921 16.9507 26.896 16.9257 26.9085C13.1228 28.1845 9.30727 29.4605 5.5043 30.724C5.27912 30.7991 5.27912 30.9116 5.30414 31.0993C5.47928 32.3378 5.64191 33.5762 5.80453 34.8147C6.09226 36.9664 6.39249 39.1181 6.68022 41.2572C6.71775 41.5074 6.75528 41.6325 7.06802 41.5199C10.2705 40.3941 13.473 39.2807 16.688 38.1798C16.9382 38.0923 16.9758 37.9922 16.9382 37.742C16.8006 36.6161 17.2134 35.7404 18.1016 35.0524C18.3518 34.8522 18.8147 34.8522 18.8898 34.5645C18.9523 34.2893 18.7146 33.9515 18.6771 33.6263C18.6396 33.3761 18.5395 33.3385 18.3143 33.326C17.0633 33.2385 16.4503 32.5504 16.4378 31.2869C16.4253 29.8108 16.5504 28.3471 17.0508 26.9335ZM32.2377 38.8303C36.1908 38.8303 40.1439 38.8303 44.0969 38.8303C44.3471 38.8303 44.5973 38.8428 44.8475 38.8303C45.5356 38.7803 46.111 38.1923 46.1485 37.5168C46.1986 36.7912 45.7107 36.1407 45.0227 36.0031C44.81 35.9656 44.6474 35.9906 44.4722 36.1407C43.1337 37.2416 41.3948 37.3542 39.8937 36.441C39.656 36.2908 39.5184 36.2908 39.2932 36.466C37.9296 37.4668 36.3409 37.4668 34.9898 36.491C34.7647 36.3284 34.6396 36.3034 34.4019 36.4785C33.0508 37.4668 31.4496 37.4668 30.0985 36.4785C29.8608 36.3034 29.7357 36.3284 29.5106 36.491C28.172 37.4668 26.5708 37.4668 25.2447 36.5035C24.9945 36.3159 24.8319 36.3034 24.5692 36.466C23.1681 37.3167 21.4543 37.2416 20.2158 36.3034C19.6403 35.8655 19.1149 35.9281 18.6646 36.516C18.3143 36.9664 18.2267 37.4793 18.4894 38.0047C18.7772 38.5801 19.2525 38.8428 19.8905 38.8428C23.9812 38.8178 28.1095 38.8303 32.2377 38.8303ZM16.8882 46.6114C16.2502 45.4605 16.4378 44.2596 16.4879 43.0837C16.5129 42.5207 16.9257 42.1454 17.4887 42.0829C17.8765 42.0328 18.2643 42.0453 18.6521 42.0578C18.8898 42.0704 18.9898 42.0078 18.9773 41.7451C18.9523 41.4073 18.9398 41.0571 18.9773 40.7193C19.0149 40.3065 18.9148 40.0563 18.4769 39.9312C18.2643 39.8686 18.0641 39.706 17.9015 39.5434C17.7263 39.3808 17.5762 39.3683 17.3511 39.4558C16.588 39.731 15.8249 39.9812 15.0618 40.2564C12.4722 41.1572 9.88272 42.0453 7.30571 42.9586C7.15559 43.0086 6.90539 42.9836 6.95543 43.2838C7.08053 44.122 7.18061 44.9601 7.33073 45.7858C7.4308 46.3487 7.8061 46.6364 8.34402 46.6364C11.1712 46.6114 13.9984 46.6114 16.8882 46.6114ZM32.2627 33.3511C28.3346 33.3511 24.4191 33.3511 20.491 33.3385C20.0782 33.3385 20.0281 33.4386 20.1407 33.8139C20.6661 35.6153 22.5926 36.2158 24.1439 35.0399C24.8194 34.527 25.1196 34.5395 25.7326 35.1024C26.7584 36.0407 27.8968 36.0532 28.9601 35.1149C29.6357 34.5145 29.9734 34.5145 30.6489 35.1274C31.6247 36.0281 32.8131 36.0407 33.8014 35.1525C34.527 34.502 34.8147 34.502 35.5528 35.1525C36.516 36.0156 37.6669 36.0281 38.6427 35.19C39.4308 34.5145 39.5809 34.5019 40.4066 35.1149C41.8952 36.2033 43.7842 35.5903 44.3096 33.8514C44.4347 33.4511 44.3471 33.3511 43.9343 33.3511C40.0438 33.3511 36.1532 33.3511 32.2627 33.3511ZM17.5512 10.2455C17.6388 10.2455 17.7389 10.233 17.8264 10.2455C18.3268 10.3456 18.4269 10.1079 18.4144 9.64503C18.3769 8.33151 18.4019 7.01798 18.4019 5.70446C18.4019 4.97889 18.527 4.82877 19.24 4.64113C21.129 4.15324 23.018 3.66536 24.8944 3.17748C25.5074 3.01486 25.8077 2.55199 25.6701 2.0516C25.5324 1.56372 25.0696 1.33855 24.4566 1.50117C22.1298 2.10164 19.803 2.70211 17.4887 3.30258C16.8632 3.46521 16.6755 3.7154 16.6755 4.36591C16.6755 6.04222 16.6755 7.70602 16.6755 9.38233C16.688 10.2455 16.688 10.2455 17.5512 10.2455Z" fill="white"/>
</svg>
