<svg width="42" height="48" viewBox="0 0 42 48" fill="none" xmlns="http://www.w3.org/2000/svg">
<path d="M0.961266 47.975C0.190145 47.5752 -0.0710407 46.9256 0.0160213 46.0885C0.0533336 45.7387 0.0160212 45.3764 0.0284586 45.0141C0.040896 44.5768 0.31452 44.2894 0.712517 44.2894C1.09808 44.2894 1.39658 44.5643 1.42145 45.0016C1.43389 45.4264 1.43389 45.8386 1.42145 46.2634C1.40901 46.5008 1.4712 46.5882 1.71995 46.5758C2.22988 46.5508 2.73982 46.5633 3.26219 46.5758C3.46119 46.5758 3.54825 46.5133 3.52338 46.3134C3.51094 46.2259 3.52338 46.126 3.52338 46.0385C3.52338 37.1307 3.52338 28.2228 3.53582 19.3025C3.53582 18.8402 3.42388 18.7028 2.97613 18.7527C2.47863 18.8152 1.79457 18.5404 1.50851 18.8527C1.25976 19.1276 1.43389 19.8022 1.43389 20.3019C1.43389 27.2983 1.43389 34.2822 1.43389 41.2785C1.43389 41.4034 1.43389 41.5284 1.43389 41.6533C1.40901 42.1156 1.12295 42.4029 0.712517 42.4029C0.31452 42.3904 0.0533335 42.1156 0.0408961 41.6658C0.0284586 41.4534 0.0408961 41.2285 0.0408961 41.0162C0.0408961 33.7075 0.0408961 26.4113 0.0408961 19.1026C0.0408961 17.8282 0.501081 17.366 1.78214 17.366C2.27963 17.366 2.77713 17.366 3.27463 17.366C4.44375 17.366 4.92881 17.8657 4.92881 19.0526C4.92881 20.3519 4.92881 21.6387 4.92881 22.9381C4.92881 23.2254 4.92881 23.4378 5.31437 23.2879C5.46362 23.2254 5.65018 23.2504 5.8243 23.2504C8.0506 23.2504 10.2645 23.2504 12.4908 23.2504C13.9086 23.2504 14.7793 24.1374 14.7917 25.5492C14.7917 25.6242 14.7917 25.6991 14.7917 25.7866C14.7917 26.7361 14.7917 26.7361 15.7618 26.7361C23.672 26.7361 31.5822 26.7361 39.48 26.7361C41.0844 26.7361 41.8058 27.4607 41.8058 29.0724C41.8058 34.7819 41.7934 40.4914 41.8182 46.2134C41.8182 47.0505 41.5695 47.6502 40.7859 47.9875C39.8282 47.9875 38.8581 47.9875 37.9004 47.9875C37.1293 47.6377 36.8184 47.0255 36.893 46.1885C36.9179 45.9511 36.8806 45.7137 36.9054 45.4888C36.9428 45.1515 36.8433 45.0391 36.4826 45.0515C34.9403 45.0765 33.4105 45.064 31.8683 45.064C26.4331 45.064 20.9855 45.064 15.5504 45.064C14.1698 45.064 13.3987 44.277 13.3863 42.8902C13.3863 42.7652 13.3738 42.6403 13.3863 42.5154C13.436 42.2155 13.2992 42.1531 13.0256 42.1531C10.4635 42.1655 7.90135 42.1655 5.33924 42.1531C5.01587 42.1531 4.91637 42.228 4.92881 42.5653C4.95368 43.8147 4.90393 45.064 4.94124 46.3134C4.96612 47.1505 4.65518 47.7127 3.87163 48C2.88907 47.975 1.93139 47.975 0.961266 47.975ZM27.3908 28.1354C23.3486 28.1354 19.3189 28.1479 15.2768 28.1229C14.8663 28.1229 14.7668 28.2103 14.7668 28.6351C14.7793 33.3451 14.7793 38.0552 14.7793 42.7777C14.7793 43.5148 14.9036 43.6398 15.6499 43.6398C23.6223 43.6398 31.5822 43.6398 39.5546 43.6398C40.2636 43.6398 40.4004 43.5148 40.4004 42.8027C40.4004 38.2176 40.4004 33.6325 40.4004 29.0349C40.4004 28.2728 40.276 28.1354 39.5173 28.1354C35.4751 28.1354 31.433 28.1354 27.3908 28.1354ZM9.15753 30.4467C7.86404 30.4467 6.58299 30.4467 5.28949 30.4467C5.02831 30.4467 4.90393 30.4716 4.91637 30.7965C4.92881 32.8204 4.92881 34.8569 4.91637 36.8808C4.91637 37.1806 5.01587 37.2306 5.28949 37.2306C7.86404 37.2181 10.4386 37.2181 13.0256 37.2306C13.2868 37.2306 13.3987 37.1931 13.3987 36.8808C13.3863 34.8569 13.3863 32.8204 13.3987 30.7965C13.3987 30.4966 13.3116 30.4342 13.038 30.4467C11.7321 30.4591 10.4386 30.4467 9.15753 30.4467ZM9.13266 29.0474C10.4262 29.0474 11.7072 29.0349 13.0007 29.0599C13.2992 29.0599 13.3987 28.9849 13.3863 28.6726C13.3614 27.6606 13.3863 26.6486 13.3738 25.6367C13.3738 24.8995 13.1375 24.6497 12.4037 24.6497C10.2272 24.6497 8.06304 24.6497 5.88649 24.6497C5.16512 24.6497 4.91637 24.8995 4.91637 25.6367C4.91637 26.6361 4.92881 27.6356 4.90393 28.6226C4.8915 28.9974 5.02831 29.0474 5.35168 29.0474C6.6203 29.0349 7.87648 29.0474 9.13266 29.0474ZM9.21972 38.7049C7.90135 38.7049 6.58299 38.7049 5.26462 38.7049C5.01587 38.7049 4.90393 38.7423 4.91637 39.0297C4.94124 39.4794 4.94124 39.9292 4.91637 40.3915C4.90393 40.6913 5.02831 40.7663 5.30193 40.7538C5.67505 40.7288 6.04818 40.7538 6.4213 40.7538C8.61029 40.7538 10.7993 40.7413 12.9883 40.7663C13.3116 40.7663 13.4236 40.6788 13.3987 40.354C13.3738 39.9667 13.3738 39.5794 13.3987 39.1796C13.4236 38.8298 13.349 38.7049 12.9634 38.7173C11.7072 38.7298 10.4635 38.7049 9.21972 38.7049ZM40.3506 44.9641C40.0521 45.0515 39.7412 45.0515 39.4302 45.0515C38.1368 45.0515 38.1368 45.0515 38.286 46.3509C38.2984 46.4633 38.286 46.5758 38.4477 46.5758C39.082 46.5758 39.7163 46.5633 40.3506 46.5508C40.475 46.0635 40.3755 45.5638 40.4004 45.0765C40.4004 45.064 40.3879 45.0515 40.3506 44.9641Z" fill="white"/>
<path d="M26.6074 0.024987C27.7268 0.474753 28.0626 0.949506 28.075 2.16137C28.075 2.42374 28.1248 2.52369 28.4108 2.57366C30.7491 2.96096 32.8634 3.88548 34.7166 5.3847C35.2141 5.78449 35.3012 6.17179 35.0027 6.5341C34.7166 6.88391 34.3062 6.85893 33.8211 6.47163C27.3661 1.29932 17.7768 3.96044 14.9038 11.7189C14.8789 11.7814 14.8665 11.8438 14.8416 11.8938C14.6799 12.2061 14.7172 12.3436 15.1276 12.3436C22.5528 12.3311 29.9779 12.3311 37.4155 12.3436C37.8011 12.3436 37.8135 12.2186 37.7016 11.9188C37.3409 10.9568 36.8932 10.0323 36.321 9.17022C36.2588 9.08277 36.1967 8.99531 36.1345 8.89537C35.9106 8.52056 35.9603 8.12077 36.2837 7.89589C36.6195 7.65851 37.03 7.73347 37.2911 8.10828C38.0871 9.23269 38.7215 10.4446 39.107 11.7689C39.2314 12.2186 39.4179 12.3436 39.8657 12.3311C40.9353 12.3061 41.6442 12.8183 41.9179 13.7303C42.2661 14.8922 41.4701 16.1041 40.2637 16.2166C39.7662 16.2665 39.2687 16.2415 38.7712 16.2415C36.9056 16.2415 35.04 16.2415 33.1744 16.2415C33.0127 16.2415 32.8385 16.1916 32.652 16.3165C33.3982 16.7663 34.0699 17.191 35.0027 17.1536C36.831 17.0786 38.6717 17.1286 40.5 17.1286C41.3831 17.1286 41.7811 17.5284 41.7811 18.4154C41.7811 20.4394 41.7811 22.4758 41.7811 24.4997C41.7811 25.3368 41.3582 25.7491 40.5124 25.7616C39.7164 25.7616 38.9329 25.7616 38.1369 25.7616C37.6394 25.7616 37.2538 25.5617 37.0548 25.0994C36.9678 24.8995 36.8558 24.8496 36.6693 24.8621C36.2713 24.8745 35.8608 24.8745 35.4628 24.8621C34.6917 24.8371 34.2937 24.4498 34.2689 23.6752C34.2689 23.5502 34.2564 23.4253 34.2689 23.3004C34.3062 23.0005 34.1942 22.9006 33.8957 22.8631C31.6446 22.6382 29.3809 22.4508 27.1173 22.2884C25.9233 22.2009 24.7293 22.101 23.5353 22.0135C23.3363 22.001 23.1747 21.9136 23.0254 21.8136C20.9981 20.4893 18.9584 19.1775 16.9311 17.8532C16.4087 17.5159 16.2843 17.1411 16.5331 16.5789C16.6574 16.279 16.5828 16.2415 16.3092 16.2415C15.1028 16.254 13.8839 16.2665 12.6775 16.2415C11.5083 16.2166 10.675 15.4295 10.6502 14.3675C10.6129 13.2431 11.4213 12.3436 12.5655 12.3436C13.063 12.3436 13.2496 12.1936 13.4237 11.7189C15.2396 6.62155 18.8216 3.57314 24.1199 2.54867C24.3313 2.51119 24.4806 2.48621 24.4433 2.22384C24.3189 1.1494 24.8164 0.449766 25.7492 0C26.0477 0.024987 26.3213 0.024987 26.6074 0.024987ZM18.0753 16.9037C18.1375 16.9537 18.1624 16.9912 18.1997 17.0161C19.9907 18.178 21.7941 19.3524 23.5851 20.5143C23.7343 20.6143 23.896 20.6392 24.0702 20.6517C25.3885 20.7517 26.6945 20.8516 28.0128 20.9641C29.9904 21.1265 31.9679 21.3014 33.9455 21.4888C34.2191 21.5138 34.2937 21.4388 34.2813 21.1765C34.2689 20.5268 34.2689 19.8647 34.2813 19.215C34.2937 18.8277 34.3559 18.4529 33.7465 18.5403C33.6097 18.5653 33.4355 18.4154 33.2863 18.3404C31.6694 17.4409 30.0899 16.4914 28.4481 15.6543C27.3288 15.0796 26.0477 14.9547 24.8164 14.7298C24.7667 14.7173 24.7169 14.7423 24.6423 14.7548C24.7542 15.0672 24.9905 15.1671 25.2393 15.2795C25.9606 15.6044 26.6945 15.9042 27.4034 16.2415C27.9755 16.5164 28.1869 16.9662 28.0874 17.5409C28.0004 18.0531 27.6148 18.4404 27.0303 18.4904C25.8611 18.6028 24.6796 18.6653 23.498 18.7527C23.2866 18.7652 23.1 18.6903 22.9135 18.6153C21.5578 18.0531 20.1897 17.4909 18.834 16.9287C18.6226 16.8287 18.3738 16.6913 18.0753 16.9037ZM27.4904 13.8553C28.3113 13.9552 28.9829 14.2426 29.6048 14.6549C29.8536 14.8173 30.1023 14.8673 30.3884 14.8673C33.4729 14.8548 36.5573 14.8673 39.6543 14.8673C39.7911 14.8673 39.9403 14.8673 40.0771 14.8548C40.4005 14.8173 40.5871 14.6299 40.5871 14.305C40.5871 13.9677 40.3881 13.7928 40.0647 13.7678C39.9403 13.7553 39.8159 13.7678 39.6916 13.7678C35.8111 13.7678 31.9306 13.7678 28.0501 13.7678C27.9009 13.7553 27.7268 13.7054 27.4904 13.8553ZM40.4005 21.4888C40.4005 20.6143 40.3881 19.7397 40.4005 18.8652C40.4005 18.6278 40.3383 18.5403 40.0896 18.5528C39.6045 18.5778 39.1319 18.5653 38.6468 18.5528C38.423 18.5403 38.3608 18.6278 38.3608 18.8402C38.3732 20.5893 38.3732 22.3384 38.3608 24.0875C38.3608 24.3123 38.423 24.3873 38.6468 24.3748C39.1319 24.3623 39.6045 24.3623 40.0896 24.3748C40.3383 24.3873 40.4005 24.2998 40.4005 24.0625C40.3881 23.2129 40.4005 22.3509 40.4005 21.4888ZM17.8888 13.7553C16.2346 13.7553 14.568 13.7553 12.9138 13.7553C12.777 13.7553 12.6277 13.7553 12.4909 13.7803C12.2173 13.8303 12.0556 14.0177 12.0556 14.305C12.0556 14.5924 12.2048 14.7798 12.4785 14.8298C12.6402 14.8673 12.8143 14.8548 12.9884 14.8548C16.1102 14.8548 19.2196 14.8548 22.3414 14.8548C22.615 14.8548 22.9384 14.9297 23.1622 14.8173C23.3612 14.7173 23.1747 14.355 23.2866 14.1176C23.4234 13.8053 23.3115 13.7303 23.0005 13.7303C21.2966 13.7553 19.5927 13.7553 17.8888 13.7553ZM36.9678 21.0016C36.9678 20.4893 36.9678 19.9771 36.9678 19.4649C36.9678 18.5403 36.9678 18.5653 36.0474 18.5528C35.7116 18.5528 35.6743 18.6778 35.6743 18.9526C35.6867 20.152 35.6743 21.3514 35.6743 22.5508C35.6743 23.5128 35.6743 23.5003 36.632 23.4878C36.8932 23.4878 36.9802 23.4128 36.9678 23.1504C36.9553 22.4383 36.9678 21.7137 36.9678 21.0016ZM25.9233 17.1286C24.4433 16.304 22.6274 16.0042 21.2095 16.3165C22.6523 17.191 24.2194 17.5783 25.9233 17.1286ZM26.2343 2.38626C26.5203 2.43623 26.7193 2.39875 26.682 2.02395C26.6571 1.7241 26.6198 1.43675 26.2467 1.43675C25.8736 1.43675 25.8611 1.7366 25.8363 2.03644C25.8238 2.37376 25.9606 2.44872 26.2343 2.38626Z" fill="white"/>
</svg>
