<svg width="72" height="75" viewBox="0 0 72 75" fill="none" xmlns="http://www.w3.org/2000/svg">
<path d="M60.8367 6.57397C61.8831 5.32467 62.8133 4.16252 63.787 3.04396C65.7345 0.777782 68.8155 0.647041 70.763 2.7389C72.071 4.13347 72.4779 6.51586 71.3153 8.01212C68.6993 11.3969 66.2431 14.9559 62.5953 17.3819C59.7613 19.2559 56.6511 20.3018 53.2503 20.4325C52.451 20.4616 51.9423 20.7231 51.3755 21.3187C48.745 24.0787 46.0418 26.7517 43.3386 29.4391C42.9462 29.8168 42.859 30.0347 43.2369 30.5286C46.3325 34.4945 46.1435 40.3487 42.6991 44.0095C40.0105 46.8713 37.191 49.6168 34.386 52.3624C32.8455 53.8587 30.9707 54.2654 28.9796 53.4664C27.0758 52.711 26.0003 51.2293 25.8114 49.1665C25.666 47.4959 26.3346 46.1304 27.4972 44.9537C29.808 42.6585 32.1043 40.3487 34.4006 38.0535C35.1418 37.3126 35.1273 37.1674 34.2698 36.5718C33.7757 36.2231 33.2525 35.9181 32.8019 35.5259C32.3078 35.0901 32.1043 35.2644 31.7991 35.7438C29.6046 39.0268 27.381 42.2808 25.1864 45.5639C24.547 46.5226 23.7912 47.3216 22.8756 48.0189C19.2714 50.7645 15.6816 53.5245 12.1064 56.3137C10.4932 57.5775 8.76377 57.9697 6.83084 57.2434C3.4155 55.965 2.47083 51.331 5.23217 48.9486C7.45577 47.0311 9.83924 45.3024 12.1646 43.5011C13.5743 42.4116 14.984 41.322 16.3938 40.218C17.0914 39.6805 17.0768 39.6515 16.3211 39.2302C9.08351 35.2208 4.79617 29.1341 3.44457 20.9845C3.2411 19.7933 3.1103 18.6021 2.9359 17.411C2.74697 16.1762 3.31377 15.4789 4.5927 15.4498C8.67657 15.3627 12.7023 14.8542 16.6554 13.7502C19.2568 13.0239 21.7566 12.0506 24.2127 10.932C28.7616 8.88373 33.5286 7.88138 38.499 7.88138C40.9842 7.88138 43.4694 7.89591 45.9546 7.93949C47.0446 7.95401 47.0301 7.99759 47.1609 6.86451C47.3062 5.58615 47.873 4.48211 48.745 3.53787C49.8205 2.3612 50.925 1.15548 52.5237 0.748729C56.7674 -0.2972 60.2699 2.07067 60.7641 6.19627C60.7931 6.28343 60.8077 6.35607 60.8367 6.57397ZM38.9495 10.8158C34.3861 10.7432 30.1859 11.5131 26.2183 13.2563C21.931 15.1448 17.5855 16.7718 12.9494 17.5707C10.8566 17.9339 8.76377 18.2099 6.62737 18.2535C6.10417 18.268 5.95884 18.4424 6.06057 18.9363C6.17684 19.5319 6.23497 20.1275 6.3367 20.7231C7.58657 27.9865 11.4815 33.3468 17.9634 36.8623C18.4284 37.1093 18.6319 37.0512 18.9226 36.6008C21.088 33.2161 23.2826 29.8459 25.4626 26.4757C25.637 26.2142 25.7968 25.9382 25.8404 25.6331C26.102 24.0497 26.9304 22.7859 28.0495 21.6673C30.8981 18.8201 33.7466 15.9728 36.5951 13.1256C37.3363 12.3992 38.0775 11.6874 38.9495 10.8158ZM42.5102 36.9495C42.4666 34.6978 41.6237 32.7948 40.0105 31.2114C37.4962 28.7418 35.0255 26.2432 32.5258 23.7592C32.1188 23.3524 31.7701 22.6406 31.2759 22.6696C30.8544 22.6842 30.462 23.3524 30.0842 23.7446C27.8896 25.9672 28.1367 28.7128 30.68 30.5141C32.5548 31.8361 34.4296 33.1435 36.2899 34.4654C36.5224 34.6252 36.755 34.814 36.9439 35.0319C38.2083 36.4846 38.0775 38.4603 36.5951 39.9565C34.1971 42.368 31.7846 44.7504 29.3866 47.1763C28.4419 48.1351 28.4128 49.3989 29.2558 50.2851C30.0842 51.1567 31.4358 51.2003 32.3659 50.2851C35.0982 47.5976 37.8159 44.8811 40.4755 42.1355C41.8707 40.7119 42.4666 38.9251 42.5102 36.9495ZM26.538 30.1945C26.3636 30.456 26.2038 30.6739 26.0584 30.8918C23.8348 34.3201 21.6112 37.7485 19.4022 41.1913C19.0534 41.7288 18.6464 42.1791 18.1378 42.5568C14.6062 45.2733 11.0891 48.0044 7.57204 50.7354C6.84537 51.2874 6.4239 51.9847 6.58377 52.8999C6.87444 54.6286 8.72017 55.2823 10.188 54.1492C14.0248 51.2003 17.8471 48.2368 21.6839 45.2879C21.9746 45.07 22.2071 44.7939 22.4251 44.5034C24.8086 40.9734 27.1775 37.4434 29.5755 33.9279C29.8371 33.5357 29.779 33.3759 29.4156 33.158C28.253 32.4026 27.2211 31.5165 26.538 30.1945ZM46.3179 10.9901C44.3995 10.5979 42.7718 11.0773 41.4202 12.4428C38.8623 14.9995 36.319 17.5562 33.7466 20.0984C33.4269 20.418 33.4414 20.5633 33.7466 20.8829C35.9847 23.0764 38.1938 25.299 40.4029 27.5216C40.7226 27.8412 40.8825 27.8412 41.1877 27.5216C43.2369 25.4443 45.3006 23.396 47.3643 21.3332C47.7277 20.9555 48.1055 20.5923 48.5851 20.1275C45.8965 19.7062 43.7601 18.6893 43.4403 15.7985C43.1933 13.5468 44.3123 11.9779 46.3179 10.9901ZM52.1313 17.5853C55.6919 17.6289 59.3689 16.3505 62.0866 14.1279C64.6735 12.0215 66.5193 9.26143 68.6847 6.77734C69.0335 6.38512 69.1353 5.87668 68.9754 5.35372C68.801 4.75812 68.4086 4.35137 67.7982 4.2061C67.057 4.03178 66.4757 4.32232 66.0106 4.87434C64.7462 6.38512 63.4818 7.91043 62.2319 9.43575C60.735 11.2516 58.9329 12.6462 56.7093 13.4887C54.0497 14.4765 51.361 14.5782 48.6287 13.8228C47.4951 13.5032 46.565 13.9972 46.3325 14.9414C46.0999 15.8856 46.6522 16.6556 47.7858 16.9897C49.2101 17.3964 50.6634 17.5707 52.1313 17.5853ZM57.9155 7.11146C57.9301 4.48211 55.6919 2.81153 53.4538 3.50882C52.1603 3.90104 51.3319 4.91792 50.5617 5.92026C49.6751 7.08241 49.7914 8.79657 50.6925 9.95871C51.6226 11.1499 53.1777 11.5712 54.5729 11.0918C55.7065 10.6996 56.4041 9.79892 57.1598 8.95636C57.683 8.36076 57.9155 7.6199 57.9155 7.11146Z" fill="white"/>
<path d="M66.6934 43.3558C67.3184 40.6393 67.9288 37.9809 68.5682 35.1918C65.7924 35.8309 63.1182 36.4411 60.415 37.0512C60.6475 37.5451 61.0109 37.9518 60.8656 38.5329C60.7202 39.0849 60.3278 39.4336 59.95 39.8113C48.6866 51.0841 37.4087 62.3423 26.1454 73.6151C25.9129 73.8475 25.6513 74.0945 25.3751 74.2688C24.8083 74.6175 24.1107 74.5303 23.6457 74.0654C23.1951 73.6151 23.0934 72.8307 23.4713 72.2786C23.6457 72.0172 23.8637 71.7993 24.0962 71.5814C35.0107 60.6717 45.9253 49.7621 56.8543 38.867C57.3485 38.3731 57.4212 38.0681 56.8398 37.6758C56.7381 37.6032 56.6654 37.516 56.5782 37.4144C55.5754 36.3684 55.9242 35.1482 57.334 34.7995C59.7174 34.2185 62.1154 33.6955 64.5134 33.1435C66.3156 32.7222 68.1322 32.3155 69.9344 31.9087C71.3005 31.6036 72.187 32.4607 71.8673 33.8117C70.9226 37.9809 69.9489 42.1501 68.9897 46.3338C68.8444 46.9875 68.5537 47.5105 67.8561 47.6993C67.1876 47.8736 66.708 47.5541 66.2574 47.1037C65.5017 46.3483 65.4872 46.3483 64.7169 47.1183C57.145 54.7012 49.5441 62.2842 41.9577 69.8672C41.6961 70.1287 41.4345 70.3756 41.1293 70.5645C40.5334 70.9131 39.9521 70.7679 39.4725 70.3175C39.0074 69.8963 38.9202 69.1409 39.2545 68.5888C39.3998 68.3419 39.6033 68.1385 39.8067 67.9351C47.9018 59.8292 56.0114 51.7378 64.1065 43.6464C65.0802 42.6731 65.5308 42.6149 66.6934 43.3558Z" fill="#F64701"/>
<path d="M16.2488 56.6768C17.5132 56.6913 18.1962 57.8825 17.644 58.7977C17.4986 59.0447 17.2952 59.2626 17.0917 59.4659C13.6182 62.9378 10.1448 66.4097 6.67128 69.8816C6.30795 70.2448 5.94462 70.5935 5.39235 70.608C4.81101 70.6225 4.36048 70.3901 4.06981 69.8816C3.79368 69.4023 3.79368 68.9084 4.09888 68.4435C4.25875 68.2111 4.44768 67.9932 4.65115 67.7898C8.11008 64.3324 11.569 60.875 15.0134 57.4177C15.4204 57.04 15.8128 56.6332 16.2488 56.6768Z" fill="#F64701"/>
<path d="M26.4947 56.6768C27.6864 56.6768 28.3695 57.8099 27.8608 58.7541C27.7446 58.9575 27.5847 59.1463 27.4248 59.3207C25.1576 61.5868 22.8904 63.853 20.6378 66.1192C20.3907 66.3662 20.1436 66.5841 19.7948 66.6567C19.2135 66.7874 18.6903 66.6422 18.3124 66.1483C17.92 65.6398 17.8764 65.1023 18.2107 64.5358C18.2979 64.3905 18.3996 64.2598 18.5159 64.129C20.8267 61.8047 23.1375 59.495 25.4628 57.1852C25.768 56.8947 26.1168 56.6623 26.4947 56.6768Z" fill="#F64701"/>
<path d="M38.1796 73.0485C38.1796 73.7894 37.4965 74.4867 36.7553 74.5012C35.9705 74.5157 35.2875 73.8184 35.302 73.0194C35.3165 72.2495 35.9705 71.6103 36.7408 71.6249C37.4965 71.6249 38.1796 72.2931 38.1796 73.0485Z" fill="#F64701"/>
<path d="M1.43902 71.6249C2.18022 71.6249 2.86329 72.3076 2.87782 73.0485C2.89235 73.7894 2.22382 74.4867 1.46809 74.5012C0.697819 74.5302 -0.0143147 73.8184 0.000218673 73.0485C0.014752 72.2931 0.697819 71.6249 1.43902 71.6249Z" fill="#F64701"/>
</svg>
