<svg width="48" height="46" viewBox="0 0 48 46" fill="none" xmlns="http://www.w3.org/2000/svg">
<path d="M0.0375195 34.1379C0.25013 33.9131 0.475248 33.7134 0.725378 33.5385C1.67587 32.8518 2.61386 32.1525 3.56436 31.4783C3.80198 31.3035 3.90203 31.1287 3.90203 30.829C3.88953 25.5098 3.88953 20.1906 3.88953 14.8713C3.88953 13.9224 4.08963 13.7226 5.04013 13.7226C7.36634 13.7226 9.69255 13.7101 12.0188 13.7351C12.3439 13.7351 12.4315 13.6602 12.4315 13.3355C12.419 10.7883 12.419 8.25353 12.419 5.7063C12.419 4.84473 12.6316 4.63246 13.4945 4.63246C14.5701 4.63246 14.5701 4.63246 14.5701 3.54615C14.5701 2.6721 14.5701 1.79805 14.5701 0.923996C14.5701 0.287188 14.8452 0 15.4831 0C20.6232 0 25.7634 0 30.9036 0C31.5414 0 31.8041 0.274701 31.8041 0.923996C31.8041 2.03529 31.8166 3.13409 31.7916 4.24539C31.7916 4.55755 31.8791 4.65744 32.1793 4.63246C32.4794 4.60749 32.7671 4.61998 33.0672 4.63246C33.6926 4.64495 33.9427 4.89468 33.9552 5.519C33.9552 6.64278 33.9552 7.76656 33.9552 8.89034C33.9552 11.2628 33.9552 13.6352 33.9427 16.0076C33.9427 16.3198 34.0177 16.4946 34.3179 16.6444C37.9323 18.4674 41.5341 20.3154 45.1485 22.1259C45.6613 22.3882 45.8739 22.7128 45.8739 23.2872C45.8614 30.1797 45.8739 37.0722 45.8489 43.9647C45.8489 44.3768 45.9364 44.5641 46.3742 44.5016C46.5743 44.4767 46.7869 44.5141 46.987 44.4891C47.4372 44.4517 47.7749 44.6015 48 44.9886C48 45.1759 48 45.3632 48 45.5505C47.6873 45.9251 47.2871 46 46.8119 46C32.1793 45.9875 17.5591 45.9875 2.92652 45.9875C2.75143 45.9875 2.57634 46 2.41376 45.975C1.97603 45.9126 1.68838 45.5879 1.71339 45.1884C1.73841 44.8013 2.02606 44.5141 2.46378 44.5016C2.78895 44.4891 3.12663 44.4767 3.4518 44.5016C3.78947 44.5391 3.85201 44.4017 3.85201 44.0896C3.8395 41.5923 3.85201 39.095 3.8395 36.5977C3.8395 36.4978 3.90203 36.3855 3.76446 36.3105C3.4518 36.5353 3.13914 36.7725 2.82647 36.9973C2.3012 37.3719 1.95102 37.3219 1.55081 36.7975C1.02553 36.1107 0.512767 35.4115 0 34.7123C0.0375195 34.5125 0.0375195 34.3252 0.0375195 34.1379ZM32.4669 30.1173C32.4794 29.9924 32.4919 29.93 32.4919 29.88C32.4919 22.076 32.4919 14.2845 32.5044 6.48046C32.5044 6.11835 32.3418 6.13084 32.0917 6.13084C26.1886 6.13084 20.2856 6.14332 14.37 6.13084C14.0073 6.13084 13.9323 6.23073 13.9323 6.58035C13.9448 12.5988 13.9448 18.6173 13.9323 24.6482C13.9323 24.9354 14.0198 25.0977 14.2449 25.26C15.7207 26.3089 17.184 27.3702 18.6347 28.4566C18.8848 28.6439 19.0349 28.6189 19.2725 28.4441C20.8359 27.2828 22.4242 26.1466 24 24.9978C24.6128 24.5483 24.8004 24.5608 25.4132 24.9978C27.7394 26.671 30.0657 28.3692 32.4669 30.1173ZM33.9802 36.298C33.9802 38.9577 33.9802 41.5923 33.9802 44.2144C33.9802 44.6015 34.2428 44.4891 34.4304 44.4891C37.6071 44.4891 40.7712 44.4891 43.9479 44.5016C44.3606 44.5016 44.4231 44.3643 44.4231 44.0022C44.4106 37.2845 44.4106 30.5543 44.4231 23.8366C44.4231 23.5119 44.3231 23.3496 44.0354 23.1998C41.8843 22.1135 39.7332 21.0147 37.5821 19.9283C36.4065 19.329 35.2309 18.7421 34.0552 18.1428C34.0177 18.1927 34.0052 18.1927 34.0052 18.2052C34.0052 22.4631 34.0052 26.721 33.9927 30.9788C33.9927 31.1536 34.0552 31.266 34.1928 31.3659C34.8056 31.8029 35.4059 32.24 36.0188 32.6895C36.1939 32.3024 36.4315 32.0651 36.8817 32.0651C38.445 32.0776 40.0083 32.0651 41.5717 32.0776C42.0844 32.0776 42.3721 32.3523 42.3721 32.8518C42.3846 34.4376 42.3846 36.0358 42.3721 37.6216C42.3721 38.0836 42.0969 38.3708 41.6467 38.3708C40.0208 38.3833 38.395 38.3833 36.7692 38.3708C36.3189 38.3708 36.0813 38.0711 36.0563 37.6091C36.0438 37.4593 36.0563 37.297 36.0563 37.1346C35.0933 37.4718 34.7181 36.5478 33.9802 36.298ZM5.39031 39.7693C5.39031 41.2052 5.40281 42.6411 5.3778 44.0771C5.3778 44.3892 5.45284 44.5016 5.79052 44.5016C6.87858 44.4767 7.97916 44.4767 9.06722 44.5016C9.39239 44.5016 9.49244 44.4267 9.49244 44.0896C9.47994 42.3415 9.47994 40.5934 9.47994 38.8453C9.47994 38.0337 9.70506 37.8089 10.493 37.8089C12.2939 37.8089 14.0823 37.8089 15.8833 37.8089C16.6462 37.8089 16.8963 38.0586 16.8963 38.8203C16.8963 40.5809 16.9088 42.3415 16.8838 44.1021C16.8838 44.4017 16.9588 44.5016 17.2715 44.5016C18.3596 44.4767 19.4601 44.4767 20.5482 44.5016C20.8734 44.5016 20.9609 44.4142 20.9609 44.0896C20.9484 41.2177 20.9484 38.3458 20.9609 35.4739C20.9609 35.2367 20.8984 35.0869 20.6983 34.937C18.2845 33.1889 15.8708 31.4408 13.4695 29.6802C13.2444 29.5179 13.0943 29.5179 12.8692 29.6802C10.4805 31.4283 8.07921 33.1764 5.67796 34.9121C5.42783 35.0869 5.35279 35.2742 5.35279 35.5738C5.40281 36.9723 5.39031 38.3708 5.39031 39.7693ZM22.5492 36.2731C22.5117 36.348 22.4867 36.373 22.4867 36.3979C22.4867 38.9826 22.4867 41.5798 22.4742 44.1645C22.4742 44.4392 22.5743 44.5016 22.8244 44.5016C25.926 44.4891 29.0401 44.4891 32.1417 44.5016C32.4169 44.5016 32.4794 44.4142 32.4794 44.152C32.4669 41.2302 32.4669 38.3208 32.4794 35.399C32.4794 35.2117 32.4294 35.0869 32.2668 34.9745C29.8155 33.2014 27.3768 31.4159 24.938 29.6303C24.7254 29.4805 24.6003 29.5054 24.4127 29.6553C23.8499 30.0798 23.2871 30.5043 22.7118 30.8914C22.4367 31.0787 22.3867 31.1786 22.6993 31.3909C23.7874 32.1525 24.8504 32.9392 25.9135 33.7258C26.4138 34.0879 26.4638 34.4625 26.1011 34.962C25.6509 35.5863 25.2131 36.1982 24.7504 36.81C24.4002 37.2845 24.025 37.3344 23.5373 36.9973C23.2121 36.7725 22.8869 36.5228 22.5492 36.2731ZM5.39031 30.1422C7.37884 28.6938 9.24232 27.2454 11.2058 25.9593C12.1813 25.31 12.6316 24.6107 12.4565 23.462C12.4065 23.1373 12.3815 23.0125 12.0188 23.0125C10.7431 23.0375 9.45493 23.025 8.17926 23.025C7.4914 23.025 7.22877 22.7877 7.22877 22.1135C7.21626 20.6151 7.21626 19.1167 7.22877 17.6183C7.22877 16.9691 7.4914 16.7193 8.15425 16.7193C9.22981 16.7193 10.3054 16.7193 11.3934 16.7193C12.4565 16.7193 12.444 16.7193 12.4565 15.658C12.4565 15.3208 12.394 15.221 12.0313 15.221C9.9802 15.2459 7.94164 15.2459 5.89057 15.221C5.51537 15.221 5.40281 15.2959 5.40281 15.6954C5.41532 20.3529 5.41532 25.0228 5.41532 29.6802C5.39031 29.8051 5.39031 29.93 5.39031 30.1422ZM23.2371 4.63246C25.4758 4.63246 27.7019 4.63246 29.9406 4.64495C30.2533 4.64495 30.3408 4.57003 30.3283 4.25787C30.3033 3.45874 30.3033 2.6721 30.3283 1.87296C30.3408 1.54832 30.2157 1.49837 29.9281 1.49837C25.4508 1.51086 20.9609 1.51086 16.4836 1.49837C16.1834 1.49837 16.0709 1.57329 16.0834 1.88545C16.1084 2.64712 16.1084 3.40879 16.0834 4.18295C16.0709 4.54506 16.1584 4.65744 16.5461 4.65744C18.7723 4.61998 21.0109 4.63246 23.2371 4.63246ZM13.2069 27.7823C13.432 27.8073 13.6196 27.9197 13.7947 28.0445C15.1454 29.0309 16.4961 30.0049 17.8343 30.9913C19.7603 32.3898 21.6988 33.7883 23.6123 35.2117C23.8624 35.3865 24 35.4115 24.1376 35.1243C24.1751 35.0369 24.2376 34.962 24.3002 34.8996C24.5378 34.6623 24.4753 34.525 24.2126 34.3377C20.6357 31.753 17.0714 29.1558 13.507 26.5461C13.2319 26.3464 13.0818 26.3713 12.8317 26.5586C9.27983 29.1558 5.74049 31.753 2.16363 34.3127C1.73841 34.6249 1.98854 34.7747 2.13861 35.0369C2.32621 35.3491 2.46378 35.424 2.81397 35.1743C6.04065 32.8018 9.27983 30.4669 12.5065 28.1194C12.7191 27.9571 12.9192 27.7823 13.2069 27.7823ZM10.9932 41.8795C10.9932 42.6162 11.0057 43.3404 10.9807 44.0771C10.9682 44.3892 11.0307 44.5141 11.3809 44.5016C12.5941 44.4767 13.8197 44.4891 15.0328 44.5016C15.308 44.5016 15.408 44.4517 15.408 44.152C15.3955 42.6536 15.3955 41.1553 15.408 39.6569C15.408 39.3447 15.2955 39.2948 15.0328 39.3073C13.8197 39.3198 12.5941 39.3322 11.3809 39.3073C11.0307 39.2948 10.9682 39.4321 10.9807 39.7318C11.0057 40.4435 10.9932 41.1553 10.9932 41.8795ZM20.223 29.5679C20.4106 29.7052 20.5607 29.8051 20.6983 29.93C20.9734 30.2047 21.2111 30.1797 21.5237 29.9425C22.3742 29.2807 23.2621 28.6688 24.1251 28.032C24.4627 27.7823 24.7879 27.6949 25.1506 27.9446C25.2882 28.0445 25.4257 28.1444 25.5758 28.2443C28.74 30.5543 31.9041 32.8518 35.0683 35.1618C35.1808 35.2492 35.3559 35.399 35.4184 35.3741C35.6811 35.2117 35.8437 34.9245 35.9812 34.6623C36.0813 34.475 35.8187 34.4251 35.7186 34.3502C32.4544 31.9653 29.1902 29.5928 25.926 27.2079C25.5383 26.9207 25.1631 26.4587 24.7379 26.4213C24.2877 26.3713 23.9125 26.9083 23.5122 27.1954C22.4242 27.9696 21.3361 28.7562 20.223 29.5679ZM10.5805 21.5141C11.0933 21.5141 11.606 21.5016 12.1188 21.5141C12.3689 21.5266 12.4315 21.4517 12.4315 21.202C12.419 20.3029 12.419 19.3914 12.4315 18.4924C12.4315 18.2302 12.3314 18.1927 12.1063 18.1927C11.0808 18.2052 10.0552 18.2052 9.0172 18.1927C8.77957 18.1927 8.69203 18.2552 8.70454 18.5049C8.71704 19.4039 8.71704 20.3154 8.70454 21.2144C8.70454 21.4767 8.80459 21.5141 9.0297 21.5141C9.55498 21.5141 10.0677 21.5141 10.5805 21.5141ZM40.8588 35.2242C40.8588 34.7622 40.8588 34.2877 40.8588 33.8257C40.8588 33.6509 40.8213 33.576 40.6337 33.576C39.6832 33.5885 38.7327 33.576 37.7697 33.576C37.4945 33.576 37.4695 33.7009 37.6196 33.8757C37.9323 34.2503 37.9072 34.6124 37.6196 34.9745C37.5321 35.0869 37.5446 35.2117 37.5446 35.3241C37.5446 35.7237 37.5571 36.1357 37.5446 36.5353C37.532 36.7975 37.6071 36.8849 37.8822 36.8724C38.7577 36.8599 39.6331 36.8599 40.5086 36.8724C40.7837 36.8724 40.8963 36.8225 40.8838 36.5103C40.8338 36.0983 40.8588 35.6612 40.8588 35.2242Z" fill="white"/>
<path d="M27.0266 15.3457C26.2887 15.3457 25.5634 15.3457 24.8255 15.3457C24.1626 15.3457 23.9 15.096 23.9 14.4591C23.8875 12.9483 23.8875 11.4374 23.9 9.92658C23.9 9.30225 24.1751 9.05253 24.788 9.04004C26.3138 9.04004 27.8396 9.04004 29.3779 9.04004C29.9657 9.04004 30.2283 9.31474 30.2283 9.9016C30.2283 11.4249 30.2283 12.9483 30.2283 14.4841C30.2283 15.071 29.9532 15.3332 29.3654 15.3457C28.5899 15.3457 27.802 15.3457 27.0266 15.3457ZM27.2267 10.5384C26.6514 10.5384 26.1887 10.5509 25.726 10.5384C25.5008 10.5384 25.3883 10.5634 25.4008 10.8381C25.4133 11.7371 25.4133 12.6486 25.4008 13.5476C25.4008 13.7974 25.4883 13.8598 25.726 13.8598C26.6264 13.8473 27.5394 13.8473 28.4399 13.8598C28.7025 13.8598 28.74 13.7599 28.74 13.5352C28.7275 13.0732 28.74 12.5987 28.74 12.1367C28.74 11.6247 28.9276 10.938 28.665 10.6508C28.3523 10.3137 27.652 10.5759 27.2267 10.5384Z" fill="white"/>
<path d="M27.0391 16.7194C27.802 16.7194 28.5649 16.7194 29.3403 16.7194C29.9532 16.7194 30.2283 16.9816 30.2283 17.606C30.2283 19.1168 30.2283 20.6277 30.2283 22.151C30.2283 22.7629 29.9657 23.0251 29.3403 23.0376C27.8271 23.0376 26.3138 23.0376 24.788 23.0376C24.1626 23.0376 23.9 22.7753 23.9 22.1635C23.8875 20.6527 23.8875 19.1418 23.9 17.6185C23.9 16.9941 24.1751 16.7444 24.788 16.7319C25.5384 16.7069 26.2887 16.7194 27.0391 16.7194ZM27.0767 21.5142C27.5394 21.5142 28.0146 21.5142 28.4774 21.5142C28.64 21.5142 28.7275 21.4892 28.7275 21.2895C28.715 20.3405 28.715 19.3915 28.7275 18.4426C28.7275 18.2553 28.665 18.2053 28.4899 18.2053C27.5394 18.2178 26.5889 18.2178 25.6384 18.2053C25.4508 18.2053 25.4008 18.2677 25.4008 18.455C25.4133 19.3915 25.4133 20.328 25.4008 21.2645C25.4008 21.4768 25.4758 21.5267 25.6759 21.5267C26.1387 21.5142 26.6014 21.5142 27.0767 21.5142Z" fill="white"/>
<path d="M19.3976 9.04004C20.1605 9.04004 20.9234 9.04004 21.6863 9.04004C22.2366 9.04004 22.5242 9.31474 22.5242 9.87663C22.5367 11.4125 22.5367 12.9608 22.5242 14.4966C22.5242 15.046 22.2366 15.3332 21.6863 15.3332C20.123 15.3457 18.5721 15.3457 17.0088 15.3332C16.4836 15.3332 16.1959 15.0585 16.1959 14.5216C16.1834 12.9608 16.1834 11.4125 16.1959 9.85166C16.1959 9.30225 16.4961 9.05253 17.0589 9.04004C17.8343 9.04004 18.6222 9.04004 19.3976 9.04004ZM19.3601 10.5384C18.9098 10.5384 18.4596 10.5509 17.9968 10.5384C17.7467 10.5259 17.6842 10.6133 17.6842 10.8631C17.6967 11.7496 17.6967 12.6361 17.6842 13.5352C17.6842 13.7724 17.7342 13.8723 17.9968 13.8598C18.9223 13.8473 19.8353 13.8473 20.7608 13.8598C20.9984 13.8598 21.0484 13.7724 21.0359 13.5601C21.0234 12.6611 21.0234 11.7496 21.0359 10.8506C21.0359 10.5884 20.9359 10.5384 20.7108 10.5509C20.2605 10.5509 19.8103 10.5384 19.3601 10.5384Z" fill="white"/>
<path d="M19.3602 16.7194C20.1106 16.7194 20.861 16.7194 21.6114 16.7194C22.2618 16.7194 22.5369 16.9816 22.5369 17.6184C22.5369 19.1293 22.5369 20.6402 22.5369 22.151C22.5369 22.7379 22.2618 23.0126 21.6865 23.0251C20.1482 23.0375 18.5973 23.0375 17.059 23.0251C16.4837 23.0251 16.2086 22.7504 16.2086 22.151C16.1961 20.6402 16.1961 19.1293 16.2086 17.6184C16.2086 16.9816 16.4837 16.7194 17.1341 16.7194C17.872 16.7069 18.6098 16.7194 19.3602 16.7194ZM21.0361 19.866C21.0361 19.429 21.0236 18.9919 21.0361 18.5549C21.0486 18.2927 20.9736 18.2053 20.6984 18.2053C19.8105 18.2178 18.9225 18.2303 18.022 18.2053C17.7094 18.1928 17.6594 18.3052 17.6719 18.5799C17.6844 19.4415 17.6844 20.2905 17.6719 21.1521C17.6719 21.4393 17.7469 21.5267 18.0345 21.5267C18.91 21.5142 19.7855 21.5142 20.6609 21.5267C20.9361 21.5267 21.0486 21.4767 21.0361 21.1646C21.0111 20.74 21.0361 20.303 21.0361 19.866Z" fill="white"/>
<path d="M36.0312 27.5449C36.0312 26.7832 36.0312 26.0215 36.0312 25.2598C36.0312 24.673 36.2939 24.3983 36.8817 24.3983C38.42 24.3858 39.9708 24.3858 41.5091 24.3983C42.0594 24.3983 42.3345 24.673 42.3345 25.2349C42.347 26.7707 42.347 28.319 42.3345 29.8548C42.3345 30.4167 42.0719 30.6914 41.5091 30.6914C39.9708 30.7039 38.42 30.7039 36.8817 30.6914C36.2939 30.6914 36.0312 30.4167 36.0312 29.8299C36.0312 29.0682 36.0312 28.3065 36.0312 27.5449ZM40.8588 27.5823C40.8588 27.1203 40.8463 26.6458 40.8588 26.1838C40.8713 25.9716 40.8212 25.8842 40.5836 25.8842C39.6581 25.8967 38.7452 25.8967 37.8197 25.8842C37.5946 25.8842 37.532 25.9591 37.532 26.1714C37.5445 27.0953 37.5445 28.0069 37.532 28.9309C37.532 29.1182 37.5696 29.2056 37.7822 29.2056C38.7202 29.1931 39.6581 29.1931 40.5961 29.2056C40.8087 29.2056 40.8713 29.1431 40.8588 28.9309C40.8463 28.4813 40.8588 28.0318 40.8588 27.5823Z" fill="white"/>
<path d="M10.9933 33.2138C10.9808 31.9777 11.9688 30.9788 13.1944 30.9788C14.3951 30.9788 15.3956 31.9777 15.4081 33.1764C15.4206 34.4 14.4201 35.4114 13.1944 35.4114C11.9813 35.399 10.9933 34.425 10.9933 33.2138ZM13.9073 33.2013C13.9073 32.8268 13.5821 32.4896 13.2069 32.4771C12.8192 32.4646 12.4941 32.7893 12.4941 33.1764C12.4941 33.5759 12.7817 33.8881 13.1819 33.8881C13.5696 33.9006 13.8948 33.5759 13.9073 33.2013Z" fill="white"/>
</svg>
