<svg width="25" height="20" viewBox="0 0 25 20" fill="none" xmlns="http://www.w3.org/2000/svg">
<path d="M0.931641 17.7396C3.58583 17.9867 5.98583 17.3239 8.15529 15.6608C5.89125 15.456 4.38386 14.287 3.53854 12.1359C4.3011 12.2443 4.99864 12.2443 5.74937 12.0455C4.56711 11.7563 3.63312 11.1718 2.91194 10.2499C2.18484 9.32795 1.82425 8.26745 1.82425 7.03221C2.17893 7.22502 2.52179 7.37566 2.88238 7.47207C3.23706 7.56848 3.59765 7.65284 4.02327 7.63476C2.95923 6.85144 2.2676 5.84517 1.98977 4.56775C1.70602 3.29033 1.90701 2.07919 2.53361 0.922277C2.79962 1.21753 3.04199 1.50676 3.30208 1.78393C5.28829 3.88686 7.68829 5.25466 10.4844 5.88735C11.176 6.04401 11.8794 6.12234 12.5829 6.1826C12.7425 6.19465 12.7366 6.14645 12.7188 6.01388C12.4706 4.50147 12.7543 3.10353 13.7119 1.90444C14.9119 0.404077 16.4844 -0.216556 18.376 0.0666454C19.4164 0.22331 20.309 0.69933 21.0538 1.45855C21.1543 1.56099 21.243 1.57906 21.3848 1.54894C22.3425 1.33202 23.2469 0.988558 24.1041 0.500487C24.1573 0.470359 24.2164 0.446256 24.2755 0.416129C24.1454 1.25971 23.2114 2.53713 22.1888 3.12161C22.4784 3.12764 22.6972 3.06738 22.9218 3.0252C23.1464 2.98302 23.3651 2.92879 23.5839 2.86854C23.8085 2.80828 24.0331 2.72995 24.2577 2.65162C24.4706 2.57931 24.6775 2.49495 24.8903 2.41662C24.9021 2.4347 24.9198 2.45277 24.9316 2.47085C24.7602 2.69982 24.6006 2.94084 24.4233 3.16379C23.909 3.8025 23.3297 4.38095 22.6735 4.86903C22.5789 4.94133 22.5316 5.01364 22.5376 5.1462C22.6262 7.76733 22.0233 10.2258 20.8114 12.5275C19.511 15.0101 17.6666 16.9684 15.2311 18.3181C13.7533 19.1376 12.175 19.6317 10.508 19.8606C9.14839 20.0474 7.79469 20.0474 6.441 19.8546C4.47253 19.5654 2.64593 18.8845 0.967109 17.7999C0.949375 17.7818 0.949375 17.7638 0.931641 17.7396Z" fill="white"/>
</svg>
