<svg width="25" height="24" viewBox="0 0 25 24" fill="none" xmlns="http://www.w3.org/2000/svg">
<path d="M12.7103 0C15.3837 0 18.0572 0 20.7306 0C22.9787 0 24.7002 1.70127 24.7002 3.94937C24.7002 9.31646 24.7002 14.6835 24.7002 20.0506C24.7002 22.2785 22.9989 24 20.7508 24C15.3837 24 9.9964 24 4.62931 24C2.40146 24 0.700195 22.2785 0.700195 20.0506C0.700195 14.6835 0.700195 9.31646 0.700195 3.94937C0.700195 1.70127 2.42171 0 4.66982 0C7.34323 0 10.0167 0 12.7103 0ZM9.83437 6.82532C9.83437 6.31899 9.83437 5.83291 9.83437 5.32658C9.83437 4.98228 9.75336 4.67848 9.40906 4.51646C8.7002 4.17215 7.99133 4.05063 7.30273 4.51646C7.20146 4.57722 7.07994 4.63797 6.95842 4.69873C5.96602 5.30633 5.35842 6.21772 5.31792 7.3519C5.27741 8.83038 5.47994 10.2886 5.86475 11.7063C6.53311 14.1367 7.64703 16.3241 9.44956 18.1468C10.4217 19.1392 11.5356 19.8886 12.9129 20.1722C14.1483 20.4354 15.3027 20.2532 16.1331 19.119C16.7407 18.2886 16.7407 18.0051 16.0116 17.2759C15.4445 16.7089 14.8774 16.1418 14.3103 15.5949C14.0065 15.2911 13.7027 15.2709 13.3382 15.4937C12.8723 15.7772 12.4268 16.0608 11.961 16.3443C11.6167 16.5468 11.5154 16.5468 11.2116 16.2835C10.5027 15.676 9.97614 14.9266 9.51032 14.1165C8.78121 12.881 8.23437 11.5646 8.0926 10.1266C8.07235 9.92405 8.13311 9.78228 8.33564 9.74177C8.72045 9.64051 9.06475 9.43797 9.3888 9.19494C9.73311 8.9519 9.87488 8.6481 9.85463 8.24304C9.83437 7.77722 9.83437 7.31139 9.83437 6.82532ZM20.1027 11.6861C20.0622 10.8354 20.0217 10.2076 19.8597 9.6C19.2926 7.29114 17.8749 5.67089 15.7686 4.59747C15.5053 4.47595 15.242 4.37468 14.9584 4.37468C14.5736 4.37468 14.2091 4.63797 14.128 4.96203C14.0268 5.28608 14.1686 5.58987 14.5129 5.81266C14.7559 5.95443 15.0192 6.07595 15.2622 6.21772C16.4369 6.90633 17.3686 7.83798 17.8951 9.11392C18.2799 10.0861 18.3812 11.119 18.361 12.1519C18.3407 12.719 18.1989 13.2658 18.0774 13.8127C17.9761 14.2987 18.2394 14.6633 18.7255 14.7038C19.1103 14.7443 19.3736 14.6025 19.5356 14.238C19.961 13.3468 20.1432 12.4354 20.1027 11.6861ZM16.6192 11.8481C16.6394 11.119 16.4774 10.4304 16.2344 9.74177C15.8293 8.52658 14.9179 7.85823 13.7432 7.53418C13.3382 7.41266 12.9331 7.6557 12.7711 8.06076C12.6293 8.42532 12.7508 8.76962 13.1559 8.9924C13.4192 9.13418 13.6825 9.27595 13.9255 9.43797C14.4521 9.76202 14.7761 10.2481 14.8572 10.8759C14.8977 11.1392 14.8977 11.4025 14.9179 11.6658C14.9382 12.0709 14.9179 12.4557 14.9584 12.8608C14.9787 13.043 15.0597 13.1848 15.2015 13.2861C15.6673 13.6506 16.3559 13.4278 16.5179 12.881C16.5989 12.5165 16.5989 12.1924 16.6192 11.8481ZM11.4951 11.5241C11.4951 12.0709 11.8394 12.4557 12.366 12.4354C12.8723 12.4354 13.2369 12.0506 13.2369 11.5443C13.2369 11.0177 12.8521 10.6532 12.3255 10.6532C11.8799 10.6734 11.4951 11.0582 11.4951 11.5241Z" fill="white"/>
</svg>
