<svg width="164" height="164" viewBox="0 0 164 164" fill="none" xmlns="http://www.w3.org/2000/svg">
<path d="M0 130.38C0 89.0701 0 47.7604 0 6.40792C1.15373 3.16124 3.33299 0.939828 6.7087 0C56.9171 0 107.083 0 157.291 0C160.795 0.982548 163.017 3.24668 164 6.70695C164 47.9312 164 89.1128 164 130.337C162.077 135.463 158.146 136.788 153.018 136.745C136.311 136.574 119.646 136.702 102.938 136.66C101.528 136.66 101.357 137.001 101.784 138.283C103.75 143.751 107.767 146.699 113.279 147.681C117.509 148.45 120.543 150.586 122.209 154.559C124.047 158.959 122.979 161.864 118.834 164C94.1782 164 69.4799 164 44.8244 164C44.7817 163.658 44.4398 163.658 44.2262 163.53C41.6196 162.12 40.5941 159.984 41.0641 157.037C41.876 151.953 45.679 148.322 50.8067 147.681C55.8489 147.083 60.8056 142.854 62.2585 137.984C62.5576 137.044 62.5149 136.617 61.3611 136.702C59.9083 136.788 58.4982 136.702 57.0453 136.702C40.9786 136.702 24.9547 136.702 8.88796 136.702C4.57217 136.702 1.88015 134.865 0.341845 130.85C0.256384 130.636 0.213653 130.423 0 130.38ZM81.9145 114.787C106.912 114.787 131.867 114.787 156.864 114.83C158.317 114.83 158.573 114.403 158.573 113.078C158.53 78.5611 158.53 44.001 158.53 9.48372C158.53 6.27976 157.761 5.51081 154.599 5.51081C106.186 5.51081 57.7718 5.51081 9.31527 5.51081C6.23867 5.51081 5.38405 6.32248 5.38405 9.35556C5.38405 43.9583 5.38405 78.5184 5.34132 113.121C5.34132 114.531 5.64044 114.873 7.05055 114.873C32.0479 114.744 57.0026 114.787 81.9145 114.787ZM82.0855 120.255C76.7869 120.255 71.531 120.255 66.2324 120.255C46.5763 120.255 26.9203 120.298 7.30693 120.213C5.7259 120.213 5.34132 120.64 5.42678 122.135C5.55498 124.1 5.42678 126.065 5.46952 128.073C5.51225 130.081 6.49505 131.106 8.50339 131.234C8.88796 131.234 9.22981 131.234 9.61438 131.234C57.9 131.234 106.143 131.234 154.428 131.234C154.813 131.234 155.198 131.234 155.539 131.234C157.548 131.106 158.53 130.123 158.573 128.073C158.616 126.108 158.488 124.1 158.616 122.135C158.701 120.64 158.36 120.213 156.736 120.213C131.824 120.255 106.955 120.255 82.0855 120.255ZM82.0427 158.532C93.3663 158.532 104.69 158.532 115.971 158.532C117.723 158.532 117.766 158.446 117.21 156.78C116.441 154.559 114.433 153.107 111.954 153.107C105.801 153.064 99.6905 153.107 93.5373 153.107C79.8207 153.107 66.1042 153.107 52.3877 153.107C49.482 153.107 47.5164 154.474 46.7045 156.866C46.2772 158.062 46.32 158.617 47.901 158.575C59.3101 158.489 70.6764 158.532 82.0427 158.532ZM62.7712 147.468C75.6759 147.468 88.3669 147.468 101.186 147.468C98.4085 144.563 96.6139 141.359 96.0156 137.514C95.9302 136.873 95.6311 136.66 94.9474 136.66C86.3158 136.66 77.6415 136.66 69.0099 136.66C68.3689 136.66 68.0271 136.873 67.9416 137.514C67.3861 141.359 65.5487 144.563 62.7712 147.468Z" fill="#014F88"/>
<path d="M82 109.319C60.5492 109.319 39.0985 109.319 17.605 109.319C12.8192 109.319 10.8963 107.397 10.8963 102.655C10.8963 74.2464 10.8963 45.8807 10.8963 17.4723C10.8963 12.9867 12.9474 10.9362 17.4341 10.9362C60.4638 10.9362 103.493 10.9362 146.523 10.9362C151.01 10.9362 153.104 12.9867 153.104 17.4723C153.104 45.9234 153.104 74.3746 153.104 102.826C153.104 107.354 151.095 109.319 146.566 109.319C125.03 109.319 103.536 109.319 82 109.319ZM82.0427 16.3616C60.7202 16.3616 39.4403 16.3616 18.1178 16.3188C16.6222 16.3188 16.3231 16.746 16.3231 18.1558C16.3658 35.1154 16.3658 52.1177 16.3658 69.0774C16.3658 80.1844 16.3658 91.2915 16.3231 102.399C16.3231 103.424 16.4513 103.894 17.6905 103.851C21.408 103.766 25.1683 103.766 28.8859 103.851C29.8687 103.851 30.1678 103.595 30.2105 102.655C30.3815 99.9208 31.8343 98.1266 34.4409 97.2295C36.1501 96.6314 37.7738 95.8625 39.4831 95.2217C40.1668 94.9654 40.5086 94.6236 40.7223 93.9401C41.4914 91.3342 42.5169 88.8138 43.8416 86.4215C44.1834 85.8234 44.2262 85.268 43.927 84.6273C43.1152 82.8758 42.4315 81.0815 41.6623 79.33C40.5513 76.895 40.8932 74.7163 42.6879 72.6658C44.4398 70.658 46.32 68.7783 48.371 67.0268C50.2084 65.4462 52.2595 65.1472 54.4815 66.0443C56.3189 66.7705 58.1136 67.5822 59.9083 68.3939C60.6347 68.7356 61.2329 68.7356 61.9594 68.3084C64.2241 67.0268 66.6597 66.0016 69.1808 65.3181C69.9927 65.1045 70.42 64.6345 70.7191 63.9083C71.3601 62.1568 72.0865 60.448 72.7702 58.6965C73.753 56.1334 75.6759 54.8091 78.4106 54.7663C80.8036 54.7236 83.1965 54.7236 85.6321 54.7663C88.4096 54.8091 90.3752 56.1334 91.4007 58.782C92.0844 60.5335 92.8108 62.2423 93.4518 63.9938C93.7082 64.72 94.1355 65.1045 94.8619 65.3181C97.4257 66.087 99.9041 67.0695 102.212 68.3511C102.853 68.7356 103.451 68.7783 104.134 68.4366C105.972 67.5822 107.809 66.7705 109.689 66.0443C111.826 65.1899 113.877 65.4462 115.672 66.9841C117.894 68.8211 119.945 70.8716 121.739 73.093C123.15 74.8018 123.449 76.7241 122.637 78.7747C122.338 79.5863 122.081 80.398 121.611 81.1243C119.859 83.8583 119.603 86.5923 121.654 89.2837C121.697 89.3691 121.739 89.4973 121.782 89.5827C122.423 94.111 125.5 96.0333 129.516 97.1441C132.208 97.8703 133.704 99.8354 133.789 102.655C133.832 103.766 134.345 103.766 135.2 103.766C138.789 103.723 142.336 103.68 145.925 103.766C147.25 103.808 147.72 103.552 147.72 102.057C147.677 74.0328 147.677 46.0089 147.72 17.9849C147.72 16.6179 147.421 16.2334 146.01 16.2334C124.645 16.4043 103.323 16.3616 82.0427 16.3616ZM82 103.851C90.5889 103.851 99.1777 103.851 107.767 103.851C108.835 103.851 109.177 103.723 109.006 102.484C106.912 89.1128 95.4601 79.2446 81.9573 79.2446C68.4544 79.2873 57.1308 89.0274 54.9515 102.356C54.7379 103.637 54.9943 103.851 56.1907 103.851C64.8223 103.808 73.4112 103.851 82 103.851ZM121.569 103.851C123.449 103.851 125.286 103.894 127.166 103.851C127.551 103.851 128.192 104.193 128.363 103.467C128.491 102.826 128.021 102.569 127.465 102.356C125.243 101.459 123.021 100.519 120.799 99.6645C119.56 99.1946 118.791 98.3829 118.492 97.0586C117.68 93.7265 116.355 90.608 114.603 87.6603C113.92 86.5069 113.834 85.3962 114.39 84.1573C115.287 82.1068 116.099 80.0135 117.039 78.0057C117.424 77.1941 117.424 76.596 116.783 75.8698C115.501 74.4173 114.133 73.093 112.723 71.7687C112.125 71.2133 111.612 71.2133 110.886 71.5124C108.792 72.4522 106.656 73.2639 104.562 74.2037C103.28 74.7591 102.169 74.7591 100.93 74.0328C97.9812 72.2813 94.8619 70.957 91.5289 70.1453C90.247 69.8463 89.3924 69.0774 88.9224 67.7958C88.1532 65.7025 87.2131 63.652 86.444 61.5587C86.1021 60.6616 85.6748 60.2772 84.7348 60.2772C82.8546 60.2772 81.0172 60.3199 79.1371 60.2344C78.197 60.1917 77.8124 60.6616 77.5133 61.4306C76.6587 63.6093 75.7186 65.7453 74.9067 67.9667C74.4367 69.1628 73.6248 69.889 72.3856 70.1881C69.0099 70.9997 65.8051 72.3668 62.814 74.1183C61.703 74.7591 60.6347 74.8445 59.481 74.3319C57.3445 73.392 55.1652 72.4949 53.0287 71.5551C52.345 71.2561 51.9177 71.2988 51.3194 71.7687C49.7384 73.093 48.3283 74.5027 46.9609 75.9979C46.4482 76.5533 46.4482 77.0232 46.7473 77.7067C47.6873 79.7999 48.542 81.9359 49.4393 84.0292C50.0375 85.3535 49.9948 86.5496 49.2256 87.8312C47.4737 90.6934 46.1918 93.8119 45.3799 97.1013C45.038 98.4684 44.2689 99.3227 42.9442 99.7927C40.8077 100.604 38.7139 101.501 36.5774 102.313C35.9792 102.569 35.5091 102.868 35.6373 103.552C35.7655 104.278 36.4065 103.936 36.8338 103.936C40.2949 103.979 43.7989 103.851 47.26 104.022C48.9265 104.107 49.3111 103.467 49.5248 101.971C51.6186 89.1982 58.7546 80.2699 70.8473 75.9125C82.8973 71.5551 94.0928 73.9047 103.793 82.3631C109.946 87.703 113.364 94.6236 114.39 102.74C114.518 103.723 114.817 104.065 115.843 104.022C117.808 103.766 119.688 103.851 121.569 103.851Z" fill="#014F88"/>
<path d="M87.4695 30.2027C85.7603 32.1678 84.7775 34.6028 82 34.56C79.2225 34.56 78.2824 32.2105 76.8296 30.459C76.3168 30.758 76.5732 31.2279 76.5732 31.5697C76.5305 36.1407 76.5732 40.7544 76.5732 45.3253C76.5732 45.7525 76.616 46.1797 76.5305 46.6069C76.3596 48.1021 75.1631 49.2128 73.753 49.1701C72.3002 49.1274 71.1464 48.0167 71.1464 46.4788C71.1037 39.5582 71.1037 32.5949 71.1464 25.6744C71.1464 23.9229 72.2147 22.684 73.8385 22.086C75.505 21.4879 77.0433 21.8724 78.197 23.2394C79.3507 24.5637 80.3763 26.0161 81.4018 27.4259C81.8718 28.1094 82.1709 28.0667 82.641 27.4259C83.5383 26.1443 84.4784 24.9054 85.4185 23.7093C86.7431 22.0005 88.4096 21.4879 90.2043 22.086C91.9135 22.684 92.939 24.1365 92.939 26.187C92.939 32.8085 92.939 39.4301 92.939 46.0516C92.939 47.974 91.8708 49.1701 90.2897 49.2128C88.6232 49.2555 87.5123 47.974 87.5123 46.0089C87.5123 41.3524 87.5123 36.7387 87.5123 32.0823C87.4695 31.5697 87.4695 31.057 87.4695 30.2027Z" fill="#014F88"/>
<path d="M106.698 21.8296C109.433 21.9578 111.826 23.1112 113.45 25.5462C114.39 26.9987 114.176 28.4512 112.98 29.391C111.783 30.3308 110.245 30.1599 109.134 28.8356C108.408 27.9812 107.638 27.2977 106.485 27.2977C105.117 27.3405 103.964 28.5366 103.878 29.9036C103.793 31.2279 104.733 32.3814 106.057 32.6804C106.912 32.8513 107.767 32.8513 108.578 33.0221C111.997 33.7911 114.561 36.9523 114.732 40.4981C114.903 44.3001 112.723 47.504 109.134 48.7002C105.758 49.8536 101.955 48.6147 99.9041 45.7098C98.8359 44.1719 98.9641 42.5486 100.246 41.6088C101.571 40.6262 103.023 40.8825 104.263 42.4204C105.075 43.4457 106.057 43.8729 107.339 43.5311C108.322 43.2748 109.006 42.5913 109.219 41.566C109.433 40.4126 109.134 39.4728 108.151 38.7465C107.425 38.2339 106.527 38.2339 105.715 38.1485C101.442 37.6786 98.1949 33.9193 98.4086 29.69C98.6222 25.3326 102.212 21.8724 106.698 21.8296Z" fill="#014F88"/>
<path d="M49.2256 35.4572C49.2256 33.5348 49.1402 31.6124 49.2256 29.69C49.4393 25.2472 52.9859 21.8724 57.3445 21.8296C61.6175 21.8296 65.2069 25.1618 65.5487 29.4764C65.6769 31.2279 64.7368 32.5522 63.1985 32.7231C61.5748 32.9367 60.4211 31.9969 60.1219 30.2454C59.7801 28.2803 58.7118 27.2123 57.1308 27.3405C55.5498 27.4686 54.6524 28.6648 54.6097 30.6299C54.6097 33.9193 54.6097 37.2514 54.6097 40.5408C54.6097 42.4204 55.5498 43.5311 57.0881 43.6593C58.6691 43.7874 59.7374 42.8049 60.0365 40.968C60.3783 39.0456 61.4893 38.063 63.1131 38.3194C64.7796 38.533 65.6769 39.9854 65.4205 41.9078C64.8223 46.2652 61.1047 49.4691 56.9171 49.2128C52.4732 48.9565 49.2256 45.5817 49.0975 41.0534C49.1829 39.1737 49.2256 37.3368 49.2256 35.4572Z" fill="#014F88"/>
<path d="M32.6462 49.2128C30.9797 49.2128 29.3559 49.2555 27.6894 49.2128C25.7665 49.1701 24.6128 48.1448 24.6128 46.4788C24.6128 44.8127 25.7238 43.7447 27.6467 43.7447C31.1079 43.702 34.569 43.702 38.0302 43.7447C39.8249 43.7874 40.9786 44.8554 40.9786 46.4361C40.9786 47.974 39.8676 49.1274 38.073 49.2128C36.2783 49.2555 34.4836 49.2128 32.6462 49.2128Z" fill="#014F88"/>
<path d="M131.226 49.2128C129.516 49.2128 127.807 49.2555 126.098 49.2128C124.175 49.1701 123.021 48.1021 122.979 46.4788C122.936 44.8554 124.132 43.7447 126.013 43.7447C129.474 43.702 132.935 43.702 136.396 43.7447C138.233 43.7874 139.302 44.8127 139.344 46.4361C139.344 48.0167 138.276 49.1274 136.482 49.2128C134.772 49.2555 132.978 49.2128 131.226 49.2128Z" fill="#014F88"/>
</svg>
