<svg width="24" height="24" viewBox="0 0 24 24" fill="none" xmlns="http://www.w3.org/2000/svg">
<path d="M11.9972 24C11.6694 24 11.341 24 11.0133 24C10.9945 23.9374 10.94 23.9555 10.8974 23.9512C9.54435 23.8216 8.23647 23.5047 7.01256 22.9112C3.16474 21.0428 0.857926 18.0048 0.130976 13.7797C0.0858553 13.5167 0.107789 13.2424 0 12.9901C0 12.3189 0 11.6471 0 10.9758C0.0764551 10.9527 0.0457477 10.8863 0.0513878 10.8387C0.105282 10.3973 0.16043 9.95651 0.258192 9.52197C1.0052 6.18908 2.82132 3.59627 5.71784 1.79614C8.33924 0.166323 11.2057 -0.347104 14.2319 0.226432C17.4725 0.840667 20.0344 2.55 21.91 5.25865C23.2687 7.22031 23.9411 9.4149 23.9925 11.7998C23.9944 11.8988 24.0401 12.0108 23.849 12.0102C21.9589 12.0033 20.0688 12.0046 18.1788 12.0096C18.0346 12.0102 18.0183 11.9507 18.0114 11.8324C17.9958 11.56 17.9832 11.2858 17.9394 11.0172C17.3898 7.68804 14.2231 5.48092 10.8848 6.09453C7.66431 6.68685 5.48346 9.81312 6.05687 13.0158C6.56385 15.8465 8.88445 17.8852 11.759 18.0136C11.9464 18.0217 12.0041 18.0618 12.0034 18.2609C11.994 20.1737 11.9972 22.0872 11.9972 24Z" fill="#707070"/>
<path d="M14.9965 24C14.994 23.5711 14.9883 23.1416 14.9883 22.7127C14.9877 20.2219 14.9915 17.7312 14.9821 15.2404C14.9814 15.0269 15.041 14.9912 15.239 14.9919C18.0741 14.9987 20.9092 14.9987 23.7443 14.9919C23.9417 14.9912 24.0006 15.0269 24 15.2398C23.9912 18.1601 23.9944 21.0797 23.9944 24C20.9951 24 17.9958 24 14.9965 24Z" fill="#707070"/>
</svg>
