<svg width="90" height="96" viewBox="0 0 90 96" fill="none" xmlns="http://www.w3.org/2000/svg">
<path d="M20.0253 67.9969C15.4684 67.9969 11.7722 71.6554 11.7722 76.1535C11.7722 80.6641 15.4684 84.3227 20.0253 84.3227C24.5823 84.3227 28.2658 80.6641 28.2658 76.1535C28.2785 71.6554 24.5823 67.9969 20.0253 67.9969ZM20.0253 80.5889C17.557 80.5889 15.557 78.6093 15.557 76.166C15.557 73.7228 17.557 71.7432 20.0253 71.7432C22.4937 71.7432 24.4937 73.7228 24.4937 76.166C24.4937 78.6093 22.4937 80.5889 20.0253 80.5889ZM38.5443 73.6226H37.3038C37.1013 72.2945 36.7595 71.0164 36.2658 69.8011L37.3418 69.1872C38.0633 68.7737 38.3038 67.8591 37.8987 67.1574L36.8481 65.3406C36.4304 64.6265 35.5063 64.3884 34.7848 64.7893L33.7089 65.4033C32.8734 64.3759 31.9367 63.4362 30.8861 62.6092L31.5063 61.5317C31.9241 60.8176 31.6709 59.9029 30.962 59.5019L29.1266 58.462C28.4051 58.0486 27.481 58.2992 27.076 59.0133L26.4557 60.0783C25.2278 59.6022 23.9367 59.2514 22.5949 59.0509V57.823C22.5949 56.9961 21.9241 56.332 21.0886 56.332H18.9747C18.1519 56.332 17.4684 56.9961 17.4684 57.823V59.0509C16.1266 59.2514 14.8354 59.5897 13.6076 60.0783L12.9874 59.0133C12.5696 58.2992 11.6456 58.0611 10.9367 58.462L9.10127 59.5019C8.37975 59.9154 8.13925 60.8301 8.55697 61.5317L9.17721 62.6092C8.13924 63.4237 7.1899 64.3634 6.35445 65.4033L5.26583 64.7893C4.54431 64.3759 3.62026 64.6265 3.2152 65.3406L2.16455 67.1574C1.74682 67.8716 2.00002 68.7862 2.70888 69.1872L3.78484 69.8011C3.30382 71.0164 2.94938 72.2945 2.74685 73.6226H1.50633C0.683547 73.6226 0 74.2992 0 75.1136V77.2059C0 78.0329 0.683547 78.697 1.50633 78.697H2.74685C2.94938 80.0251 3.29117 81.3031 3.78484 82.5059L2.70888 83.1198C1.98736 83.5333 1.74682 84.4479 2.16455 85.1621L3.2152 86.9789C3.63292 87.6931 4.55697 87.9311 5.26583 87.5302L6.35445 86.9162C7.1899 87.9561 8.12658 88.8833 9.17721 89.7103L8.55697 90.7878C8.13925 91.502 8.39241 92.4166 9.10127 92.8176L10.9367 93.8575C11.6582 94.271 12.5823 94.0204 12.9874 93.3062L13.6076 92.2412C14.8354 92.7173 16.1266 93.0681 17.4684 93.2686V94.509C17.4684 95.3234 18.1393 96 18.9747 96H21.0886C21.9114 96 22.5949 95.3234 22.5949 94.509V93.2686C23.9367 93.0807 25.2278 92.7299 26.4557 92.2537L27.076 93.3187C27.4937 94.0329 28.4177 94.271 29.1393 93.87L30.9747 92.8301C31.6962 92.4166 31.9367 91.502 31.519 90.7878L30.8987 89.7103C31.9494 88.8833 32.8861 87.9561 33.7215 86.9162L34.7975 87.5302C35.519 87.9436 36.443 87.6931 36.8607 86.9789L37.9114 85.1621C38.3291 84.4479 38.076 83.5333 37.3544 83.1323L36.2785 82.5184C36.7595 81.3031 37.1139 80.0376 37.3165 78.7095H38.5569C39.3924 78.7095 40.0633 78.0454 40.0633 77.2185V75.1261C40.0506 74.2991 39.3798 73.6226 38.5443 73.6226ZM20.0253 88.9209C12.9114 88.9209 7.13926 83.2075 7.13926 76.166C7.13926 69.1245 12.9114 63.4111 20.0253 63.4111C27.1392 63.4111 32.9114 69.1245 32.9114 76.166C32.9114 83.2075 27.1392 88.9209 20.0253 88.9209ZM87.3544 29.9577H85.1899C84.8481 27.6523 84.2405 25.4471 83.4051 23.3422L85.2785 22.2772C86.519 21.563 86.9493 19.9843 86.2278 18.7565L84.405 15.6241C83.6835 14.3962 82.0886 13.9702 80.8355 14.6719L78.962 15.7494C77.519 13.9577 75.8861 12.3289 74.076 10.9131L75.1646 9.05875C75.8861 7.83087 75.4557 6.23963 74.2152 5.52546L71.038 3.70868C69.7975 2.99451 68.1899 3.42051 67.481 4.64838L66.3924 6.50274C64.2785 5.67581 62.038 5.06189 59.7089 4.7236V2.58105C59.7089 1.16523 58.5317 0 57.1013 0H53.443C52.0127 0 50.8354 1.16523 50.8354 2.58105V4.7236C48.5063 5.06189 46.2785 5.66328 44.1519 6.50274L43.0759 4.64838C42.3544 3.42051 40.7595 2.99451 39.5063 3.70868L36.3418 5.52546C35.1012 6.23963 34.6709 7.81834 35.3924 9.05875L36.481 10.9131C34.6709 12.3289 33.0253 13.9577 31.5949 15.7494L29.7215 14.6719C28.481 13.9577 26.8734 14.3837 26.1646 15.6241L24.3291 18.7565C23.6076 19.9843 24.038 21.5756 25.2785 22.2898L27.1519 23.3548C26.3165 25.4597 25.7089 27.6649 25.3671 29.9703H23.2152C21.7848 29.9703 20.6076 31.1355 20.6076 32.5513V36.1723C20.6076 37.5881 21.7848 38.7533 23.2152 38.7533H25.3671C25.7089 41.0587 26.3165 43.2639 27.1519 45.3688L25.2785 46.4338C24.038 47.148 23.6076 48.7267 24.3291 49.9671L26.1646 53.112C26.8861 54.3399 28.481 54.7659 29.7342 54.0517L31.6076 52.9742C33.0506 54.7659 34.6836 56.3822 36.4937 57.8105L35.4051 59.6648C34.6835 60.8927 35.1139 62.4839 36.3671 63.1856L39.5317 65.0024C40.7722 65.7165 42.3798 65.2905 43.1013 64.0627L44.1772 62.2083C46.2911 63.0352 48.5316 63.6367 50.8607 63.9875V66.1175C50.8607 67.5333 52.038 68.6985 53.4684 68.6985H57.1266C58.557 68.6985 59.7342 67.5333 59.7342 66.1175V63.9875C62.0506 63.6492 64.2911 63.0478 66.4177 62.2208L67.4937 64.0752C68.2152 65.3031 69.8101 65.7291 71.0633 65.0149L74.2405 63.2107C75.481 62.4965 75.9114 60.9053 75.1899 59.6774L74.1013 57.823C75.9114 56.3947 77.5569 54.7784 78.9873 52.9867L80.8608 54.0642C82.1013 54.7784 83.7089 54.3524 84.4304 53.1245L86.2658 49.9797C86.9873 48.7518 86.557 47.1605 85.3038 46.4464L83.4304 45.3688C84.2658 43.2764 84.8861 41.0587 85.2279 38.7533H87.3924C88.8228 38.7533 90 37.5881 90 36.1723V32.5513C89.962 31.123 88.7975 29.9577 87.3544 29.9577ZM55.2658 59.6648C41.1392 59.6648 29.6962 48.3383 29.6962 34.3555C29.6962 20.3728 41.1519 9.0462 55.2658 9.0462C69.3924 9.0462 80.8355 20.3853 80.8355 34.3555C80.8355 48.3258 69.3924 59.6648 55.2658 59.6648Z" fill="white"/>
<path d="M55.2658 12.5168C43.0886 12.5168 33.2152 22.2897 33.2152 34.343C33.2152 46.3962 43.0886 56.1691 55.2658 56.1691C67.443 56.1691 77.3164 46.3962 77.3164 34.343C77.3164 22.2897 67.443 12.5168 55.2658 12.5168ZM55.2658 51.646C45.6202 51.646 37.7974 43.9029 37.7974 34.3555C37.7974 24.8081 45.6202 17.065 55.2658 17.065C64.9113 17.065 72.7341 24.8081 72.7341 34.3555C72.7341 43.9029 64.9113 51.646 55.2658 51.646ZM55.8987 34.3179V25.6601H59.481C59.8354 25.6601 60.1139 25.3845 60.1139 25.0337C60.1139 24.6828 59.8354 24.4072 59.481 24.4072H55.8987V21.4127C55.8987 21.0744 55.6202 20.7862 55.2658 20.7862C54.9113 20.7862 54.6329 21.0618 54.6329 21.4127V24.4448C51.8227 24.758 49.6455 27.1135 49.6455 29.9702C49.6455 32.8269 51.8354 35.1824 54.6329 35.5082V44.166H51.0632C50.7088 44.166 50.4303 44.4416 50.4303 44.7925C50.4303 45.1433 50.7215 45.4189 51.0632 45.4189H54.6329V48.238C54.6329 48.5889 54.9113 48.8645 55.2658 48.8645C55.6202 48.8645 55.8987 48.5889 55.8987 48.238V45.3813C58.7088 45.0681 60.886 42.7001 60.886 39.8559C60.886 36.9867 58.6962 34.6312 55.8987 34.3179ZM54.6329 34.2177C52.5316 33.917 50.9113 32.1253 50.9113 29.9577C50.9113 27.7901 52.5316 25.9984 54.6329 25.6977V34.2177ZM55.8987 44.1034V35.5834C58 35.8841 59.6202 37.6758 59.6202 39.8434C59.6202 41.9984 58 43.8027 55.8987 44.1034Z" fill="white"/>
</svg>
