<svg width="18" height="14" viewBox="0 0 18 14" fill="none" xmlns="http://www.w3.org/2000/svg">
<path d="M18 3.97429C18 6.85407 18 9.73871 18 12.6185C17.9719 12.6233 17.9672 12.6428 17.9578 12.6671C17.6155 13.64 17.1185 14 16.1292 14C11.3655 14 6.60641 14 1.84267 14C1.77234 14 1.70201 14 1.63167 14C0.872102 13.9611 0.281323 13.4844 0.0609534 12.7352C0.0468872 12.6915 0.0562647 12.6331 0 12.6185C0 9.73384 0 6.85407 0 3.97429C0.0609534 3.90132 0.0890857 3.98888 0.121907 4.00834C2.54129 5.67686 4.96067 7.35024 7.37536 9.02363C8.44908 9.76789 9.54155 9.76789 10.62 9.02363C13.0393 7.35024 15.454 5.68172 17.8734 4.00834C17.9062 3.98888 17.9344 3.90619 18 3.97429Z" fill="#707070"/>
<path d="M0 2.03822C0 1.81932 0 1.60042 0 1.38152C0.0281323 1.37665 0.032821 1.35719 0.0421985 1.33287C0.379786 0.369701 0.886168 0 1.87549 0C6.63923 0 11.3983 0 16.162 0C16.2277 0 16.2886 0 16.3543 0C17.1326 0.0243224 17.7374 0.515636 17.9484 1.29395C17.9578 1.33287 17.939 1.39611 18 1.41557C18 1.61987 18 1.82905 18 2.03336C17.9531 2.04309 17.9625 2.08687 17.9531 2.12092C17.8406 2.54899 17.5968 2.87978 17.2451 3.123C14.8164 4.80125 12.3923 6.4795 9.96353 8.15775C9.32118 8.60042 8.66945 8.59069 8.02709 8.14802C5.66866 6.51842 3.31024 4.87908 0.947122 3.25921C0.506382 2.95761 0.150039 2.60737 0.0281323 2.05281C0.0234436 2.04795 0.00937744 2.04795 0 2.03822Z" fill="#707070"/>
</svg>
