<svg width="23" height="32" viewBox="0 0 23 32" fill="none" xmlns="http://www.w3.org/2000/svg">
<path d="M11.2502 32C10.9547 31.8668 10.7213 31.6631 10.5114 31.4125C7.46263 27.8089 4.66279 24.0253 2.48513 19.8185C1.50519 17.9228 0.657455 15.9722 0.245255 13.8649C-0.415819 10.5199 0.26081 7.4569 2.25959 4.70726C4.01727 2.28663 6.38936 0.743388 9.31364 0.218527C13.7234 -0.57268 17.4565 0.79039 20.3575 4.21373C22.3329 6.54035 23.1729 9.32133 22.9707 12.3765C22.854 14.1234 22.3174 15.7763 21.6485 17.3822C20.3108 20.5706 18.5065 23.4847 16.5077 26.2814C15.24 28.0596 13.8945 29.7674 12.4712 31.4281C12.2535 31.6866 12.0202 31.8982 11.6857 32C11.538 32 11.398 32 11.2502 32ZM11.4524 17.4214C14.5711 17.4919 17.2076 14.8911 17.2776 11.6793C17.3476 8.47529 14.8044 5.83532 11.5691 5.75698C8.42702 5.67864 5.78273 8.27161 5.71273 11.4991C5.65051 14.7031 8.20926 17.3509 11.4524 17.4214Z" fill="white"/>
</svg>
