<svg width="18" height="24" viewBox="0 0 18 24" fill="none" xmlns="http://www.w3.org/2000/svg">
<path d="M0 0C3.19593 0 6.39716 0 9.59309 0C9.59309 6.04222 9.59309 12.0782 9.5984 18.1204C9.5984 18.3331 9.55593 18.3831 9.37543 18.3831C6.32284 18.3769 3.27556 18.3769 0.222972 18.3831C0.0424708 18.3831 0 18.3268 0 18.1204C0 12.0782 0 6.04222 0 0ZM5.38317 7.08053C6.32284 7.08053 7.26781 7.08053 8.20748 7.08679C8.3402 7.08679 8.40391 7.07428 8.3986 6.88037C8.38798 5.59187 8.39329 4.30336 8.3986 3.01486C8.3986 2.86474 8.37205 2.82095 8.23933 2.82095C6.34407 2.8147 4.44351 2.8147 2.54825 2.80844C2.41553 2.80844 2.38898 2.85223 2.38898 3.00235C2.39429 4.29085 2.39429 5.57936 2.38898 6.86787C2.38898 7.06177 2.44738 7.07428 2.5801 7.07428C3.51446 7.07428 4.44881 7.08053 5.38317 7.08053ZM2.9995 9.93276C3.15876 9.93276 3.31803 9.9265 3.4773 9.93276C3.57285 9.93901 3.60471 9.90148 3.60471 9.7889C3.5994 9.4136 3.5994 9.03831 3.60471 8.66302C3.60471 8.56919 3.58878 8.51916 3.49853 8.52541C3.17469 8.53166 2.85085 8.53166 2.5217 8.52541C2.41553 8.52541 2.40491 8.5817 2.40491 8.68178C2.41022 9.05082 2.41022 9.4136 2.40491 9.78264C2.40491 9.91399 2.44738 9.93901 2.54294 9.93901C2.69689 9.9265 2.84554 9.93276 2.9995 9.93276ZM5.99369 9.26349C5.99369 9.06333 5.98307 8.89445 5.99369 8.73182C6.00431 8.57545 5.97245 8.50665 5.82381 8.51915C5.68047 8.53166 5.53182 8.51916 5.38848 8.52541C5.19736 8.52541 4.93723 8.45035 4.83105 8.56294C4.70895 8.69429 4.79389 9.00078 4.79389 9.23221C4.79389 9.45739 4.70895 9.75137 4.82574 9.88898C4.94785 10.0328 5.20267 9.9265 5.39379 9.93276C5.58491 9.93901 5.83973 10.0078 5.94591 9.89523C6.07863 9.76388 5.97245 9.45739 5.99369 9.26349ZM7.18818 9.20094C7.18818 9.41986 7.19349 9.60125 7.18818 9.77639C7.18287 9.89523 7.21472 9.93901 7.3209 9.93901C7.63412 9.93276 7.94204 9.93276 8.25526 9.93901C8.36674 9.93901 8.39329 9.88898 8.38798 9.77639C8.38267 9.595 8.38798 9.41986 8.38798 9.23847C8.38267 9.01329 8.45168 8.71306 8.35613 8.5817C8.24464 8.43159 7.98451 8.53792 7.78808 8.53166C7.59696 8.52541 7.33683 8.45035 7.23065 8.56919C7.09793 8.69429 7.20411 9.00704 7.18818 9.20094ZM2.40491 11.9906C2.40491 12.2158 2.41022 12.4034 2.40491 12.5911C2.3996 12.7099 2.43145 12.76 2.53763 12.7537C2.7022 12.7412 2.86678 12.7537 3.03666 12.7475C3.22247 12.7412 3.46137 12.8413 3.57285 12.7099C3.68434 12.5786 3.60471 12.2909 3.60471 12.0782C3.60471 11.8405 3.69496 11.5152 3.56755 11.3839C3.45606 11.265 3.19062 11.3464 2.98888 11.3464C2.80307 11.3464 2.55356 11.2713 2.44738 11.3776C2.31997 11.5027 2.42083 11.803 2.40491 11.9906ZM4.79389 12.0156C4.79389 12.2095 4.7992 12.4034 4.79389 12.5973C4.78858 12.7224 4.83105 12.7537 4.93192 12.7537C5.23983 12.7475 5.55305 12.7475 5.86628 12.7537C5.97245 12.7537 5.999 12.7099 5.999 12.5911C5.99369 12.2283 5.99369 11.8593 5.999 11.4902C5.999 11.3589 5.96184 11.3339 5.86097 11.3339C5.55305 11.3401 5.23983 11.3401 4.92661 11.3339C4.82043 11.3339 4.78858 11.3776 4.79389 11.4965C4.7992 11.6716 4.79389 11.8405 4.79389 12.0156ZM8.38267 12.0532C8.38267 11.8655 8.37736 11.6779 8.38267 11.4902C8.38798 11.3776 8.35613 11.3401 8.26057 11.3401C7.94204 11.3464 7.62351 11.3464 7.30497 11.3401C7.20411 11.3401 7.18287 11.3776 7.18287 11.4902C7.18818 11.8593 7.18818 12.222 7.18287 12.5911C7.18287 12.7099 7.20411 12.7537 7.31559 12.7537C7.62881 12.7475 7.93673 12.7475 8.24995 12.7537C8.35613 12.7537 8.38798 12.7099 8.38267 12.5911C8.37736 12.4097 8.38267 12.2283 8.38267 12.0532ZM3.00481 15.5496C3.19593 15.5496 3.45606 15.6372 3.56224 15.5246C3.68434 15.3933 3.59409 15.0868 3.5994 14.8554C3.60471 14.6302 3.6631 14.3299 3.56755 14.1986C3.45606 14.0547 3.19593 14.1611 2.9995 14.1548C2.80838 14.1486 2.55356 14.0735 2.44207 14.1861C2.31997 14.3174 2.40491 14.6239 2.40491 14.8554C2.40491 15.0805 2.32528 15.3745 2.43676 15.5121C2.55886 15.6685 2.80838 15.5371 3.00481 15.5496ZM5.38848 15.5622C5.54775 15.5622 5.70701 15.5559 5.86628 15.5622C5.97245 15.5684 5.999 15.5184 5.999 15.3995C5.99369 15.0305 5.99369 14.6677 5.999 14.2987C5.999 14.1986 5.98838 14.1423 5.8822 14.1423C5.55836 14.1486 5.23452 14.1486 4.91068 14.1423C4.82574 14.1423 4.7992 14.1798 4.7992 14.2799C4.80451 14.6615 4.80451 15.043 4.7992 15.4245C4.7992 15.5246 4.83105 15.5622 4.91599 15.5559C5.06995 15.5622 5.22921 15.5622 5.38848 15.5622ZM8.36674 14.8866C8.37205 14.8866 8.37736 14.8866 8.38267 14.8866C8.38267 14.6927 8.37736 14.4988 8.38267 14.3049C8.38798 14.1986 8.36143 14.1548 8.26057 14.1548C7.94204 14.1611 7.62881 14.1611 7.31028 14.1548C7.22003 14.1548 7.18287 14.1798 7.18287 14.2924C7.18818 14.6677 7.18818 15.0367 7.18287 15.412C7.18287 15.5434 7.22534 15.5684 7.3209 15.5622C7.48017 15.5559 7.63943 15.5684 7.7987 15.5559C7.98982 15.5434 8.23933 15.656 8.34551 15.5121C8.44107 15.3933 8.36674 15.1055 8.36674 14.8866Z" fill="#707070"/>
<path d="M10.7876 0C11.9927 0 13.2031 0 14.4082 0C14.4082 5.81704 14.4082 11.6278 14.4082 17.4449C14.4082 17.7013 14.4029 17.964 14.4082 18.2205C14.4135 18.3581 14.3711 18.3894 14.2649 18.3894C13.9517 18.3831 13.6437 18.3894 13.3305 18.3831C13.2562 18.3831 13.1872 18.3706 13.1925 18.5082C13.2031 19.4527 13.1819 20.3972 13.2137 21.3417C13.2296 21.8858 13.511 22.2736 13.9304 22.4863C14.3445 22.699 14.748 22.6364 15.1143 22.3174C15.4753 22.0047 15.608 21.5668 15.608 21.0539C15.608 14.036 15.608 7.01798 15.608 0C16.4043 0 17.2007 0 17.997 0C17.997 6.02971 17.997 12.0594 17.997 18.0891C17.997 18.1329 17.9917 18.183 17.997 18.2267C18.0129 18.3518 17.9651 18.3831 17.8643 18.3769C17.567 18.3706 17.2697 18.3831 16.9671 18.3706C16.8237 18.3643 16.7972 18.4206 16.7972 18.577C16.8025 19.4464 16.8025 20.3096 16.7972 21.179C16.7919 22.4363 16.1017 23.5184 15.0771 23.8874C14.9603 23.9312 14.8329 23.9124 14.7267 24C14.4878 24 14.2489 24 14.01 24C14.0047 23.9625 13.9782 23.9562 13.9517 23.95C12.9058 23.7248 11.9502 22.6177 11.9927 20.9664C12.0139 20.1845 11.9927 19.4027 11.998 18.6208C11.998 18.4269 11.9768 18.3456 11.791 18.3643C11.5202 18.3894 11.2494 18.3581 10.9787 18.3769C10.8247 18.3831 10.7823 18.3331 10.7823 18.1517C10.7876 12.1032 10.7876 6.05473 10.7876 0Z" fill="#707070"/>
<path d="M5.38317 5.67318C4.84167 5.67318 4.29486 5.66693 3.75336 5.67944C3.61002 5.67944 3.57816 5.6294 3.58347 5.47303C3.59409 5.10399 3.58878 4.7412 3.58347 4.37217C3.58347 4.26583 3.60471 4.22205 3.70558 4.22205C4.83105 4.2283 5.96184 4.2283 7.08731 4.22205C7.18287 4.22205 7.20941 4.25958 7.20941 4.36591C7.20411 4.74746 7.20411 5.12901 7.20941 5.51681C7.21472 5.66067 7.16164 5.67944 7.06077 5.67944C6.49803 5.66693 5.9406 5.67318 5.38317 5.67318Z" fill="#707070"/>
</svg>
