<svg width="25" height="24" viewBox="0 0 25 24" fill="none" xmlns="http://www.w3.org/2000/svg">
<path d="M24.2165 2.01522C24.2165 8.68548 24.2165 15.3498 24.2165 22.0201C24.1812 22.026 24.1753 22.0555 24.1635 22.0849C23.8925 23.2693 22.8145 24.0059 21.5715 24C15.3272 23.9705 9.08883 23.9882 2.84454 23.9882C2.73261 23.9882 2.62658 23.9882 2.51465 23.9823C1.43663 23.941 0.452856 23.0749 0.27024 22.0083C0.240786 21.8315 0.229004 21.6548 0.229004 21.4721C0.234895 15.1554 0.234895 8.83868 0.234895 2.52786C0.234895 1.47311 0.700271 0.712987 1.63102 0.229806C1.83131 0.123742 2.05516 0.106064 2.24956 0C8.88265 0 15.5216 0 22.1547 0C22.1724 0.0117849 22.1842 0.0412472 22.2018 0.0412472C22.9677 0.170881 23.5214 0.583353 23.9161 1.2492C24.0575 1.49079 24.0987 1.76774 24.2165 2.01522ZM13.4245 10.9482C13.4245 10.577 13.4127 10.1998 13.4304 9.82861C13.4422 9.62827 13.3715 9.58702 13.183 9.59291C12.1344 9.6047 11.0917 9.59881 10.0431 9.59291C9.8782 9.59291 9.82518 9.62238 9.82518 9.80504C9.83108 13.2639 9.83108 16.7228 9.82518 20.1817C9.82518 20.3408 9.86053 20.3879 10.0255 20.3879C11.0799 20.382 12.1344 20.3761 13.1889 20.3879C13.3833 20.3879 13.4304 20.3349 13.4304 20.1463C13.4245 18.1841 13.4245 16.2278 13.4245 14.2656C13.4245 14.1183 13.4304 13.971 13.4422 13.8237C13.5305 12.7866 14.691 12.0029 15.6807 12.3093C16.529 12.5745 17.012 13.2462 17.0179 14.1714C17.0179 16.1689 17.0238 18.1664 17.012 20.164C17.012 20.3407 17.0532 20.382 17.23 20.382C18.2844 20.3702 19.3389 20.3702 20.3934 20.382C20.5819 20.382 20.6172 20.3231 20.6172 20.1522C20.6113 17.9897 20.6172 15.8271 20.6113 13.6646C20.6113 12.0088 19.8809 10.7537 18.467 9.917C17.4538 9.31597 16.364 9.15687 15.2389 9.59881C14.5261 9.88754 13.9252 10.3295 13.4245 10.9482ZM3.8342 14.9668C3.8342 16.7051 3.8342 18.4493 3.8342 20.1875C3.8342 20.3231 3.84009 20.3938 4.01681 20.3879C5.09484 20.3761 6.17286 20.382 7.245 20.3879C7.40405 20.3879 7.4335 20.3349 7.4335 20.1875C7.42761 16.7228 7.42761 13.258 7.4335 9.79326C7.4335 9.62238 7.38049 9.59291 7.22143 9.59291C6.16697 9.59881 5.11251 9.6047 4.06394 9.59291C3.85776 9.59291 3.82831 9.65773 3.82831 9.8404C3.84009 11.5492 3.8342 13.258 3.8342 14.9668ZM7.78106 5.3916C7.77517 4.20132 6.80318 3.22906 5.62501 3.23496C4.44096 3.24085 3.46308 4.22489 3.46897 5.39749C3.47486 6.58776 4.44685 7.54823 5.63091 7.54234C6.82675 7.54234 7.78695 6.58187 7.78106 5.3916Z" fill="#282624"/>
</svg>
