<svg width="164" height="165" viewBox="0 0 164 165" fill="none" xmlns="http://www.w3.org/2000/svg">
<path d="M0 141.99C0 102.063 0 62.1048 0 22.1783C0.480657 21.986 0.288394 21.5374 0.352481 21.2169C2.30715 11.732 7.75459 5.16301 16.823 1.60615C18.5533 0.933236 20.4119 0.869148 22.0782 0.100098C61.8124 0.100098 101.515 0.100098 141.249 0.100098C141.345 0.196229 141.473 0.356448 141.569 0.356448C152.016 1.79842 158.905 7.63038 162.622 17.3717C163.263 19.0059 163.551 20.8004 164 22.5307C164 62.3611 164 102.192 164 142.022C163.519 142.214 163.712 142.663 163.648 142.983C161.693 152.5 156.245 159.037 147.177 162.594C145.254 163.363 143.204 163.491 141.249 164.1C101.515 164.1 61.8124 164.1 22.0782 164.1C21.8859 163.619 21.4373 163.812 21.1168 163.748C11.5998 161.793 5.06292 156.345 1.50606 147.277C0.833138 145.547 0.76905 143.688 0 141.99ZM82.0641 50.8895C58.4799 50.8895 34.8636 50.8895 11.2794 50.8574C9.86948 50.8574 9.54904 51.2099 9.54904 52.5878C9.58109 80.9786 9.58109 109.401 9.58109 137.792C9.58109 147.694 16.3744 154.487 26.2438 154.487C63.4146 154.487 100.553 154.487 137.724 154.487C147.594 154.487 154.387 147.662 154.387 137.792C154.387 109.401 154.387 80.9786 154.419 52.5878C154.419 51.2099 154.131 50.8574 152.689 50.8574C129.168 50.8895 105.616 50.8895 82.0641 50.8895ZM82 41.2763C105.584 41.2763 129.168 41.2763 152.785 41.3084C154.131 41.3084 154.451 40.9879 154.451 39.6421C154.355 35.0598 154.419 30.4776 154.419 25.8633C154.387 16.6347 147.433 9.68118 138.205 9.68118C100.714 9.68118 63.2544 9.68118 25.7952 9.71323C16.5666 9.71323 9.64517 16.6667 9.61313 25.8953C9.58109 30.4455 9.67722 34.9637 9.58109 39.5139C9.54904 41.02 9.99766 41.3084 11.4076 41.3084C34.9277 41.2763 58.4799 41.2763 82 41.2763Z" fill="#014F88"/>
<path d="M45.8867 117.733C44.5729 117.765 43.4513 117.252 42.49 116.291C35.6968 109.498 28.8714 102.736 22.1422 95.9109C19.9633 93.6999 19.9953 91.0083 22.1743 88.7972C28.9035 82.004 35.6647 75.2748 42.4259 68.5456C44.5408 66.4307 47.4889 66.4627 49.4115 68.4494C51.3021 70.4041 51.2059 73.3201 49.091 75.435C43.8359 80.7222 38.5487 86.0415 33.2294 91.2646C32.3322 92.1618 32.3962 92.6104 33.2614 93.4756C38.5487 98.6667 43.7718 103.922 48.9949 109.177C51.1739 111.356 51.3662 114.176 49.5076 116.163C48.5463 117.22 47.3607 117.765 45.8867 117.733Z" fill="#014F88"/>
<path d="M107.763 117.733C105.776 117.701 104.302 116.803 103.437 115.009C102.572 113.183 102.828 111.452 104.078 109.946C105.007 108.857 106.065 107.863 107.09 106.838C111.544 102.384 115.966 97.8977 120.453 93.5077C121.318 92.6745 121.414 92.2259 120.485 91.2967C115.229 86.1376 110.07 80.9145 104.847 75.7234C103.63 74.5057 102.764 73.1278 102.989 71.3334C103.213 69.4428 104.238 68.0649 106.001 67.36C107.859 66.6229 109.59 66.9754 111.032 68.3533C112.858 70.0837 114.589 71.8781 116.383 73.6405C121.286 78.5432 126.188 83.4459 131.091 88.3486C133.847 91.1044 133.847 93.6358 131.123 96.3596C124.65 102.864 118.145 109.337 111.673 115.842C110.551 116.932 109.397 117.797 107.763 117.733Z" fill="#014F88"/>
<path d="M61.7804 112.862C61.7163 111.997 62.0688 111.164 62.4853 110.363C69.1825 96.9364 75.9117 83.51 82.6409 70.1157C83.7944 67.8406 85.5569 66.7832 87.7679 67.1036C89.8187 67.392 91.1325 68.5776 91.7733 70.5323C92.1579 71.782 91.9656 72.9676 91.3888 74.0891C84.5955 87.7077 77.8023 101.326 70.9769 114.913C69.7913 117.284 67.5162 118.245 65.2411 117.605C63.1903 116.996 61.7804 115.105 61.7804 112.862Z" fill="#014F88"/>
<path d="M30.1532 25.4788C30.1532 28.1384 28.1024 30.2533 25.4428 30.2533C22.7511 30.2853 20.508 28.0743 20.5721 25.4147C20.6041 22.8512 22.8472 20.6402 25.4107 20.6402C28.0063 20.6722 30.1532 22.8191 30.1532 25.4788Z" fill="#014F88"/>
<path d="M66.4908 30.2533C63.8632 30.2212 61.7804 28.1063 61.7804 25.4467C61.7804 22.8191 63.9594 20.6722 66.5549 20.6722C69.1825 20.6722 71.4576 23.0114 71.3935 25.6069C71.2974 28.2345 69.1505 30.2853 66.4908 30.2533Z" fill="#014F88"/>
<path d="M45.9828 30.2533C43.3232 30.2533 41.2083 28.1704 41.2083 25.5108C41.2083 22.8832 43.3552 20.6722 45.9508 20.6722C48.5463 20.6722 50.7253 22.8512 50.7573 25.4788C50.7573 28.1063 48.6424 30.2533 45.9828 30.2533Z" fill="#014F88"/>
</svg>
