<svg width="73" height="61" viewBox="0 0 73 61" fill="none" xmlns="http://www.w3.org/2000/svg">
<path d="M72.7998 48.4683C72.7623 48.506 72.6873 48.5437 72.6686 48.6002C71.7688 51.0124 70.4004 51.9734 67.8511 51.9734C61.1591 51.9734 54.4671 51.9734 47.7751 51.9546C47.194 51.9546 47.0253 52.0677 47.1002 52.6707C47.3627 54.5363 47.5876 56.4019 47.7938 58.2675C47.8501 58.7575 48 58.9459 48.5249 58.9082C49.4434 58.8517 50.3432 58.8894 51.2617 58.8894C52.0302 58.8894 52.4988 59.2851 52.5176 59.907C52.5363 60.5477 52.0302 61 51.2429 61C46.4817 61 41.7391 61 36.9779 61C32.1604 61 27.3241 61 22.5067 61C22.0943 61 21.7006 60.9812 21.4007 60.6608C21.1195 60.3404 21.007 59.9824 21.1757 59.549C21.3445 59.1155 21.6819 58.8706 22.1505 58.8706C23.1815 58.8706 24.2125 58.8517 25.2434 58.8706C25.6371 58.8894 25.7683 58.7386 25.8058 58.3618C26.0307 56.4019 26.2744 54.4421 26.5369 52.4822C26.6118 51.8981 26.3494 51.9169 25.9183 51.9169C19.2637 51.9357 12.628 51.9169 5.97346 51.9169C3.18043 51.9169 1.962 51.0877 0.912275 48.4683C0.89353 48.4306 0.837295 48.4118 0.799805 48.393C0.799805 33.3738 0.799805 18.3546 0.799805 3.31665C0.85604 3.27896 0.931021 3.24127 0.949766 3.20358C1.83079 0.866852 3.59283 0 6.04844 0C26.5743 0.0188446 47.119 0.0188447 67.6449 0.0188447C67.9448 0.0188447 68.2635 1.43211e-07 68.5634 0.0376894C70.3442 0.188446 71.6376 1.03645 72.4062 2.67593C72.5561 2.99629 72.6686 3.35434 72.7998 3.69354C72.7998 18.6185 72.7998 33.5434 72.7998 48.4683ZM36.8092 2.12944C26.4431 2.12944 16.0583 2.12944 5.69228 2.12944C3.81777 2.12944 2.95549 3.01514 2.95549 4.8996C2.95549 18.9577 2.95549 33.0158 2.95549 47.055C2.95549 48.9771 3.83651 49.844 5.74852 49.844C26.4806 49.844 47.194 49.844 67.9261 49.844C69.8381 49.844 70.7004 48.9583 70.7004 47.0361C70.7004 32.9969 70.7004 18.9765 70.7004 4.93729C70.7004 2.9586 69.8568 2.1106 67.8698 2.1106C57.5225 2.12944 47.1752 2.12944 36.8092 2.12944ZM27.9052 58.8706C27.999 58.8894 28.074 58.9271 28.1302 58.9271C33.8662 58.9271 39.6022 58.9271 45.3195 58.9459C45.7506 58.9459 45.7319 58.7763 45.6944 58.4371C45.4882 56.7977 45.282 55.177 45.0945 53.5375C44.9258 51.9923 44.9258 51.9923 43.3512 51.9923C43.1638 51.9923 42.9763 51.9923 42.7889 51.9923C42.2078 52.0111 41.4767 51.8227 41.0831 52.0865C40.7269 52.3315 40.7457 53.1041 40.5769 53.6506C40.0708 55.3655 38.515 56.5338 36.7529 56.515C35.0284 56.4961 33.51 55.3278 33.0039 53.6318C32.8914 53.2172 32.779 52.8214 32.704 52.4069C32.6478 52.1053 32.5165 51.9734 32.1979 51.9734C31.1669 51.9923 30.1359 51.9923 29.1049 51.9734C28.8238 51.9734 28.6925 52.03 28.655 52.3503C28.4301 54.5363 28.1677 56.7034 27.9052 58.8706ZM36.8279 51.9923C36.2843 51.9923 35.7594 51.9923 35.2158 51.9923C35.0471 51.9923 34.8034 51.9357 34.8597 52.2561C35.0284 53.0099 35.1784 53.7825 35.9844 54.1782C36.6592 54.5175 37.2966 54.4609 37.8964 54.0275C38.5337 53.5752 38.6462 52.878 38.7774 52.1807C38.8336 51.9169 38.5712 51.9923 38.4213 51.9923C37.8964 51.9734 37.3715 51.9923 36.8279 51.9923Z" fill="white"/>
<path d="M38.459 33.9958C41.4769 33.9958 44.4949 33.9958 47.5316 33.9958C47.794 33.9958 48.0565 33.9958 48.3002 34.0335C48.8438 34.1277 49.3311 34.693 49.1062 35.1453C48.7875 35.8237 49.0687 36.389 49.1249 37.0297C49.2187 38.33 48.7313 39.3853 47.6253 40.1014C46.4819 40.8364 45.2822 40.8552 44.12 40.158C42.9578 39.4419 42.4517 38.3489 42.5642 36.9921C42.6391 36.1252 42.6391 36.1252 41.7394 36.1252C39.0963 36.1252 36.4532 36.1441 33.7914 36.1064C33.3228 36.1064 33.1729 36.1441 33.2853 36.7094C33.5665 38.1981 32.9104 39.5361 31.6545 40.2333C30.4548 40.8929 28.9552 40.7421 27.9242 39.8564C26.837 38.9331 26.4808 37.5009 27.0245 36.0875C27.1557 35.7483 27.0807 35.5976 26.8745 35.3526C26.2559 34.6176 26.1622 33.7885 26.5746 32.9216C26.9682 32.1113 27.3806 31.3198 27.7555 30.5284C27.8305 30.3588 27.9992 30.208 27.868 29.963C26.8745 27.9466 26.5183 25.723 25.881 23.5935C25.1125 21.0872 24.4376 18.5432 23.7253 15.9992C23.5941 15.5092 23.3504 15.1888 22.9193 14.925C22.1507 14.4539 21.4009 13.9263 20.6324 13.3986C19.9763 12.9463 19.8076 12.381 20.145 11.8534C20.4824 11.288 21.1197 11.2126 21.7946 11.6461C22.7131 12.2491 23.6316 12.871 24.5314 13.4928C24.7563 13.6436 25.0562 13.832 25.1312 14.0582C25.3936 14.812 25.9935 14.7743 26.5933 14.812C33.3041 15.1135 40.0148 15.415 46.7443 15.7165C47.869 15.773 48.9937 15.8107 50.1184 15.8673C51.1119 15.9238 51.4868 16.3949 51.2994 17.4125C50.737 20.3146 50.1747 23.2167 49.5748 26.1187C49.1999 27.9466 47.794 29.3223 45.9383 29.5673C42.5079 30.0196 39.0588 30.4153 35.6285 30.8299C34.0914 31.0183 32.5543 31.3764 31.0359 31.3198C29.8175 31.2821 29.4051 31.8286 28.9927 32.752C28.4303 34.0335 28.3928 34.0146 29.7425 34.0146C32.6667 33.9958 35.5722 33.9958 38.459 33.9958ZM28.2804 16.9791C28.2804 16.9602 28.2804 16.9414 28.2804 16.9226C27.7743 16.9226 27.2494 16.9602 26.7433 16.9037C26.2934 16.866 26.1622 16.9602 26.2934 17.4314C26.6683 18.6374 27.0057 19.8435 27.3431 21.0684C27.4368 21.3887 27.5493 21.5206 27.9055 21.5206C28.824 21.5018 29.7237 21.5018 30.6423 21.5206C31.0547 21.5395 31.1109 21.3699 31.0359 21.0307C30.8859 20.2015 30.7547 19.3723 30.6235 18.5432C30.3986 17.0922 30.3986 17.0922 28.9177 16.9979C28.7115 16.9979 28.5053 16.9979 28.2804 16.9791ZM34.6537 17.2618C34.6537 17.2429 34.6537 17.2429 34.6537 17.2241C34.1476 17.2241 33.6227 17.2618 33.1166 17.2052C32.6855 17.1675 32.5355 17.2618 32.6105 17.7329C32.8167 18.8635 33.0041 19.9942 33.1729 21.1437C33.2291 21.5018 33.4165 21.5395 33.6977 21.5395C34.6162 21.5395 35.516 21.5206 36.4345 21.5395C36.7907 21.5395 36.9219 21.4453 36.9219 21.0684C36.9031 20.2392 36.9219 19.4289 36.9219 18.5997C36.9219 17.4314 36.9219 17.4314 35.7972 17.356C35.4035 17.3183 35.0286 17.2994 34.6537 17.2618ZM29.8362 23.6501C29.4238 23.6501 28.9927 23.6689 28.5803 23.6501C28.2054 23.6312 28.0929 23.6878 28.2241 24.1212C28.5616 25.1765 28.824 26.2318 29.1239 27.2871C29.705 29.3223 29.7237 29.3411 31.8232 29.1339C31.8607 29.1339 31.9169 29.115 31.9544 29.1339C32.3293 29.1527 32.3481 28.9643 32.2918 28.6439C32.0856 27.5132 31.9169 26.3825 31.7295 25.2519C31.4483 23.6501 31.4296 23.6501 29.8362 23.6501ZM39.0026 25.968C39.0026 26.6087 39.0213 27.2306 39.0026 27.8713C39.0026 28.1728 39.0776 28.2858 39.3962 28.2482C40.2023 28.1351 41.0083 28.0409 41.8331 27.9466C42.0955 27.909 42.2642 27.8524 42.283 27.5321C42.3767 26.3825 42.4704 25.2519 42.5829 24.1023C42.6204 23.782 42.5454 23.6312 42.1893 23.6501C41.2895 23.6689 40.371 23.6689 39.4525 23.6501C39.0588 23.6312 38.9838 23.8197 39.0026 24.1589C39.0213 24.7619 39.0026 25.3649 39.0026 25.968ZM41.1208 17.5633C41.1208 17.5444 41.1208 17.5256 41.1208 17.5067C40.5584 17.5067 39.9961 17.5256 39.4337 17.5067C39.0776 17.4879 39.0026 17.6198 39.0026 17.9402C39.0213 18.9955 39.0213 20.0508 39.0026 21.1061C39.0026 21.4641 39.1338 21.5395 39.4525 21.5395C40.4272 21.5206 41.4207 21.5206 42.3954 21.5395C42.7329 21.5395 42.8453 21.4264 42.8641 21.1061C42.9391 20.1261 43.0328 19.1462 43.1265 18.1663C43.164 17.8271 43.1265 17.6575 42.7141 17.6575C42.1893 17.6575 41.6456 17.601 41.1208 17.5633ZM36.9031 26.1564C36.9031 25.478 36.8844 24.7996 36.9031 24.1023C36.9031 23.782 36.8094 23.6312 36.472 23.6501C35.6472 23.6689 34.8412 23.6689 34.0164 23.6501C33.6602 23.6501 33.5852 23.7443 33.6415 24.1023C33.8852 25.4403 34.1101 26.7783 34.2976 28.1351C34.3725 28.7004 34.56 28.8889 35.1411 28.7381C35.5722 28.6251 36.0221 28.5874 36.4532 28.5874C36.8281 28.5874 36.9219 28.3989 36.9031 28.0597C36.8844 27.419 36.9031 26.7783 36.9031 26.1564ZM46.6318 21.5395C47.0067 21.5395 47.3816 21.5018 47.7566 21.5395C48.2252 21.596 48.4126 21.4264 48.4876 20.9553C48.6188 20.1073 48.7875 19.2404 48.975 18.4113C49.05 18.1098 49.0875 17.9402 48.6751 17.9402C47.7003 17.9213 46.7068 17.8648 45.7321 17.8082C45.3947 17.7894 45.2447 17.8271 45.226 18.2417C45.1885 18.9955 45.0947 19.7304 45.0198 20.4842C44.9073 21.5583 44.9073 21.5583 46.0133 21.5583C46.2195 21.5395 46.4256 21.5395 46.6318 21.5395ZM46.4256 23.6501C45.9195 23.6501 45.5259 23.6501 45.1322 23.6501C44.9073 23.6501 44.7386 23.6689 44.7011 23.9704C44.6261 25.0634 44.5136 26.1753 44.4199 27.2682C44.4012 27.4944 44.4387 27.5886 44.7011 27.5886C46.2944 27.6451 47.3067 26.8537 47.6253 25.2519C47.7191 24.7431 48.0377 24.0647 47.8315 23.782C47.5504 23.4051 46.838 23.7255 46.4256 23.6501ZM47.0442 37.3501C47.063 36.6905 46.5194 36.1441 45.8633 36.1252C45.2072 36.1252 44.7011 36.5963 44.6636 37.237C44.6261 37.9154 45.1322 38.4808 45.7883 38.4996C46.4444 38.5562 47.0255 38.0097 47.0442 37.3501ZM31.2421 37.3313C31.2421 36.6529 30.736 36.1252 30.0612 36.1252C29.4238 36.1252 28.899 36.634 28.8615 37.2559C28.8427 37.8966 29.3863 38.4808 30.0237 38.4996C30.6985 38.5562 31.2421 38.0097 31.2421 37.3313Z" fill="#F64701"/>
<path d="M40.202 47.4506C31.4293 47.4506 22.6378 47.4506 13.8651 47.4506C13.6589 47.4506 13.434 47.4695 13.2278 47.4506C12.553 47.3941 12.0843 46.923 12.1031 46.3388C12.1218 45.7546 12.5717 45.3589 13.2465 45.34C13.4715 45.34 13.7152 45.34 13.9401 45.34C31.0731 45.34 48.2249 45.34 65.358 45.3589C66.0328 45.3589 66.1828 45.1893 66.1828 44.5109C66.164 32.1488 66.164 19.7867 66.1828 7.42468C66.1828 6.74627 65.9766 6.55783 65.3767 6.65205C65.2455 6.6709 65.0955 6.65205 64.9643 6.65205C64.3457 6.61436 63.9333 6.19978 63.9333 5.63444C63.9333 5.03141 64.2707 4.61683 64.8518 4.57914C65.6954 4.52261 66.5389 4.52261 67.3824 4.57914C67.9073 4.61683 68.2072 4.99372 68.2822 5.52137C68.3197 5.72866 68.3009 5.93596 68.3009 6.16209C68.3009 19.391 68.3009 32.6199 68.3009 45.8488C68.3009 47.168 68.001 47.4695 66.6889 47.4695C57.8599 47.4506 49.031 47.4506 40.202 47.4506Z" fill="white"/>
<path d="M33.4352 4.5415C42.2641 4.5415 51.0931 4.5415 59.9221 4.5415C61.028 4.5415 61.5716 4.89955 61.5529 5.63449C61.5341 6.35059 61.028 6.6521 59.9408 6.6521C42.7328 6.6521 25.5248 6.6521 8.29799 6.63326C7.64192 6.63326 7.45446 6.74632 7.45446 7.44357C7.47321 19.8056 7.47321 32.1677 7.45446 44.5298C7.45446 45.1516 7.58568 45.4531 8.24176 45.3212C8.37297 45.3024 8.52294 45.3212 8.65415 45.3212C9.254 45.3401 9.61015 45.6604 9.70388 46.2635C9.77886 46.8288 9.40396 47.3565 8.80411 47.413C7.96058 47.4695 7.11705 47.4695 6.27352 47.413C5.72991 47.3753 5.41125 46.9796 5.35501 46.4142C5.33627 46.2258 5.35501 46.0373 5.35501 45.8489C5.35501 32.62 5.35501 19.3911 5.35501 6.16214C5.35501 4.82417 5.63619 4.5415 6.94835 4.5415C15.7773 4.5415 24.6062 4.5415 33.4352 4.5415Z" fill="white"/>
</svg>
