<svg width="24" height="18" viewBox="0 0 24 18" fill="none" xmlns="http://www.w3.org/2000/svg">
<path d="M24 5.1098C24 8.81237 24 12.5212 24 16.2238C23.9625 16.23 23.9562 16.255 23.9437 16.2863C23.4874 17.5372 22.8247 18 21.5056 18C15.1539 18 8.80854 18 2.45689 18C2.36312 18 2.26934 18 2.17557 18C1.1628 17.95 0.375098 17.337 0.0812712 16.3739C0.0625163 16.3176 0.0750195 16.2425 0 16.2238C0 12.5149 0 8.81237 0 5.1098C0.0812712 5.01598 0.118781 5.12856 0.162542 5.15358C3.38838 7.29882 6.61422 9.45031 9.83381 11.6018C11.2654 12.5587 12.7221 12.5587 14.1599 11.6018C17.3858 9.45031 20.6054 7.30507 23.8312 5.15358C23.875 5.12856 23.9125 5.02224 24 5.1098Z" fill="#03747F"/>
<path d="M0 2.62057C0 2.33912 0 2.05768 0 1.77623C0.0375098 1.76998 0.0437614 1.74496 0.0562647 1.71369C0.506382 0.47533 1.18156 0 2.50065 0C8.85231 0 15.1977 0 21.5494 0C21.6369 0 21.7182 0 21.8057 0C22.8434 0.0312717 23.6499 0.66296 23.9312 1.66366C23.9437 1.71369 23.9187 1.795 24 1.82001C24 2.0827 24 2.35163 24 2.61432C23.9375 2.62682 23.95 2.68311 23.9375 2.72689C23.7874 3.27728 23.4624 3.70257 22.9935 4.01529C19.7551 6.17304 16.5231 8.33079 13.2847 10.4885C12.4282 11.0577 11.5593 11.0452 10.7028 10.476C7.55822 8.38082 4.41365 6.27311 1.26283 4.19041C0.675176 3.80264 0.200052 3.35233 0.0375098 2.63933C0.0312581 2.63308 0.0125033 2.63308 0 2.62057Z" fill="#03747F"/>
</svg>
