<svg width="25" height="24" viewBox="0 0 25 24" fill="none" xmlns="http://www.w3.org/2000/svg">
<path d="M12.2413 0.000807564C15.1906 0.000807564 18.1399 0.000807564 21.0892 0.000807564C22.5856 0.000807564 23.777 0.931122 24.1257 2.35566C24.191 2.61005 24.2128 2.8717 24.2128 3.14062C24.2128 9.03503 24.2128 14.9294 24.2128 20.8238C24.2128 22.6627 22.8907 23.9782 21.0529 23.9782C19.462 23.9782 17.8784 23.9782 16.2875 23.9855C16.0913 23.9855 16.0332 23.9491 16.0332 23.7383C16.0405 20.5767 16.0405 17.4151 16.0332 14.2608C16.0332 14.0645 16.0623 13.9991 16.2802 14.0064C17.1083 14.0209 17.9292 14.0064 18.7573 14.0137C18.9389 14.0137 19.0043 13.9701 19.0261 13.7811C19.1278 12.5818 19.2368 11.3753 19.353 10.1761C19.3675 9.99441 19.2658 10.0162 19.1569 10.0162C18.2561 10.0162 17.3626 10.0089 16.4618 10.0235C16.2584 10.0235 16.1785 9.98715 16.1858 9.76184C16.2076 9.29668 16.1858 8.83879 16.193 8.37363C16.2076 7.77765 16.5127 7.47239 17.1083 7.47239C17.7694 7.46512 18.4304 7.46512 19.0988 7.47239C19.2731 7.47239 19.3094 7.42151 19.3094 7.26162C19.3022 6.25135 19.3022 5.24836 19.3094 4.2381C19.3094 4.08547 19.2658 4.04186 19.1133 4.04186C18.0527 4.04913 16.9921 4.02732 15.9315 4.04913C13.7304 4.09274 12.2267 5.53908 12.0597 7.73404C12.0088 8.41724 12.0306 9.09317 12.0379 9.77637C12.0379 9.98715 11.9725 10.0308 11.7764 10.0308C11.2679 10.0162 10.7594 10.0308 10.2509 10.0235C10.0983 10.0235 10.0547 10.0598 10.0547 10.2197C10.062 11.4262 10.062 12.6327 10.0547 13.8465C10.0547 13.9919 10.0983 14.0282 10.2363 14.0282C10.7739 14.0209 11.3042 14.0282 11.8417 14.0209C12.0015 14.0209 12.0597 14.05 12.0597 14.2244C12.0524 17.4151 12.0524 20.5985 12.0597 23.7892C12.0597 23.9564 12.0161 24 11.849 24C8.9796 23.9927 6.1102 24.0073 3.24807 23.9927C1.56275 23.9782 0.255182 22.6191 0.255182 20.8965C0.247917 17.2116 0.255182 13.5194 0.255182 9.83452C0.255182 7.62502 0.255182 5.42279 0.255182 3.2133C0.255182 1.3236 1.56275 0.0226118 3.45874 0.0226118C6.37898 -0.00646051 9.30649 0.000807564 12.2413 0.000807564Z" fill="#282624"/>
</svg>
