<svg width="48" height="43" viewBox="0 0 48 43" fill="none" xmlns="http://www.w3.org/2000/svg">
<path d="M22.4969 1.05361C28.781 1.05361 35.0517 1.05361 41.3358 1.05361C41.5904 1.05361 41.8584 1.01328 42.0862 1.09394C42.7561 1.34935 43.2251 1.04017 43.7075 0.650321C44.4042 0.0991614 45.1814 -0.142811 46.0523 0.0857183C47.9549 0.583106 48.6383 2.8684 47.3118 4.3068C46.682 4.99238 45.9987 5.65109 45.3287 6.29635C45.0876 6.52488 45.0072 6.76685 45.0072 7.08948C45.0206 15.2359 45.0206 23.3823 45.0072 31.5287C45.0072 33.1956 44.0692 34.4324 42.5418 34.8357C42.1934 34.9298 41.845 34.9163 41.4966 34.9163C36.405 34.9163 31.3134 34.9163 26.2352 34.9298C26.0477 34.9298 25.6859 34.755 25.7395 35.1852C25.7797 35.5078 25.4447 36.0052 26.128 36.1127C27.1196 36.2741 28.0709 36.5967 28.9418 37.121C29.2098 37.2823 29.4778 37.4705 29.7056 37.6856C30.8445 38.7207 30.8311 40.1187 29.652 41.127C28.6738 41.947 27.5081 42.3503 26.2888 42.5922C23.2339 43.2106 20.2057 43.1703 17.2311 42.1621C16.521 41.9201 15.8511 41.5706 15.2883 41.0597C14.203 40.0515 14.203 38.7341 15.2883 37.7259C16.1592 36.9193 17.2579 36.5429 18.3701 36.2337C18.4638 36.2069 18.571 36.1934 18.6648 36.1665C19.308 36.0187 19.4286 35.8036 19.308 35.1314C19.2812 34.9835 19.2276 34.9298 19.0802 34.9298C18.9596 34.9298 18.8524 34.9298 18.7318 34.9298C13.6804 34.9298 8.61562 34.8894 3.56421 34.9567C1.43378 34.9835 -0.0133067 33.3973 9.22697e-05 31.3808C0.0268902 22.4547 9.22697e-05 13.5555 9.22697e-05 4.65631C9.22697e-05 2.35757 1.31319 1.05361 3.61781 1.05361C9.91531 1.05361 16.1994 1.05361 22.4969 1.05361ZM43.3859 8.36656C43.3457 8.33967 43.3055 8.29934 43.2519 8.27246C43.1581 8.40689 43.0643 8.55476 42.9571 8.6623C40.8535 10.7728 38.7365 12.8834 36.6328 15.0074C35.8825 15.7602 35.0115 16.029 33.9798 15.7064C33.886 15.6795 33.752 15.6123 33.6984 15.6526C33.2965 15.9215 32.8811 16.1903 32.5461 16.5264C32.372 16.7012 32.5327 17.0104 32.5595 17.2523C32.7605 19.2016 31.6082 21.9708 28.7542 22.5354C27.0794 22.8715 25.3911 22.858 23.7028 22.7908C23.4081 22.7774 23.2339 22.858 23.0463 23.1134C20.4469 26.7296 16.9498 28.2083 12.5683 27.4555C6.98095 26.5011 3.18904 21.1508 4.11357 15.572C5.31948 8.32623 13.1713 4.52188 19.576 8.08426C20.4871 8.59509 21.3044 9.2269 22.0146 9.99315C22.4299 10.4368 22.4701 10.8804 22.1218 11.2299C21.76 11.5929 21.3044 11.5525 20.8489 11.0955C20.8087 11.0551 20.7819 11.0283 20.7417 10.9879C18.0083 8.21869 13.868 7.5331 10.4379 9.28068C6.96755 11.0551 5.07829 14.8326 5.70805 18.6773C6.2842 22.1724 8.89699 24.9282 12.4477 25.7886C15.8778 26.6086 19.375 25.3315 21.4786 22.5085C21.6662 22.2531 21.7332 21.9842 21.7332 21.675C21.7466 19.5914 22.1486 17.575 22.9123 15.6392C23.81 13.3539 26.0075 12.0902 28.3791 12.6549C29.2232 12.8565 29.7726 12.749 30.2817 12.1171C30.3085 12.0768 30.3621 12.0499 30.4023 12.023C30.5229 11.9424 30.5631 11.8483 30.5229 11.687C30.3219 10.5309 30.7775 9.68396 31.7288 9.02526C34.5694 7.04915 37.3966 5.04616 40.2371 3.0566C40.3711 2.9625 40.5185 2.85496 40.7195 2.70709C40.5587 2.69365 40.5051 2.6802 40.4649 2.6802C28.0977 2.6802 15.7171 2.6802 3.34983 2.6802C2.17072 2.6802 1.54097 3.35235 1.54097 4.54877C1.54097 12.7221 1.54097 20.9088 1.52757 29.0821C1.52757 29.4854 1.63476 29.566 2.02333 29.566C15.6367 29.5526 29.2366 29.5526 42.8499 29.566C43.2385 29.566 43.3323 29.4719 43.3323 29.0821C43.3189 22.3203 43.3189 15.5451 43.3189 8.78329C43.3859 8.63542 43.3859 8.50099 43.3859 8.36656ZM22.4969 31.1658C17.5393 31.1658 12.5817 31.1658 7.63749 31.1658C5.76164 31.1658 3.88579 31.1792 2.00993 31.1523C1.70176 31.1523 1.58117 31.2061 1.59457 31.5556C1.62137 32.6579 2.27791 33.3032 3.45702 33.3032C16.1458 33.3032 28.8346 33.3032 41.5234 33.3032C41.6038 33.3032 41.6842 33.3032 41.778 33.3032C42.7159 33.2763 43.3457 32.6176 43.3993 31.6766C43.4261 31.2599 43.3055 31.1523 42.8901 31.1523C36.0969 31.1658 29.3036 31.1658 22.4969 31.1658ZM46.3873 2.53233C46.3605 2.19626 46.2131 1.90051 45.8647 1.72575C45.4761 1.53755 45.1278 1.61821 44.7794 1.86018C40.7195 4.72353 36.6462 7.57343 32.5863 10.4368C32.0102 10.8401 31.9566 11.2971 32.4122 11.8348C32.9481 12.4801 33.4841 13.1254 34.02 13.7572C34.5426 14.3755 34.9446 14.4024 35.5207 13.8244C36.472 12.8834 37.41 11.9289 38.3613 10.9745C40.8669 8.4741 43.3591 5.97372 45.8647 3.45989C46.1327 3.21792 46.3873 2.9625 46.3873 2.53233ZM25.3643 21.1642C26.1548 21.2045 26.932 21.1777 27.7225 21.0836C29.9735 20.8013 31.2196 19.2822 30.9383 17.1448C30.9115 16.8894 30.8445 16.7281 30.5631 16.634C29.7056 16.3248 29.2098 15.693 29.0356 14.7923C29.0088 14.6444 29.0088 14.4965 28.8212 14.4428C28.1915 14.2546 27.5617 14.0798 26.9052 14.1739C25.4983 14.3755 24.7881 15.3434 24.3058 16.5533C23.7564 17.9245 23.5822 19.3763 23.4081 20.8147C23.3679 21.0836 23.4617 21.1777 23.7296 21.1777C24.2656 21.1642 24.8149 21.1642 25.3643 21.1642ZM22.6979 41.3689C23.2741 41.3824 24.0244 41.342 24.7747 41.2345C26.0075 41.0597 27.2134 40.8043 28.2853 40.1322C29.1428 39.5945 29.1428 39.1643 28.2987 38.6266C27.5617 38.1561 26.731 37.9141 25.8735 37.7125C25.6323 37.6587 25.4983 37.6587 25.3911 37.941C25.2169 38.3577 24.9221 38.7072 24.5738 39.003C22.9793 40.3338 20.6479 39.8499 19.6564 38.0082C19.5894 37.8872 19.6028 37.6184 19.3616 37.6721C18.2897 37.9141 17.2177 38.183 16.3468 38.9223C16.0118 39.2181 16.0252 39.5272 16.3468 39.823C16.7756 40.2128 17.2847 40.4548 17.8207 40.6565C19.3214 41.2076 20.9025 41.3689 22.6979 41.3689ZM22.4165 34.9163C21.9744 34.9567 21.2508 34.6878 20.9694 35.0239C20.7015 35.3465 20.8757 36.0455 20.8891 36.5832C20.9159 37.457 21.626 38.1292 22.4835 38.1292C23.3411 38.1292 24.0512 37.4705 24.0914 36.5967C24.1048 36.1396 24.078 35.696 24.1048 35.239C24.1182 34.9567 23.9976 34.9029 23.7564 34.9163C23.3411 34.9298 22.9123 34.9163 22.4165 34.9163ZM31.434 15.1687C31.8896 15.1418 32.2112 14.8326 32.4389 14.51C32.5595 14.3218 32.1978 14.1067 32.0504 13.905C31.9298 13.7303 31.769 13.569 31.635 13.4077C31.5546 13.3001 31.4742 13.2463 31.3536 13.3673C31.166 13.5555 30.9383 13.7034 30.7641 13.905C30.5497 14.1605 30.5497 14.4562 30.6971 14.7519C30.8579 15.0208 31.0991 15.1687 31.434 15.1687Z" fill="white"/>
<path d="M31.434 15.1687C31.0991 15.1687 30.8579 15.0342 30.6971 14.7385C30.5497 14.4428 30.5631 14.147 30.7641 13.8916C30.9383 13.69 31.1527 13.5286 31.3536 13.3539C31.4742 13.2463 31.5546 13.3001 31.635 13.3942C31.769 13.5555 31.9164 13.7168 32.0504 13.8916C32.1978 14.0932 32.5595 14.3218 32.4389 14.4965C32.2246 14.8326 31.8896 15.1418 31.434 15.1687Z" fill="white"/>
<path d="M9.80812 20.519C10.1431 19.4704 9.64734 18.5832 8.89699 17.7766C8.61562 17.4674 8.37444 17.1179 8.13326 16.7818C7.46331 15.8408 7.85188 14.6713 8.95059 14.3218C9.35256 14.2008 9.74113 14.026 10.1565 13.9723C11.3088 13.8109 12.0859 13.1926 12.6085 12.1709C12.7693 11.8483 13.0105 11.5525 13.2249 11.2568C13.9752 10.1814 15.1945 10.1814 15.9582 11.2568C16.4004 11.8886 16.8426 12.5204 17.2579 13.1657C17.4187 13.4077 17.5929 13.5421 17.8743 13.6227C18.6112 13.8244 19.3482 14.0395 20.0851 14.268C21.3714 14.6578 21.7466 15.8274 20.9427 16.9163C20.4737 17.5346 20.0181 18.153 19.5358 18.7445C19.3482 18.973 19.2812 19.1881 19.308 19.4839C19.3482 20.277 19.375 21.0567 19.3884 21.8498C19.4018 23.1 18.4102 23.8259 17.2177 23.4226C16.3334 23.1269 15.4491 22.5757 14.5648 22.5757C13.6938 22.5757 12.8363 23.1269 11.9654 23.4226C10.7728 23.8259 9.80812 23.1 9.80812 21.8364C9.80812 21.4331 9.80812 21.0298 9.80812 20.519ZM17.6733 21.8767C17.6733 20.9491 17.7001 20.0485 17.6599 19.1612C17.6465 18.7176 17.7671 18.3547 18.0485 18.0051C18.6112 17.3061 19.1338 16.5936 19.7099 15.8543C18.7854 15.572 17.9279 15.2897 17.057 15.0611C16.6282 14.9536 16.3602 14.7251 16.119 14.3755C15.6233 13.6227 15.1141 12.8968 14.5781 12.1171C14.0288 12.9103 13.5196 13.6496 13.0239 14.4024C12.7961 14.7654 12.4879 14.967 12.0859 15.088C11.215 15.33 10.3575 15.5988 9.44635 15.8677C10.0359 16.634 10.5719 17.3733 11.148 18.0992C11.4026 18.4084 11.483 18.7311 11.4696 19.1209C11.4428 20.035 11.4696 20.9626 11.4696 21.9036C12.3271 21.5944 13.1981 21.2986 14.0556 20.9895C14.404 20.8685 14.7255 20.8416 15.0739 20.976C15.9448 21.2852 16.8292 21.5809 17.6733 21.8767Z" fill="white"/>
</svg>
