<svg width="48" height="48" viewBox="0 0 48 48" fill="none" xmlns="http://www.w3.org/2000/svg">
<path d="M47.9996 23.9796C48.027 35.6648 39.5352 45.6517 27.8767 47.6569C26.5295 47.8885 25.1747 48.0044 23.8093 47.9999C22.4226 47.9954 21.3761 46.9845 21.3594 45.6517C21.3427 44.3039 22.3314 43.2524 23.7288 43.2283C28.2898 43.1516 32.3982 41.8008 35.9417 38.9351C39.9392 35.7024 42.3466 31.5416 42.9845 26.4557C44.154 17.1292 38.6528 8.60294 29.6324 5.68315C27.6929 5.05586 25.688 4.83323 23.6543 4.76554C21.9791 4.70838 20.9053 3.03562 21.5143 1.50427C21.8773 0.591179 22.7415 0 23.7713 0C28.7956 0.00300855 33.4037 1.38995 37.5182 4.24055C43.1576 8.14865 46.537 13.5084 47.7187 20.225C47.784 20.5935 47.8189 20.9681 47.8629 21.3396C47.9662 22.2181 48.0042 23.0981 47.9996 23.9796Z" fill="white"/>
<path d="M16.4976 23.9871C16.4976 21.663 16.4946 19.3389 16.4991 17.0148C16.5037 14.9299 18.2914 13.8107 20.1686 14.7359C24.9165 17.075 29.6567 19.4307 34.4031 21.7744C35.3326 22.2332 35.8794 22.9567 35.8855 23.9856C35.8915 25.0116 35.3615 25.7517 34.4304 26.212C29.6522 28.5767 24.8815 30.9519 20.0972 33.3031C18.3232 34.1741 16.5098 33.0354 16.5007 31.0738C16.49 28.7106 16.4976 26.3489 16.4976 23.9871Z" fill="white"/>
<path d="M6.41563 13.3023C5.08818 13.3008 4.00373 12.2267 3.99766 10.909C3.99158 9.57621 5.114 8.47056 6.45208 8.49313C7.77498 8.51569 8.86246 9.61682 8.8488 10.918C8.83513 12.2312 7.74005 13.3038 6.41563 13.3023Z" fill="white"/>
<path d="M11.9609 43.5141C11.9609 42.2039 13.0484 41.1208 14.3743 41.1118C15.7185 41.1028 16.8378 42.2129 16.8211 43.5397C16.8044 44.8469 15.6926 45.93 14.3773 45.921C13.0544 45.9119 11.9609 44.8228 11.9609 43.5141Z" fill="white"/>
<path d="M11.3761 4.76554C11.3807 3.43877 12.4515 2.38277 13.7895 2.38277C15.1276 2.38277 16.206 3.44027 16.2166 4.76103C16.2273 6.09833 15.1079 7.20246 13.7668 7.17839C12.4211 7.15433 11.37 6.09381 11.3761 4.76554Z" fill="white"/>
<path d="M2.55933 26.6918C3.89134 26.6903 4.9773 27.7523 4.99097 29.0701C5.00312 30.3743 3.91868 31.4619 2.58818 31.4799C1.23643 31.498 0.13072 30.4104 0.135277 29.0701C0.139833 27.7523 1.21972 26.6948 2.55933 26.6918Z" fill="white"/>
<path d="M4.82542 19.5601C4.82542 20.8823 3.75009 21.9594 2.42567 21.9654C1.07695 21.9729 -0.0120499 20.8793 0.000100699 19.53C0.0122513 18.2107 1.10733 17.1367 2.42719 17.1502C3.75616 17.1638 4.82694 18.2378 4.82542 19.5601Z" fill="white"/>
<path d="M6.85457 35.2301C8.20177 35.2406 9.24825 36.2891 9.24521 37.6264C9.24217 38.9848 8.16077 40.0302 6.78471 40.0092C5.44206 39.9881 4.40318 38.9231 4.42141 37.5858C4.43964 36.2515 5.50585 35.2196 6.85457 35.2301Z" fill="white"/>
</svg>
