<svg width="73" height="68" viewBox="0 0 73 68" fill="none" xmlns="http://www.w3.org/2000/svg">
<path d="M72.0813 59.7399C71.8375 59.8334 71.8938 60.0951 71.8375 60.282C70.7685 64.731 67.055 67.7033 62.4413 67.722C57.2462 67.7407 52.0324 67.722 46.8373 67.722C40.123 67.722 33.39 67.722 26.6758 67.722C21.8183 67.722 17.9547 64.5441 17.0358 59.796C16.9045 59.0856 16.8857 58.3566 16.8857 57.6275C16.8857 46.5049 16.8857 35.401 16.9045 24.2784C16.9045 23.6241 16.7732 23.4185 16.0793 23.4372C11.8407 23.4746 7.60205 23.3998 3.36345 23.4746C1.88181 23.4933 0.775274 23.1194 0.100098 21.7548C0.100098 19.4181 0.100098 17.0814 0.100098 14.7447C0.362666 14.6139 0.287646 14.3335 0.343911 14.1278C1.37543 9.80966 5.0889 6.76262 9.55256 6.76262C21.6495 6.72524 33.7276 6.74393 45.8245 6.74393C47.3812 6.74393 48.8253 7.1178 50.1944 7.84685C50.9446 8.23941 51.1884 8.87499 50.8883 9.51056C50.5507 10.1835 49.8756 10.3705 49.0879 9.95921C47.9813 9.3984 46.8185 9.118 45.5807 9.118C35.9594 9.118 26.3194 9.118 16.6982 9.118C16.5294 9.118 16.3793 9.118 16.2481 9.118C16.173 9.23016 16.2105 9.26755 16.2668 9.32363C18.3861 11.3425 19.3051 13.8288 19.3051 16.7262C19.2863 30.3912 19.3051 44.0561 19.2863 57.7023C19.2863 60.712 20.4679 63.0486 23.1686 64.488C27.4635 66.7686 32.7523 64.1329 33.5588 59.3473C33.8401 57.6275 34.6841 56.9172 36.4096 56.9172C41.6609 56.9172 46.9123 56.8985 52.1449 56.9359C52.7263 56.9359 52.8763 56.805 52.8763 56.2255C52.8576 49.8884 52.8576 43.57 52.8576 37.233C52.8576 37.0273 52.8388 36.803 52.8763 36.5974C52.9514 35.8683 53.4202 35.401 54.0954 35.4197C54.7518 35.4384 55.2019 35.8683 55.277 36.5787C55.2957 36.803 55.2957 37.046 55.2957 37.2704C55.2957 43.6074 55.2957 49.9258 55.277 56.2629C55.277 56.8237 55.427 56.9359 55.9709 56.9359C60.1907 56.9172 64.4106 56.9172 68.6304 56.9172C70.8998 56.9172 71.2936 57.1789 72.1001 59.1417C72.0813 59.366 72.0813 59.553 72.0813 59.7399ZM32.8461 65.3479C33.2587 65.3479 33.4838 65.3479 33.7089 65.3479C40.2168 65.3479 46.7247 65.3479 53.2514 65.3479C56.346 65.3479 59.4406 65.3666 62.5351 65.3479C65.8547 65.3105 68.6117 63.1421 69.4744 60.039C69.6432 59.4034 69.4744 59.3286 68.893 59.3286C59.7969 59.3473 50.7195 59.3473 41.6234 59.3473C39.9355 59.3473 38.2475 59.3473 36.5596 59.3473C36.297 59.3473 36.0157 59.2726 35.9594 59.7025C35.6031 61.8896 34.5903 63.7029 32.8461 65.3479ZM9.7026 21.0818C11.9344 21.0818 14.1475 21.0818 16.3793 21.0818C16.7544 21.0818 16.9045 21.0257 16.9045 20.5958C16.867 18.9881 16.9232 17.3805 16.8482 15.7729C16.6607 12.2772 13.6599 9.30493 10.209 9.15539C6.40174 8.98715 3.15714 11.5108 2.61325 15.0999C2.33193 16.9132 2.55699 18.7451 2.48197 20.5584C2.46321 20.9883 2.5945 21.1005 3.02586 21.1005C5.23894 21.0631 7.47077 21.0818 9.7026 21.0818Z" fill="white"/>
<path d="M72.0815 9.58538C70.8812 12.4642 68.5555 14.5205 66.6238 16.8758C59.1406 25.9982 51.5824 35.0646 44.0429 44.1496C43.5553 44.7291 43.0114 45.1964 42.3362 45.5703C39.3354 47.234 36.3534 48.9164 33.3526 50.5988C33.2213 50.6736 33.0901 50.7484 32.7712 50.9353C33.2213 50.954 33.4464 50.9727 33.6902 50.9727C38.2664 50.9727 42.8238 50.9727 47.4 50.9727C47.5876 50.9727 47.7751 50.9727 47.9627 50.9727C48.7504 51.0101 49.2568 51.4774 49.2755 52.1504C49.2943 52.842 48.7691 53.3655 47.9439 53.3655C46.1435 53.3842 44.343 53.3655 42.5238 53.3655C36.616 53.3655 30.7082 53.3655 24.8192 53.3655C24.6129 53.3655 24.3878 53.3655 24.1815 53.3655C23.3938 53.3281 22.8874 52.8607 22.8687 52.1878C22.8499 51.4961 23.375 50.9914 24.2002 50.9727C25.3068 50.954 26.3946 50.954 27.5011 50.9727C27.9325 50.9727 28.0262 50.8792 27.8387 50.468C27.5949 49.9072 27.6511 49.3277 27.8575 48.7669C29.2453 44.6169 30.6332 40.467 32.0398 36.317C32.1523 35.9805 32.3211 35.6815 32.5649 35.4197C41.6048 24.5215 50.6446 13.6232 59.6845 2.70619C61.6162 0.369506 64.467 0.0704104 66.8113 1.99584C67.6178 2.65011 68.368 3.34177 69.1932 3.95865C70.5248 4.9494 71.6313 6.0897 72.0627 7.75342C72.0815 8.37031 72.0815 8.9685 72.0815 9.58538ZM42.3737 42.355C42.5238 42.1868 42.6738 42.0372 42.8051 41.8877C44.5305 39.8127 46.2372 37.7377 47.9439 35.6815C51.5636 31.3072 55.2021 26.9329 58.8218 22.5586C59.0281 22.3156 59.2344 22.1287 58.8405 21.7922C56.5899 19.9789 54.3581 18.1096 52.1263 16.2589C51.8637 16.0346 51.7512 16.0533 51.5261 16.315C46.1247 22.8577 40.7045 29.3818 35.2844 35.9058C35.0218 36.2236 35.0781 36.3544 35.3782 36.5974C37.61 38.4107 39.8231 40.2427 42.0549 42.0746C42.1487 42.1681 42.2424 42.2429 42.3737 42.355ZM69.6996 8.51986C69.6621 7.84689 69.3995 7.23001 68.8556 6.76267C67.6178 5.73453 66.38 4.6877 65.1234 3.69694C64.0356 2.81835 62.6478 2.9679 61.7475 4.03342C60.3034 5.75322 58.8968 7.49171 57.4527 9.21151C57.2088 9.51061 57.2651 9.64146 57.5277 9.84709C59.7783 11.679 62.0101 13.5297 64.2419 15.3804C64.467 15.5673 64.5983 15.6421 64.8421 15.3617C66.2675 13.6045 67.7303 11.866 69.1557 10.1275C69.512 9.64146 69.6808 9.13674 69.6996 8.51986ZM60.791 20.278C60.8473 20.1846 60.8848 20.0911 60.9411 20.035C61.56 19.2686 62.1789 18.5209 62.8166 17.7731C63.0604 17.4927 62.8728 17.3806 62.6853 17.231C60.4347 15.3804 58.1653 13.511 55.9335 11.6417C55.6897 11.436 55.5772 11.4547 55.3896 11.6977C54.827 12.4081 54.2456 13.1184 53.6454 13.7914C53.3641 14.1092 53.4391 14.2587 53.7392 14.4831C55.971 16.2963 58.1841 18.1283 60.3972 19.9603C60.491 20.035 60.6035 20.1285 60.791 20.278ZM33.8965 38.4855C33.3526 40.0744 32.8462 41.5886 32.3399 43.0841C32.2648 43.3084 32.3774 43.4205 32.5274 43.5514C33.5964 44.43 34.6467 45.3086 35.7157 46.1872C35.8845 46.318 36.0158 46.3741 36.2221 46.262C37.61 45.4768 39.0166 44.6917 40.4607 43.8692C38.2289 42.0559 36.0908 40.2987 33.8965 38.4855ZM30.1268 49.6642C31.4021 48.9351 32.5462 48.2995 33.7277 47.6453C33.0338 47.0658 32.3961 46.5424 31.7397 46.0002C31.5147 45.8133 31.4021 45.7946 31.3083 46.1124C30.9333 47.2527 30.5582 48.3743 30.1268 49.6642Z" fill="#F64701"/>
<path d="M34.8907 15.0999C31.4773 15.0999 28.0451 15.0999 24.6317 15.0999C24.3692 15.0999 24.1066 15.0999 23.8628 15.0625C23.2439 14.9504 22.9063 14.5391 22.8875 13.9409C22.8688 13.3427 23.1689 12.9128 23.7878 12.7633C24.0316 12.7072 24.2942 12.6885 24.5567 12.6885C31.4398 12.6885 38.3228 12.6885 45.2059 12.6885C45.4309 12.6885 45.6747 12.6885 45.8998 12.7446C46.4999 12.8567 46.8938 13.3614 46.8938 13.9409C46.875 14.5204 46.4624 14.9878 45.8435 15.0812C45.581 15.1186 45.3371 15.1186 45.0746 15.1186C41.6799 15.0999 38.2853 15.0999 34.8907 15.0999Z" fill="#F64701"/>
<path d="M32.3959 21.0818C29.7514 21.0818 27.107 21.0818 24.4626 21.0818C23.4498 21.0818 22.8871 20.6519 22.8871 19.9042C22.8684 19.1564 23.4685 18.6891 24.4438 18.6891C29.8077 18.6891 35.1528 18.6891 40.5167 18.6891C41.4357 18.6891 41.9984 19.1564 41.9984 19.9042C41.9796 20.6145 41.4545 21.0632 40.6293 21.0632C37.8723 21.0818 35.1341 21.0818 32.3959 21.0818Z" fill="white"/>
<path d="M29.958 24.6897C31.8335 24.6897 33.7089 24.6897 35.5657 24.6897C36.4659 24.6897 37.0098 25.1197 37.0286 25.83C37.0473 26.5591 36.4847 27.0638 35.5657 27.0638C31.8147 27.0638 28.0825 27.0638 24.3315 27.0638C23.4125 27.0638 22.8499 26.5591 22.8686 25.83C22.8874 25.1197 23.4313 24.6897 24.3315 24.671C26.2257 24.6897 28.0825 24.6897 29.958 24.6897Z" fill="#F64701"/>
<path d="M27.5009 33.0457C26.4319 33.0457 25.3441 33.0644 24.2751 33.0457C23.3936 33.027 22.8684 32.541 22.8872 31.8306C22.906 31.139 23.4311 30.6716 24.2751 30.6529C26.4319 30.6342 28.5699 30.6342 30.7267 30.6529C31.5707 30.6529 32.0771 31.139 32.0771 31.8493C32.0771 32.5597 31.5707 33.027 30.7455 33.0457C29.6577 33.0644 28.5887 33.0457 27.5009 33.0457Z" fill="white"/>
</svg>
