<svg width="64" height="96" viewBox="0 0 64 96" fill="none" xmlns="http://www.w3.org/2000/svg">
<path d="M61.7574 82.397C62.9896 82.397 64 81.3953 64 80.1463V78.4892C64 77.8956 63.7659 77.3268 63.3469 76.9063C62.928 76.4859 62.3612 76.2509 61.7697 76.2509H61.6835C61.5849 75.7562 61.4493 75.274 61.2892 74.7917L61.3631 74.7546C61.8806 74.4578 62.2503 73.9755 62.3981 73.3943C62.5583 72.813 62.4721 72.2071 62.1763 71.6877L61.3508 70.2532C60.7347 69.1774 59.3546 68.8064 58.2949 69.4247C58.2949 69.4247 58.258 69.437 58.221 69.4742C57.8883 69.1032 57.531 68.7446 57.1613 68.4107L57.1983 68.3365C57.8144 67.2606 57.4447 65.8879 56.385 65.2696L54.9557 64.441C54.4382 64.1442 53.8344 64.0577 53.2553 64.2184C52.6762 64.3792 52.1956 64.7502 51.8999 65.2696C51.8999 65.2696 51.8875 65.2943 51.8629 65.3438C51.3823 65.183 50.9018 65.0594 50.4089 64.9481V64.8615C50.4089 63.6249 49.4108 62.6108 48.1663 62.6108H46.5275C45.2953 62.6108 44.2849 63.6249 44.2849 64.8615V64.9481C43.7921 65.047 43.3115 65.183 42.8309 65.3438L42.7939 65.2696C42.4982 64.7502 42.0177 64.3792 41.4386 64.2184C40.8594 64.0577 40.2557 64.1442 39.7381 64.441L38.3211 65.2696C37.8036 65.5663 37.4339 66.0487 37.2738 66.6299C37.1136 67.2111 37.1998 67.8171 37.4955 68.3365C37.4955 68.3365 37.5202 68.3736 37.5448 68.4107C37.1752 68.7446 36.8178 69.1032 36.4851 69.4742L36.4112 69.4247C35.3392 68.8064 33.9715 69.1774 33.3554 70.2532L32.5298 71.6877C32.2341 72.2071 32.1478 72.813 32.308 73.3943C32.4682 73.9755 32.8378 74.4578 33.3554 74.7546C33.3554 74.7546 33.38 74.7669 33.4293 74.7917C33.2691 75.274 33.1459 75.7562 33.035 76.2509H32.9487C32.3573 76.2509 31.7905 76.4859 31.3715 76.9063C30.9526 77.3268 30.7185 77.8956 30.7185 78.4892V80.1339C30.7185 81.3706 31.7166 82.3846 32.9611 82.3846H33.035C33.1459 82.8793 33.2691 83.3616 33.4293 83.8438L33.3554 83.881C32.2833 84.4993 31.926 85.8719 32.5421 86.9478L33.3677 88.3699C33.9838 89.4458 35.3515 89.8045 36.4235 89.1985C36.4235 89.1985 36.4605 89.1737 36.4975 89.149C36.8302 89.52 37.1875 89.8787 37.5571 90.2126L37.5202 90.2867C36.9041 91.3626 37.2737 92.7353 38.3334 93.3536L39.7628 94.1821C40.8348 94.8004 42.2025 94.4295 42.8186 93.3536C42.8186 93.3536 42.8309 93.3288 42.8556 93.2794C43.3361 93.4401 43.8167 93.5638 44.3096 93.6751V93.7493C44.3096 94.9859 45.3076 96 46.5522 96H48.191C49.4231 96 50.4336 94.9859 50.4336 93.7493V93.6751C50.9264 93.5762 51.407 93.4401 51.8875 93.2794L51.9245 93.3536C52.2202 93.873 52.7008 94.244 53.2799 94.3924C53.859 94.5531 54.4628 94.4665 54.9803 94.1697L56.4097 93.3412C57.4817 92.7229 57.8513 91.3502 57.2352 90.2744C57.2352 90.2744 57.2106 90.2373 57.186 90.2002C57.5556 89.8663 57.913 89.5077 58.2456 89.1367L58.3196 89.1737C59.3916 89.7921 60.7593 89.4211 61.3754 88.3576L62.201 86.9231C62.8171 85.8596 62.4474 84.4745 61.3754 83.8562C61.3754 83.8562 61.3508 83.8438 61.3015 83.8191C61.4494 83.3368 61.5849 82.8545 61.6958 82.3599H61.7574V82.397ZM47.3531 85.8596C43.7674 85.8596 40.8471 82.9287 40.8471 79.3301C40.8471 75.7315 43.7674 72.8007 47.3531 72.8007C50.9388 72.8007 53.859 75.7315 53.859 79.3301C53.859 82.9287 50.9388 85.8596 47.3531 85.8596Z" fill="white"/>
<path d="M22.8325 85.9585C23.7443 85.9585 24.4836 85.2165 24.4836 84.3014V83.0895C24.4836 82.6567 24.3111 82.2363 24.0031 81.9271C23.695 81.6179 23.2761 81.4448 22.8325 81.4448H22.7709C22.697 81.0862 22.5984 80.7275 22.4875 80.3689L22.5368 80.3442C22.9187 80.1216 23.1899 79.7753 23.3008 79.3425C23.4117 78.922 23.3624 78.4645 23.1406 78.0935L22.5368 77.0424C22.0809 76.2509 21.0705 75.9789 20.2819 76.4364C20.2819 76.4364 20.2572 76.4488 20.2326 76.4612C19.9861 76.1891 19.7274 75.9294 19.4563 75.6821L19.4932 75.6326C19.9492 74.8411 19.6781 73.8271 18.8895 73.3696L17.8421 72.7636C17.4601 72.541 17.0166 72.4791 16.5976 72.6028C16.1664 72.7141 15.8213 72.9862 15.5996 73.3696C15.5996 73.3696 15.5872 73.3943 15.5749 73.419C15.2176 73.3077 14.8602 73.2088 14.5029 73.1346V73.0727C14.5029 72.1576 13.7636 71.4157 12.8518 71.4157H11.6442C10.7324 71.4157 9.99306 72.1576 9.99306 73.0727V73.1346C9.63572 73.2088 9.27839 73.3077 8.92106 73.419L8.89643 73.3696C8.67463 72.9862 8.3173 72.7141 7.89835 72.6028C7.47941 72.4915 7.02347 72.541 6.6415 72.7636L5.59412 73.3696C5.21214 73.5922 4.94107 73.9508 4.83017 74.3713C4.71927 74.7917 4.76857 75.2492 4.99036 75.6202C4.99036 75.6202 5.00268 75.645 5.02733 75.6697C4.75624 75.917 4.49748 76.1767 4.25104 76.4488L4.18945 76.4117C3.40084 75.9541 2.39042 76.2262 1.93451 77.0176L1.33075 78.0688C1.10896 78.4522 1.04734 78.8974 1.17056 79.3178C1.28146 79.7383 1.55253 80.0969 1.93451 80.3195C1.93451 80.3195 1.95917 80.3318 1.98381 80.3442C1.87291 80.7028 1.77436 81.0614 1.70043 81.42H1.6388C1.19521 81.42 0.788583 81.5932 0.480535 81.9023C0.172487 82.2115 0 82.632 0 83.0648V84.2767C0 85.1918 0.739311 85.9338 1.65113 85.9338H1.71273C1.78666 86.2924 1.88525 86.651 1.99614 87.0096L1.94685 87.0344C1.15824 87.492 0.887174 88.506 1.34308 89.2974L1.94685 90.3486C2.40276 91.14 3.41318 91.4121 4.20178 90.9545C4.20178 90.9545 4.22641 90.9422 4.26337 90.9174C4.50981 91.1895 4.76858 91.4491 5.03966 91.6965L5.0027 91.746C4.54679 92.5374 4.81786 93.5515 5.60646 94.009L6.65383 94.615C7.44243 95.0725 8.45281 94.8005 8.90872 94.009C8.90872 94.009 8.92107 93.9843 8.93339 93.9595C9.29073 94.0708 9.64806 94.1697 10.0054 94.2439V94.3058C10.0054 95.2209 10.7447 95.9629 11.6565 95.9629H12.8641C13.7759 95.9629 14.5152 95.2209 14.5152 94.3058V94.2439C14.8726 94.1697 15.2299 94.0708 15.5872 93.9595L15.6118 94.009C15.8336 94.3924 16.191 94.6645 16.6099 94.7757C17.0412 94.887 17.4848 94.8376 17.8544 94.615L18.9018 94.009C19.6904 93.5515 19.9615 92.5374 19.5056 91.746C19.5056 91.746 19.4933 91.7212 19.4686 91.6965C19.7397 91.4491 20.0108 91.1895 20.2572 90.9174L20.3065 90.9421C21.0951 91.3997 22.1055 91.1276 22.5614 90.3362L23.1652 89.2851C23.6211 88.4936 23.35 87.4796 22.5614 87.022C22.5614 87.022 22.5368 87.0096 22.5121 86.9849C22.623 86.6386 22.7216 86.28 22.7955 85.909H22.8325V85.9585ZM12.2233 88.506C9.57411 88.506 7.43012 86.3419 7.43012 83.6955C7.43012 81.0491 9.57411 78.8849 12.2233 78.8849C14.8602 78.8849 17.0166 81.0491 17.0166 83.6955C17.0166 86.3419 14.8602 88.506 12.2233 88.506Z" fill="white"/>
<path d="M35.4995 62.5243C37.7667 62.2893 39.4178 60.2365 39.1837 57.9611C38.5799 52.2355 35.5364 46.7819 29.9053 41.3407L36.1279 27.07C41.4756 28.5168 50.8279 29.6298 59.2438 23.4837C60.131 22.8283 60.7224 21.8761 60.8949 20.7755C61.0674 19.6872 60.7963 18.5866 60.1556 17.6839C58.8125 15.8289 56.2249 15.4208 54.3767 16.7688C48.8564 20.8002 42.1903 20.3056 37.1506 18.7103C41.2415 17.6592 44.285 13.9369 44.285 9.50973C44.285 4.2664 40.0339 0 34.8094 0C29.585 0 25.3339 4.2664 25.3339 9.50973C25.3339 11.983 26.2827 14.2337 27.8352 15.9155C27.7613 15.9526 27.6751 16.002 27.6011 16.0391C14.2195 14.6046 6.35814 22.4696 3.77054 25.0789C2.99425 25.858 2.56297 26.9091 2.56297 28.0098C2.56297 29.1104 2.99425 30.1616 3.77054 30.9406C4.54682 31.7197 5.59417 32.1525 6.69082 32.1525C7.7998 32.1525 8.83483 31.7197 9.61111 30.9406C12.3219 28.22 16.5853 24.6833 22.9681 24.2133L17.1521 37.5442C17.0412 37.8039 16.9427 38.0883 16.8934 38.3728C14.811 48.5503 9.82059 55.2158 2.95728 62.1162C2.181 62.8953 1.74972 63.9464 1.74972 65.047C1.74972 66.1476 2.181 67.1987 2.95728 67.9778C3.73357 68.7569 4.78092 69.1898 5.87757 69.1898C6.98655 69.1898 8.02158 68.7569 8.79786 67.9778C14.3674 62.3882 19.9369 55.8959 23.2268 46.4109C27.9954 50.7515 30.5337 54.8201 30.9527 58.8268C31.1991 61.1022 33.2322 62.7593 35.4995 62.5243Z" fill="white"/>
</svg>
