<svg width="25" height="24" viewBox="0 0 25 24" fill="none" xmlns="http://www.w3.org/2000/svg">
<path d="M24.9541 12.9897C24.9541 16.1324 24.9541 19.2752 24.9541 22.4107C24.8807 22.4327 24.8807 22.5061 24.866 22.5575C24.5651 23.4607 23.8533 23.9967 22.9066 23.9967C16.2795 23.9967 9.64518 24.0041 3.01816 23.9967C1.82926 23.9967 0.970614 23.1229 0.963275 21.9334C0.955936 19.0182 0.963275 16.1031 0.955936 13.1953C0.955936 13.0264 1.00731 12.9897 1.16143 12.9897C3.0622 12.997 4.95563 12.997 6.8564 12.9897C7.0252 12.9897 7.06923 13.0558 7.09125 13.1953C7.23069 13.9589 7.53892 14.6492 7.9499 15.3027C9.32961 17.4689 12.1918 18.5336 14.6356 17.7552C16.8813 17.0356 18.2831 15.5083 18.8115 13.2026C18.8481 13.0484 18.8995 12.997 19.0683 12.997C20.9397 13.0044 22.8185 13.0044 24.6899 13.0044C24.7853 12.997 24.866 12.9897 24.9541 12.9897Z" fill="white"/>
<path d="M24.9541 1.63748C24.9541 4.76557 24.9541 7.88632 24.9541 11.0144C24.866 11.0071 24.7853 10.9997 24.6972 10.9997C22.9359 10.9997 21.1672 10.9997 19.4059 10.9997C18.8848 10.9997 18.8848 10.9997 18.7601 10.5004C18.7527 10.4637 18.7381 10.427 18.7234 10.3903C17.9528 7.96709 16.3309 6.48382 13.821 6.07261C11.9863 5.77155 10.3424 6.30759 8.95533 7.5412C7.97191 8.41501 7.34811 9.51645 7.09125 10.8162C7.06923 10.9263 7.04721 11.0071 6.88576 11.0071C4.96297 10.9997 3.04752 10.9997 1.12473 11.0071C0.992631 11.0071 0.955936 10.9704 0.955936 10.8382C0.955936 7.89366 0.948597 4.94914 0.963275 2.00462C0.970614 1.18221 1.38159 0.572749 2.11548 0.190917C2.25492 0.117487 2.43839 0.132173 2.54848 0C9.45437 0 16.3603 0 23.2662 0C23.2735 0.0514006 23.3175 0.0440577 23.3542 0.0514006C23.9634 0.190917 24.411 0.536035 24.7193 1.07941C24.822 1.25564 24.8293 1.46859 24.9541 1.63748ZM20.4407 5.99918C20.6242 5.99918 20.815 6.00653 20.9984 5.99918C21.5195 5.96981 21.9231 5.56595 21.9452 5.05194C21.9598 4.6848 21.9598 4.31765 21.9452 3.9505C21.9231 3.4365 21.5122 3.03264 20.9911 3.01061C20.6315 2.99592 20.2719 2.99592 19.9123 3.01061C19.3839 3.03264 18.9729 3.44384 18.9509 3.97253C18.9362 4.33234 18.9362 4.69214 18.9509 5.05194C18.9729 5.58064 19.3839 5.9845 19.9196 6.00653C20.0958 6.00653 20.2719 5.99918 20.4407 5.99918Z" fill="white"/>
<path d="M12.9624 16.0003C10.7534 16.0076 8.95533 14.2159 8.96266 11.9984C8.96266 9.78814 10.7387 8.01849 12.9477 8.00381C15.1567 7.99646 16.9547 9.78814 16.9474 12.0057C16.9474 14.2159 15.1714 15.9929 12.9624 16.0003Z" fill="white"/>
</svg>
