<svg width="164" height="164" viewBox="0 0 164 164" fill="none" xmlns="http://www.w3.org/2000/svg">
<path d="M49.4275 163.966C48.8097 163.315 47.9172 163.349 47.1278 163.041C44.5534 161.98 42.4253 160.337 40.7777 158.077C40.2285 157.324 40.2971 156.878 41.1553 156.536C41.2926 156.468 41.4299 156.365 41.5672 156.296C42.5283 155.749 43.455 154.927 44.4848 154.721C45.7548 154.448 45.995 156.057 46.8532 156.673C48.6037 157.906 50.4572 158.488 52.5511 158.488C72.2877 158.488 92.0244 158.522 111.761 158.488C116.978 158.488 120.308 155.132 120.48 149.894C120.548 147.805 120.411 145.717 120.514 143.663C120.583 142.362 120.136 142.122 118.935 142.122C103.729 142.156 88.5576 142.156 73.3518 142.156C71.1893 142.156 71.1893 142.156 71.1893 139.931C71.1893 136.678 71.1893 136.678 74.5188 136.678C89.2784 136.678 104.038 136.678 118.832 136.712C120.136 136.712 120.617 136.438 120.548 135.069C120.445 132.364 120.548 129.625 120.48 126.92C120.445 126.03 120.72 125.756 121.647 125.722C126.006 125.619 126.006 125.585 126.006 129.967C126.006 136.473 126.04 142.978 126.006 149.483C125.971 155.441 123.5 159.96 118.042 162.665C116.841 163.247 115.502 163.555 114.232 164C92.6423 163.966 71.052 163.966 49.4275 163.966Z" fill="#014F88"/>
<path d="M82.3448 0C92.0931 0 101.807 0 111.555 0C114.85 0 117.871 0.787474 120.548 2.80752C121.269 3.35532 121.269 3.66347 120.685 4.21127C120.48 4.38246 120.342 4.62213 120.136 4.79332C119.415 5.58079 118.866 6.67641 117.974 7.1215C116.944 7.63507 116.223 6.26555 115.228 5.99165C114.027 5.68351 112.859 5.44384 111.589 5.44384C91.9557 5.44384 72.3221 5.44384 52.6884 5.44384C46.8188 5.44384 43.0774 9.79207 43.7639 15.6125C43.9012 16.6397 44.5191 16.3315 44.9996 16.3315C49.2902 16.3658 53.5465 16.3315 57.837 16.3315C67.242 16.3315 76.6813 16.3658 86.0862 16.2973C87.2533 16.2973 87.7682 16.5027 87.5965 17.7695C87.4249 19.0706 88.1457 20.8167 87.2876 21.6042C86.5668 22.2547 84.8506 21.8096 83.5805 21.8096C70.8461 21.8096 58.1116 21.8438 45.3772 21.7754C44.0042 21.7754 43.6953 22.1862 43.7296 23.453C43.7983 27.3904 43.7639 31.362 43.7296 35.2994C43.7296 36.1896 43.8669 36.5319 44.8967 36.258C45.9264 35.9841 46.9905 35.8472 48.0545 35.8129C49.0499 35.7445 49.2902 35.2994 49.2559 34.3749C49.1872 32.5261 49.2902 30.643 49.2216 28.7599C49.1529 27.6301 49.3932 27.185 50.6975 27.2192C54.7478 27.2877 54.7478 27.2192 54.7478 31.2935C54.7478 32.663 54.3359 34.3407 54.9538 35.3679C55.5716 36.3608 57.4252 35.8814 58.6952 36.1553C74.0726 39.271 85.2968 51.357 87.219 66.9695C87.3563 67.9624 87.6652 68.339 88.6949 68.2706C90.7201 68.1678 92.7452 68.2706 94.8047 68.2363C95.5599 68.2363 95.9031 68.476 95.8001 69.2292C95.8001 69.3319 95.8001 69.4347 95.8001 69.5374C95.8688 73.7144 95.8688 73.6802 91.7155 73.7144C90.3425 73.7144 88.6606 73.1666 87.6652 73.9198C86.7041 74.6731 87.1503 76.4192 86.8757 77.7203C83.8551 93.0589 71.4639 104.494 55.8805 106.206C54.8508 106.309 54.6792 106.686 54.6792 107.576C54.7478 109.596 54.6792 111.616 54.7135 113.67C54.7135 114.423 54.5076 114.663 53.7181 114.697C49.2216 114.971 49.2216 115.005 49.1872 110.486C49.1872 109.151 49.7364 107.542 48.9813 106.583C48.2605 105.693 46.5786 106.104 45.3429 105.864C29.8968 102.851 18.5696 90.7649 16.6475 75.0497C16.5102 73.8171 16.0639 73.5775 14.9656 73.6459C13.0434 73.7144 11.1212 73.6459 9.19901 73.6802C8.37522 73.7144 8.13494 73.4747 8.10062 72.6188C7.96332 68.1679 7.929 68.2021 12.4255 68.1679C13.6955 68.1679 15.3088 68.5787 16.2012 67.9967C17.0937 67.3804 16.7161 65.6342 16.9907 64.4359C19.4964 52.6238 26.1554 43.9958 37.105 38.7232C38.0317 38.2781 38.3063 37.7987 38.3063 36.8058C38.272 29.342 38.272 21.8781 38.272 14.38C38.272 8.49102 40.7434 4.00585 46.0637 1.26681C48.2261 0.34238 50.4916 0 52.8256 0C62.6768 0 72.528 0 82.3448 0ZM71.258 94.1545C71.7385 93.7779 71.9788 93.6067 72.1848 93.4012C77.0245 88.9161 80.1824 83.5065 81.5211 77.0355C82.2076 73.7829 82.2076 73.7829 78.9467 73.7829C76.7156 73.7829 76.7156 73.7829 76.7156 71.5232C76.7156 68.3048 76.7156 68.3048 79.9421 68.3048C82.1046 68.3048 82.1046 68.3048 81.7613 66.1478C81.7613 66.0451 81.727 65.9424 81.6927 65.8397C78.8781 53.1716 71.258 45.0572 58.6265 41.7704C54.8508 40.7775 54.7478 40.8459 54.8508 44.7148C54.8851 46.0843 54.5762 46.6321 53.1346 46.461C51.9332 46.2898 50.32 46.8033 49.5991 46.1871C48.844 45.5365 49.2902 43.8931 49.3932 42.6948C49.5305 41.2568 48.9126 41.1541 47.7456 41.3253C43.4207 42.01 39.3704 43.448 35.732 45.8789C28.1119 50.9461 23.6497 58.0334 22.2424 67.038C22.1051 67.9967 22.2767 68.4075 23.3408 68.3048C24.4048 68.2021 25.4689 68.3048 26.533 68.2706C26.9792 68.2706 27.4254 68.3048 27.3911 68.9211C27.3568 70.4618 27.7686 72.2079 27.1851 73.4747C26.8076 74.2965 24.9197 73.6459 23.7183 73.7486C23.6154 73.7486 23.5124 73.7486 23.4094 73.7486C22.2424 73.5432 22.1051 74.091 22.2424 75.0839C22.8945 79.1925 24.1646 83.0271 26.327 86.5879C28.0432 89.3612 30.0341 91.8605 32.8144 94.0518C32.883 93.0246 32.9517 92.2714 33.0203 91.4839C33.5352 85.1157 36.5214 80.1854 41.9447 76.7616C43.0774 76.0426 43.0774 75.7002 42.1507 74.7758C37.5512 70.1194 37.1736 62.5186 41.1896 57.1775C45.1369 51.939 52.6884 50.2614 58.4549 53.377C66.5898 57.7595 68.2717 68.339 61.8187 74.947C61.0292 75.7687 61.0979 76.0768 62.059 76.5904C63.432 77.3094 64.599 78.3365 65.6974 79.4322C69.5761 83.4722 71.2923 88.334 71.258 94.1545ZM38.375 94.0175C38.375 94.7708 38.4436 95.524 38.375 96.243C38.2377 97.4071 38.6496 98.0234 39.7823 98.5027C42.4596 99.5983 45.2056 100.386 48.0545 100.831C48.9813 100.968 49.4618 100.865 49.3589 99.7353C49.2559 98.7766 49.3932 97.818 49.3245 96.8593C49.2216 95.8664 49.5648 95.524 50.5602 95.6267C51.9332 95.7637 53.6838 95.0789 54.5762 95.9349C55.4 96.7223 54.8508 98.4685 54.7822 99.7695C54.7478 100.899 55.2284 100.968 56.0865 100.831C59.1757 100.352 62.1276 99.4956 64.9423 98.1946C65.5601 97.9207 65.8004 97.544 65.766 96.8593C65.6974 94.9077 65.766 92.9219 65.5258 90.9704C64.599 83.1641 56.2924 77.5491 48.7067 79.7061C42.0477 81.5891 38.4093 86.6564 38.375 94.0175ZM43.9012 65.3603C43.7639 69.8797 47.2307 73.5775 51.7616 73.7144C56.3954 73.8856 60.2398 70.2221 60.2741 65.6342C60.3428 61.2518 56.67 57.4856 52.1735 57.3486C47.8142 57.2459 44.0042 60.8752 43.9012 65.3603Z" fill="#014F88"/>
<path d="M126.04 77.823C131.463 73.0639 136.543 68.5787 141.624 64.1278C144.335 61.7311 147.047 59.3002 149.827 56.9378C153.74 53.6509 159.06 54.096 162.321 57.691C164.552 60.1219 164.69 66.5587 161.944 69.5031C156.726 75.0154 151.852 80.8017 146.807 86.4852C139.255 95.0104 131.738 103.536 124.187 112.027C123.603 112.677 123.226 113.362 123.088 114.252C121.509 124.524 113.855 131.097 103.42 131.166C97.585 131.2 91.7498 131.166 85.9146 131.166C84.3357 131.166 82.8597 130.926 82.3105 129.18C81.7957 127.468 82.8254 126.475 84.1297 125.688C86.6011 124.181 87.6309 121.922 87.6309 119.114C87.6309 115.485 87.4249 111.856 88.7979 108.363C91.6125 101.105 96.9328 96.962 104.622 95.7979C105.342 95.6952 105.926 95.5583 106.475 95.0447C110.972 91.0388 115.537 87.033 120.068 83.0614C120.617 82.582 121.132 82.2054 120.548 81.418C120.411 81.2468 120.514 80.9044 120.514 80.6305C120.514 72.4818 120.548 64.299 120.48 56.1503C120.48 54.9862 120.72 54.6096 121.956 54.6438C126.006 54.7123 126.006 54.6438 126.006 58.7182C126.04 64.9495 126.04 71.1808 126.04 77.823ZM155.456 60.1904C154.633 60.1219 153.843 60.6697 153.122 61.3203C139.324 73.4405 125.56 85.595 111.727 97.7152C110.937 98.4 111.006 98.7424 111.692 99.4271C114.335 101.995 116.978 104.563 119.518 107.233C120.342 108.089 120.72 107.781 121.338 107.096C133.351 93.4697 145.365 79.8772 157.413 66.2848C157.825 65.8054 158.271 65.2919 158.546 64.744C159.575 62.6213 158.031 60.1904 155.456 60.1904ZM98.4774 125.722C100.125 125.722 101.773 125.756 103.455 125.722C111.04 125.585 116.498 121.031 117.631 114.013C117.734 113.328 117.596 112.951 117.15 112.472C113.546 108.911 109.976 105.316 106.372 101.755C105.96 101.344 105.583 101.173 104.965 101.276C100.434 102.063 97.0015 104.392 94.7704 108.432C93.6033 110.52 93.2258 112.814 93.1228 115.177C93.0198 118.498 93.5004 121.887 91.8871 125.037C91.4409 125.893 92.299 125.688 92.6766 125.688C94.6331 125.722 96.5553 125.722 98.4774 125.722Z" fill="#014F88"/>
<path d="M126.006 49.2C116.429 49.2 106.853 49.2 97.2761 49.2C93.9466 49.2 93.1228 48.3783 93.1228 45.023C93.1228 35.0597 93.1228 25.0622 93.1228 15.099C93.1228 11.7094 93.9123 10.8877 97.2418 10.8877C116.429 10.8877 135.651 10.8877 154.839 10.8877C158.099 10.8877 158.889 11.7094 158.889 14.962C158.889 25.0965 158.889 35.2309 158.889 45.3653C158.889 48.2756 157.996 49.1658 155.044 49.1658C145.365 49.2342 135.685 49.2 126.006 49.2ZM125.971 43.7219C134.621 43.7219 143.305 43.6877 151.955 43.7562C153.191 43.7562 153.431 43.4138 153.431 42.2497C153.363 34.101 153.397 25.9182 153.431 17.7695C153.431 16.6739 153.191 16.3315 152.058 16.3315C134.724 16.3658 117.39 16.3658 100.091 16.3315C98.8893 16.3315 98.5804 16.6054 98.5804 17.838C98.6491 25.9524 98.6491 34.0668 98.5804 42.1812C98.5804 43.4138 98.855 43.7904 100.159 43.7904C108.775 43.7219 117.356 43.7219 125.971 43.7219Z" fill="#014F88"/>
<path d="M32.9173 150.271C23.2378 150.271 13.5582 150.271 3.87869 150.271C0.823792 150.271 0 149.415 0 146.367C0 139.862 0 133.357 0 126.852C0 123.839 0.858116 122.983 3.94734 122.983C14.8969 122.983 25.8808 122.949 36.8304 123.017C38.1347 123.017 38.4093 122.675 38.375 121.442C38.3063 117.813 38.375 114.184 38.3406 110.554C38.3406 109.596 38.5809 109.219 39.6107 109.288C40.6061 109.356 41.6358 109.39 42.6656 109.288C43.7296 109.185 43.9012 109.664 43.9012 110.589C43.8669 114.321 43.9356 118.053 43.8669 121.785C43.8669 122.777 44.1072 123.017 45.1026 123.017C50.7662 122.983 56.4297 122.983 62.1276 122.983C64.8393 122.983 65.8004 123.942 65.8347 126.612C65.8347 133.289 65.8347 139.965 65.8347 146.607C65.8347 149.312 64.9079 150.271 62.1963 150.271C52.3794 150.271 42.6656 150.271 32.9173 150.271ZM32.8144 144.827C41.5328 144.827 50.2513 144.827 58.9354 144.827C59.8965 144.827 60.3427 144.724 60.3084 143.56C60.2398 138.938 60.2398 134.281 60.3084 129.659C60.3084 128.666 60.0682 128.427 59.0727 128.427C41.6015 128.461 24.1302 128.461 6.65898 128.427C5.62924 128.427 5.4233 128.735 5.45762 129.694C5.49195 134.213 5.52627 138.767 5.45762 143.286C5.4233 144.519 5.73222 144.861 7.00223 144.861C15.6177 144.792 24.1989 144.827 32.8144 144.827Z" fill="#014F88"/>
<path d="M16.5102 38.2438C12.2196 38.2438 7.96332 38.2438 3.67274 38.2438C0.926766 38.2438 0 37.3194 0 34.6146C0 27.9382 0 21.296 0 14.6196C0 11.9148 0.961091 10.9219 3.63841 10.9219C12.1853 10.9219 20.7321 10.9219 29.2789 10.9219C31.8533 10.9219 32.8487 11.8806 32.8487 14.5169C32.883 21.2276 32.8487 27.9382 32.8487 34.6831C32.8487 37.3879 31.9219 38.2781 29.1416 38.2781C24.954 38.2781 20.7321 38.2438 16.5102 38.2438ZM16.5102 32.7658C19.7024 32.7658 22.9289 32.7315 26.1211 32.8C27.0822 32.8342 27.3911 32.5603 27.3911 31.5674C27.3224 26.9111 27.3224 22.2889 27.3911 17.6326C27.3911 16.5027 27.0135 16.3315 26.0181 16.3315C19.5994 16.3658 13.1807 16.3658 6.76196 16.3315C5.73222 16.3315 5.4233 16.6054 5.4233 17.6668C5.49195 22.2547 5.49195 26.8426 5.4233 31.4305C5.38897 32.6288 5.80087 32.8 6.86493 32.8C10.0914 32.7315 13.318 32.7658 16.5102 32.7658Z" fill="#014F88"/>
<path d="M84.9535 150.373C84.9535 153.078 84.9535 153.078 82.3105 153.078C79.4616 153.078 79.4616 153.078 79.4616 150.134C79.4616 147.6 79.4616 147.6 81.933 147.6C82.0359 147.6 82.1389 147.6 82.2419 147.6C84.9535 147.6 84.9535 147.6 84.9535 150.373Z" fill="#014F88"/>
<path d="M125.971 38.2438C119.244 38.2438 112.516 38.2096 105.754 38.2781C104.484 38.2781 103.969 38.0727 104.004 36.6689C104.107 32.8 104.038 32.7658 107.917 32.7658C120.685 32.7658 133.454 32.8 146.257 32.7315C147.562 32.7315 148.145 32.9712 147.939 34.3749C147.768 35.6418 148.488 37.3194 147.63 38.0384C146.91 38.6547 145.296 38.2438 144.061 38.2438C138.054 38.2438 132.013 38.2438 125.971 38.2438Z" fill="#014F88"/>
<path d="M134.278 27.3219C130.125 27.3219 125.937 27.2877 121.784 27.3562C120.788 27.3562 120.48 27.0823 120.548 26.0894C120.617 25.0964 120.617 24.0693 120.548 23.0422C120.48 22.015 120.926 21.8096 121.853 21.8096C130.125 21.8438 138.397 21.8438 146.704 21.8096C147.802 21.8096 148.111 22.152 148.008 23.1791C147.871 24.4802 148.557 26.1921 147.768 27.048C146.978 27.904 145.262 27.2877 143.923 27.3219C140.697 27.3219 137.47 27.3219 134.278 27.3219Z" fill="#014F88"/>
<path d="M109.77 21.8438C111.143 21.8438 112.551 21.9123 113.924 21.8096C114.885 21.7754 115.056 22.1177 115.091 23.0079C115.194 27.2877 115.228 27.2877 111.006 27.2877C109.049 27.2877 107.059 27.2534 105.102 27.2877C104.347 27.2877 104.141 27.048 104.072 26.2948C103.832 21.8096 103.832 21.8096 108.329 21.8096C108.809 21.8438 109.29 21.8438 109.77 21.8438Z" fill="#014F88"/>
<path d="M42.3566 139.349C38.6839 139.349 34.9768 139.314 31.3041 139.383C30.4116 139.383 30.0684 139.177 30.1371 138.253C30.2743 136.849 29.5535 135 30.446 134.144C31.1325 133.46 32.986 133.939 34.2903 133.939C40.6404 133.939 47.0248 133.973 53.3748 133.905C54.4732 133.905 54.9538 134.11 54.8165 135.309C54.6449 136.61 55.3657 138.322 54.5419 139.143C53.7181 139.965 52.0019 139.349 50.6975 139.383C47.9172 139.383 45.1369 139.349 42.3566 139.349Z" fill="#014F88"/>
<path d="M17.8145 139.349C15.8923 139.349 13.9701 139.314 12.048 139.349C11.2585 139.383 10.9496 139.212 10.9152 138.322C10.7779 133.871 10.7436 133.871 15.1715 133.871C17.9518 133.871 20.7321 133.905 23.5124 133.836C24.3705 133.836 24.7824 134.008 24.6794 134.966C24.5421 136.37 25.2629 138.219 24.3705 139.109C23.684 139.794 21.8305 139.314 20.5261 139.314C19.6337 139.349 18.7069 139.349 17.8145 139.349Z" fill="#014F88"/>
<path d="M16.4072 27.3219C14.9656 27.3219 13.5239 27.2534 12.0823 27.3562C11.1555 27.3904 10.9496 27.048 10.9496 26.1578C10.8809 21.8438 10.8466 21.8438 15.2058 21.8438C17.0594 21.8438 18.9472 21.8781 20.8007 21.8438C21.5902 21.8096 21.8991 22.015 21.9335 22.871C22.1394 27.3219 22.1737 27.3219 17.6772 27.3219C17.2653 27.3219 16.8191 27.3219 16.4072 27.3219Z" fill="#014F88"/>
</svg>
