<svg width="73" height="65" viewBox="0 0 73 65" fill="none" xmlns="http://www.w3.org/2000/svg">
<path d="M34.5447 1.73052C43.9709 1.73052 53.3769 1.73052 62.8031 1.73052C63.185 1.73052 63.5869 1.67049 63.9286 1.79054C64.9335 2.17069 65.637 1.71051 66.3605 1.13027C67.4056 0.309943 68.5713 -0.0502029 69.8777 0.289934C72.7317 1.03023 73.7567 4.4316 71.767 6.57247C70.8224 7.59288 69.7973 8.57327 68.7924 9.53366C68.4307 9.8738 68.3101 10.2339 68.3101 10.7141C68.3302 22.839 68.3302 34.9639 68.3101 47.0888C68.3101 49.5698 66.9032 51.4105 64.612 52.0108C64.0894 52.1508 63.5668 52.1308 63.0443 52.1308C55.4069 52.1308 47.7695 52.1308 40.1522 52.1508C39.8708 52.1508 39.3281 51.8907 39.4085 52.531C39.4688 53.0112 38.9664 53.7515 39.9914 53.9116C41.4787 54.1517 42.9057 54.6318 44.2121 55.4122C44.614 55.6523 45.016 55.9324 45.3577 56.2525C47.066 57.7931 47.0459 59.874 45.2773 61.3746C43.8101 62.5951 42.0615 63.1953 40.2326 63.5555C35.6501 64.4758 31.1079 64.4158 26.646 62.9152C25.5808 62.555 24.5759 62.0348 23.7318 61.2745C22.1038 59.7739 22.1038 57.8131 23.7318 56.3125C25.0382 55.112 26.6862 54.5518 28.3544 54.0916C28.4951 54.0516 28.6559 54.0316 28.7966 53.9916C29.7613 53.7715 29.9422 53.4514 29.7613 52.451C29.7211 52.2309 29.6407 52.1508 29.4196 52.1508C29.2387 52.1508 29.0779 52.1508 28.8971 52.1508C21.3199 52.1508 13.7227 52.0908 6.14564 52.1909C2.94999 52.2309 0.779356 49.8699 0.799455 46.8687C0.839652 33.5834 0.799455 20.338 0.799455 7.09268C0.799455 3.6713 2.7691 1.73052 6.22603 1.73052C15.6723 1.73052 25.0984 1.73052 34.5447 1.73052ZM65.8782 12.6149C65.8179 12.5749 65.7576 12.5149 65.6772 12.4748C65.5365 12.6749 65.3958 12.895 65.235 13.0551C62.0796 16.1963 58.904 19.3376 55.7486 22.4989C54.623 23.6193 53.3166 24.0195 51.7691 23.5393C51.6284 23.4993 51.4274 23.3993 51.347 23.4593C50.744 23.8594 50.121 24.2596 49.6185 24.7598C49.3573 25.0199 49.5984 25.4801 49.6386 25.8402C49.9401 28.7414 48.2116 32.8631 43.9307 33.7034C41.4184 34.2036 38.886 34.1836 36.3536 34.0836C35.9114 34.0636 35.6501 34.1836 35.3687 34.5638C31.4697 39.9459 26.224 42.1468 19.6518 41.0264C11.2707 39.6058 5.58288 31.6426 6.96967 23.3392C8.77853 12.5549 20.5562 6.8926 30.1633 12.1947C31.5299 12.955 32.756 13.8954 33.8212 15.0359C34.4442 15.6961 34.5045 16.3564 33.982 16.8766C33.4393 17.4168 32.7559 17.3568 32.0726 16.6765C32.0123 16.6165 31.9721 16.5765 31.9118 16.5165C27.8117 12.3948 21.6013 11.3744 16.4561 13.9755C11.2506 16.6165 8.41676 22.2388 9.36138 27.9611C10.2256 33.1632 14.1448 37.2648 19.4709 38.5454C24.6161 39.7659 29.8618 37.8651 33.0172 33.6634C33.2986 33.2832 33.3991 32.8831 33.3991 32.4229C33.4192 29.3216 34.0222 26.3204 35.1678 23.4393C36.5144 20.0379 39.8105 18.1571 43.3679 18.9975C44.6341 19.2976 45.4582 19.1375 46.2219 18.1972C46.2621 18.1371 46.3425 18.0971 46.4028 18.0571C46.5837 17.9371 46.644 17.797 46.5837 17.5569C46.2822 15.8362 46.9655 14.5757 48.3925 13.5953C52.6534 10.6541 56.8942 7.67291 61.155 4.71172C61.356 4.57166 61.5771 4.4116 61.8786 4.19151C61.6374 4.1715 61.557 4.15149 61.4967 4.15149C42.9459 4.15149 24.3749 4.15149 5.82406 4.15149C4.0554 4.15149 3.11077 5.1519 3.11077 6.93261C3.11077 19.0975 3.11077 31.2824 3.09068 43.4473C3.09068 44.0476 3.25146 44.1676 3.83432 44.1676C24.2543 44.1476 44.6542 44.1476 65.0742 44.1676C65.6571 44.1676 65.7978 44.0276 65.7978 43.4473C65.7777 33.3833 65.7777 23.2992 65.7777 13.2352C65.8782 13.0151 65.8782 12.815 65.8782 12.6149ZM34.5447 46.5486C27.1083 46.5486 19.6719 46.5486 12.2556 46.5486C9.44178 46.5486 6.628 46.5686 3.81422 46.5286C3.35195 46.5286 3.17107 46.6086 3.19117 47.1288C3.23136 48.7695 4.21619 49.7299 5.98485 49.7299C25.0181 49.7299 44.0513 49.7299 63.0845 49.7299C63.2051 49.7299 63.3257 49.7299 63.4663 49.7299C64.8732 49.6899 65.8179 48.7095 65.8983 47.3089C65.9385 46.6886 65.7576 46.5286 65.1345 46.5286C54.9446 46.5486 44.7547 46.5486 34.5447 46.5486ZM70.3802 3.9314C70.34 3.4312 70.1189 2.99102 69.5964 2.73092C69.0135 2.45081 68.491 2.57085 67.9684 2.931C61.8786 7.19272 55.7686 11.4344 49.6788 15.6961C48.8146 16.2964 48.7342 16.9767 49.4175 17.777C50.2215 18.7374 51.0254 19.6978 51.8294 20.6381C52.6132 21.5585 53.2161 21.5985 54.0804 20.7382C55.5074 19.3376 56.9143 17.917 58.3412 16.4965C62.0997 12.775 65.838 9.05347 69.5964 5.31196C69.9983 4.95181 70.3802 4.57166 70.3802 3.9314ZM38.8458 31.6626C40.0316 31.7226 41.1973 31.6826 42.3831 31.5425C45.7596 31.1224 47.6288 28.8615 47.2067 25.6802C47.1665 25.3 47.066 25.0599 46.644 24.9199C45.3577 24.4597 44.614 23.5193 44.3527 22.1788C44.3125 21.9587 44.3125 21.7386 44.0312 21.6586C43.0865 21.3784 42.1419 21.1183 41.1571 21.2584C39.0468 21.5585 37.9815 22.9991 37.258 24.7998C36.434 26.8406 36.1727 29.0015 35.9114 31.1424C35.8511 31.5425 35.9918 31.6826 36.3938 31.6826C37.1977 31.6626 38.0217 31.6626 38.8458 31.6626ZM34.8462 61.7347C35.7104 61.7547 36.8359 61.6947 37.9614 61.5346C39.8105 61.2745 41.6194 60.8944 43.2272 59.894C44.5135 59.0937 44.5135 58.4534 43.2473 57.6531C42.1419 56.9528 40.8958 56.5926 39.6095 56.2925C39.2477 56.2125 39.0468 56.2125 38.886 56.6327C38.6247 57.2529 38.1825 57.7731 37.66 58.2133C35.2683 60.1941 31.7711 59.4738 30.2838 56.7327C30.1834 56.5526 30.2035 56.1525 29.8417 56.2325C28.2338 56.5926 26.6259 56.9928 25.3195 58.0933C24.8171 58.5334 24.8372 58.9936 25.3195 59.4338C25.9627 60.014 26.7264 60.3742 27.5304 60.6743C29.7814 61.4946 32.153 61.7347 34.8462 61.7347ZM34.4241 52.1308C33.7609 52.1909 32.6756 51.7907 32.2535 52.2909C31.8515 52.7711 32.1128 53.8115 32.1329 54.6118C32.1731 55.9124 33.2383 56.9128 34.5246 56.9128C35.8109 56.9128 36.8761 55.9324 36.9364 54.6318C36.9565 53.9516 36.9163 53.2913 36.9565 52.611C36.9766 52.1909 36.7957 52.1108 36.434 52.1308C35.8109 52.1508 35.1678 52.1308 34.4241 52.1308ZM47.9504 22.739C48.6337 22.699 49.1161 22.2388 49.4577 21.7586C49.6386 21.4785 49.096 21.1584 48.8749 20.8582C48.694 20.5981 48.4528 20.358 48.2518 20.1179C48.1312 19.9579 48.0107 19.8778 47.8298 20.0579C47.5484 20.338 47.2067 20.5581 46.9454 20.8582C46.6239 21.2384 46.6239 21.6786 46.8449 22.1187C47.0861 22.5189 47.4479 22.739 47.9504 22.739Z" fill="white"/>
<path d="M15.5112 30.7022C16.0137 29.1416 15.2701 27.8211 14.1445 26.6206C13.7225 26.1604 13.3607 25.6402 12.9989 25.14C11.994 23.7394 12.5769 21.9987 14.2249 21.4785C14.8279 21.2984 15.4107 21.0383 16.0338 20.9583C17.7623 20.7182 18.928 19.7978 19.7118 18.2772C19.953 17.797 20.3148 17.3568 20.6363 16.9167C21.7618 15.316 23.5908 15.316 24.7364 16.9167C25.3997 17.857 26.0629 18.7974 26.686 19.7578C26.9271 20.118 27.1884 20.318 27.6105 20.4381C28.7159 20.7382 29.8213 21.0583 30.9267 21.3985C32.8562 21.9787 33.4189 23.7194 32.213 25.3401C31.5096 26.2604 30.8262 27.1808 30.1027 28.0612C29.8213 28.4013 29.7208 28.7214 29.761 29.1616C29.8213 30.3421 29.8615 31.5026 29.8816 32.683C29.9017 34.5438 28.4144 35.6242 26.6257 35.024C25.2992 34.5838 23.9727 33.7635 22.6462 33.7635C21.3398 33.7635 20.0535 34.5838 18.7471 35.024C16.9583 35.6242 15.5112 34.5438 15.5112 32.663C15.5112 32.0628 15.5112 31.4625 15.5112 30.7022ZM27.309 32.723C27.309 31.3425 27.3492 30.0019 27.2889 28.6814C27.2688 28.0211 27.4497 27.4809 27.8718 26.9607C28.7159 25.9203 29.4997 24.8599 30.364 23.7594C28.9772 23.3393 27.6909 22.9191 26.3845 22.579C25.7413 22.4189 25.3394 22.0788 24.9776 21.5585C24.234 20.4381 23.4702 19.3577 22.6663 18.1972C21.8422 19.3777 21.0785 20.4781 20.3349 21.5986C19.9932 22.1388 19.5309 22.4389 18.928 22.619C17.6216 22.9791 16.3353 23.3793 14.9686 23.7794C15.8529 24.9199 16.6568 26.0203 17.5211 27.1008C17.9029 27.561 18.0235 28.0412 18.0034 28.6214C17.9632 29.9819 18.0034 31.3625 18.0034 32.7631C19.2897 32.3029 20.5961 31.8627 21.8824 31.4025C22.405 31.2224 22.8874 31.1824 23.4099 31.3825C24.7163 31.8427 26.0428 32.2829 27.309 32.723Z" fill="#F64701"/>
</svg>
