<svg width="42" height="42" viewBox="0 0 42 42" fill="none" xmlns="http://www.w3.org/2000/svg">
<path d="M42 34.7884C42 25.5743 42 16.3601 42 7.13496C41.8468 7.02553 41.8906 6.8395 41.8577 6.69724C41.1355 3.44711 39.1985 1.31318 36.0141 0.317352C35.5873 0.186035 35.1386 0.0984879 34.7009 0C25.5086 0 16.3273 0 7.13497 0C7.04742 0.153206 6.87233 0.109432 6.74101 0.131317C3.28296 0.897343 1.11621 2.99844 0.196978 6.41272C0.131318 6.65347 0.175091 6.92704 0 7.13496C0 16.382 0 25.618 0 34.865C0.153205 34.9745 0.109432 35.1605 0.142262 35.3028C0.809797 38.4106 2.6592 40.5008 5.63575 41.5732C6.15008 41.7592 6.69724 41.8577 7.22251 42C16.382 42 25.5414 42 34.7118 42C34.7228 41.9343 34.7775 41.9234 34.8322 41.9234C38.0495 41.5404 40.7962 39.2095 41.6826 36.1016C41.7921 35.6639 41.8906 35.2262 42 34.7884ZM21 14.0839C21.5253 14.073 21.9083 14.3356 22.2585 14.6858C25.7384 18.1657 29.2183 21.6456 32.6983 25.1256C32.8187 25.246 32.939 25.3554 33.0266 25.4867C33.3768 25.9901 33.4205 26.5373 33.136 27.0735C32.8515 27.6097 32.3919 27.8942 31.7791 27.9052C31.2647 27.9161 30.8817 27.6644 30.5315 27.3033C27.4565 24.2282 24.3814 21.1532 21.3174 18.0672C21.0547 17.8046 20.9343 17.8374 20.6936 18.0782C18.7676 20.0261 16.8306 21.9521 14.8937 23.889C13.7228 25.0599 12.5519 26.2199 11.3809 27.4018C11.0198 27.7629 10.604 27.9708 10.1006 27.927C9.45492 27.8723 8.99531 27.5331 8.77645 26.9203C8.54664 26.2965 8.69984 25.7384 9.1704 25.2678C10.1225 24.3048 11.0855 23.3528 12.0375 22.4007C14.6092 19.8291 17.1808 17.2574 19.7525 14.6858C20.1027 14.3356 20.4857 14.073 21 14.0839Z" fill="white"/>
</svg>
