<svg width="25" height="24" viewBox="0 0 25 24" fill="none" xmlns="http://www.w3.org/2000/svg">
<path d="M12.1494 23.9982C9.19023 23.9982 6.22383 23.9982 3.2647 23.9982C1.78877 23.9982 0.596392 23.0671 0.247403 21.6486C0.181968 21.394 0.160156 21.1321 0.160156 20.8629C0.160156 14.9489 0.160156 9.02751 0.160156 3.11344C0.160156 1.33121 1.49068 0 3.27924 0C9.19024 0 15.1085 0 21.0195 0C22.8081 0 24.1386 1.33121 24.1386 3.11344C24.1458 9.02751 24.1458 14.9489 24.1386 20.8629C24.1386 22.667 22.8081 23.9909 21.005 23.9909C18.0531 24.0055 15.1012 23.9982 12.1494 23.9982ZM10.957 14.7961C11.386 15.4071 11.9458 15.7636 12.6147 15.9309C14.1851 16.331 15.6393 15.9818 16.8607 14.978C19.1219 13.1303 19.7471 10.606 19.3473 7.84906C19.0564 5.86315 17.7768 4.50284 16.0101 3.60809C14.5923 2.8952 13.0655 2.72789 11.5023 2.8952C9.72099 3.08434 8.10692 3.68811 6.82002 4.9684C5.03873 6.73608 4.3771 8.83837 5.12597 11.2826C5.4168 12.2428 6.02026 12.9775 6.96543 13.3921C7.33623 13.5522 7.518 13.4576 7.62706 13.0648C7.68522 12.8466 7.72885 12.6211 7.80155 12.4101C7.89607 12.1409 7.8379 11.9227 7.64887 11.7118C7.32896 11.3553 7.10357 10.9334 7.03087 10.4606C6.74004 8.53285 7.33623 6.91794 8.8776 5.74676C10.6007 4.44465 12.5347 4.30643 14.5269 5.07024C15.7047 5.52853 16.4172 6.43783 16.708 7.6672C16.8898 8.43101 16.8316 9.20209 16.7226 9.97318C16.5626 11.1007 16.2427 12.17 15.5302 13.0866C14.9994 13.7704 14.3378 14.2214 13.4435 14.2578C12.1857 14.3014 11.2987 13.2539 11.6986 12.0755C11.8222 11.7118 11.9167 11.348 12.0185 10.9843C12.2512 10.206 12.5638 9.44215 12.6001 8.61287C12.6292 8.02364 12.4911 7.47806 11.9531 7.14344C11.4078 6.80882 10.8407 6.85247 10.2954 7.14344C9.8664 7.37622 9.56104 7.73994 9.36473 8.1764C8.92122 9.1439 8.96485 10.1332 9.31384 11.1153C9.36473 11.2535 9.37927 11.3699 9.35019 11.5081C8.97939 13.0139 8.64494 14.5269 8.23052 16.0182C7.78701 17.6331 7.67795 19.248 7.93969 20.8993C7.95423 21.0011 7.94696 21.1103 8.07056 21.1466C8.16508 21.1757 8.21597 21.0957 8.26687 21.0302C9.13207 19.9245 9.89548 18.7679 10.2517 17.3785C10.4844 16.5419 10.7171 15.6908 10.957 14.7961Z" fill="#282624"/>
</svg>
