<svg width="25" height="24" viewBox="0 0 25 24" fill="none" xmlns="http://www.w3.org/2000/svg">
<path d="M0.137695 22.6448C0.137695 15.5498 0.137695 8.45487 0.137695 1.35991C0.198625 1.35053 0.193938 1.28957 0.203312 1.25205C0.395474 0.651817 0.789173 0.257913 1.38441 0.0656506C1.42659 0.0515826 1.48283 0.0609613 1.49221 0C8.55066 0 15.6091 0 22.6723 0C22.6863 0.014068 22.7004 0.042204 22.7144 0.042204C23.4081 0.168816 23.8299 0.595545 24.0549 1.24736C24.0736 1.29894 24.0408 1.37866 24.1205 1.40211C24.1205 8.483 24.1205 15.5592 24.1205 22.6401C24.0361 22.6776 24.0502 22.7714 24.0268 22.837C23.8206 23.3763 23.4456 23.7421 22.8925 23.925C22.8176 23.9484 22.7191 23.9015 22.6676 24C15.6091 24 8.55066 24 1.48752 24C1.47815 23.939 1.41722 23.9437 1.37972 23.9343C0.789173 23.7421 0.395474 23.3482 0.203312 22.7526C0.189251 22.7104 0.198625 22.6542 0.137695 22.6448ZM12.0986 6.75264C11.9205 6.75264 11.7377 6.74795 11.5596 6.75264C9.91924 6.78077 8.28351 6.78546 6.65247 6.9871C5.72916 7.09965 5.11049 7.65299 4.90895 8.56272C4.72616 9.38335 4.68867 10.2181 4.65586 11.0528C4.59962 12.4689 4.6418 13.8804 4.87145 15.2778C5.01675 16.1829 5.55574 16.7784 6.37595 16.9566C6.61966 17.0082 6.86807 17.041 7.11648 17.0645C8.74283 17.2145 10.3739 17.2521 12.0049 17.2521C13.8703 17.2474 15.7357 17.238 17.5917 17.0223C18.5572 16.9097 19.1524 16.3751 19.3586 15.4279C19.5367 14.6166 19.5695 13.7866 19.6024 12.9613C19.6586 11.5451 19.6258 10.1336 19.3914 8.73623C19.2368 7.81712 18.6978 7.22157 17.8682 7.04807C17.6339 6.99648 17.3901 6.96835 17.1511 6.9449C15.4685 6.78077 13.7859 6.76202 12.0986 6.75264Z" fill="#282624"/>
<path d="M10.6504 9.7585C11.9533 10.5088 13.2282 11.245 14.5405 12C13.2329 12.755 11.9533 13.4912 10.6504 14.2415C10.6504 12.7409 10.6504 11.2732 10.6504 9.7585Z" fill="#282624"/>
</svg>
