<svg width="95" height="96" viewBox="0 0 95 96" fill="none" xmlns="http://www.w3.org/2000/svg">
<path d="M47.4931 17.9124C52.4571 17.9124 56.4913 13.8971 56.4913 8.95621C56.4913 4.01533 52.4571 0 47.4931 0C42.5291 0 38.4951 4.01533 38.4951 8.95621C38.4951 13.8971 42.5291 17.9124 47.4931 17.9124ZM55.0965 20.4713C51.076 20.4713 47.4931 20.4713 47.4931 20.4713C47.4931 20.4713 43.9103 20.4713 39.8898 20.4713C33.6541 20.4713 31.3567 26.12 31.3567 30.1489C31.3567 32.3131 31.3567 31.6597 31.3567 37.9345H63.6433C63.6433 31.6597 63.6433 32.3131 63.6433 30.1489C63.6433 26.1064 61.3323 20.4713 55.0965 20.4713Z" fill="white"/>
<path d="M23.7534 78.5368C19.733 78.5368 16.1501 78.5368 16.1501 78.5368C16.1501 78.5368 12.5673 78.5368 8.54685 78.5368C2.31107 78.5368 0 84.1854 0 88.2143C0 90.3785 0 89.7252 0 96H32.2866C32.2866 89.7252 32.2866 90.3785 32.2866 88.2143C32.2866 84.1854 29.9892 78.5368 23.7534 78.5368ZM16.1501 75.9779C21.1141 75.9779 25.1483 71.9625 25.1483 67.0217C25.1483 62.0808 21.1141 58.0655 16.1501 58.0655C11.1861 58.0655 7.15198 62.0808 7.15198 67.0217C7.15198 71.9761 11.1724 75.9779 16.1501 75.9779ZM86.4531 78.5368C82.4327 78.5368 78.8499 78.5368 78.8499 78.5368C78.8499 78.5368 75.267 78.5368 71.2466 78.5368C65.0108 78.5368 62.7134 84.1854 62.7134 88.2143C62.7134 90.3785 62.7134 89.7252 62.7134 96H95C95 89.7252 95 90.3785 95 88.2143C94.9863 84.1854 92.6889 78.5368 86.4531 78.5368ZM78.8499 75.9779C83.8139 75.9779 87.8479 71.9625 87.8479 67.0217C87.8479 62.0808 83.8139 58.0655 78.8499 58.0655C73.8859 58.0655 69.8517 62.0808 69.8517 67.0217C69.8381 71.9761 73.8722 75.9779 78.8499 75.9779ZM50.3786 56.5682V41.6639H44.6077V56.5682L29.2781 71.8265L33.3669 75.8826L47.4931 61.8222L61.6194 75.8826L65.7082 71.8265L50.3786 56.5682Z" fill="white"/>
</svg>
