<svg width="73" height="74" viewBox="0 0 73 74" fill="none" xmlns="http://www.w3.org/2000/svg">
<path d="M36.5394 73.9912C26.416 73.9912 16.2927 73.9912 6.16932 73.9912C3.04991 73.9912 0.656405 72.0782 0.107076 69.1593C-0.0891134 68.1338 0.0482188 67.0885 0.0285999 66.063C0.00898105 65.0966 0.0285999 64.1499 0.0285999 63.1836C0.0285999 62.1975 0.362121 61.8622 1.36269 61.8425C2.36325 61.8227 3.38343 61.803 4.384 61.8425C4.93332 61.8622 5.07066 61.7044 5.07066 61.1522C5.05104 56.1428 5.05104 51.1531 5.05104 46.1437C5.05104 37.5646 5.10989 28.9855 5.0118 20.4262C4.99218 17.8229 6.48322 15.752 9.64186 15.7915C14.5662 15.8704 19.4905 15.8112 24.4149 15.8112C24.6699 15.8112 25.0035 15.969 25.1604 15.6929C25.2977 15.4168 25.0819 15.1209 24.9446 14.8646C24.6111 14.2926 24.0814 13.9376 23.5124 13.6418C22.6492 13.1882 22.4922 12.7937 22.708 11.8471C23.1004 10.1904 23.7086 8.61267 24.7288 7.2124C25.2585 6.50241 25.6116 6.38407 26.416 6.71935C26.828 6.87713 27.24 7.0349 27.6912 7.0349C28.8684 7.05462 29.7316 6.18685 29.6728 5.00353C29.6531 4.58937 29.5158 4.19493 29.3785 3.78076C29.1038 2.99188 29.2411 2.57772 29.9474 2.18328C31.4385 1.33523 32.9883 0.605515 34.656 0.17163C35.5388 -0.0453124 35.9508 0.132186 36.402 0.94079C36.5001 1.11829 36.5982 1.27606 36.7159 1.45356C37.8146 3.03133 39.5214 3.07077 40.4239 1.37467C41.346 -0.380587 41.8757 -0.124201 43.4452 0.349129C44.7793 0.743569 45.9761 1.37467 47.1336 2.14383C47.781 2.57772 47.9772 3.11021 47.7614 3.85965C47.6633 4.21465 47.5652 4.56965 47.5456 4.94436C47.4671 6.58129 48.448 7.42934 50.0372 7.13351C51.9598 6.77851 51.9598 6.75879 52.8623 8.49433C53.4901 9.7171 54.0198 10.9793 54.373 12.3204C54.5888 13.129 54.3926 13.5826 53.6274 13.9376C53.0192 14.2334 52.4895 14.6082 52.1168 15.1801C52.0187 15.3379 51.8421 15.5154 51.9402 15.7126C52.0579 15.9295 52.2934 15.8112 52.4699 15.8112C56.0994 15.8112 59.7289 15.8112 63.3584 15.8112C63.9077 15.8112 64.4374 15.8112 64.9672 15.9493C66.6348 16.3832 67.7923 17.7834 67.8511 19.5387C67.91 21.0573 67.8708 22.5956 67.8708 24.1142C67.8708 36.401 67.8708 48.6879 67.8511 60.9747C67.8511 61.665 68.0473 61.8622 68.6947 61.8227C69.6953 61.7636 70.6959 61.7833 71.7161 61.8227C72.6578 61.8425 72.9913 62.1975 72.9913 63.1441C72.9913 64.7613 73.0109 66.3982 72.9913 68.0155C72.952 71.4471 70.4604 73.9518 67.0271 73.9912C63.8881 74.011 60.7491 73.9912 57.6101 73.9912C50.6061 73.9912 43.5826 73.9912 36.5394 73.9912ZM36.5197 27.743C27.0046 27.743 17.4894 27.743 7.99387 27.7233C7.46416 27.7233 7.28759 27.8417 7.28759 28.4136C7.30721 39.3396 7.30721 50.2459 7.28759 61.1719C7.28759 61.665 7.40531 61.8425 7.93502 61.8425C15.0959 61.803 22.2568 61.803 29.3981 61.7833C30.3987 61.7833 30.9087 62.2961 30.7714 63.3216C30.6929 63.8344 30.6733 64.3472 30.7126 64.8599C30.7714 65.5896 31.2226 66.0433 31.9485 66.0433C34.9699 66.063 37.9715 66.063 40.9929 66.0433C41.6795 66.0433 42.1308 65.5896 42.2092 64.8994C42.2485 64.6035 42.2289 64.3077 42.2289 64.0119C42.2289 61.8227 42.2288 61.8227 44.3673 61.8227C51.1751 61.8227 58.0024 61.8227 64.8102 61.8425C65.4184 61.8425 65.6342 61.7439 65.6342 61.0536C65.6146 50.2065 65.6146 39.3593 65.6342 28.5319C65.6342 27.8614 65.4576 27.743 64.8298 27.743C55.3931 27.7628 45.9564 27.743 36.5197 27.743ZM36.4805 71.6838C46.6431 71.6838 56.8253 71.6838 66.9879 71.6838C69.2833 71.6838 70.7547 70.2046 70.7744 67.8971C70.7744 66.8124 70.7547 65.7277 70.794 64.643C70.8136 64.2288 70.6763 64.1105 70.2643 64.0908C68.7536 64.0316 67.2429 64.1302 65.7323 64.1302C58.8657 64.071 52.0187 64.1105 45.1521 64.0908C44.642 64.0908 44.5046 64.2288 44.5046 64.7416C44.4654 66.8124 43.0332 68.331 41.0125 68.3507C37.9912 68.3902 34.9895 68.3902 31.9682 68.3507C29.9474 68.331 28.4564 66.7927 28.4564 64.7613C28.4564 64.1894 28.2994 64.0908 27.7697 64.0908C23.944 64.1105 20.1184 64.1105 16.2927 64.1105C11.8588 64.1105 7.42492 64.1302 2.99105 64.0908C2.38287 64.0908 2.24554 64.2683 2.28477 64.8402C2.32401 65.7474 2.34363 66.6744 2.28477 67.5816C2.12782 70.0271 3.89352 71.7429 6.34588 71.7232C16.3908 71.6443 26.4356 71.6838 36.4805 71.6838ZM36.4217 25.475C45.8976 25.475 55.3931 25.475 64.8691 25.4947C65.4576 25.4947 65.6538 25.3567 65.6342 24.7453C65.595 23.2661 65.6146 21.787 65.6146 20.3078C65.6146 18.7892 64.9672 18.1384 63.4957 18.1384C45.466 18.1384 27.4166 18.1384 9.38681 18.1384C7.97425 18.1384 7.30721 18.809 7.30721 20.2092C7.30721 21.7081 7.34645 23.207 7.28759 24.7256C7.26797 25.4158 7.48378 25.5145 8.11159 25.5145C17.5483 25.475 26.985 25.475 36.4217 25.475ZM28.4956 15.8309C28.7507 15.8309 28.8684 15.8112 28.9861 15.8309C29.6139 15.9493 29.8493 15.6929 29.8493 15.0618C29.8493 14.6279 29.967 14.1743 30.0651 13.7601C31.0853 9.63821 34.8129 6.87712 39.0898 7.0349C43.0136 7.19268 46.5646 10.4074 47.2317 14.4109C47.4671 15.8507 47.4671 15.8309 48.8404 15.8309C49.3113 15.8309 49.4682 15.6732 49.5467 15.2393C49.7233 14.3912 50.2137 13.7207 50.7631 13.0896C51.077 12.7346 51.744 12.636 51.7048 12.1035C51.6852 11.6104 51.3909 11.1371 51.1947 10.6638C51.0966 10.4074 50.9396 10.1904 50.8415 9.93404C50.6846 9.55932 50.4884 9.44099 50.0176 9.51988C47.2317 9.97349 45.0932 8.11961 45.054 5.27964C45.054 4.78659 45.4464 4.21465 44.9951 3.82021C44.6027 3.48493 44.0534 3.30743 43.5629 3.09049C43.3864 3.0116 43.1902 2.97216 43.0136 2.87355C42.5428 2.61716 42.2681 2.75522 41.9149 3.14966C40.0315 5.35853 37.3437 5.49658 35.4211 3.58354C35.0876 3.24827 34.9502 2.59744 34.4205 2.61716C33.9301 2.63689 33.4592 2.95244 32.9883 3.12994C32.8706 3.16938 32.7725 3.24827 32.6548 3.28771C31.9289 3.50466 31.7524 3.91882 31.8701 4.7077C32.2821 7.31101 30.1632 9.61849 27.5735 9.48044C26.0825 9.40155 26.0825 9.40155 25.5528 10.8018C25.4547 11.0582 25.3958 11.3146 25.2977 11.571C25.1212 11.9654 25.2193 12.2218 25.592 12.4979C26.4356 13.0896 27.1223 13.8784 27.3185 14.904C27.4558 15.7718 27.8678 15.969 28.4956 15.8309ZM38.5209 15.8309C40.1689 15.8309 41.7972 15.8309 43.4452 15.8309C45.3679 15.8309 45.3679 15.8309 44.7597 13.9376C43.8572 11.0582 41.0321 9.08599 38.1677 9.30294C34.9699 9.55932 32.5764 11.8076 32.1251 14.9632C32.027 15.5745 32.0859 15.8704 32.851 15.8507C34.754 15.7718 36.6375 15.8309 38.5209 15.8309Z" fill="white"/>
<path d="M48.742 58.1742C47.9572 58.1742 47.1725 58.1939 46.3877 58.1742C45.6029 58.1545 45.1909 57.7403 45.2106 56.9711C45.289 54.8609 44.3473 53.2831 42.9152 51.8434C38.4617 47.3271 40.3647 39.8721 46.4073 38.038C49.9976 36.9533 54.0587 38.531 55.9421 41.7654C57.8648 45.0788 57.2958 49.3782 54.5492 52.0012C53.117 53.362 52.2145 54.9398 52.2538 56.9909C52.2734 57.7798 51.8614 58.1742 51.0766 58.1939C50.3115 58.1939 49.5267 58.1742 48.742 58.1742ZM48.7027 55.847C48.997 55.847 49.2913 55.8273 49.5856 55.847C49.8799 55.8667 50.0172 55.7878 50.0564 55.4525C50.3507 53.362 51.3905 51.6856 52.9208 50.2854C54.7454 48.5893 55.2751 46.0451 54.3334 43.7377C53.3916 41.4499 51.0962 39.9905 48.5654 40.0496C46.0934 40.1088 43.9157 41.6471 43.1506 43.9743C42.3462 46.3804 42.8367 48.5498 44.622 50.3445C45.8776 51.6067 46.8586 53.007 47.2705 54.7623C47.5256 55.847 47.5256 55.847 48.7027 55.847Z" fill="#F64701"/>
<path d="M22.041 40.6018C24.9838 40.6018 27.9267 40.6018 30.8695 40.6018C31.772 40.6018 32.2232 41.0357 32.184 41.8049C32.1447 42.3965 31.8701 42.7712 31.2619 42.8698C31.0657 42.8896 30.8695 42.9093 30.6733 42.9093C24.925 42.9093 19.157 42.9093 13.4087 42.9093C12.3689 42.9093 11.8784 42.5148 11.898 41.726C11.9176 40.9962 12.3689 40.6018 13.2321 40.6018C16.1553 40.6018 19.0982 40.6018 22.041 40.6018Z" fill="white"/>
<path d="M22.0408 47.1299C24.9248 47.1299 27.8284 47.1299 30.7124 47.1299C31.2225 47.1299 31.6933 47.1693 32.0072 47.6427C32.4585 48.3329 32.0661 49.2599 31.2617 49.4176C31.0655 49.4571 30.8693 49.4571 30.6732 49.4571C24.9248 49.4571 19.1569 49.4571 13.4085 49.4571C12.82 49.4571 12.251 49.3979 11.996 48.7865C11.6232 47.9188 12.1922 47.1496 13.232 47.1496C16.0178 47.1299 18.8233 47.1496 21.6092 47.1496C21.7466 47.1299 21.8839 47.1299 22.0408 47.1299Z" fill="#F64701"/>
<path d="M22.0409 34.1921C24.9837 34.1921 27.9266 34.1921 30.8498 34.1921C31.7326 34.1921 32.1642 34.5866 32.1642 35.3163C32.1642 36.046 31.7522 36.4601 30.9282 36.4601C29.4372 36.4799 27.9462 36.4601 26.4551 36.4601C22.0409 36.4601 17.6463 36.4601 13.232 36.4601C12.6434 36.4601 12.153 36.3615 11.9372 35.7304C11.6429 34.8429 12.1726 34.1921 13.2124 34.1921C15.9983 34.1724 18.8038 34.1921 21.5897 34.1921C21.7466 34.1921 21.9036 34.1921 22.0409 34.1921Z" fill="#F64701"/>
<path d="M22.0018 55.8469C19.059 55.8469 16.1161 55.8469 13.1929 55.8469C12.3297 55.8469 11.8785 55.4328 11.8981 54.7031C11.8981 54.072 12.2905 53.6381 12.9379 53.5986C13.5657 53.5592 14.2131 53.5789 14.8409 53.5789C20.1772 53.5789 25.5136 53.5789 30.8499 53.5789C31.7916 53.5789 32.2429 54.0325 32.1644 54.8411C32.1055 55.5117 31.7132 55.8469 30.8892 55.8469C27.9267 55.8469 24.9643 55.8469 22.0018 55.8469Z" fill="white"/>
<path d="M61.7498 41.0356C62.2795 41.0948 62.77 41.2723 62.8681 41.9231C62.9662 42.5542 62.7111 43.067 62.0637 43.2445C61.1416 43.5009 60.2195 43.7376 59.2778 43.8953C58.7285 43.994 58.2969 43.6587 58.1203 43.1065C57.9437 42.5345 58.2184 41.864 58.7481 41.6865C59.7094 41.3906 60.6904 41.1737 61.7498 41.0356Z" fill="white"/>
<path d="M39.6392 42.7515C39.6196 43.5009 38.9918 44.0334 38.2659 43.9151C37.4027 43.7771 36.5394 43.5798 35.6762 43.3826C34.9896 43.2051 34.656 42.6529 34.7737 42.081C34.9111 41.4104 35.48 41.0554 36.2255 41.2132C37.0888 41.3907 37.952 41.5879 38.7956 41.7851C39.3449 41.9035 39.6196 42.2782 39.6392 42.7515Z" fill="white"/>
<path d="M42.1305 38.8663C41.3458 38.886 39.2073 36.5983 39.2858 35.8094C39.3643 34.9613 40.3452 34.4486 41.0319 35.0008C41.8166 35.6319 42.5229 36.3616 43.0919 37.1899C43.5627 37.8999 42.9938 38.8466 42.1305 38.8663Z" fill="white"/>
<path d="M58.4146 35.6911C58.4342 36.125 58.3557 36.3814 58.1988 36.5589C57.5906 37.2097 57.1001 37.9591 56.4134 38.5113C55.8249 38.9847 55.2363 38.9847 54.7851 38.5311C54.3142 38.0577 54.3142 37.4464 54.8439 36.8941C55.4325 36.263 55.9033 35.5333 56.6096 35.0205C56.9824 34.7444 57.3748 34.6853 57.7868 34.8825C58.1595 35.0797 58.395 35.415 58.4146 35.6911Z" fill="white"/>
<path d="M49.7622 34.6261C49.7622 35.0205 49.7819 35.415 49.7622 35.8094C49.723 36.5194 49.311 36.9138 48.644 36.9138C47.9573 36.9336 47.5257 36.5786 47.4865 35.8488C47.4472 35.0402 47.4472 34.2316 47.4865 33.423C47.5257 32.7328 47.9769 32.3186 48.6244 32.3383C49.2914 32.3383 49.723 32.7919 49.7622 33.5216C49.7819 33.8964 49.7622 34.2711 49.7622 34.6261Z" fill="white"/>
<path d="M22.198 20.643C25.239 20.643 28.2799 20.643 31.3012 20.643C31.9486 20.643 32.4587 20.8205 32.6157 21.5503C32.753 22.2208 32.3999 22.7927 31.7328 22.9111C31.517 22.9505 31.3012 22.9505 31.0658 22.9505C25.1213 22.9505 19.1571 22.9505 13.2126 22.9505C12.1924 22.9505 11.7412 22.6547 11.6627 21.9644C11.5646 21.1558 12.0354 20.643 12.9183 20.643C15.2922 20.6233 17.6661 20.643 20.04 20.643C20.7659 20.643 21.4721 20.643 22.198 20.643Z" fill="#F64701"/>
<path d="M47.6039 20.6431C48.6045 20.6431 49.0557 20.9783 49.0753 21.7672C49.0949 22.5758 48.6241 22.9703 47.6039 22.9703C46.623 22.9703 46.1325 22.5955 46.1129 21.8461C46.0933 21.0375 46.5837 20.6431 47.6039 20.6431Z" fill="white"/>
<path d="M53.6272 20.6431C54.6474 20.6431 55.1182 21.0178 55.1182 21.8264C55.0986 22.5955 54.6474 22.9703 53.6664 22.9703C52.6658 22.9703 52.1558 22.5561 52.1558 21.7869C52.1754 21.0178 52.6462 20.6431 53.6272 20.6431Z" fill="white"/>
<path d="M59.9251 20.6431C60.9061 20.6431 61.3769 20.9981 61.3769 21.7869C61.3769 22.5955 60.9061 22.9703 59.8859 22.9703C58.9049 22.9703 58.4341 22.5955 58.4341 21.8264C58.4341 21.0178 58.9049 20.6431 59.9251 20.6431Z" fill="white"/>
</svg>
