<svg width="25" height="24" viewBox="0 0 25 24" fill="none" xmlns="http://www.w3.org/2000/svg">
<path d="M24.9766 2.01522C24.9766 8.68548 24.9766 15.3498 24.9766 22.0201C24.9412 22.026 24.9353 22.0555 24.9235 22.0849C24.6524 23.2693 23.5738 24.0059 22.3302 24C16.0827 23.9705 9.841 23.9882 3.59346 23.9882C3.48147 23.9882 3.37538 23.9882 3.2634 23.9823C2.18481 23.941 1.20053 23.0749 1.01782 22.0083C0.98835 21.8315 0.976562 21.6548 0.976562 21.4721C0.982456 15.1554 0.982456 8.83868 0.982456 2.52786C0.982456 1.47311 1.44808 0.712987 2.37931 0.229806C2.57971 0.123742 2.80367 0.106064 2.99817 0C9.63472 0 16.2772 0 22.9137 0C22.9314 0.0117849 22.9432 0.0412472 22.9608 0.0412472C23.7271 0.170881 24.2811 0.583353 24.676 1.2492C24.8174 1.49079 24.8587 1.76774 24.9766 2.01522ZM14.1789 10.9482C14.1789 10.577 14.1671 10.1998 14.1848 9.82861C14.1966 9.62827 14.1259 9.58702 13.9373 9.59291C12.8882 9.6047 11.8449 9.59881 10.7958 9.59291C10.6308 9.59291 10.5777 9.62238 10.5777 9.80504C10.5836 13.2639 10.5836 16.7228 10.5777 20.1817C10.5777 20.3408 10.6131 20.3879 10.7781 20.3879C11.8331 20.382 12.8882 20.3761 13.9432 20.3879C14.1377 20.3879 14.1848 20.3349 14.1848 20.1463C14.1789 18.1841 14.1789 16.2278 14.1789 14.2656C14.1789 14.1183 14.1848 13.971 14.1966 13.8237C14.285 12.7866 15.4461 12.0029 16.4363 12.3093C17.285 12.5745 17.7683 13.2462 17.7742 14.1714C17.7742 16.1689 17.7801 18.1664 17.7683 20.164C17.7683 20.3407 17.8096 20.382 17.9864 20.382C19.0414 20.3702 20.0964 20.3702 21.1514 20.382C21.34 20.382 21.3754 20.3231 21.3754 20.1522C21.3695 17.9897 21.3754 15.8271 21.3695 13.6646C21.3695 12.0088 20.6386 10.7537 19.2241 9.917C18.2104 9.31597 17.12 9.15687 15.9942 9.59881C15.2811 9.88754 14.6799 10.3295 14.1789 10.9482ZM4.58363 14.9668C4.58363 16.7051 4.58363 18.4493 4.58363 20.1875C4.58363 20.3231 4.58953 20.3938 4.76635 20.3879C5.84493 20.3761 6.92352 20.382 7.99621 20.3879C8.15534 20.3879 8.18481 20.3349 8.18481 20.1875C8.17892 16.7228 8.17892 13.258 8.18481 9.79326C8.18481 9.62238 8.13177 9.59291 7.97263 9.59291C6.91762 9.59881 5.86261 9.6047 4.8135 9.59291C4.60721 9.59291 4.57774 9.65773 4.57774 9.8404C4.58953 11.5492 4.58363 13.258 4.58363 14.9668ZM8.53256 5.3916C8.52666 4.20132 7.55417 3.22906 6.37538 3.23496C5.19071 3.24085 4.21232 4.22489 4.21821 5.39749C4.22411 6.58776 5.1966 7.54823 6.38128 7.54234C7.57774 7.54234 8.53845 6.58187 8.53256 5.3916Z" fill="white"/>
</svg>
