<svg width="48" height="48" viewBox="0 0 48 48" fill="none" xmlns="http://www.w3.org/2000/svg">
<path d="M0.074922 32.5866C0.37461 31.975 0.886576 31.5382 1.36108 31.0764C1.5359 30.9017 1.64828 30.752 1.58585 30.4774C1.47347 29.9033 1.67326 29.4165 2.09781 28.9922C3.05931 28.0437 4.02081 27.0702 4.98231 26.1217C5.20708 25.897 5.38189 25.6474 5.53174 25.3729C7.60458 21.4789 9.68991 17.585 11.8002 13.7161C12.3871 12.6427 12.6993 11.532 12.5994 10.3214C12.5744 10.0718 12.5619 9.82215 12.5619 9.57254C12.5744 8.91108 12.4745 8.33697 11.9376 7.82527C11.3632 7.27613 11.4381 6.32761 11.9875 5.74103C12.6243 5.0546 13.2986 4.40562 13.9729 3.75663C14.6223 3.14509 15.5588 3.14509 16.2081 3.76911C16.7575 4.28081 17.282 4.81747 17.8065 5.35413C18.1561 5.70359 18.1686 6.14041 17.8689 6.42746C17.5817 6.70203 17.1696 6.67707 16.8325 6.35257C16.358 5.87831 15.871 5.41654 15.4089 4.9298C15.1967 4.70515 15.0219 4.68019 14.7971 4.91732C14.2726 5.46646 13.7232 6.0156 13.1738 6.53978C12.924 6.77691 12.974 6.93916 13.1988 7.16381C14.0978 8.04992 14.9844 8.94852 15.8835 9.83463C21.5276 15.4758 27.1717 21.117 32.8283 26.7707C33.3028 27.2449 33.3028 27.2449 33.7773 26.7582C34.4017 26.1342 34.3892 26.1466 33.9022 25.3978C33.3278 24.5117 32.9157 23.5632 32.7534 22.5148C32.7159 22.2402 32.5661 22.0655 32.3788 21.8908C28.1956 17.7098 24.0125 13.5413 19.8418 9.36037C19.6795 9.19813 19.5047 9.03588 19.3424 8.86115C18.9428 8.4493 18.9053 8.07488 19.2175 7.76287C19.5297 7.43838 19.9292 7.47582 20.3163 7.86271C20.7659 8.31201 21.2279 8.74883 21.6649 9.22309C21.8522 9.42278 21.9896 9.44774 22.2144 9.31045C22.4891 9.13573 22.7888 8.99844 23.076 8.84867C24.0999 8.36193 25.2112 8.49922 26.0229 9.29797C27.6337 10.883 29.232 12.4805 30.8179 14.0905C31.6171 14.9017 31.7669 16.025 31.2549 17.0733C31.0676 17.4477 30.6805 17.8596 30.743 18.1841C30.8179 18.546 31.2924 18.8206 31.5921 19.1326C31.9168 19.4696 32.2414 19.8066 32.5786 20.1685C32.7534 19.9064 32.7284 19.6568 32.7908 19.4197C33.6649 15.8378 36.8866 13.3292 40.4579 13.454C44.2289 13.5913 47.2758 16.2246 47.9001 19.9189C47.9126 20.0062 47.8751 20.1186 48 20.156C48 20.8424 48 21.5289 48 22.2153C47.8252 22.3651 47.8751 22.5772 47.8252 22.7644C47.3382 24.8487 46.2144 26.4836 44.4162 27.6568C43.9292 27.9688 43.5047 27.9314 43.2674 27.5569C43.0302 27.1825 43.155 26.8081 43.6545 26.4836C45.8772 25.0109 46.9761 22.4524 46.4641 19.9438C45.9521 17.4103 44.0042 15.5133 41.4069 14.9891C37.5234 14.2028 33.8023 17.4477 34.0021 21.429C34.1769 24.9111 36.9615 27.5195 40.4579 27.4696C40.5203 27.4696 40.5827 27.4696 40.6452 27.4696C41.1197 27.4821 41.4194 27.7317 41.4318 28.1435C41.4443 28.5554 41.1571 28.8424 40.6826 28.8674C39.3715 28.9298 38.1103 28.6802 36.924 28.1061C36.4745 27.8814 36.0375 27.6443 35.6629 27.3198C35.4506 27.1326 35.3132 27.17 35.1384 27.3697C34.9386 27.6069 34.7014 27.819 34.4766 28.0312C33.7399 28.7426 32.7784 28.7676 32.0666 28.0437C31.7294 27.6942 31.3798 27.5694 30.9178 27.5819C30.206 27.5944 29.4818 27.5445 28.77 27.5694C28.0333 27.5819 27.359 27.819 26.7222 28.1685C24.2872 29.4789 21.8522 30.7894 19.4048 32.0998C19.1301 32.2496 19.0302 32.3495 19.23 32.6615C19.692 33.3853 20.1041 34.1342 20.5411 34.8705C20.7908 35.2824 20.7534 35.6193 20.4037 35.9563C19.9792 36.3682 19.5671 36.805 19.1426 37.2044C18.9677 37.3666 18.9303 37.4914 19.0801 37.7036C19.717 38.6022 20.3413 39.5133 20.9657 40.4368C21.078 40.6115 21.1904 40.6864 21.4152 40.6615C21.7898 40.6115 22.1145 40.7613 22.3892 41.0234C22.8262 41.4477 23.2633 41.8721 23.6753 42.3214C24.2373 42.908 24.2373 43.6069 23.6629 44.1934C22.539 45.3417 21.3902 46.4649 20.2539 47.6006C20.0666 47.7878 19.8293 47.8752 19.5921 48C19.3673 48 19.155 48 18.9303 48C18.231 47.5257 17.6941 46.8768 17.0947 46.2902C16.77 45.9657 16.6202 45.5538 16.7575 45.092C16.82 44.8674 16.7451 44.7051 16.6202 44.5429C16.0583 43.7566 15.4964 42.9828 14.9344 42.1841C14.5973 41.7098 14.6223 41.298 14.9719 41.0359C15.3465 40.7738 15.7211 40.8736 16.0708 41.3604C16.5827 42.0718 17.0947 42.7707 17.5817 43.4945C17.744 43.7317 17.8314 43.7317 18.0312 43.532C18.6056 42.9329 19.1925 42.3463 19.7794 41.7847C19.9417 41.6225 19.9667 41.5101 19.8293 41.3229C18.2934 39.1014 16.77 36.8924 15.2466 34.6583C15.1093 34.4587 15.0094 34.4587 14.7971 34.546C13.9729 34.9329 13.486 35.6817 12.8366 36.2434C12.5994 36.4431 12.6368 36.5928 12.8117 36.8175C13.2237 37.3666 13.6233 37.9158 14.0104 38.4899C14.3476 38.9766 14.0978 39.5757 13.5484 39.6381C13.2112 39.6755 12.999 39.4883 12.8117 39.2387C12.4121 38.6646 12 38.103 11.5505 37.4914C11.3132 37.7535 11.1259 37.9782 10.9136 38.1903C10.6139 38.4899 10.2019 38.7145 9.81478 38.6147C9.26535 38.4774 8.97815 38.7644 8.67846 39.1014C8.56608 39.2262 8.44121 39.351 8.31634 39.4633C7.44225 40.337 6.54318 40.337 5.6691 39.4633C4.25806 38.053 2.84703 36.6427 1.436 35.2325C0.924037 34.7207 0.37461 34.2465 0 33.61C0.074922 33.2106 0.074922 32.8986 0.074922 32.5866ZM30.0812 26.1342C24.6993 20.7551 19.3673 15.4259 14.0104 10.0718C14.0104 10.1217 14.0104 10.1841 14.0104 10.259C14.1228 11.8066 13.6982 13.1919 12.9615 14.5398C10.9261 18.259 8.94069 21.9906 6.93028 25.7098C6.78044 25.9719 6.76795 26.1342 7.01769 26.3713C9.26535 28.5928 11.513 30.8393 13.7357 33.0858C13.9729 33.3229 14.1228 33.3229 14.3975 33.1732C18.0187 31.2137 21.6649 29.2917 25.2737 27.2949C26.7846 26.4587 28.3205 25.8846 30.0812 26.1342ZM12.8741 34.2215C12.8117 34.1466 12.7617 34.0842 12.6868 34.0218C10.4766 31.8128 8.27888 29.6162 6.08117 27.4072C5.90635 27.2324 5.80645 27.2449 5.64412 27.4197C4.83247 28.2559 3.99584 29.0796 3.15921 29.9033C2.93444 30.1154 2.89698 30.2902 3.13424 30.5273C5.29449 32.6739 7.44225 34.8206 9.59001 36.9672C9.80229 37.1794 9.96462 37.1794 10.1769 36.9672C11.0135 36.1061 11.8751 35.2699 12.7118 34.4212C12.7617 34.3588 12.8117 34.2964 12.8741 34.2215ZM29.6067 17.1357C30.3809 15.9376 30.3434 15.5757 29.3819 14.6147C28.0458 13.2793 26.7222 11.9563 25.3861 10.6209C24.5869 9.82215 24.2747 9.79719 23.2882 10.3089C22.9761 10.4711 23.0135 10.5585 23.2258 10.7832C24.4121 11.9563 25.5858 13.1295 26.7596 14.3151C27.7086 15.2387 28.6576 16.1872 29.6067 17.1357ZM8.20395 37.5788C8.10406 37.4789 8.02914 37.3791 7.94173 37.2917C6.39334 35.7442 4.83247 34.1841 3.28408 32.6365C2.52237 31.8752 2.53486 31.8877 1.76067 32.649C1.47347 32.936 1.46098 33.1108 1.74818 33.3978C3.23413 34.858 4.69511 36.3557 6.18106 37.8159C7.26743 38.8768 6.85536 38.9017 8.05411 37.7535C8.09157 37.6911 8.14152 37.6412 8.20395 37.5788ZM19.3049 46.5273C19.4672 46.3775 19.5421 46.3027 19.6171 46.2278C20.3413 45.5039 21.078 44.78 21.8023 44.0437C22.077 43.7691 22.5515 43.4945 22.564 43.2075C22.5765 42.8705 22.052 42.6334 21.8023 42.3214C21.6025 42.0718 21.4527 42.0718 21.2279 42.3089C20.4912 43.0702 19.7295 43.8066 18.9927 44.5679C18.7555 44.805 18.3559 45.0546 18.3309 45.3167C18.3059 45.6162 18.768 45.8159 18.9927 46.0905C19.0926 46.2153 19.1925 46.3651 19.3049 46.5273ZM17.7315 32.961C17.3819 33.1482 17.0198 33.3604 16.6452 33.5351C16.4329 33.6349 16.4204 33.7348 16.5578 33.9095C16.8824 34.3588 17.1946 34.8331 17.5068 35.2824C18.2185 36.3183 18.2185 36.3183 19.0177 35.3073C19.1051 35.195 19.1301 35.1201 19.0552 34.9953C18.6681 34.3588 18.2934 33.7098 17.9188 33.0733C17.8939 33.0234 17.8564 32.936 17.7315 32.961Z" fill="white"/>
<path d="M48 10.0343C47.7752 10.3963 47.4506 10.5086 47.0135 10.5086C43.717 10.4961 40.4329 10.5086 37.1363 10.4961C36.8491 10.4961 36.6368 10.571 36.4121 10.7332C35.4131 11.4821 34.4142 12.2184 33.4152 12.9672C33.1405 13.1794 32.8533 13.3167 32.5161 13.1544C32.1665 12.9922 32.1041 12.6677 32.1041 12.3307C32.1041 11.844 32.0916 11.3573 32.1041 10.883C32.1165 10.5959 32.0541 10.4587 31.7295 10.4836C31.4173 10.5211 31.1051 10.4961 30.7929 10.4961C30.1686 10.4836 29.9188 10.234 29.9188 9.60998C29.9188 7.50078 29.9188 5.40406 29.9188 3.29485C29.9188 2.53354 29.9313 1.77223 29.9063 0.99844C29.8939 0.574103 30.0187 0.24961 30.3684 0.0124805C36.1124 0.0124805 41.8564 0.0124805 47.5879 0C47.9126 0 47.975 0.0624025 47.975 0.386895C48 3.60686 48 6.81435 48 10.0343ZM33.5276 11.1451C34.3642 10.5211 35.1259 9.97192 35.8751 9.39781C36.1498 9.18565 36.4246 9.09828 36.7742 9.09828C39.9084 9.11076 43.0427 9.09828 46.1769 9.11076C46.4766 9.11076 46.6015 9.0858 46.6015 8.72387C46.589 6.41498 46.589 4.10608 46.6015 1.80967C46.6015 1.51014 46.5265 1.42278 46.2144 1.42278C41.3819 1.43526 36.5494 1.43526 31.717 1.42278C31.4048 1.42278 31.3299 1.52262 31.3424 1.80967C31.3548 3.80655 31.3424 5.80343 31.3548 7.78783C31.3548 8.21217 31.2175 8.74883 31.4298 9.01092C31.6545 9.28549 32.2164 9.07332 32.6285 9.09828C32.666 9.09828 32.6909 9.09828 32.7284 9.09828C33.2778 9.11076 33.5151 9.34789 33.5401 9.89703C33.5401 10.2715 33.5276 10.6459 33.5276 11.1451Z" fill="white"/>
<path d="M37.3361 21.1295C37.3361 20.0562 37.3361 18.9828 37.3361 17.897C37.3361 17.1357 37.8481 16.8237 38.5224 17.1981C40.4454 18.2714 42.3809 19.3573 44.3038 20.4431C44.9657 20.8175 44.9781 21.4415 44.3163 21.8159C42.3809 22.9142 40.4454 24 38.5099 25.0858C37.873 25.4353 37.3486 25.1232 37.3486 24.3994C37.3236 23.3011 37.3361 22.2153 37.3361 21.1295ZM42.6556 21.142C41.3195 20.3931 40.0583 19.6817 38.7596 18.9579C38.7596 20.4555 38.7596 21.8658 38.7596 23.3385C40.0583 22.6022 41.3195 21.8908 42.6556 21.142Z" fill="white"/>
<path d="M38.9344 4.44306C37.2986 4.44306 35.6629 4.44306 34.0271 4.44306C33.8897 4.44306 33.7399 4.44306 33.6025 4.43058C33.2404 4.39314 33.0406 4.18097 33.0031 3.81903C32.9657 3.44462 33.128 3.18253 33.5026 3.08268C33.6649 3.03276 33.8397 3.03276 34.0146 3.03276C37.3361 3.03276 40.6576 3.03276 43.9667 3.03276C44.0666 3.03276 44.154 3.03276 44.2539 3.03276C44.6909 3.0702 44.9906 3.35725 44.9906 3.73167C44.9906 4.13104 44.6909 4.43058 44.2289 4.43058C42.4558 4.44306 40.6951 4.44306 38.9344 4.44306Z" fill="white"/>
<path d="M37.0989 6.078C38.1727 6.078 39.2466 6.078 40.3205 6.078C40.8949 6.078 41.1821 6.31513 41.1821 6.76443C41.1821 7.21373 40.8824 7.47582 40.3205 7.47582C38.1478 7.47582 35.9875 7.47582 33.8148 7.47582C33.2778 7.47582 32.9657 7.18877 32.9781 6.75195C32.9906 6.32761 33.2778 6.09048 33.8148 6.078C34.9136 6.078 36.0125 6.078 37.0989 6.078Z" fill="white"/>
</svg>
