<svg width="48" height="48" viewBox="0 0 48 48" fill="none" xmlns="http://www.w3.org/2000/svg">
<path d="M14.4666 47.99C14.2858 47.7996 14.0246 47.8096 13.7935 47.7194C13.04 47.4088 12.4172 46.9278 11.9349 46.2664C11.7742 46.0459 11.7943 45.9157 12.0454 45.8154C12.0856 45.7954 12.1258 45.7653 12.166 45.7453C12.4473 45.585 12.7185 45.3445 13.0199 45.2843C13.3916 45.2042 13.462 45.6752 13.7131 45.8555C14.2255 46.2163 14.768 46.3866 15.3808 46.3866C21.1574 46.3866 26.934 46.3967 32.7106 46.3866C34.2376 46.3866 35.2121 45.4046 35.2623 43.8714C35.2824 43.2601 35.2422 42.6489 35.2724 42.0476C35.2924 41.6668 35.1618 41.5967 34.8102 41.5967C30.3597 41.6067 25.9193 41.6067 21.4688 41.6067C20.8359 41.6067 20.8359 41.6067 20.8359 40.9553C20.8359 40.0033 20.8359 40.0033 21.8104 40.0033C26.1303 40.0033 30.4502 40.0033 34.7801 40.0134C35.1618 40.0134 35.3025 39.9332 35.2824 39.5324C35.2523 38.7407 35.2824 37.939 35.2623 37.1474C35.2523 36.8868 35.3326 36.8067 35.6039 36.7967C36.8797 36.7666 36.8797 36.7566 36.8797 38.0392C36.8797 39.9432 36.8898 41.8472 36.8797 43.7511C36.8697 45.4948 36.1464 46.8175 34.549 47.6092C34.1974 47.7795 33.8056 47.8697 33.4339 48C27.1148 47.99 20.7957 47.99 14.4666 47.99Z" fill="white"/>
<path d="M24.1009 0C26.9541 0 29.7971 0 32.6503 0C33.6147 0 34.4988 0.23048 35.2824 0.821712C35.4934 0.982046 35.4934 1.07223 35.3226 1.23257C35.2623 1.28267 35.2221 1.35282 35.1618 1.40292C34.9509 1.6334 34.7901 1.95407 34.5289 2.08434C34.2275 2.23466 34.0166 1.83382 33.7252 1.75365C33.3736 1.66347 33.032 1.59332 32.6603 1.59332C26.9139 1.59332 21.1674 1.59332 15.421 1.59332C13.7031 1.59332 12.608 2.86597 12.809 4.56952C12.8491 4.87015 13.03 4.77996 13.1706 4.77996C14.4264 4.78998 15.6721 4.77996 16.9279 4.77996C19.6806 4.77996 22.4433 4.78998 25.196 4.76994C25.5375 4.76994 25.6882 4.83006 25.638 5.20084C25.5878 5.58163 25.7987 6.09269 25.5476 6.32317C25.3366 6.51357 24.8343 6.3833 24.4626 6.3833C20.7354 6.3833 17.0083 6.39332 13.2811 6.37328C12.8793 6.37328 12.7889 6.49353 12.7989 6.8643C12.819 8.0167 12.809 9.17912 12.7989 10.3315C12.7989 10.5921 12.8391 10.6923 13.1405 10.6121C13.4419 10.5319 13.7533 10.4919 14.0647 10.4818C14.3561 10.4618 14.4264 10.3315 14.4164 10.061C14.3963 9.51983 14.4264 8.96868 14.4063 8.41754C14.3862 8.08685 14.4565 7.95658 14.8383 7.9666C16.0238 7.98664 16.0238 7.9666 16.0238 9.15908C16.0238 9.55992 15.9032 10.0509 16.084 10.3516C16.2649 10.6422 16.8074 10.5019 17.1791 10.582C21.6798 11.4939 24.9649 15.0313 25.5275 19.6008C25.5677 19.8914 25.6581 20.0017 25.9595 19.9816C26.5522 19.9516 27.1449 19.9816 27.7477 19.9716C27.9687 19.9716 28.0692 20.0418 28.0391 20.2622C28.0391 20.2923 28.0391 20.3223 28.0391 20.3524C28.0592 21.5749 28.0592 21.5649 26.8436 21.5749C26.4417 21.5749 25.9494 21.4146 25.6581 21.6351C25.3768 21.8555 25.5074 22.3666 25.427 22.7474C24.543 27.2367 20.9163 30.5837 16.3553 31.0848C16.0539 31.1148 16.0037 31.2251 16.0037 31.4856C16.0238 32.0768 16.0037 32.6681 16.0137 33.2693C16.0137 33.4898 15.9534 33.5599 15.7224 33.5699C14.4063 33.6501 14.4063 33.6601 14.3963 32.3374C14.3963 31.9466 14.557 31.4756 14.336 31.195C14.125 30.9344 13.6327 31.0547 13.2711 30.9846C8.75028 30.1027 5.43502 26.5653 4.87243 21.9658C4.83224 21.605 4.70164 21.5349 4.38016 21.5549C3.81757 21.5749 3.25498 21.5549 2.69239 21.5649C2.45128 21.5749 2.38096 21.5048 2.37091 21.2543C2.33073 19.9516 2.32068 19.9616 3.63674 19.9516C4.00845 19.9516 4.48062 20.0718 4.74183 19.9015C5.00303 19.7211 4.89252 19.21 4.97289 18.8593C5.70626 15.4021 7.65524 12.8768 10.86 11.3336C11.1312 11.2033 11.2116 11.063 11.2116 10.7724C11.2016 8.58789 11.2016 6.40334 11.2016 4.20877C11.2016 2.48518 11.9249 1.17244 13.4821 0.370772C14.115 0.100209 14.778 0 15.4612 0C18.3444 0 21.2277 0 24.1009 0ZM20.856 27.5574C20.9966 27.4472 21.067 27.3971 21.1272 27.337C22.5438 26.0242 23.468 24.4409 23.8598 22.547C24.0607 21.595 24.0607 21.595 23.1064 21.595C22.4533 21.595 22.4533 21.595 22.4533 20.9336C22.4533 19.9916 22.4533 19.9916 23.3977 19.9916C24.0306 19.9916 24.0306 19.9916 23.9301 19.3603C23.9301 19.3303 23.9201 19.3002 23.9101 19.2701C23.0863 15.5624 20.856 13.1875 17.159 12.2255C16.0539 11.9349 16.0238 11.9549 16.0539 13.0873C16.0639 13.4881 15.9735 13.6484 15.5516 13.5983C15.2 13.5482 14.7278 13.6985 14.5168 13.5182C14.2958 13.3278 14.4264 12.8468 14.4565 12.496C14.4967 12.0752 14.3159 12.0451 13.9743 12.0952C12.7085 12.2956 11.523 12.7165 10.4581 13.428C8.22787 14.9111 6.92186 16.9854 6.50996 19.6209C6.46978 19.9015 6.52001 20.0217 6.83144 19.9916C7.14288 19.9616 7.45431 19.9916 7.76574 19.9816C7.89635 19.9816 8.02695 19.9916 8.0169 20.172C8.00685 20.623 8.12741 21.134 7.95662 21.5048C7.84611 21.7453 7.29357 21.5549 6.94195 21.585C6.91181 21.585 6.88167 21.585 6.85154 21.585C6.50996 21.5248 6.46978 21.6852 6.50996 21.9758C6.70084 23.1783 7.07255 24.3006 7.70547 25.3428C8.20778 26.1545 8.79046 26.886 9.60421 27.5273C9.6243 27.2267 9.64439 27.0063 9.66448 26.7758C9.81518 24.9119 10.6892 23.4689 12.2765 22.4668C12.608 22.2564 12.608 22.1562 12.3368 21.8856C10.9906 20.5228 10.8801 18.2981 12.0555 16.7349C13.2108 15.2017 15.421 14.7106 17.1087 15.6225C19.4897 16.9052 19.982 20.0017 18.0933 21.9357C17.8622 22.1762 17.8823 22.2664 18.1636 22.4167C18.5655 22.6271 18.907 22.9278 19.2285 23.2484C20.3637 24.4309 20.866 25.8539 20.856 27.5574ZM11.2317 27.5173C11.2317 27.7378 11.2518 27.9582 11.2317 28.1687C11.1915 28.5094 11.3121 28.6898 11.6436 28.8301C12.4272 29.1507 13.2309 29.3812 14.0647 29.5115C14.336 29.5516 14.4766 29.5215 14.4465 29.1908C14.4164 28.9102 14.4565 28.6296 14.4364 28.3491C14.4063 28.0585 14.5068 27.9582 14.7981 27.9883C15.2 28.0284 15.7123 27.828 15.9735 28.0785C16.2146 28.309 16.0539 28.82 16.0338 29.2008C16.0238 29.5315 16.1644 29.5516 16.4156 29.5115C17.3197 29.3712 18.1837 29.1207 19.0075 28.7399C19.1883 28.6597 19.2586 28.5495 19.2486 28.3491C19.2285 27.7779 19.2486 27.1967 19.1783 26.6255C18.907 24.3407 16.4758 22.6973 14.2556 23.3286C12.3066 23.8797 11.2417 25.3628 11.2317 27.5173ZM12.8491 19.1299C12.809 20.4526 13.8236 21.5349 15.1497 21.5749C16.506 21.6251 17.6312 20.5528 17.6412 19.21C17.6613 17.9273 16.5863 16.8251 15.2703 16.785C13.9944 16.7549 12.8793 17.8171 12.8491 19.1299Z" fill="white"/>
<path d="M36.8898 22.7775C38.4771 21.3846 39.9639 20.0718 41.4508 18.7691C42.2444 18.0676 43.0381 17.3562 43.8518 16.6647C44.9971 15.7027 46.5543 15.833 47.5087 16.8852C48.1617 17.5967 48.2019 19.4806 47.3982 20.3424C45.8711 21.9557 44.4446 23.6493 42.9678 25.3127C40.7576 27.8079 38.5575 30.3031 36.3473 32.7883C36.1765 32.9787 36.066 33.1791 36.0258 33.4397C35.5637 36.4459 33.3234 38.3699 30.2693 38.39C28.5615 38.4 26.8536 38.39 25.1457 38.39C24.6836 38.39 24.2516 38.3198 24.0909 37.8088C23.9402 37.3077 24.2416 37.0171 24.6233 36.7866C25.3467 36.3457 25.6481 35.6843 25.6481 34.8626C25.6481 33.8004 25.5878 32.7382 25.9896 31.7161C26.8134 29.5916 28.3706 28.3791 30.6209 28.0384C30.8319 28.0083 31.0027 27.9683 31.1634 27.818C32.4795 26.6455 33.8156 25.4731 35.1418 24.3106C35.3025 24.1704 35.4532 24.0601 35.2824 23.8296C35.2422 23.7795 35.2724 23.6793 35.2724 23.5992C35.2724 21.2142 35.2824 18.8192 35.2623 16.4342C35.2623 16.0935 35.3326 15.9833 35.6943 15.9933C36.8797 16.0134 36.8797 15.9933 36.8797 17.1858C36.8898 19.0096 36.8898 20.8334 36.8898 22.7775ZM45.4994 17.6167C45.2583 17.5967 45.0273 17.757 44.8163 17.9474C40.7777 21.4948 36.7491 25.0522 32.7005 28.5996C32.4694 28.8 32.4895 28.9002 32.6905 29.1006C33.464 29.8522 34.2376 30.6038 34.981 31.3854C35.2221 31.6359 35.3326 31.5457 35.5135 31.3453C39.0296 27.357 42.5458 23.3787 46.0721 19.4004C46.1926 19.2601 46.3232 19.1098 46.4036 18.9495C46.705 18.3282 46.2529 17.6167 45.4994 17.6167ZM28.8227 36.7967C29.3049 36.7967 29.7871 36.8067 30.2794 36.7967C32.4996 36.7566 34.0969 35.4238 34.4285 33.3695C34.4586 33.1691 34.4184 33.0589 34.2878 32.9186C33.233 31.8764 32.1882 30.8242 31.1333 29.782C31.0127 29.6618 30.9022 29.6117 30.7214 29.6418C29.3953 29.8722 28.3907 30.5537 27.7377 31.7361C27.3961 32.3474 27.2856 33.0188 27.2554 33.7102C27.2253 34.6823 27.366 35.6743 26.8938 36.5962C26.7632 36.8468 27.0143 36.7866 27.1248 36.7866C27.6975 36.7967 28.2601 36.7967 28.8227 36.7967Z" fill="white"/>
<path d="M36.8797 14.4C34.0769 14.4 31.2739 14.4 28.471 14.4C27.4966 14.4 27.2554 14.1595 27.2554 13.1775C27.2554 10.2614 27.2554 7.33528 27.2554 4.41921C27.2554 3.42714 27.4865 3.18664 28.461 3.18664C34.0768 3.18664 39.7027 3.18664 45.3186 3.18664C46.273 3.18664 46.504 3.42714 46.504 4.37912C46.504 7.3453 46.504 10.3115 46.504 13.2777C46.504 14.1294 46.2428 14.39 45.3789 14.39C42.5458 14.41 39.7128 14.4 36.8797 14.4ZM36.8697 12.7967C39.4014 12.7967 41.9431 12.7866 44.4747 12.8067C44.8364 12.8067 44.9067 12.7065 44.9067 12.3658C44.8866 9.98079 44.8966 7.5858 44.9067 5.20084C44.9067 4.88017 44.8364 4.77996 44.5048 4.77996C39.4315 4.78998 34.3581 4.78998 29.2948 4.77996C28.9432 4.77996 28.8528 4.86013 28.8528 5.22088C28.8729 7.59582 28.8729 9.97077 28.8528 12.3457C28.8528 12.7065 28.9332 12.8167 29.3149 12.8167C31.8365 12.7967 34.3481 12.7967 36.8697 12.7967Z" fill="white"/>
<path d="M9.63435 43.9816C6.8013 43.9816 3.96827 43.9816 1.13523 43.9816C0.24111 43.9816 0 43.7311 0 42.8392C0 40.9353 0 39.0313 0 37.1273C0 36.2455 0.251156 35.995 1.15532 35.995C4.36007 35.995 7.57487 35.985 10.7796 36.005C11.1614 36.005 11.2417 35.9048 11.2317 35.5441C11.2116 34.4818 11.2317 33.4196 11.2217 32.3574C11.2217 32.0768 11.292 31.9666 11.5934 31.9866C11.8847 32.0067 12.1861 32.0167 12.4875 31.9866C12.7989 31.9566 12.8491 32.0969 12.8491 32.3674C12.8391 33.4597 12.8592 34.552 12.8391 35.6443C12.8391 35.9349 12.9094 36.005 13.2008 36.005C14.8584 35.995 16.516 35.995 18.1837 35.995C18.9773 35.995 19.2586 36.2756 19.2687 37.0572C19.2687 39.0113 19.2687 40.9653 19.2687 42.9094C19.2687 43.701 18.9974 43.9816 18.2038 43.9816C15.3306 43.9816 12.4875 43.9816 9.63435 43.9816ZM9.60421 42.3883C12.156 42.3883 14.7077 42.3883 17.2494 42.3883C17.5307 42.3883 17.6613 42.3582 17.6512 42.0175C17.6312 40.6647 17.6312 39.3019 17.6512 37.9491C17.6512 37.6585 17.5809 37.5883 17.2896 37.5883C12.176 37.5983 7.06251 37.5983 1.94897 37.5883C1.64758 37.5883 1.58731 37.6785 1.59735 37.9591C1.6074 39.2818 1.61744 40.6146 1.59735 41.9374C1.58731 42.2981 1.67772 42.3983 2.04943 42.3983C4.57104 42.3783 7.0826 42.3883 9.60421 42.3883Z" fill="white"/>
<path d="M4.83224 11.1933C3.57646 11.1933 2.33073 11.1933 1.07495 11.1933C0.271248 11.1933 0 10.9228 0 10.1311C0 8.17704 0 6.23299 0 4.27891C0 3.48727 0.281295 3.19666 1.0649 3.19666C3.56642 3.19666 6.06793 3.19666 8.56944 3.19666C9.32291 3.19666 9.61425 3.47724 9.61425 4.24885C9.6243 6.21294 9.61425 8.17704 9.61425 10.1511C9.61425 10.9428 9.343 11.2033 8.52926 11.2033C7.30362 11.2033 6.06793 11.1933 4.83224 11.1933ZM4.83224 9.58998C5.76654 9.58998 6.71089 9.57996 7.64519 9.6C7.92648 9.61002 8.0169 9.52985 8.0169 9.23925C7.99681 7.87641 7.99681 6.52359 8.0169 5.16075C8.0169 4.83006 7.90639 4.77996 7.61505 4.77996C5.7364 4.78998 3.85776 4.78998 1.97911 4.77996C1.67772 4.77996 1.58731 4.86013 1.58731 5.17077C1.6074 6.51357 1.6074 7.85637 1.58731 9.19917C1.57726 9.5499 1.69781 9.6 2.00925 9.6C2.95359 9.57996 3.89794 9.58998 4.83224 9.58998Z" fill="white"/>
<path d="M24.8644 44.0117C24.8644 44.8033 24.8644 44.8033 24.0909 44.8033C23.257 44.8033 23.257 44.8033 23.257 43.9415C23.257 43.2 23.257 43.2 23.9804 43.2C24.0105 43.2 24.0407 43.2 24.0708 43.2C24.8644 43.2 24.8644 43.2 24.8644 44.0117Z" fill="white"/>
<path d="M36.8697 11.1933C34.9006 11.1933 32.9316 11.1833 30.9525 11.2033C30.5808 11.2033 30.4301 11.1432 30.4401 10.7324C30.4702 9.6 30.4502 9.58998 31.5854 9.58998C35.3226 9.58998 39.0598 9.6 42.807 9.57996C43.1888 9.57996 43.3596 9.6501 43.2993 10.061C43.2491 10.4317 43.46 10.9228 43.2089 11.1332C42.9979 11.3136 42.5257 11.1933 42.1641 11.1933C40.406 11.1933 38.6378 11.1933 36.8697 11.1933Z" fill="white"/>
<path d="M39.3009 7.99666C38.0853 7.99666 36.8597 7.98664 35.6441 8.00668C35.3527 8.00668 35.2623 7.92651 35.2824 7.63591C35.3025 7.3453 35.3025 7.04468 35.2824 6.74405C35.2623 6.44342 35.3929 6.3833 35.6642 6.3833C38.0853 6.39332 40.5064 6.39332 42.9376 6.3833C43.2591 6.3833 43.3495 6.48351 43.3194 6.78413C43.2792 7.16493 43.4801 7.66597 43.2491 7.91649C43.018 8.16701 42.5157 7.98664 42.1239 7.99666C41.1795 7.99666 40.2352 7.99666 39.3009 7.99666Z" fill="white"/>
<path d="M32.1279 6.39332C32.5297 6.39332 32.9416 6.41336 33.3435 6.3833C33.6248 6.37328 33.675 6.47349 33.685 6.73403C33.7152 7.98664 33.7252 7.98664 32.4895 7.98664C31.9169 7.98664 31.3342 7.97662 30.7616 7.98664C30.5406 7.98664 30.4803 7.91649 30.4602 7.69603C30.3899 6.3833 30.3899 6.3833 31.7059 6.3833C31.8466 6.39332 31.9872 6.39332 32.1279 6.39332Z" fill="white"/>
<path d="M12.3971 40.785C11.3221 40.785 10.2371 40.7749 9.16217 40.795C8.90097 40.795 8.80051 40.7349 8.8206 40.4643C8.86078 40.0534 8.64981 39.5123 8.91102 39.2618C9.11194 39.0614 9.65444 39.2017 10.0362 39.2017C11.8947 39.2017 13.7633 39.2117 15.6219 39.1917C15.9434 39.1917 16.084 39.2518 16.0438 39.6025C15.9936 39.9833 16.2046 40.4843 15.9635 40.7248C15.7224 40.9653 15.2201 40.785 14.8383 40.795C14.0246 40.795 13.2108 40.785 12.3971 40.785Z" fill="white"/>
<path d="M5.214 40.785C4.65141 40.785 4.08882 40.7749 3.52623 40.785C3.29517 40.795 3.20475 40.7449 3.1947 40.4843C3.15452 39.1816 3.14447 39.1816 4.44044 39.1816C5.25418 39.1816 6.06793 39.1916 6.88167 39.1716C7.13283 39.1716 7.25339 39.2217 7.22325 39.5023C7.18306 39.9132 7.39403 40.4543 7.13283 40.7148C6.93191 40.9152 6.38941 40.7749 6.00765 40.7749C5.74645 40.785 5.4752 40.785 5.214 40.785Z" fill="white"/>
<path d="M4.8021 7.99666C4.38016 7.99666 3.95822 7.97662 3.53628 8.00668C3.26503 8.0167 3.20475 7.91649 3.20475 7.65595C3.18466 6.39332 3.17461 6.39332 4.45048 6.39332C4.99298 6.39332 5.54552 6.40334 6.08802 6.39332C6.31909 6.3833 6.4095 6.44342 6.41955 6.69395C6.47983 7.99666 6.48987 7.99666 5.17381 7.99666C5.05326 7.99666 4.92266 7.99666 4.8021 7.99666Z" fill="white"/>
</svg>
