<svg width="24" height="24" viewBox="0 0 24 24" fill="none" xmlns="http://www.w3.org/2000/svg">
<path d="M12.0089 0.000807564C14.963 0.000807564 17.9171 0.000807564 20.8713 0.000807564C22.3701 0.000807564 23.5634 0.931122 23.9127 2.35566C23.9782 2.61005 24 2.8717 24 3.14062C24 9.03503 24 14.9294 24 20.8238C24 22.6627 22.6757 23.9782 20.8349 23.9782C19.2414 23.9782 17.6552 23.9782 16.0617 23.9855C15.8653 23.9855 15.807 23.9491 15.807 23.7383C15.8143 20.5767 15.8143 17.4151 15.807 14.2608C15.807 14.0645 15.8362 13.9991 16.0544 14.0064C16.8839 14.0209 17.7061 14.0064 18.5356 14.0137C18.7175 14.0137 18.783 13.9701 18.8048 13.7811C18.9067 12.5818 19.0158 11.3753 19.1322 10.1761C19.1468 9.99441 19.0449 10.0162 18.9358 10.0162C18.0336 10.0162 17.1386 10.0089 16.2363 10.0235C16.0326 10.0235 15.9526 9.98715 15.9598 9.76184C15.9817 9.29668 15.9598 8.83879 15.9671 8.37363C15.9817 7.77765 16.2873 7.47239 16.8839 7.47239C17.546 7.46512 18.2082 7.46512 18.8776 7.47239C19.0522 7.47239 19.0886 7.42151 19.0886 7.26162C19.0813 6.25135 19.0813 5.24836 19.0886 4.2381C19.0886 4.08547 19.0449 4.04186 18.8921 4.04186C17.8298 4.04913 16.7675 4.02732 15.7052 4.04913C13.5005 4.09274 11.9943 5.53908 11.827 7.73404C11.7761 8.41724 11.7979 9.09317 11.8052 9.77637C11.8052 9.98715 11.7397 10.0308 11.5432 10.0308C11.0339 10.0162 10.5246 10.0308 10.0152 10.0235C9.86243 10.0235 9.81877 10.0598 9.81877 10.2197C9.82605 11.4262 9.82605 12.6327 9.81877 13.8465C9.81877 13.9919 9.86243 14.0282 10.0007 14.0282C10.5391 14.0209 11.0703 14.0282 11.6087 14.0209C11.7688 14.0209 11.827 14.05 11.827 14.2244C11.8197 17.4151 11.8197 20.5985 11.827 23.7892C11.827 23.9564 11.7833 24 11.616 24C8.7419 23.9927 5.86782 24.0073 3.00101 23.9927C1.31294 23.9782 0.00323385 22.6191 0.00323385 20.8965C-0.00404231 17.2116 0.00323385 13.5194 0.00323385 9.83452C0.00323385 7.62502 0.00323385 5.42279 0.00323385 3.2133C0.00323385 1.3236 1.31294 0.0226118 3.21202 0.0226118C6.13703 -0.00646051 9.06933 0.000807564 12.0089 0.000807564Z" fill="white"/>
</svg>
