<svg width="96" height="58" viewBox="0 0 96 58" fill="none" xmlns="http://www.w3.org/2000/svg">
<path d="M90.005 4.14681C86.6892 4.14681 84.01 6.50757 84.01 9.42928C84.01 9.89676 84.1028 10.3525 84.2354 10.7849L56.6212 35.1169C56.1304 35.0001 55.6264 34.9183 55.0826 34.9183C54.5521 34.9183 54.0348 35.0001 53.5441 35.1169L43.2385 26.0362C43.3711 25.6038 43.464 25.1598 43.464 24.6806C43.464 21.7589 40.7847 19.3981 37.4689 19.3981C34.1531 19.3981 31.4739 21.7589 31.4739 24.6806C31.4739 25.1481 31.5668 25.6038 31.6994 26.0362L7.53364 47.3297C7.0429 47.2128 6.53885 47.131 5.99505 47.131C2.67922 47.131 0 49.4917 0 52.4134C0 55.3351 2.67922 57.6959 5.99505 57.6959C9.31088 57.6959 11.9901 55.3351 11.9901 52.4134C11.9901 51.946 11.8972 51.4902 11.7646 51.0578L35.9304 29.7643C36.4211 29.8812 36.9251 29.963 37.4689 29.963C37.9994 29.963 38.5035 29.8812 39.0075 29.7643L49.3131 38.845C49.1805 39.2775 49.0876 39.7215 49.0876 40.2007C49.0876 43.1224 51.7668 45.4832 55.0826 45.4832C58.3985 45.4832 61.0777 43.1224 61.0777 40.2007C61.0777 39.7332 60.9848 39.2775 60.8522 38.845L88.4664 14.513C88.9572 14.6299 89.4612 14.7117 90.005 14.7117C93.3208 14.7117 96 12.351 96 9.42928C96 6.51926 93.3208 4.14681 90.005 4.14681Z" fill="white"/>
<path d="M42.0979 4.77787C42.0979 2.534 40.0287 0.710876 37.4822 0.710876C34.9224 0.710876 32.8666 2.534 32.8666 4.77787C32.8666 5.42065 33.0522 6.0167 33.344 6.5543L20.2664 18.0775C19.6563 17.8087 18.9798 17.6568 18.2504 17.6568C17.5209 17.6568 16.8445 17.8204 16.2344 18.0775L10.1598 12.7249C10.4648 12.1873 10.6372 11.5913 10.6372 10.9486C10.6372 8.70469 8.56816 6.88149 6.0216 6.88149C3.46178 6.88149 1.40591 8.70469 1.40591 10.9486C1.40591 13.1924 3.47504 15.0156 6.0216 15.0156C6.75109 15.0156 7.42746 14.852 8.03757 14.5948L14.1122 19.9474C13.8071 20.485 13.6347 21.081 13.6347 21.7238C13.6347 23.9677 15.7038 25.7909 18.2504 25.7909C20.7969 25.7909 22.8661 23.9677 22.8661 21.7238C22.8661 21.081 22.6803 20.485 22.3885 19.9474L35.4662 8.42416C36.0763 8.68127 36.766 8.84494 37.4822 8.84494C38.2117 8.84494 38.8881 8.68127 39.4982 8.42416L61.0909 27.4504C61.7541 26.8543 62.4703 26.2349 63.2131 25.5804L41.6203 6.5543C41.9121 6.0167 42.0979 5.42065 42.0979 4.77787ZM91.3844 48.0543C90.6549 48.0543 89.9784 48.2179 89.3683 48.475L71.6884 33.0366L69.5662 34.9066L87.2462 50.3448C86.9412 50.8824 86.7688 51.4785 86.7688 52.1213C86.7688 54.3651 88.8378 56.1883 91.3844 56.1883C93.9309 56.1883 96 54.3651 96 52.1213C96 49.8774 93.9309 48.0543 91.3844 48.0543Z" fill="white"/>
</svg>
