<svg width="21" height="24" viewBox="0 0 21 24" fill="none" xmlns="http://www.w3.org/2000/svg">
<path d="M0.517732 24C0.106235 23.8121 -0.0059919 23.48 0.000242911 23.0352C0.0812955 18.7189 3.3421 14.91 7.58177 14.1958C8.1055 14.1081 8.62922 14.058 9.15918 14.0642C10.0944 14.0642 11.0234 14.058 11.9586 14.0642C16.0175 14.1081 19.5963 16.8771 20.6686 20.8175C20.8744 21.563 20.9866 22.3273 20.9991 23.1042C21.0116 23.6241 20.8993 23.8058 20.4442 24C13.7979 24 7.15781 24 0.517732 24Z" fill="#707070"/>
<path d="M10.4934 12.6547C7.02688 12.6547 4.19627 9.80424 4.20251 6.32107C4.20251 2.83791 7.03311 -0.00625435 10.5059 1.03293e-05C13.9787 1.03293e-05 16.8031 2.84418 16.7968 6.3336C16.7968 9.81676 13.9662 12.6547 10.4934 12.6547Z" fill="#707070"/>
</svg>
