<svg width="48" height="48" viewBox="0 0 48 48" fill="none" xmlns="http://www.w3.org/2000/svg">
<path d="M0 38.1599C0 26.0693 0 13.9786 0 1.87549C0.337676 0.925241 0.975508 0.275072 1.96352 0C16.6587 0 31.3413 0 46.0365 0C47.062 0.287575 47.7124 0.950247 48 1.96301C48 14.0287 48 26.0818 48 38.1474C47.4372 39.6478 46.2866 40.0354 44.7858 40.0229C39.8958 39.9729 35.0182 40.0104 30.1282 39.9979C29.7155 39.9979 29.6655 40.0979 29.7905 40.473C30.3658 42.0735 31.5414 42.9362 33.1548 43.2238C34.3929 43.4488 35.2809 44.074 35.7686 45.2368C36.3064 46.5246 35.9938 47.3748 34.7806 48C27.5644 48 20.3356 48 13.1193 48C13.1068 47.9 13.0068 47.9 12.9442 47.8625C12.1813 47.4499 11.8812 46.8247 12.0188 45.962C12.2564 44.4741 13.3695 43.4113 14.8702 43.2238C16.346 43.0487 17.7968 41.8109 18.222 40.3855C18.3095 40.1104 18.297 39.9854 17.9594 40.0104C17.5341 40.0354 17.1214 40.0104 16.6962 40.0104C11.9937 40.0104 7.3038 40.0104 2.60136 40.0104C1.3382 40.0104 0.550287 39.4728 0.100052 38.2975C0.0750391 38.235 0.0625326 38.1724 0 38.1599ZM23.975 33.5962C31.2913 33.5962 38.5951 33.5962 45.9114 33.6087C46.3366 33.6087 46.4117 33.4837 46.4117 33.0961C46.3992 22.9935 46.3992 12.8784 46.3992 2.77572C46.3992 1.83798 46.174 1.61292 45.2486 1.61292C31.0787 1.61292 16.9088 1.61292 2.72642 1.61292C1.82595 1.61292 1.57582 1.85048 1.57582 2.73821C1.57582 12.8659 1.57582 22.981 1.56331 33.1086C1.56331 33.5212 1.65086 33.6213 2.06358 33.6213C9.37989 33.5837 16.6837 33.5962 23.975 33.5962ZM24.025 35.1967C22.4742 35.1967 20.9359 35.1967 19.3851 35.1967C13.6321 35.1967 7.8791 35.2092 2.13861 35.1842C1.67587 35.1842 1.56331 35.3092 1.58833 35.7468C1.62585 36.322 1.58833 36.8971 1.60083 37.4848C1.61334 38.0724 1.90099 38.3725 2.4888 38.41C2.60136 38.41 2.70141 38.41 2.81397 38.41C16.9463 38.41 31.0662 38.41 45.1985 38.41C45.3111 38.41 45.4237 38.41 45.5237 38.41C46.1115 38.3725 46.3992 38.0849 46.4117 37.4848C46.4242 36.9096 46.3867 36.322 46.4242 35.7468C46.4492 35.3092 46.3491 35.1842 45.8739 35.1842C38.5826 35.1967 31.3038 35.1967 24.025 35.1967ZM24.0125 46.3996C27.3267 46.3996 30.641 46.3996 33.9427 46.3996C34.4554 46.3996 34.468 46.3746 34.3054 45.8869C34.0802 45.2368 33.4924 44.8117 32.7671 44.8117C30.9661 44.7992 29.1777 44.8117 27.3768 44.8117C23.3622 44.8117 19.3476 44.8117 15.333 44.8117C14.4825 44.8117 13.9072 45.2118 13.6696 45.912C13.5446 46.262 13.5571 46.4246 14.0198 46.4121C17.359 46.3871 20.6858 46.3996 24.0125 46.3996ZM18.3721 43.1612C22.149 43.1612 25.8635 43.1612 29.6154 43.1612C28.8025 42.311 28.2772 41.3733 28.1021 40.248C28.0771 40.0604 27.9896 39.9979 27.7895 39.9979C25.2632 39.9979 22.7243 39.9979 20.198 39.9979C20.0104 39.9979 19.9104 40.0604 19.8854 40.248C19.7228 41.3733 19.185 42.311 18.3721 43.1612Z" fill="white"/>
<path d="M24 31.9958C17.7217 31.9958 11.4435 31.9958 5.15268 31.9958C3.75195 31.9958 3.18916 31.4332 3.18916 30.0453C3.18916 21.7307 3.18916 13.4285 3.18916 5.11383C3.18916 3.80099 3.78947 3.20083 5.10266 3.20083C17.6967 3.20083 30.2908 3.20083 42.8848 3.20083C44.198 3.20083 44.8108 3.80099 44.8108 5.11383C44.8108 13.441 44.8108 21.7682 44.8108 30.0953C44.8108 31.4207 44.223 31.9958 42.8973 31.9958C36.5941 31.9958 30.3033 31.9958 24 31.9958ZM24.0125 4.78875C17.7718 4.78875 11.5435 4.78875 5.30276 4.77624C4.86503 4.77624 4.77749 4.90128 4.77749 5.31388C4.79 10.2777 4.79 15.254 4.79 20.2178C4.79 23.4686 4.79 26.7195 4.77749 29.9703C4.77749 30.2704 4.81501 30.4079 5.1777 30.3954C6.26576 30.3704 7.36634 30.3704 8.4544 30.3954C8.74205 30.3954 8.8296 30.3204 8.84211 30.0453C8.89213 29.2451 9.31735 28.72 10.0803 28.4574C10.5805 28.2824 11.0558 28.0573 11.556 27.8698C11.7561 27.7947 11.8562 27.6947 11.9187 27.4947C12.1438 26.732 12.444 25.9943 12.8317 25.2941C12.9317 25.119 12.9442 24.9565 12.8567 24.769C12.6191 24.2563 12.419 23.7312 12.1939 23.2185C11.8687 22.5059 11.9687 21.8682 12.494 21.268C13.0068 20.6804 13.5571 20.1302 14.1574 19.6176C14.6952 19.155 15.2955 19.0675 15.9458 19.33C16.4836 19.5426 17.0089 19.7802 17.5341 20.0177C17.7467 20.1177 17.9218 20.1177 18.1344 19.9927C18.7973 19.6176 19.5102 19.3175 20.248 19.1175C20.4857 19.055 20.6107 18.9174 20.6983 18.7049C20.8859 18.1922 21.0985 17.6921 21.2986 17.1795C21.5862 16.4293 22.149 16.0417 22.9495 16.0292C23.6498 16.0167 24.3502 16.0167 25.0631 16.0292C25.876 16.0417 26.4513 16.4293 26.7514 17.2045C26.9515 17.7171 27.1642 18.2172 27.3517 18.7299C27.4268 18.9424 27.5519 19.055 27.7645 19.1175C28.5149 19.3425 29.2402 19.6301 29.9156 20.0052C30.1032 20.1177 30.2783 20.1302 30.4784 20.0302C31.0162 19.7802 31.5539 19.5426 32.1042 19.33C32.7295 19.08 33.3299 19.155 33.8551 19.6051C34.5055 20.1427 35.1058 20.7429 35.6311 21.3931C36.0438 21.8932 36.1313 22.4558 35.8937 23.056C35.8062 23.2936 35.7311 23.5311 35.5935 23.7437C35.0808 24.5439 35.0057 25.3441 35.606 26.1318C35.6186 26.1568 35.6311 26.1943 35.6436 26.2193C35.8312 27.5447 36.7316 28.1073 37.9072 28.4324C38.6952 28.645 39.1329 29.2201 39.1579 30.0453C39.1704 30.3704 39.3205 30.3704 39.5706 30.3704C40.6212 30.3579 41.6592 30.3454 42.7097 30.3704C43.0975 30.3829 43.235 30.3079 43.235 29.8703C43.2225 21.6681 43.2225 13.466 43.235 5.26387C43.235 4.86377 43.1475 4.75124 42.7348 4.75124C36.4815 4.80125 30.2408 4.78875 24.0125 4.78875ZM24 30.3954C26.5138 30.3954 29.0276 30.3954 31.5414 30.3954C31.8541 30.3954 31.9541 30.3579 31.9041 29.9953C31.2913 26.0818 27.9396 23.1935 23.9875 23.1935C20.0354 23.206 16.7212 26.0568 16.0834 29.9578C16.0208 30.3329 16.0959 30.3954 16.4461 30.3954C18.9724 30.3829 21.4862 30.3954 24 30.3954ZM35.581 30.3954C36.1313 30.3954 36.6691 30.4079 37.2194 30.3954C37.3319 30.3954 37.5195 30.4954 37.5696 30.2829C37.6071 30.0953 37.4695 30.0203 37.3069 29.9578C36.6566 29.6952 36.0063 29.4202 35.3559 29.1701C34.9932 29.0326 34.7681 28.795 34.6806 28.4074C34.4429 27.4321 34.0552 26.5194 33.5425 25.6567C33.3424 25.3191 33.3174 24.994 33.4799 24.6314C33.7426 24.0313 33.9802 23.4186 34.2553 22.8309C34.3679 22.5934 34.3679 22.4183 34.1803 22.2058C33.8051 21.7807 33.4049 21.3931 32.9922 21.0055C32.8171 20.8429 32.667 20.8429 32.4544 20.9305C31.8416 21.2055 31.2163 21.4431 30.6034 21.7182C30.2282 21.8807 29.9031 21.8807 29.5404 21.6681C28.6774 21.1555 27.7645 20.7679 26.789 20.5303C26.4138 20.4428 26.1636 20.2178 26.0261 19.8427C25.8009 19.23 25.5258 18.6299 25.3007 18.0172C25.2006 17.7546 25.0756 17.6421 24.8004 17.6421C24.2501 17.6421 23.7124 17.6546 23.1621 17.6296C22.8869 17.6171 22.7744 17.7546 22.6868 17.9797C22.4367 18.6173 22.1615 19.2425 21.9239 19.8927C21.7863 20.2428 21.5487 20.4553 21.186 20.5429C20.198 20.7804 19.26 21.1805 18.3846 21.6931C18.0594 21.8807 17.7467 21.9057 17.4091 21.7557C16.7837 21.4806 16.1459 21.218 15.5206 20.943C15.3205 20.8554 15.1954 20.8679 15.0203 21.0055C14.5576 21.3931 14.1449 21.8057 13.7447 22.2433C13.5946 22.4058 13.5946 22.5434 13.6821 22.7434C13.9573 23.3561 14.2074 23.9812 14.47 24.5939C14.6451 24.9815 14.6326 25.3316 14.4075 25.7067C13.8947 26.5444 13.5195 27.4571 13.2819 28.4199C13.1819 28.82 12.9567 29.0701 12.569 29.2076C11.9437 29.4452 11.3309 29.7077 10.7056 29.9453C10.5305 30.0203 10.3929 30.1078 10.4304 30.3079C10.468 30.5204 10.6556 30.4204 10.7806 30.4204C11.7936 30.4329 12.8192 30.3954 13.8322 30.4454C14.32 30.4704 14.4325 30.2829 14.4951 29.8453C15.1079 26.1068 17.1965 23.4936 20.7358 22.2183C24.2626 20.943 27.5393 21.6306 30.3783 24.1063C32.1793 25.6692 33.1798 27.6947 33.4799 30.0703C33.5175 30.3579 33.605 30.4579 33.9052 30.4454C34.4805 30.3704 35.0307 30.3954 35.581 30.3954Z" fill="white"/>
<path d="M25.6008 8.8398C25.1006 9.41495 24.8129 10.1276 24 10.1151C23.1871 10.1151 22.9119 9.42745 22.4867 8.91482C22.3366 9.00235 22.4117 9.13988 22.4117 9.23991C22.3992 10.5778 22.4117 11.9281 22.4117 13.266C22.4117 13.391 22.4242 13.516 22.3992 13.6411C22.3491 14.0787 21.999 14.4038 21.5862 14.3912C21.161 14.3787 20.8233 14.0537 20.8233 13.6035C20.8108 11.578 20.8108 9.53998 20.8233 7.51446C20.8233 7.00182 21.136 6.63923 21.6113 6.46418C22.099 6.28914 22.5492 6.40167 22.8869 6.80177C23.2246 7.18937 23.5248 7.61448 23.8249 8.02709C23.9625 8.22714 24.05 8.21464 24.1876 8.02709C24.4502 7.65199 24.7254 7.2894 25.0005 6.93931C25.3882 6.43918 25.876 6.28914 26.4013 6.46418C26.9015 6.63923 27.2017 7.06434 27.2017 7.6645C27.2017 9.6025 27.2017 11.5405 27.2017 13.4785C27.2017 14.0412 26.889 14.3912 26.4263 14.4038C25.9385 14.4163 25.6133 14.0412 25.6133 13.466C25.6133 12.1032 25.6133 10.7528 25.6133 9.38995C25.6008 9.23991 25.6008 9.08987 25.6008 8.8398Z" fill="white"/>
<path d="M31.2288 6.38916C32.0292 6.42667 32.7295 6.76426 33.2048 7.47695C33.4799 7.90206 33.4174 8.32717 33.0672 8.60224C32.717 8.87731 32.2668 8.8273 31.9416 8.4397C31.729 8.18963 31.5039 7.98958 31.1662 7.98958C30.766 8.00208 30.4284 8.35217 30.4033 8.75228C30.3783 9.13988 30.6535 9.47747 31.0412 9.56499C31.2913 9.615 31.5414 9.615 31.7791 9.66502C32.7796 9.89008 33.53 10.8153 33.58 11.8531C33.63 12.9659 32.9922 13.9036 31.9416 14.2537C30.9536 14.5913 29.8405 14.2287 29.2402 13.3785C28.9276 12.9284 28.9651 12.4532 29.3403 12.1782C29.728 11.8906 30.1532 11.9656 30.5159 12.4157C30.7535 12.7158 31.0412 12.8408 31.4164 12.7408C31.704 12.6658 31.9041 12.4657 31.9667 12.1657C32.0292 11.8281 31.9416 11.553 31.654 11.3405C31.4414 11.1904 31.1787 11.1904 30.9411 11.1654C29.6905 11.0279 28.74 9.92759 28.8025 8.68976C28.865 7.41443 29.9156 6.40167 31.2288 6.38916Z" fill="white"/>
<path d="M14.4075 10.3777C14.4075 9.81506 14.3825 9.25241 14.4075 8.68976C14.47 7.38942 15.5081 6.40167 16.7837 6.38916C18.0344 6.38916 19.0849 7.36442 19.185 8.62725C19.2225 9.13988 18.9474 9.52748 18.4971 9.57749C18.0219 9.64001 17.6842 9.36494 17.5967 8.85231C17.4966 8.27716 17.184 7.96457 16.7212 8.00208C16.2585 8.03959 15.9958 8.38968 15.9833 8.96483C15.9833 9.92758 15.9833 10.9028 15.9833 11.8656C15.9833 12.4157 16.2585 12.7408 16.7087 12.7783C17.1714 12.8158 17.4841 12.5283 17.5717 11.9906C17.6717 11.428 17.9969 11.1404 18.4721 11.2154C18.9599 11.2779 19.2225 11.703 19.1475 12.2657C18.9724 13.541 17.8843 14.4788 16.6587 14.4038C15.358 14.3287 14.4075 13.341 14.37 12.0156C14.395 11.4655 14.4075 10.9278 14.4075 10.3777Z" fill="white"/>
<path d="M9.55498 14.4038C9.06722 14.4038 8.59198 14.4163 8.10422 14.4038C7.54143 14.3912 7.20375 14.0912 7.20375 13.6035C7.20375 13.1159 7.52892 12.8033 8.09172 12.8033C9.10474 12.7908 10.1178 12.7908 11.1308 12.8033C11.6561 12.8158 11.9937 13.1284 11.9937 13.591C11.9937 14.0412 11.6686 14.3787 11.1433 14.4038C10.618 14.4163 10.0928 14.4038 9.55498 14.4038Z" fill="white"/>
<path d="M38.4075 14.4038C37.9072 14.4038 37.407 14.4163 36.9067 14.4038C36.3439 14.3912 36.0063 14.0787 35.9937 13.6035C35.9812 13.1284 36.3314 12.8033 36.8817 12.8033C37.8947 12.7908 38.9078 12.7908 39.9208 12.8033C40.4586 12.8158 40.7712 13.1159 40.7837 13.591C40.7837 14.0537 40.4711 14.3787 39.9458 14.4038C39.4455 14.4163 38.9203 14.4038 38.4075 14.4038Z" fill="white"/>
</svg>
