<svg width="48" height="48" viewBox="0 0 48 48" fill="none" xmlns="http://www.w3.org/2000/svg">
<path d="M24.0098 47.9939C18.2713 47.9939 12.5327 47.9939 6.79418 47.9939C4.20434 47.9939 2.14609 46.5488 1.36914 44.2174C1.19194 43.6584 1.09652 43.0994 1.09652 42.5132C1.09652 36.7734 1.09652 31.0336 1.11015 25.2939C1.11015 24.8712 1.02837 24.5168 0.837535 24.1486C0.251412 23.0443 0.00605812 21.8582 0.00605812 20.6039C0.00605812 17.7954 -0.00757265 14.9868 0.00605812 12.1783C0.0196889 10.1332 1.38277 8.75623 3.44101 8.75623C6.8487 8.74259 10.2564 8.74259 13.6641 8.76986C14.073 8.76986 14.2093 8.68806 14.2093 8.25178C14.1957 7.07928 14.0866 5.89316 14.2638 4.73429C14.7137 1.92576 16.8537 0.0715768 19.6889 0.0306758C22.565 -0.0102253 25.4411 -0.0102253 28.3172 0.0306758C31.5068 0.0715768 33.7967 2.45747 33.8104 5.66138C33.8104 6.53394 33.8376 7.39286 33.7967 8.26541C33.7831 8.66079 33.8922 8.76986 34.3011 8.76986C37.7088 8.75623 41.1165 8.75623 44.5242 8.75623C46.2007 8.75623 47.4411 9.64242 47.8637 11.1421C47.9727 11.5102 48 11.8783 48 12.2464C48 15.0004 48 17.7681 48 20.5221C48 21.9264 47.7001 23.2488 46.9913 24.4759C46.9095 24.6122 46.8686 24.7349 46.8686 24.8985C46.8823 30.8428 46.9232 36.7871 46.8823 42.7313C46.8686 45.7171 44.3742 47.9939 41.2391 47.9939C35.4869 48.0076 29.7484 47.9939 24.0098 47.9939ZM44.715 27.0526C44.6059 27.0799 44.5514 27.0799 44.5242 27.1071C43.0657 28.0751 41.4436 28.3887 39.7261 28.3751C36.8091 28.3478 33.9058 28.3751 30.9888 28.3614C30.6344 28.3614 30.5254 28.4296 30.539 28.7977C30.5662 29.6975 30.5526 30.5974 30.5526 31.5108C30.5526 32.2879 30.1301 32.7106 29.3531 32.7106C25.7955 32.7106 22.2378 32.7106 18.6802 32.7106C17.8896 32.7106 17.4807 32.2879 17.4807 31.5108C17.4671 30.6246 17.4534 29.7384 17.4943 28.8523C17.508 28.4433 17.3853 28.3614 16.99 28.3614C13.964 28.3751 10.9243 28.3751 7.89827 28.3751C6.34437 28.3751 4.8995 28.007 3.59095 27.1617C3.50917 27.1071 3.42738 27.0117 3.3047 27.1208C3.3047 32.2743 3.27744 37.4278 3.31834 42.5814C3.33197 44.4492 4.7632 45.7853 6.64424 45.7853C18.2168 45.7989 29.8029 45.7989 41.3754 45.7853C43.2838 45.7853 44.7014 44.4355 44.715 42.5268C44.7286 37.4006 44.715 32.247 44.715 27.0526ZM23.9826 10.924C17.1672 10.924 10.3654 10.924 3.55006 10.924C2.55501 10.924 2.20061 11.2921 2.20061 12.2873C2.20061 15.0413 2.20061 17.809 2.20061 20.563C2.20061 20.9175 2.20061 21.2856 2.26877 21.6264C2.75947 24.3668 4.95403 26.1801 7.83012 26.1801C18.6121 26.1801 29.3804 26.1801 40.1623 26.1801C40.5167 26.1801 40.8847 26.1664 41.2255 26.1119C43.9653 25.6211 45.7509 23.4397 45.7782 20.6039C45.7918 17.8635 45.7782 15.1232 45.7782 12.3828C45.7782 11.2648 45.4374 10.9376 44.3061 10.9376C37.5452 10.924 30.7571 10.924 23.9826 10.924ZM23.9417 8.74259C26.3543 8.74259 28.7806 8.72896 31.1933 8.75623C31.5613 8.75623 31.6567 8.66079 31.6431 8.30632C31.6158 7.39286 31.6431 6.46577 31.6294 5.55231C31.5886 3.61633 30.2391 2.23933 28.3172 2.2257C25.4411 2.21206 22.565 2.21206 19.6889 2.2257C17.767 2.23933 16.4039 3.61633 16.363 5.55231C16.3494 6.45214 16.3766 7.35196 16.3493 8.25178C16.3357 8.63352 16.4311 8.76986 16.8537 8.76986C19.2118 8.72896 21.5836 8.74259 23.9417 8.74259ZM23.9417 30.5428C25.2911 30.5428 26.627 30.5292 27.9764 30.5565C28.2899 30.5565 28.3853 30.4747 28.3717 30.1611C28.3444 29.7248 28.3444 29.2749 28.3717 28.8386C28.399 28.4978 28.3035 28.3614 27.9355 28.3751C27.1858 28.4023 26.4361 28.3887 25.6864 28.3887C23.819 28.3887 21.938 28.4023 20.0706 28.3751C19.7025 28.3751 19.5935 28.4841 19.6207 28.8386C19.648 29.2613 19.648 29.6975 19.6207 30.1202C19.5935 30.4747 19.7025 30.5837 20.0569 30.5701C21.3518 30.5292 22.6468 30.5428 23.9417 30.5428Z" fill="white"/>
</svg>
