<svg width="47" height="48" viewBox="0 0 47 48" fill="none" xmlns="http://www.w3.org/2000/svg">
<path d="M22.2722 28.9499C22.2722 28.4793 22.4089 27.9484 22.2346 27.5546C22.0552 27.1494 21.4092 27.2211 21.0355 26.9519C20.614 26.6474 20.3105 26.7405 19.9768 27.1205C19.5554 27.6024 19.0725 28.0314 18.6084 28.4756C17.9248 29.1298 17.1121 29.1286 16.4523 28.4617C15.6922 27.693 14.9371 26.9192 14.1921 26.1366C13.5825 25.4962 13.5976 24.6733 14.2222 24.0442C14.7628 23.4994 15.3097 22.9596 15.8678 22.4337C16.0459 22.2664 16.076 22.1355 15.9619 21.9153C15.7963 21.597 15.6207 21.2686 15.5467 20.9239C15.4451 20.4533 15.2231 20.3011 14.7465 20.3325C14.093 20.3753 13.4332 20.3375 12.7773 20.33C11.8666 20.3187 11.2734 19.7361 11.2721 18.8365C11.2709 17.7545 11.2872 16.6712 11.2922 15.5891C11.2934 15.3652 11.2997 15.1185 11.4327 14.9575C11.7462 14.5775 11.6007 14.4026 11.2533 14.1384C10.1884 13.3281 9.846 12.192 10.1019 10.9162C10.3653 9.60135 11.1505 8.68538 12.49 8.36705C12.8901 8.27269 13.0055 8.14813 13.0005 7.71657C12.983 6.09475 14.3652 4.62392 15.9669 4.50816C16.2165 4.49055 16.3357 4.46538 16.3695 4.15838C16.6053 2.05845 18.9634 0.694563 20.905 1.53504C21.1897 1.65834 21.2976 1.64199 21.477 1.37902C22.4854 -0.0968431 24.7657 -0.40636 26.1793 0.728535C26.3812 0.890842 26.4866 0.971367 26.7412 0.754957C28.3567 -0.616479 30.9117 -0.0465154 31.8248 1.87475C31.9314 2.09745 32.0004 2.20818 32.2914 2.14904C34.3158 1.73761 36.1458 3.13673 36.2813 5.19891C36.2988 5.47446 36.3804 5.5575 36.63 5.62041C38.2944 6.04065 39.2991 7.45612 39.1599 9.1874C39.1385 9.45791 39.1937 9.64538 39.3756 9.85299C40.4555 11.0898 40.3891 13.079 39.2226 14.263C39.0131 14.4756 38.9993 14.5423 39.2439 14.7272C39.5838 14.9827 39.7356 15.3639 39.7318 15.7992C39.723 16.8976 39.7293 17.996 39.7042 19.0932C39.6841 20.0129 39.0658 20.5993 38.1389 20.6005C37.4503 20.6018 36.7617 20.6018 36.0756 20.5678C35.7181 20.5502 35.5061 20.6206 35.402 21.0107C35.3029 21.3844 35.1223 21.7404 34.9417 22.0852C34.8225 22.3142 34.825 22.4589 35.0232 22.6489C35.5325 23.1358 36.0154 23.6504 36.5058 24.1562C37.2634 24.9375 37.2596 25.7415 36.4958 26.4952C35.7708 27.2098 35.0433 27.922 34.3133 28.6316C33.6335 29.2934 32.8257 29.2884 32.161 28.619C31.6417 28.0969 31.1224 27.5747 30.6182 27.0387C30.4326 26.8412 30.2845 26.7795 30.0199 26.9179C29.6486 27.1117 29.2523 27.269 28.8509 27.3897C28.5549 27.4778 28.4746 27.6263 28.4809 27.922C28.4959 28.6429 28.4771 29.3651 28.4683 30.0873C28.4571 31.0247 27.8738 31.6211 26.9494 31.6211C25.9171 31.6211 24.8849 31.6148 23.8526 31.5972C22.799 31.5795 22.2596 31.0096 22.2621 29.9389C22.2634 29.6092 22.2621 29.2796 22.2621 28.9499C22.2672 28.9499 22.2697 28.9499 22.2722 28.9499ZM24.3819 15.7275C24.3819 15.6872 24.3819 15.647 24.3819 15.6067C27.337 15.6067 30.2933 15.6092 33.2484 15.6042C33.7639 15.603 34.2832 15.6155 34.7924 15.5514C35.4522 15.4671 35.7971 14.8833 35.629 14.2353C35.4773 13.649 35.0696 13.3407 34.4688 13.3583C34.3748 13.3608 34.2819 13.3759 34.1879 13.3797C33.7213 13.3986 33.4115 13.1646 33.35 12.7481C33.2898 12.3367 33.5244 12.0272 33.9847 11.9076C35.1374 11.6094 36.4807 12.2964 36.9699 13.4703C37.079 13.7308 37.1718 13.7521 37.4114 13.6741C38.6569 13.269 39.0808 11.4912 38.0649 10.6582C37.5356 10.2254 37.4377 9.83537 37.6108 9.20753C37.9118 8.11919 37.1292 7.11515 36.0016 7.04343C34.8677 6.97171 34.139 7.53413 33.8605 8.69796C33.7313 9.23521 33.4391 9.47427 32.9913 9.40758C32.5473 9.3409 32.3127 9.01628 32.3917 8.46268C32.5774 7.17177 33.3563 6.31997 34.4939 5.78272C34.7021 5.68458 34.7774 5.59399 34.7837 5.38387C34.8138 4.4528 34.0499 3.60855 33.123 3.56074C31.9452 3.49909 30.9631 4.51823 30.9029 5.8645C30.8753 6.47976 30.6094 6.79808 30.1403 6.78047C29.6649 6.76285 29.3802 6.4244 29.3953 5.83179C29.4203 4.85417 29.8167 4.00866 30.4175 3.26506C30.5831 3.05998 30.6107 2.90522 30.5229 2.68126C30.2532 1.98547 29.7414 1.5904 29.0152 1.51113C28.2463 1.42683 27.6267 1.72377 27.2517 2.412C27.0585 2.76556 26.8654 3.05494 26.4188 3.04362C26.0049 3.03355 25.8494 2.74039 25.6788 2.42459C25.0554 1.27963 23.3321 1.23433 22.6221 2.33148C22.4566 2.58563 22.4252 2.79575 22.5883 3.09898C23.2254 4.29301 23.3208 5.54492 22.814 6.81444C22.6171 7.30891 22.2383 7.46367 21.8018 7.28249C21.3603 7.09879 21.2211 6.74524 21.4318 6.24447C21.6212 5.7953 21.6551 5.3348 21.6074 4.86171C21.5046 3.85012 20.7984 2.95554 20.0057 2.81714C18.6473 2.5806 17.6489 3.64881 17.886 5.08945C18.0252 5.94125 17.689 6.26083 16.8386 6.08343C16.732 6.06078 16.6267 6.02932 16.5188 6.01548C15.42 5.87079 14.4429 6.76411 14.4843 7.87761C14.4981 8.2362 14.5997 8.50671 14.9622 8.70928C15.5994 9.06535 16.0936 9.59883 16.4072 10.2707C16.6605 10.8117 16.5251 11.2747 16.0898 11.4798C15.6797 11.6723 15.3059 11.4673 15.0437 10.9086C14.6486 10.0631 13.881 9.64664 12.9842 9.79008C12.2066 9.91464 11.6308 10.5274 11.5192 11.349C11.4088 12.1618 11.8604 12.8827 12.7183 13.2652C13.2464 13.5005 13.3743 13.776 13.2238 14.3523C13.0294 15.0959 13.4822 15.7011 14.2523 15.725C14.3777 15.7288 14.5019 15.7237 14.6273 15.7237C17.8772 15.7275 21.1295 15.7275 24.3819 15.7275ZM12.7635 16.8058C12.7635 17.4387 12.7798 17.9721 12.7572 18.5044C12.7459 18.7749 12.8337 18.8466 13.0933 18.8466C13.9839 18.8478 14.8757 18.868 15.7662 18.8894C16.3633 18.9032 16.5514 19.0391 16.6981 19.6053C16.8988 20.3828 17.2024 21.1151 17.5824 21.8197C17.8759 22.3632 17.8395 22.5985 17.4093 23.0263C16.7872 23.6441 16.1713 24.2707 15.5279 24.8658C15.2883 25.0885 15.3247 25.208 15.5342 25.4131C16.1162 25.9831 16.6881 26.5644 17.2387 27.1633C17.4545 27.3973 17.5799 27.4288 17.817 27.1809C18.4228 26.5468 19.0587 25.9428 19.6871 25.3301C20.091 24.9363 20.3694 24.8947 20.8586 25.1791C21.551 25.5805 22.2759 25.895 23.0448 26.1177C23.6368 26.2901 23.7761 26.4864 23.7736 27.0916C23.7698 27.9861 23.7711 28.8807 23.7485 29.774C23.7422 30.042 23.8212 30.1226 24.0871 30.1188C24.9476 30.1087 25.808 30.1125 26.6672 30.1314C26.913 30.1364 26.982 30.0634 26.982 29.8181C26.9783 28.9084 27.0033 27.9987 27.0033 27.089C27.0033 26.5946 27.2178 26.2913 27.702 26.1768C28.4972 25.9894 29.2385 25.6685 29.9547 25.2772C30.4727 24.9941 30.7323 25.0407 31.1588 25.4735C31.7746 26.0988 32.3968 26.7166 32.9938 27.3596C33.2008 27.5823 33.3086 27.5546 33.503 27.3545C34.0925 26.7481 34.6934 26.1517 35.313 25.5767C35.5412 25.364 35.4948 25.2558 35.3004 25.0646C34.6758 24.4493 34.0675 23.8165 33.4579 23.1861C33.0327 22.747 32.9988 22.5054 33.2998 21.9745C33.6786 21.3051 33.991 20.6093 34.2017 19.8682C34.3923 19.1976 34.5767 19.0617 35.2703 19.068C36.1308 19.0743 36.9912 19.0781 37.8504 19.107C38.1439 19.1171 38.2242 19.0265 38.2179 18.7384C38.2028 18.064 38.2229 17.3896 38.2279 16.7152C38.2329 15.8722 38.2317 15.8672 37.3926 15.8584C37.1442 15.8558 36.8896 15.759 36.6814 16.0534C36.1546 16.7995 35.392 17.1103 34.4952 17.1153C33.6347 17.1203 32.7743 17.148 31.9151 17.1191C31.5275 17.1065 31.3958 17.2109 31.4272 17.6022C31.4485 17.8639 31.3971 18.1344 31.3494 18.3961C30.8126 21.3491 28.1334 23.517 25.2749 23.3195C22.074 23.0968 19.6695 20.6836 19.5679 17.5657C19.5579 17.2487 19.45 17.2197 19.1892 17.2235C17.7191 17.2424 16.2491 17.2323 14.7791 17.2575C14.0968 17.265 13.4358 17.2386 12.7635 16.8058ZM25.5007 21.8046C27.8274 21.8688 29.9246 19.8028 29.9446 17.445C29.9471 17.1505 29.828 17.1216 29.5872 17.1241C26.8704 17.1518 24.1549 17.177 21.4381 17.1845C21.1082 17.1858 21.0279 17.2738 21.0355 17.6022C21.0894 19.838 23.0975 21.7379 25.5007 21.8046Z" fill="white"/>
<path d="M10.1434 32.4905C11.1393 32.2552 12.065 32.0388 12.9894 31.8186C14.3377 31.4978 15.6585 31.7418 16.9805 32.0098C19.1529 32.4502 21.3316 32.8579 23.5003 33.3158C24.7383 33.5776 25.4795 34.3954 25.748 35.6221C25.8157 35.9316 25.9374 36.0398 26.2396 36.1116C27.3309 36.3695 28.387 36.1078 29.4443 35.9329C33.8042 35.2107 38.1578 34.4432 42.5328 33.8128C43.7269 33.6405 44.8344 33.7071 45.7864 34.5438C47.797 36.3129 47.2238 39.6936 44.6989 40.5744C41.7413 41.6074 38.7411 42.5208 35.7597 43.4821C33.2523 44.2911 30.7275 45.0511 28.239 45.9167C26.4968 46.5219 24.7859 46.5823 22.991 46.1998C19.755 45.509 16.5001 44.9038 13.2503 44.2798C12.4626 44.1288 11.6962 44.2836 10.9575 44.5792C9.9164 44.9982 8.87785 45.426 7.83178 45.8337C7.60224 45.923 7.49814 46.0463 7.44295 46.2904C7.16199 47.5134 6.09083 48.194 4.86916 47.9512C3.85821 47.7512 2.84726 47.5536 1.8363 47.3561C0.539374 47.1019 -0.200654 46.0639 0.0476945 44.7805C0.978373 39.9692 1.91783 35.1591 2.86732 30.3515C3.10689 29.1361 4.20188 28.4454 5.43359 28.6857C6.41444 28.8769 7.39403 29.0719 8.37488 29.2619C9.83738 29.5463 10.5247 30.5642 10.2375 32.0275C10.2099 32.1621 10.1823 32.2967 10.1434 32.4905ZM7.84808 44.2357C8.62198 43.9124 9.29302 43.623 9.97159 43.3512C11.0076 42.9348 12.0625 42.5875 13.2026 42.7775C16.544 43.3336 19.8604 44.0281 23.1779 44.7063C24.5777 44.9919 25.9349 45.1026 27.3284 44.6245C29.6576 43.8256 32.0144 43.1046 34.3586 42.3497C37.5646 41.318 40.7718 40.2913 43.974 39.252C45.1429 38.872 45.7124 37.8667 45.4327 36.7306C45.1655 35.6435 44.1696 35.0534 42.9655 35.2661C42.6883 35.3151 42.4099 35.3516 42.1327 35.3969C38.1566 36.0411 34.1805 36.6916 30.2019 37.327C28.7281 37.5623 27.2569 37.975 25.7505 37.5459C25.4921 37.4729 25.4407 37.6478 25.334 37.8026C24.6467 38.8079 23.6847 39.3074 22.4831 39.1426C21.279 38.9777 20.0874 38.7097 18.8958 38.4606C18.4054 38.3587 18.1959 37.9561 18.3289 37.4981C18.4493 37.0867 18.8143 36.9181 19.3586 37.025C20.3696 37.2251 21.3793 37.4264 22.3902 37.6252C23.1842 37.7812 23.7938 37.5295 24.1174 36.9181C24.6103 35.9857 24.1023 34.9578 23.0237 34.7426C21.0795 34.3539 19.1341 33.9739 17.1862 33.6052C16.085 33.3964 14.9988 33.0818 13.8511 33.2102C12.6332 33.346 11.4843 33.7713 10.2902 33.9965C9.90135 34.0695 9.76212 34.2545 9.69564 34.6181C9.37204 36.3569 9.02711 38.092 8.69096 39.8283C8.41753 41.2576 8.14535 42.6844 7.84808 44.2357ZM4.99835 30.1163C4.44898 30.1238 4.33985 30.4937 4.26209 30.8988C3.99492 32.298 3.72525 33.6958 3.45307 35.0937C2.8159 38.365 2.1737 41.6363 1.54029 44.9076C1.41737 45.5443 1.56914 45.767 2.20632 45.8978C3.15455 46.0916 4.1053 46.269 5.05354 46.4577C5.63804 46.5735 5.90394 46.4036 6.01683 45.8173C6.89859 41.2702 7.78161 36.723 8.65584 32.1747C8.90168 30.8938 8.88914 30.885 7.63109 30.6283C6.74557 30.4472 5.85628 30.2823 4.99835 30.1163Z" fill="white"/>
<path d="M28.3784 8.18954C28.6794 8.18325 28.9717 8.22729 29.2426 8.36318C29.5951 8.54058 29.7468 8.84255 29.659 9.21749C29.5763 9.5723 29.3254 9.77362 28.9428 9.77236C28.8964 9.77236 28.8475 9.78242 28.8024 9.77236C27.9695 9.59621 27.2408 9.80381 26.5585 10.3109C26.1684 10.6003 25.7632 10.5122 25.5199 10.1838C25.2603 9.83401 25.3167 9.42761 25.6805 9.10551C25.7958 9.00234 25.925 8.91049 26.058 8.82997C26.6726 8.45628 27.656 8.18829 28.3784 8.18954Z" fill="white"/>
<path d="M19.8305 10.9036C20.8565 10.9765 21.7658 11.3829 22.5397 12.0926C22.6526 12.1957 22.7467 12.3291 22.822 12.4637C23.0289 12.8362 22.9436 13.1796 22.625 13.4263C22.3202 13.6628 21.959 13.6552 21.6868 13.3696C21.0823 12.7342 20.3748 12.3945 19.4868 12.4071C19.0604 12.4134 18.7694 12.0875 18.7606 11.6975C18.7506 11.2911 19.0052 10.9929 19.4291 10.925C19.552 10.9061 19.6787 10.9111 19.8305 10.9036Z" fill="white"/>
</svg>
